%FSLAX45Y45*%
G04 Gerber Fmt 4.5, Leading zero omitted, Abs format (unit mm)*
G04 Created by KiCad (PCBNEW (6.0.4-0)) date 2022-11-11 17:00:13*
%MOMM*%
%LPD*%
G01*
G04 APERTURE LIST*
%TA.AperFunction,Profile*%
%ADD10C,0.100000*%
%TD*%
%ADD11C,0.200000*%
%ADD12C,0.040000*%
%ADD13C,0.100000*%
G04 APERTURE END LIST*
D10*
X16687800Y-11379200D02*
X16687800Y-5969000D01*
X16560800Y-5842000D02*
X14427200Y-5842000D01*
X14401800Y-11480800D02*
X16586200Y-11480800D01*
X14300200Y-11379200D02*
G75*
G03*
X14401800Y-11480800I101600J0D01*
G01*
X16586200Y-11480800D02*
G75*
G03*
X16687800Y-11379200I0J101600D01*
G01*
X16687800Y-5969000D02*
G75*
G03*
X16560800Y-5842000I-127000J0D01*
G01*
X14427200Y-5842000D02*
G75*
G03*
X14300200Y-5969000I0J-127000D01*
G01*
X14300200Y-5969000D02*
X14300200Y-11379200D01*
D11*
D12*
X14839000Y-9378000D02*
X14879000Y-9418000D01*
X14879000Y-9378000D02*
X14839000Y-9418000D01*
X15474000Y-5949000D02*
X15514000Y-5989000D01*
X15514000Y-5949000D02*
X15474000Y-5989000D01*
X15474000Y-6076000D02*
X15514000Y-6116000D01*
X15514000Y-6076000D02*
X15474000Y-6116000D01*
X15474000Y-6203000D02*
X15514000Y-6243000D01*
X15514000Y-6203000D02*
X15474000Y-6243000D01*
X15474000Y-6330000D02*
X15514000Y-6370000D01*
X15514000Y-6330000D02*
X15474000Y-6370000D01*
X15474000Y-6457000D02*
X15514000Y-6497000D01*
X15514000Y-6457000D02*
X15474000Y-6497000D01*
X15474000Y-6584000D02*
X15514000Y-6624000D01*
X15514000Y-6584000D02*
X15474000Y-6624000D01*
X15474000Y-6711000D02*
X15514000Y-6751000D01*
X15514000Y-6711000D02*
X15474000Y-6751000D01*
X15474000Y-6838000D02*
X15514000Y-6878000D01*
X15514000Y-6838000D02*
X15474000Y-6878000D01*
X15474000Y-6965000D02*
X15514000Y-7005000D01*
X15514000Y-6965000D02*
X15474000Y-7005000D01*
X15474000Y-7092000D02*
X15514000Y-7132000D01*
X15514000Y-7092000D02*
X15474000Y-7132000D01*
X15474000Y-7219000D02*
X15514000Y-7259000D01*
X15514000Y-7219000D02*
X15474000Y-7259000D01*
X15474000Y-7346000D02*
X15514000Y-7386000D01*
X15514000Y-7346000D02*
X15474000Y-7386000D01*
X15474000Y-7473000D02*
X15514000Y-7513000D01*
X15514000Y-7473000D02*
X15474000Y-7513000D01*
X15474000Y-7600000D02*
X15514000Y-7640000D01*
X15514000Y-7600000D02*
X15474000Y-7640000D01*
X15474000Y-7727000D02*
X15514000Y-7767000D01*
X15514000Y-7727000D02*
X15474000Y-7767000D01*
X15474000Y-7854000D02*
X15514000Y-7894000D01*
X15514000Y-7854000D02*
X15474000Y-7894000D01*
X15474000Y-7981000D02*
X15514000Y-8021000D01*
X15514000Y-7981000D02*
X15474000Y-8021000D01*
X15474000Y-8108000D02*
X15514000Y-8148000D01*
X15514000Y-8108000D02*
X15474000Y-8148000D01*
X15474000Y-8362000D02*
X15514000Y-8402000D01*
X15514000Y-8362000D02*
X15474000Y-8402000D01*
X15474000Y-8616000D02*
X15514000Y-8656000D01*
X15514000Y-8616000D02*
X15474000Y-8656000D01*
X15474000Y-8870000D02*
X15514000Y-8910000D01*
X15514000Y-8870000D02*
X15474000Y-8910000D01*
X15474000Y-9124000D02*
X15514000Y-9164000D01*
X15514000Y-9124000D02*
X15474000Y-9164000D01*
X15474000Y-9378000D02*
X15514000Y-9418000D01*
X15514000Y-9378000D02*
X15474000Y-9418000D01*
X15474000Y-9632000D02*
X15514000Y-9672000D01*
X15514000Y-9632000D02*
X15474000Y-9672000D01*
X15474000Y-9759000D02*
X15514000Y-9799000D01*
X15514000Y-9759000D02*
X15474000Y-9799000D01*
X15474000Y-9886000D02*
X15514000Y-9926000D01*
X15514000Y-9886000D02*
X15474000Y-9926000D01*
X15474000Y-10013000D02*
X15514000Y-10053000D01*
X15514000Y-10013000D02*
X15474000Y-10053000D01*
X15474000Y-10140000D02*
X15514000Y-10180000D01*
X15514000Y-10140000D02*
X15474000Y-10180000D01*
X15474000Y-10267000D02*
X15514000Y-10307000D01*
X15514000Y-10267000D02*
X15474000Y-10307000D01*
X15474000Y-10394000D02*
X15514000Y-10434000D01*
X15514000Y-10394000D02*
X15474000Y-10434000D01*
X15474000Y-10521000D02*
X15514000Y-10561000D01*
X15514000Y-10521000D02*
X15474000Y-10561000D01*
X15474000Y-10648000D02*
X15514000Y-10688000D01*
X15514000Y-10648000D02*
X15474000Y-10688000D01*
X15474000Y-10902000D02*
X15514000Y-10942000D01*
X15514000Y-10902000D02*
X15474000Y-10942000D01*
X16185200Y-9454200D02*
X16225200Y-9494200D01*
X16225200Y-9454200D02*
X16185200Y-9494200D01*
D13*
X15290000Y-11252200D02*
G75*
G03*
X15290000Y-11252200I-50000J0D01*
G01*
X15544000Y-11252200D02*
G75*
G03*
X15544000Y-11252200I-50000J0D01*
G01*
X15798000Y-11252200D02*
G75*
G03*
X15798000Y-11252200I-50000J0D01*
G01*
D11*
X14552819Y-11796276D02*
X14552819Y-11596276D01*
X14600438Y-11596276D01*
X14629009Y-11605800D01*
X14648057Y-11624848D01*
X14657581Y-11643895D01*
X14667105Y-11681990D01*
X14667105Y-11710562D01*
X14657581Y-11748657D01*
X14648057Y-11767705D01*
X14629009Y-11786752D01*
X14600438Y-11796276D01*
X14552819Y-11796276D01*
X14752819Y-11796276D02*
X14752819Y-11662943D01*
X14752819Y-11701038D02*
X14762343Y-11681990D01*
X14771867Y-11672467D01*
X14790914Y-11662943D01*
X14809962Y-11662943D01*
X14876628Y-11796276D02*
X14876628Y-11662943D01*
X14876628Y-11596276D02*
X14867105Y-11605800D01*
X14876628Y-11615324D01*
X14886152Y-11605800D01*
X14876628Y-11596276D01*
X14876628Y-11615324D01*
X15000438Y-11796276D02*
X14981390Y-11786752D01*
X14971867Y-11767705D01*
X14971867Y-11596276D01*
X15105200Y-11796276D02*
X15086152Y-11786752D01*
X15076628Y-11767705D01*
X15076628Y-11596276D01*
X15333771Y-11796276D02*
X15333771Y-11596276D01*
X15400438Y-11739133D01*
X15467105Y-11596276D01*
X15467105Y-11796276D01*
X15648057Y-11796276D02*
X15648057Y-11691514D01*
X15638533Y-11672467D01*
X15619486Y-11662943D01*
X15581390Y-11662943D01*
X15562343Y-11672467D01*
X15648057Y-11786752D02*
X15629009Y-11796276D01*
X15581390Y-11796276D01*
X15562343Y-11786752D01*
X15552819Y-11767705D01*
X15552819Y-11748657D01*
X15562343Y-11729609D01*
X15581390Y-11720086D01*
X15629009Y-11720086D01*
X15648057Y-11710562D01*
X15743295Y-11662943D02*
X15743295Y-11862943D01*
X15743295Y-11672467D02*
X15762343Y-11662943D01*
X15800438Y-11662943D01*
X15819486Y-11672467D01*
X15829009Y-11681990D01*
X15838533Y-11701038D01*
X15838533Y-11758181D01*
X15829009Y-11777228D01*
X15819486Y-11786752D01*
X15800438Y-11796276D01*
X15762343Y-11796276D01*
X15743295Y-11786752D01*
X15924248Y-11777228D02*
X15933771Y-11786752D01*
X15924248Y-11796276D01*
X15914724Y-11786752D01*
X15924248Y-11777228D01*
X15924248Y-11796276D01*
X15924248Y-11672467D02*
X15933771Y-11681990D01*
X15924248Y-11691514D01*
X15914724Y-11681990D01*
X15924248Y-11672467D01*
X15924248Y-11691514D01*
D12*
X14255200Y-12105800D02*
X14295200Y-12145800D01*
X14295200Y-12105800D02*
X14255200Y-12145800D01*
D11*
X14590914Y-12016276D02*
X14609962Y-12016276D01*
X14629009Y-12025800D01*
X14638533Y-12035324D01*
X14648057Y-12054371D01*
X14657581Y-12092467D01*
X14657581Y-12140086D01*
X14648057Y-12178181D01*
X14638533Y-12197228D01*
X14629009Y-12206752D01*
X14609962Y-12216276D01*
X14590914Y-12216276D01*
X14571867Y-12206752D01*
X14562343Y-12197228D01*
X14552819Y-12178181D01*
X14543295Y-12140086D01*
X14543295Y-12092467D01*
X14552819Y-12054371D01*
X14562343Y-12035324D01*
X14571867Y-12025800D01*
X14590914Y-12016276D01*
X14743295Y-12197228D02*
X14752819Y-12206752D01*
X14743295Y-12216276D01*
X14733771Y-12206752D01*
X14743295Y-12197228D01*
X14743295Y-12216276D01*
X14924248Y-12082943D02*
X14924248Y-12216276D01*
X14876628Y-12006752D02*
X14829009Y-12149609D01*
X14952819Y-12149609D01*
X15067105Y-12016276D02*
X15086152Y-12016276D01*
X15105200Y-12025800D01*
X15114724Y-12035324D01*
X15124248Y-12054371D01*
X15133771Y-12092467D01*
X15133771Y-12140086D01*
X15124248Y-12178181D01*
X15114724Y-12197228D01*
X15105200Y-12206752D01*
X15086152Y-12216276D01*
X15067105Y-12216276D01*
X15048057Y-12206752D01*
X15038533Y-12197228D01*
X15029009Y-12178181D01*
X15019486Y-12140086D01*
X15019486Y-12092467D01*
X15029009Y-12054371D01*
X15038533Y-12035324D01*
X15048057Y-12025800D01*
X15067105Y-12016276D01*
X15257581Y-12016276D02*
X15276628Y-12016276D01*
X15295676Y-12025800D01*
X15305200Y-12035324D01*
X15314724Y-12054371D01*
X15324248Y-12092467D01*
X15324248Y-12140086D01*
X15314724Y-12178181D01*
X15305200Y-12197228D01*
X15295676Y-12206752D01*
X15276628Y-12216276D01*
X15257581Y-12216276D01*
X15238533Y-12206752D01*
X15229009Y-12197228D01*
X15219486Y-12178181D01*
X15209962Y-12140086D01*
X15209962Y-12092467D01*
X15219486Y-12054371D01*
X15229009Y-12035324D01*
X15238533Y-12025800D01*
X15257581Y-12016276D01*
X15409962Y-12216276D02*
X15409962Y-12082943D01*
X15409962Y-12101990D02*
X15419486Y-12092467D01*
X15438533Y-12082943D01*
X15467105Y-12082943D01*
X15486152Y-12092467D01*
X15495676Y-12111514D01*
X15495676Y-12216276D01*
X15495676Y-12111514D02*
X15505200Y-12092467D01*
X15524248Y-12082943D01*
X15552819Y-12082943D01*
X15571867Y-12092467D01*
X15581390Y-12111514D01*
X15581390Y-12216276D01*
X15676628Y-12216276D02*
X15676628Y-12082943D01*
X15676628Y-12101990D02*
X15686152Y-12092467D01*
X15705200Y-12082943D01*
X15733771Y-12082943D01*
X15752819Y-12092467D01*
X15762343Y-12111514D01*
X15762343Y-12216276D01*
X15762343Y-12111514D02*
X15771867Y-12092467D01*
X15790914Y-12082943D01*
X15819486Y-12082943D01*
X15838533Y-12092467D01*
X15848057Y-12111514D01*
X15848057Y-12216276D01*
X16238533Y-12006752D02*
X16067105Y-12263895D01*
X16495676Y-12016276D02*
X16514724Y-12016276D01*
X16533771Y-12025800D01*
X16543295Y-12035324D01*
X16552819Y-12054371D01*
X16562343Y-12092467D01*
X16562343Y-12140086D01*
X16552819Y-12178181D01*
X16543295Y-12197228D01*
X16533771Y-12206752D01*
X16514724Y-12216276D01*
X16495676Y-12216276D01*
X16476628Y-12206752D01*
X16467105Y-12197228D01*
X16457581Y-12178181D01*
X16448057Y-12140086D01*
X16448057Y-12092467D01*
X16457581Y-12054371D01*
X16467105Y-12035324D01*
X16476628Y-12025800D01*
X16495676Y-12016276D01*
X16648057Y-12197228D02*
X16657581Y-12206752D01*
X16648057Y-12216276D01*
X16638533Y-12206752D01*
X16648057Y-12197228D01*
X16648057Y-12216276D01*
X16781390Y-12016276D02*
X16800438Y-12016276D01*
X16819486Y-12025800D01*
X16829010Y-12035324D01*
X16838533Y-12054371D01*
X16848057Y-12092467D01*
X16848057Y-12140086D01*
X16838533Y-12178181D01*
X16829010Y-12197228D01*
X16819486Y-12206752D01*
X16800438Y-12216276D01*
X16781390Y-12216276D01*
X16762343Y-12206752D01*
X16752819Y-12197228D01*
X16743295Y-12178181D01*
X16733771Y-12140086D01*
X16733771Y-12092467D01*
X16743295Y-12054371D01*
X16752819Y-12035324D01*
X16762343Y-12025800D01*
X16781390Y-12016276D01*
X17038533Y-12216276D02*
X16924248Y-12216276D01*
X16981390Y-12216276D02*
X16981390Y-12016276D01*
X16962343Y-12044848D01*
X16943295Y-12063895D01*
X16924248Y-12073419D01*
X17219486Y-12016276D02*
X17124248Y-12016276D01*
X17114724Y-12111514D01*
X17124248Y-12101990D01*
X17143295Y-12092467D01*
X17190914Y-12092467D01*
X17209962Y-12101990D01*
X17219486Y-12111514D01*
X17229010Y-12130562D01*
X17229010Y-12178181D01*
X17219486Y-12197228D01*
X17209962Y-12206752D01*
X17190914Y-12216276D01*
X17143295Y-12216276D01*
X17124248Y-12206752D01*
X17114724Y-12197228D01*
X17295676Y-12016276D02*
X17429010Y-12016276D01*
X17343295Y-12216276D01*
X17495676Y-12016276D02*
X17495676Y-12054371D01*
X17571867Y-12016276D02*
X17571867Y-12054371D01*
X17867105Y-12292467D02*
X17857581Y-12282943D01*
X17838533Y-12254371D01*
X17829010Y-12235324D01*
X17819486Y-12206752D01*
X17809962Y-12159133D01*
X17809962Y-12121038D01*
X17819486Y-12073419D01*
X17829010Y-12044848D01*
X17838533Y-12025800D01*
X17857581Y-11997228D01*
X17867105Y-11987705D01*
X17924248Y-12016276D02*
X18048057Y-12016276D01*
X17981390Y-12092467D01*
X18009962Y-12092467D01*
X18029010Y-12101990D01*
X18038533Y-12111514D01*
X18048057Y-12130562D01*
X18048057Y-12178181D01*
X18038533Y-12197228D01*
X18029010Y-12206752D01*
X18009962Y-12216276D01*
X17952819Y-12216276D01*
X17933771Y-12206752D01*
X17924248Y-12197228D01*
X18229010Y-12016276D02*
X18133771Y-12016276D01*
X18124248Y-12111514D01*
X18133771Y-12101990D01*
X18152819Y-12092467D01*
X18200438Y-12092467D01*
X18219486Y-12101990D01*
X18229010Y-12111514D01*
X18238533Y-12130562D01*
X18238533Y-12178181D01*
X18229010Y-12197228D01*
X18219486Y-12206752D01*
X18200438Y-12216276D01*
X18152819Y-12216276D01*
X18133771Y-12206752D01*
X18124248Y-12197228D01*
X18476629Y-12216276D02*
X18476629Y-12016276D01*
X18562343Y-12216276D02*
X18562343Y-12111514D01*
X18552819Y-12092467D01*
X18533771Y-12082943D01*
X18505200Y-12082943D01*
X18486152Y-12092467D01*
X18476629Y-12101990D01*
X18686152Y-12216276D02*
X18667105Y-12206752D01*
X18657581Y-12197228D01*
X18648057Y-12178181D01*
X18648057Y-12121038D01*
X18657581Y-12101990D01*
X18667105Y-12092467D01*
X18686152Y-12082943D01*
X18714724Y-12082943D01*
X18733771Y-12092467D01*
X18743295Y-12101990D01*
X18752819Y-12121038D01*
X18752819Y-12178181D01*
X18743295Y-12197228D01*
X18733771Y-12206752D01*
X18714724Y-12216276D01*
X18686152Y-12216276D01*
X18867105Y-12216276D02*
X18848057Y-12206752D01*
X18838533Y-12187705D01*
X18838533Y-12016276D01*
X19019486Y-12206752D02*
X19000438Y-12216276D01*
X18962343Y-12216276D01*
X18943295Y-12206752D01*
X18933771Y-12187705D01*
X18933771Y-12111514D01*
X18943295Y-12092467D01*
X18962343Y-12082943D01*
X19000438Y-12082943D01*
X19019486Y-12092467D01*
X19029010Y-12111514D01*
X19029010Y-12130562D01*
X18933771Y-12149609D01*
X19105200Y-12206752D02*
X19124248Y-12216276D01*
X19162343Y-12216276D01*
X19181390Y-12206752D01*
X19190914Y-12187705D01*
X19190914Y-12178181D01*
X19181390Y-12159133D01*
X19162343Y-12149609D01*
X19133771Y-12149609D01*
X19114724Y-12140086D01*
X19105200Y-12121038D01*
X19105200Y-12111514D01*
X19114724Y-12092467D01*
X19133771Y-12082943D01*
X19162343Y-12082943D01*
X19181390Y-12092467D01*
X19257581Y-12292467D02*
X19267105Y-12282943D01*
X19286152Y-12254371D01*
X19295676Y-12235324D01*
X19305200Y-12206752D01*
X19314724Y-12159133D01*
X19314724Y-12121038D01*
X19305200Y-12073419D01*
X19295676Y-12044848D01*
X19286152Y-12025800D01*
X19267105Y-11997228D01*
X19257581Y-11987705D01*
D13*
X14295200Y-12389800D02*
G75*
G03*
X14295200Y-12389800I-50000J0D01*
G01*
D11*
X14657581Y-12480276D02*
X14543295Y-12480276D01*
X14600438Y-12480276D02*
X14600438Y-12280276D01*
X14581390Y-12308848D01*
X14562343Y-12327895D01*
X14543295Y-12337419D01*
X14743295Y-12461228D02*
X14752819Y-12470752D01*
X14743295Y-12480276D01*
X14733771Y-12470752D01*
X14743295Y-12461228D01*
X14743295Y-12480276D01*
X14876628Y-12280276D02*
X14895676Y-12280276D01*
X14914724Y-12289800D01*
X14924248Y-12299324D01*
X14933771Y-12318371D01*
X14943295Y-12356467D01*
X14943295Y-12404086D01*
X14933771Y-12442181D01*
X14924248Y-12461228D01*
X14914724Y-12470752D01*
X14895676Y-12480276D01*
X14876628Y-12480276D01*
X14857581Y-12470752D01*
X14848057Y-12461228D01*
X14838533Y-12442181D01*
X14829009Y-12404086D01*
X14829009Y-12356467D01*
X14838533Y-12318371D01*
X14848057Y-12299324D01*
X14857581Y-12289800D01*
X14876628Y-12280276D01*
X15067105Y-12280276D02*
X15086152Y-12280276D01*
X15105200Y-12289800D01*
X15114724Y-12299324D01*
X15124248Y-12318371D01*
X15133771Y-12356467D01*
X15133771Y-12404086D01*
X15124248Y-12442181D01*
X15114724Y-12461228D01*
X15105200Y-12470752D01*
X15086152Y-12480276D01*
X15067105Y-12480276D01*
X15048057Y-12470752D01*
X15038533Y-12461228D01*
X15029009Y-12442181D01*
X15019486Y-12404086D01*
X15019486Y-12356467D01*
X15029009Y-12318371D01*
X15038533Y-12299324D01*
X15048057Y-12289800D01*
X15067105Y-12280276D01*
X15257581Y-12280276D02*
X15276628Y-12280276D01*
X15295676Y-12289800D01*
X15305200Y-12299324D01*
X15314724Y-12318371D01*
X15324248Y-12356467D01*
X15324248Y-12404086D01*
X15314724Y-12442181D01*
X15305200Y-12461228D01*
X15295676Y-12470752D01*
X15276628Y-12480276D01*
X15257581Y-12480276D01*
X15238533Y-12470752D01*
X15229009Y-12461228D01*
X15219486Y-12442181D01*
X15209962Y-12404086D01*
X15209962Y-12356467D01*
X15219486Y-12318371D01*
X15229009Y-12299324D01*
X15238533Y-12289800D01*
X15257581Y-12280276D01*
X15409962Y-12480276D02*
X15409962Y-12346943D01*
X15409962Y-12365990D02*
X15419486Y-12356467D01*
X15438533Y-12346943D01*
X15467105Y-12346943D01*
X15486152Y-12356467D01*
X15495676Y-12375514D01*
X15495676Y-12480276D01*
X15495676Y-12375514D02*
X15505200Y-12356467D01*
X15524248Y-12346943D01*
X15552819Y-12346943D01*
X15571867Y-12356467D01*
X15581390Y-12375514D01*
X15581390Y-12480276D01*
X15676628Y-12480276D02*
X15676628Y-12346943D01*
X15676628Y-12365990D02*
X15686152Y-12356467D01*
X15705200Y-12346943D01*
X15733771Y-12346943D01*
X15752819Y-12356467D01*
X15762343Y-12375514D01*
X15762343Y-12480276D01*
X15762343Y-12375514D02*
X15771867Y-12356467D01*
X15790914Y-12346943D01*
X15819486Y-12346943D01*
X15838533Y-12356467D01*
X15848057Y-12375514D01*
X15848057Y-12480276D01*
X16238533Y-12270752D02*
X16067105Y-12527895D01*
X16495676Y-12280276D02*
X16514724Y-12280276D01*
X16533771Y-12289800D01*
X16543295Y-12299324D01*
X16552819Y-12318371D01*
X16562343Y-12356467D01*
X16562343Y-12404086D01*
X16552819Y-12442181D01*
X16543295Y-12461228D01*
X16533771Y-12470752D01*
X16514724Y-12480276D01*
X16495676Y-12480276D01*
X16476628Y-12470752D01*
X16467105Y-12461228D01*
X16457581Y-12442181D01*
X16448057Y-12404086D01*
X16448057Y-12356467D01*
X16457581Y-12318371D01*
X16467105Y-12299324D01*
X16476628Y-12289800D01*
X16495676Y-12280276D01*
X16648057Y-12461228D02*
X16657581Y-12470752D01*
X16648057Y-12480276D01*
X16638533Y-12470752D01*
X16648057Y-12461228D01*
X16648057Y-12480276D01*
X16781390Y-12280276D02*
X16800438Y-12280276D01*
X16819486Y-12289800D01*
X16829010Y-12299324D01*
X16838533Y-12318371D01*
X16848057Y-12356467D01*
X16848057Y-12404086D01*
X16838533Y-12442181D01*
X16829010Y-12461228D01*
X16819486Y-12470752D01*
X16800438Y-12480276D01*
X16781390Y-12480276D01*
X16762343Y-12470752D01*
X16752819Y-12461228D01*
X16743295Y-12442181D01*
X16733771Y-12404086D01*
X16733771Y-12356467D01*
X16743295Y-12318371D01*
X16752819Y-12299324D01*
X16762343Y-12289800D01*
X16781390Y-12280276D01*
X16914724Y-12280276D02*
X17038533Y-12280276D01*
X16971867Y-12356467D01*
X17000438Y-12356467D01*
X17019486Y-12365990D01*
X17029010Y-12375514D01*
X17038533Y-12394562D01*
X17038533Y-12442181D01*
X17029010Y-12461228D01*
X17019486Y-12470752D01*
X17000438Y-12480276D01*
X16943295Y-12480276D01*
X16924248Y-12470752D01*
X16914724Y-12461228D01*
X17133771Y-12480276D02*
X17171867Y-12480276D01*
X17190914Y-12470752D01*
X17200438Y-12461228D01*
X17219486Y-12432657D01*
X17229010Y-12394562D01*
X17229010Y-12318371D01*
X17219486Y-12299324D01*
X17209962Y-12289800D01*
X17190914Y-12280276D01*
X17152819Y-12280276D01*
X17133771Y-12289800D01*
X17124248Y-12299324D01*
X17114724Y-12318371D01*
X17114724Y-12365990D01*
X17124248Y-12385038D01*
X17133771Y-12394562D01*
X17152819Y-12404086D01*
X17190914Y-12404086D01*
X17209962Y-12394562D01*
X17219486Y-12385038D01*
X17229010Y-12365990D01*
X17400438Y-12346943D02*
X17400438Y-12480276D01*
X17352819Y-12270752D02*
X17305200Y-12413609D01*
X17429010Y-12413609D01*
X17495676Y-12280276D02*
X17495676Y-12318371D01*
X17571867Y-12280276D02*
X17571867Y-12318371D01*
X17867105Y-12556467D02*
X17857581Y-12546943D01*
X17838533Y-12518371D01*
X17829010Y-12499324D01*
X17819486Y-12470752D01*
X17809962Y-12423133D01*
X17809962Y-12385038D01*
X17819486Y-12337419D01*
X17829010Y-12308848D01*
X17838533Y-12289800D01*
X17857581Y-12261228D01*
X17867105Y-12251705D01*
X17924248Y-12280276D02*
X18048057Y-12280276D01*
X17981390Y-12356467D01*
X18009962Y-12356467D01*
X18029010Y-12365990D01*
X18038533Y-12375514D01*
X18048057Y-12394562D01*
X18048057Y-12442181D01*
X18038533Y-12461228D01*
X18029010Y-12470752D01*
X18009962Y-12480276D01*
X17952819Y-12480276D01*
X17933771Y-12470752D01*
X17924248Y-12461228D01*
X18286152Y-12480276D02*
X18286152Y-12280276D01*
X18371867Y-12480276D02*
X18371867Y-12375514D01*
X18362343Y-12356467D01*
X18343295Y-12346943D01*
X18314724Y-12346943D01*
X18295676Y-12356467D01*
X18286152Y-12365990D01*
X18495676Y-12480276D02*
X18476629Y-12470752D01*
X18467105Y-12461228D01*
X18457581Y-12442181D01*
X18457581Y-12385038D01*
X18467105Y-12365990D01*
X18476629Y-12356467D01*
X18495676Y-12346943D01*
X18524248Y-12346943D01*
X18543295Y-12356467D01*
X18552819Y-12365990D01*
X18562343Y-12385038D01*
X18562343Y-12442181D01*
X18552819Y-12461228D01*
X18543295Y-12470752D01*
X18524248Y-12480276D01*
X18495676Y-12480276D01*
X18676629Y-12480276D02*
X18657581Y-12470752D01*
X18648057Y-12451705D01*
X18648057Y-12280276D01*
X18829010Y-12470752D02*
X18809962Y-12480276D01*
X18771867Y-12480276D01*
X18752819Y-12470752D01*
X18743295Y-12451705D01*
X18743295Y-12375514D01*
X18752819Y-12356467D01*
X18771867Y-12346943D01*
X18809962Y-12346943D01*
X18829010Y-12356467D01*
X18838533Y-12375514D01*
X18838533Y-12394562D01*
X18743295Y-12413609D01*
X18914724Y-12470752D02*
X18933771Y-12480276D01*
X18971867Y-12480276D01*
X18990914Y-12470752D01*
X19000438Y-12451705D01*
X19000438Y-12442181D01*
X18990914Y-12423133D01*
X18971867Y-12413609D01*
X18943295Y-12413609D01*
X18924248Y-12404086D01*
X18914724Y-12385038D01*
X18914724Y-12375514D01*
X18924248Y-12356467D01*
X18943295Y-12346943D01*
X18971867Y-12346943D01*
X18990914Y-12356467D01*
X19067105Y-12556467D02*
X19076629Y-12546943D01*
X19095676Y-12518371D01*
X19105200Y-12499324D01*
X19114724Y-12470752D01*
X19124248Y-12423133D01*
X19124248Y-12385038D01*
X19114724Y-12337419D01*
X19105200Y-12308848D01*
X19095676Y-12289800D01*
X19076629Y-12261228D01*
X19067105Y-12251705D01*
M02*
