%TF.GenerationSoftware,KiCad,Pcbnew,(6.0.4-0)*%
%TF.CreationDate,2022-11-07T18:10:51-07:00*%
%TF.ProjectId,ide_cable_select_switch,6964655f-6361-4626-9c65-5f73656c6563,rev?*%
%TF.SameCoordinates,Original*%
%TF.FileFunction,Soldermask,Top*%
%TF.FilePolarity,Negative*%
%FSLAX46Y46*%
G04 Gerber Fmt 4.6, Leading zero omitted, Abs format (unit mm)*
G04 Created by KiCad (PCBNEW (6.0.4-0)) date 2022-11-07 18:10:51*
%MOMM*%
%LPD*%
G01*
G04 APERTURE LIST*
%ADD10R,1.700000X1.700000*%
%ADD11O,1.700000X1.700000*%
%ADD12R,3.150000X1.000000*%
G04 APERTURE END LIST*
D10*
%TO.C,SW1*%
X152400000Y-113030000D03*
D11*
X154940000Y-113030000D03*
X157480000Y-113030000D03*
%TD*%
D12*
%TO.C,J2*%
X146065000Y-60452000D03*
X151115000Y-60452000D03*
X146065000Y-62992000D03*
X151115000Y-62992000D03*
X146065000Y-65532000D03*
X151115000Y-65532000D03*
X146065000Y-68072000D03*
X151115000Y-68072000D03*
X146065000Y-70612000D03*
X151115000Y-70612000D03*
X146065000Y-73152000D03*
X151115000Y-73152000D03*
X146065000Y-75692000D03*
X151115000Y-75692000D03*
X146065000Y-78232000D03*
X151115000Y-78232000D03*
X146065000Y-80772000D03*
X151115000Y-80772000D03*
X146065000Y-83312000D03*
X146065000Y-85852000D03*
X151115000Y-85852000D03*
X146065000Y-88392000D03*
X151115000Y-88392000D03*
X146065000Y-90932000D03*
X151115000Y-90932000D03*
X146065000Y-93472000D03*
X151115000Y-93472000D03*
X146065000Y-96012000D03*
X151115000Y-96012000D03*
X146065000Y-98552000D03*
X151115000Y-98552000D03*
X146065000Y-101092000D03*
X151115000Y-101092000D03*
X146065000Y-103632000D03*
X151115000Y-103632000D03*
X146065000Y-106172000D03*
X151115000Y-106172000D03*
X146065000Y-108712000D03*
X151115000Y-108712000D03*
%TD*%
%TO.C,J3*%
X158765000Y-60452000D03*
X163815000Y-60452000D03*
X158765000Y-62992000D03*
X163815000Y-62992000D03*
X158765000Y-65532000D03*
X163815000Y-65532000D03*
X158765000Y-68072000D03*
X163815000Y-68072000D03*
X158765000Y-70612000D03*
X163815000Y-70612000D03*
X158765000Y-73152000D03*
X163815000Y-73152000D03*
X158765000Y-75692000D03*
X163815000Y-75692000D03*
X158765000Y-78232000D03*
X163815000Y-78232000D03*
X158765000Y-80772000D03*
X163815000Y-80772000D03*
X158765000Y-83312000D03*
X158765000Y-85852000D03*
X163815000Y-85852000D03*
X158765000Y-88392000D03*
X163815000Y-88392000D03*
X158765000Y-90932000D03*
X163815000Y-90932000D03*
X158765000Y-93472000D03*
X163815000Y-93472000D03*
X158765000Y-96012000D03*
X163815000Y-96012000D03*
X158765000Y-98552000D03*
X163815000Y-98552000D03*
X158765000Y-101092000D03*
X163815000Y-101092000D03*
X158765000Y-103632000D03*
X163815000Y-103632000D03*
X158765000Y-106172000D03*
X163815000Y-106172000D03*
X158765000Y-108712000D03*
X163815000Y-108712000D03*
%TD*%
M02*
