M48
; DRILL file {KiCad (6.0.4-0)} date Tuesday, June 07, 2022 at 12:02:55 PM
; FORMAT={-:-/ absolute / metric / decimal}
; #@! TF.CreationDate,2022-06-07T12:02:55-06:00
; #@! TF.GenerationSoftware,Kicad,Pcbnew,(6.0.4-0)
; #@! TF.FileFunction,Plated,1,2,PTH
FMAT,2
METRIC
; #@! TA.AperFunction,Plated,PTH,ViaDrill
T1C0.400
%
G90
G05
T1
X148.59Y-84.455
X148.59Y-92.88
X148.59Y-109.22
X149.225Y-111.76
X154.94Y-59.69
X154.94Y-60.96
X154.94Y-62.23
X154.94Y-63.5
X154.94Y-64.77
X154.94Y-66.04
X154.94Y-67.31
X154.94Y-68.58
X154.94Y-69.85
X154.94Y-71.12
X154.94Y-72.39
X154.94Y-73.66
X154.94Y-74.93
X154.94Y-76.2
X154.94Y-77.47
X154.94Y-78.74
X154.94Y-80.01
X154.94Y-81.28
X154.94Y-86.36
X154.94Y-88.9
X154.94Y-91.44
X154.94Y-93.98
X154.94Y-96.52
X154.94Y-97.79
X154.94Y-99.06
X154.94Y-100.33
X154.94Y-101.6
X154.94Y-102.87
X154.94Y-104.14
X154.94Y-105.41
X154.94Y-106.68
X154.94Y-109.22
X161.29Y-109.22
X161.29Y-111.125
X162.56Y-84.455
X162.56Y-94.615
T0
M30
