%TF.GenerationSoftware,KiCad,Pcbnew,(6.0.4-0)*%
%TF.CreationDate,2022-11-07T18:10:50-07:00*%
%TF.ProjectId,ide_cable_select_switch,6964655f-6361-4626-9c65-5f73656c6563,rev?*%
%TF.SameCoordinates,Original*%
%TF.FileFunction,Copper,L2,Bot*%
%TF.FilePolarity,Positive*%
%FSLAX46Y46*%
G04 Gerber Fmt 4.6, Leading zero omitted, Abs format (unit mm)*
G04 Created by KiCad (PCBNEW (6.0.4-0)) date 2022-11-07 18:10:50*
%MOMM*%
%LPD*%
G01*
G04 APERTURE LIST*
%TA.AperFunction,ComponentPad*%
%ADD10R,1.700000X1.700000*%
%TD*%
%TA.AperFunction,ComponentPad*%
%ADD11O,1.700000X1.700000*%
%TD*%
%TA.AperFunction,SMDPad,CuDef*%
%ADD12R,3.150000X1.000000*%
%TD*%
%TA.AperFunction,ViaPad*%
%ADD13C,0.800000*%
%TD*%
%TA.AperFunction,Conductor*%
%ADD14C,0.250000*%
%TD*%
G04 APERTURE END LIST*
D10*
%TO.P,SW1,1,A*%
%TO.N,CSEL_OUT_A*%
X152400000Y-113030000D03*
D11*
%TO.P,SW1,2,B*%
%TO.N,GND*%
X154940000Y-113030000D03*
%TO.P,SW1,3,C*%
%TO.N,CSEL_OUT_B*%
X157480000Y-113030000D03*
%TD*%
D12*
%TO.P,J1,1,Pin_1*%
%TO.N,RESET*%
X157465000Y-60452000D03*
%TO.P,J1,2,Pin_2*%
%TO.N,GND*%
X152415000Y-60452000D03*
%TO.P,J1,3,Pin_3*%
%TO.N,DB7*%
X157465000Y-62992000D03*
%TO.P,J1,4,Pin_4*%
%TO.N,DB8*%
X152415000Y-62992000D03*
%TO.P,J1,5,Pin_5*%
%TO.N,DB6*%
X157465000Y-65532000D03*
%TO.P,J1,6,Pin_6*%
%TO.N,DB9*%
X152415000Y-65532000D03*
%TO.P,J1,7,Pin_7*%
%TO.N,DB5*%
X157465000Y-68072000D03*
%TO.P,J1,8,Pin_8*%
%TO.N,DB10*%
X152415000Y-68072000D03*
%TO.P,J1,9,Pin_9*%
%TO.N,DB4*%
X157465000Y-70612000D03*
%TO.P,J1,10,Pin_10*%
%TO.N,DB11*%
X152415000Y-70612000D03*
%TO.P,J1,11,Pin_11*%
%TO.N,DB3*%
X157465000Y-73152000D03*
%TO.P,J1,12,Pin_12*%
%TO.N,DB12*%
X152415000Y-73152000D03*
%TO.P,J1,13,Pin_13*%
%TO.N,DB2*%
X157465000Y-75692000D03*
%TO.P,J1,14,Pin_14*%
%TO.N,DB13*%
X152415000Y-75692000D03*
%TO.P,J1,15,Pin_15*%
%TO.N,DB1*%
X157465000Y-78232000D03*
%TO.P,J1,16,Pin_16*%
%TO.N,DB14*%
X152415000Y-78232000D03*
%TO.P,J1,17,Pin_17*%
%TO.N,DB0*%
X157465000Y-80772000D03*
%TO.P,J1,18,Pin_18*%
%TO.N,DB15*%
X152415000Y-80772000D03*
%TO.P,J1,19,Pin_19*%
%TO.N,GND*%
X157465000Y-83312000D03*
%TO.P,J1,21,Pin_21*%
%TO.N,DRQ3*%
X157465000Y-85852000D03*
%TO.P,J1,22,Pin_22*%
%TO.N,GND*%
X152415000Y-85852000D03*
%TO.P,J1,23,Pin_23*%
%TO.N,IOW*%
X157465000Y-88392000D03*
%TO.P,J1,24,Pin_24*%
%TO.N,GND*%
X152415000Y-88392000D03*
%TO.P,J1,25,Pin_25*%
%TO.N,IOR*%
X157465000Y-90932000D03*
%TO.P,J1,26,Pin_26*%
%TO.N,GND*%
X152415000Y-90932000D03*
%TO.P,J1,27,Pin_27*%
%TO.N,IO_CH_RDY*%
X157465000Y-93472000D03*
%TO.P,J1,28,Pin_28*%
%TO.N,CSEL_IN*%
X152415000Y-93472000D03*
%TO.P,J1,29,Pin_29*%
%TO.N,DACK3*%
X157465000Y-96012000D03*
%TO.P,J1,30,Pin_30*%
%TO.N,GND*%
X152415000Y-96012000D03*
%TO.P,J1,31,Pin_31*%
%TO.N,IRQ14*%
X157465000Y-98552000D03*
%TO.P,J1,32,Pin_32*%
%TO.N,RESERVED*%
X152415000Y-98552000D03*
%TO.P,J1,33,Pin_33*%
%TO.N,ADDRESS_BIT_1*%
X157465000Y-101092000D03*
%TO.P,J1,34,Pin_34*%
%TO.N,PDIAG*%
X152415000Y-101092000D03*
%TO.P,J1,35,Pin_35*%
%TO.N,ADDRESS_BIT_0*%
X157465000Y-103632000D03*
%TO.P,J1,36,Pin_36*%
%TO.N,ADDRESS_BIT_2*%
X152415000Y-103632000D03*
%TO.P,J1,37,Pin_37*%
%TO.N,CS1FX*%
X157465000Y-106172000D03*
%TO.P,J1,38,Pin_38*%
%TO.N,CS3FX*%
X152415000Y-106172000D03*
%TO.P,J1,39,Pin_39*%
%TO.N,DA_SP*%
X157465000Y-108712000D03*
%TO.P,J1,40,Pin_40*%
%TO.N,GND*%
X152415000Y-108712000D03*
%TD*%
D13*
%TO.N,RESET*%
X154940000Y-60960000D03*
%TO.N,GND*%
X154940000Y-83820000D03*
X154940000Y-59690000D03*
%TO.N,DB7*%
X154940000Y-63500000D03*
%TO.N,DB8*%
X154940000Y-62230000D03*
%TO.N,DB6*%
X154940000Y-66040000D03*
%TO.N,DB9*%
X154940000Y-64770000D03*
%TO.N,DB5*%
X154940000Y-68580000D03*
%TO.N,DB10*%
X154940000Y-67310000D03*
%TO.N,DB4*%
X154940000Y-71120000D03*
%TO.N,DB11*%
X154940000Y-69850000D03*
%TO.N,DB3*%
X154940000Y-73660000D03*
%TO.N,DB12*%
X154940000Y-72390000D03*
%TO.N,DB2*%
X154940000Y-76200000D03*
%TO.N,DB13*%
X154940000Y-74930000D03*
%TO.N,DB1*%
X154940000Y-78740000D03*
%TO.N,DB14*%
X154940000Y-77470000D03*
%TO.N,DB0*%
X154940000Y-81280000D03*
%TO.N,DB15*%
X154940000Y-80010000D03*
%TO.N,DRQ3*%
X154940000Y-86360000D03*
%TO.N,IOW*%
X154940000Y-88900000D03*
%TO.N,IOR*%
X154940000Y-91440000D03*
%TO.N,IO_CH_RDY*%
X154940000Y-93980000D03*
%TO.N,DACK3*%
X154940000Y-96520000D03*
%TO.N,IRQ14*%
X154940000Y-99060000D03*
%TO.N,RESERVED*%
X154940000Y-97790000D03*
%TO.N,ADDRESS_BIT_1*%
X154940000Y-101600000D03*
%TO.N,PDIAG*%
X154940000Y-100330000D03*
%TO.N,ADDRESS_BIT_0*%
X154940000Y-104140000D03*
%TO.N,ADDRESS_BIT_2*%
X154940000Y-102870000D03*
%TO.N,CS1FX*%
X154940000Y-106680000D03*
%TO.N,CS3FX*%
X154940000Y-105410000D03*
%TO.N,DA_SP*%
X154940000Y-109220000D03*
%TO.N,CSEL_OUT_A*%
X148590000Y-93980000D03*
%TO.N,CSEL_OUT_B*%
X162052000Y-94742000D03*
%TD*%
D14*
%TO.N,CSEL_OUT_B*%
X162052000Y-94742000D02*
X161036000Y-95758000D01*
X161036000Y-95758000D02*
X161036000Y-109474000D01*
X161036000Y-109474000D02*
X157480000Y-113030000D01*
%TO.N,RESET*%
X157465000Y-60452000D02*
X155448000Y-60452000D01*
X155448000Y-60452000D02*
X154940000Y-60960000D01*
%TO.N,DB7*%
X157465000Y-62992000D02*
X155448000Y-62992000D01*
X155448000Y-62992000D02*
X154940000Y-63500000D01*
%TO.N,DB8*%
X154178000Y-62992000D02*
X154940000Y-62230000D01*
X152415000Y-62992000D02*
X154178000Y-62992000D01*
%TO.N,DB6*%
X157465000Y-65532000D02*
X155448000Y-65532000D01*
X155448000Y-65532000D02*
X154940000Y-66040000D01*
%TO.N,DB9*%
X152415000Y-65532000D02*
X154178000Y-65532000D01*
X154178000Y-65532000D02*
X154940000Y-64770000D01*
%TO.N,DB5*%
X157465000Y-68072000D02*
X155448000Y-68072000D01*
X155448000Y-68072000D02*
X154940000Y-68580000D01*
%TO.N,DB10*%
X154178000Y-68072000D02*
X154940000Y-67310000D01*
X152415000Y-68072000D02*
X154178000Y-68072000D01*
%TO.N,DB4*%
X157465000Y-70612000D02*
X155448000Y-70612000D01*
X155448000Y-70612000D02*
X154940000Y-71120000D01*
%TO.N,DB11*%
X152415000Y-70612000D02*
X154178000Y-70612000D01*
X154178000Y-70612000D02*
X154940000Y-69850000D01*
%TO.N,DB3*%
X157465000Y-73152000D02*
X155448000Y-73152000D01*
X155448000Y-73152000D02*
X154940000Y-73660000D01*
%TO.N,DB12*%
X154178000Y-73152000D02*
X154940000Y-72390000D01*
X152415000Y-73152000D02*
X154178000Y-73152000D01*
%TO.N,DB2*%
X157465000Y-75692000D02*
X155448000Y-75692000D01*
X155448000Y-75692000D02*
X154940000Y-76200000D01*
%TO.N,DB13*%
X154178000Y-75692000D02*
X154940000Y-74930000D01*
X152415000Y-75692000D02*
X154178000Y-75692000D01*
%TO.N,DB1*%
X157465000Y-78232000D02*
X155448000Y-78232000D01*
X155448000Y-78232000D02*
X154940000Y-78740000D01*
%TO.N,DB14*%
X152415000Y-78232000D02*
X154178000Y-78232000D01*
X154178000Y-78232000D02*
X154940000Y-77470000D01*
%TO.N,DB0*%
X157465000Y-80772000D02*
X155448000Y-80772000D01*
X155448000Y-80772000D02*
X154940000Y-81280000D01*
%TO.N,DB15*%
X152415000Y-80772000D02*
X154178000Y-80772000D01*
X154178000Y-80772000D02*
X154940000Y-80010000D01*
%TO.N,DRQ3*%
X155448000Y-85852000D02*
X154940000Y-86360000D01*
X157465000Y-85852000D02*
X155448000Y-85852000D01*
%TO.N,IOW*%
X157465000Y-88392000D02*
X155448000Y-88392000D01*
X155448000Y-88392000D02*
X154940000Y-88900000D01*
%TO.N,IOR*%
X157465000Y-90932000D02*
X155448000Y-90932000D01*
X155448000Y-90932000D02*
X154940000Y-91440000D01*
%TO.N,IO_CH_RDY*%
X155448000Y-93472000D02*
X154940000Y-93980000D01*
X157465000Y-93472000D02*
X155448000Y-93472000D01*
%TO.N,DACK3*%
X157465000Y-96012000D02*
X155448000Y-96012000D01*
X155448000Y-96012000D02*
X154940000Y-96520000D01*
%TO.N,IRQ14*%
X155448000Y-98552000D02*
X154940000Y-99060000D01*
X157465000Y-98552000D02*
X155448000Y-98552000D01*
%TO.N,RESERVED*%
X154178000Y-98552000D02*
X154940000Y-97790000D01*
X152415000Y-98552000D02*
X154178000Y-98552000D01*
%TO.N,ADDRESS_BIT_1*%
X155448000Y-101092000D02*
X154940000Y-101600000D01*
X157465000Y-101092000D02*
X155448000Y-101092000D01*
%TO.N,PDIAG*%
X154178000Y-101092000D02*
X154940000Y-100330000D01*
X152415000Y-101092000D02*
X154178000Y-101092000D01*
%TO.N,ADDRESS_BIT_0*%
X157465000Y-103632000D02*
X155448000Y-103632000D01*
X155448000Y-103632000D02*
X154940000Y-104140000D01*
%TO.N,ADDRESS_BIT_2*%
X154178000Y-103632000D02*
X154940000Y-102870000D01*
X152415000Y-103632000D02*
X154178000Y-103632000D01*
%TO.N,CS1FX*%
X155448000Y-106172000D02*
X154940000Y-106680000D01*
X157465000Y-106172000D02*
X155448000Y-106172000D01*
%TO.N,CS3FX*%
X154178000Y-106172000D02*
X154940000Y-105410000D01*
X152415000Y-106172000D02*
X154178000Y-106172000D01*
%TO.N,DA_SP*%
X157465000Y-108712000D02*
X155448000Y-108712000D01*
X155448000Y-108712000D02*
X154940000Y-109220000D01*
%TO.N,CSEL_OUT_A*%
X150495000Y-113030000D02*
X152400000Y-113030000D01*
X149225000Y-94615000D02*
X149225000Y-111760000D01*
X149225000Y-111760000D02*
X150495000Y-113030000D01*
X148590000Y-93980000D02*
X149225000Y-94615000D01*
%TD*%
%TA.AperFunction,Conductor*%
%TO.N,GND*%
G36*
X165578018Y-58930000D02*
G01*
X165592852Y-58932310D01*
X165592855Y-58932310D01*
X165601724Y-58933691D01*
X165611659Y-58932392D01*
X165612746Y-58932250D01*
X165641431Y-58931793D01*
X165714741Y-58939013D01*
X165744212Y-58941916D01*
X165768432Y-58946733D01*
X165887546Y-58982866D01*
X165910355Y-58992315D01*
X166020124Y-59050987D01*
X166040655Y-59064705D01*
X166136876Y-59143671D01*
X166154329Y-59161124D01*
X166233295Y-59257345D01*
X166247013Y-59277876D01*
X166305685Y-59387645D01*
X166315134Y-59410454D01*
X166351267Y-59529568D01*
X166356084Y-59553789D01*
X166365541Y-59649809D01*
X166365091Y-59665868D01*
X166365800Y-59665877D01*
X166365690Y-59674853D01*
X166364309Y-59683724D01*
X166365473Y-59692626D01*
X166365473Y-59692628D01*
X166368436Y-59715283D01*
X166369500Y-59731621D01*
X166369500Y-114250633D01*
X166368000Y-114270018D01*
X166364309Y-114293724D01*
X166365473Y-114302626D01*
X166365489Y-114302750D01*
X166365760Y-114333192D01*
X166365310Y-114337185D01*
X166358365Y-114398825D01*
X166352088Y-114426327D01*
X166323930Y-114506798D01*
X166311690Y-114532215D01*
X166266330Y-114604404D01*
X166248738Y-114626462D01*
X166188462Y-114686738D01*
X166166404Y-114704330D01*
X166094215Y-114749690D01*
X166068798Y-114761930D01*
X165988327Y-114790088D01*
X165960824Y-114796365D01*
X165901774Y-114803018D01*
X165886132Y-114802923D01*
X165886121Y-114803800D01*
X165877149Y-114803690D01*
X165868276Y-114802309D01*
X165859374Y-114803473D01*
X165859372Y-114803473D01*
X165848385Y-114804910D01*
X165836714Y-114806436D01*
X165820379Y-114807500D01*
X144067367Y-114807500D01*
X144047982Y-114806000D01*
X144033148Y-114803690D01*
X144033145Y-114803690D01*
X144024276Y-114802309D01*
X144015374Y-114803473D01*
X144015250Y-114803489D01*
X143984808Y-114803760D01*
X143952988Y-114800175D01*
X143919175Y-114796365D01*
X143891673Y-114790088D01*
X143811202Y-114761930D01*
X143785785Y-114749690D01*
X143713596Y-114704330D01*
X143691538Y-114686738D01*
X143631262Y-114626462D01*
X143613670Y-114604404D01*
X143568310Y-114532215D01*
X143556070Y-114506798D01*
X143527912Y-114426327D01*
X143521635Y-114398826D01*
X143519937Y-114383757D01*
X143515170Y-114341450D01*
X143514889Y-114316639D01*
X143515577Y-114312552D01*
X143515730Y-114300000D01*
X143511774Y-114272376D01*
X143510501Y-114254514D01*
X143510501Y-93980000D01*
X147676496Y-93980000D01*
X147677186Y-93986565D01*
X147684826Y-94059251D01*
X147696458Y-94169928D01*
X147755473Y-94351556D01*
X147850960Y-94516944D01*
X147855378Y-94521851D01*
X147855379Y-94521852D01*
X147882589Y-94552072D01*
X147978747Y-94658866D01*
X148059163Y-94717292D01*
X148102207Y-94748565D01*
X148133248Y-94771118D01*
X148139276Y-94773802D01*
X148139278Y-94773803D01*
X148301681Y-94846109D01*
X148307712Y-94848794D01*
X148491698Y-94887902D01*
X148554170Y-94921629D01*
X148588492Y-94983779D01*
X148591500Y-95011148D01*
X148591500Y-111681233D01*
X148590973Y-111692416D01*
X148589298Y-111699909D01*
X148589547Y-111707835D01*
X148589547Y-111707836D01*
X148591438Y-111767986D01*
X148591500Y-111771945D01*
X148591500Y-111799856D01*
X148591997Y-111803790D01*
X148591997Y-111803791D01*
X148592005Y-111803856D01*
X148592938Y-111815693D01*
X148594327Y-111859889D01*
X148599155Y-111876507D01*
X148599978Y-111879339D01*
X148603987Y-111898700D01*
X148606526Y-111918797D01*
X148609445Y-111926168D01*
X148609445Y-111926170D01*
X148622804Y-111959912D01*
X148626649Y-111971142D01*
X148638982Y-112013593D01*
X148643015Y-112020412D01*
X148643017Y-112020417D01*
X148649293Y-112031028D01*
X148657988Y-112048776D01*
X148665448Y-112067617D01*
X148670110Y-112074033D01*
X148670110Y-112074034D01*
X148691436Y-112103387D01*
X148697952Y-112113307D01*
X148710949Y-112135283D01*
X148720458Y-112151362D01*
X148734779Y-112165683D01*
X148747619Y-112180716D01*
X148759528Y-112197107D01*
X148765634Y-112202158D01*
X148793605Y-112225298D01*
X148802384Y-112233288D01*
X149991343Y-113422247D01*
X149998887Y-113430537D01*
X150003000Y-113437018D01*
X150008777Y-113442443D01*
X150052667Y-113483658D01*
X150055509Y-113486413D01*
X150075230Y-113506134D01*
X150078425Y-113508612D01*
X150087447Y-113516318D01*
X150119679Y-113546586D01*
X150126628Y-113550406D01*
X150137432Y-113556346D01*
X150153956Y-113567199D01*
X150169959Y-113579613D01*
X150210543Y-113597176D01*
X150221173Y-113602383D01*
X150259940Y-113623695D01*
X150267617Y-113625666D01*
X150267622Y-113625668D01*
X150279558Y-113628732D01*
X150298266Y-113635137D01*
X150316855Y-113643181D01*
X150324683Y-113644421D01*
X150324690Y-113644423D01*
X150360524Y-113650099D01*
X150372144Y-113652505D01*
X150407289Y-113661528D01*
X150414970Y-113663500D01*
X150435224Y-113663500D01*
X150454934Y-113665051D01*
X150474943Y-113668220D01*
X150482835Y-113667474D01*
X150518961Y-113664059D01*
X150530819Y-113663500D01*
X150915500Y-113663500D01*
X150983621Y-113683502D01*
X151030114Y-113737158D01*
X151041500Y-113789500D01*
X151041500Y-113928134D01*
X151048255Y-113990316D01*
X151099385Y-114126705D01*
X151186739Y-114243261D01*
X151303295Y-114330615D01*
X151439684Y-114381745D01*
X151501866Y-114388500D01*
X153298134Y-114388500D01*
X153360316Y-114381745D01*
X153496705Y-114330615D01*
X153613261Y-114243261D01*
X153700615Y-114126705D01*
X153744798Y-114008848D01*
X153787440Y-113952084D01*
X153854001Y-113927384D01*
X153923350Y-113942592D01*
X153958017Y-113970580D01*
X153983218Y-113999673D01*
X153990580Y-114006883D01*
X154154434Y-114142916D01*
X154162881Y-114148831D01*
X154346756Y-114256279D01*
X154356042Y-114260729D01*
X154555001Y-114336703D01*
X154564899Y-114339579D01*
X154668250Y-114360606D01*
X154682299Y-114359410D01*
X154686000Y-114349065D01*
X154686000Y-114348517D01*
X155194000Y-114348517D01*
X155198064Y-114362359D01*
X155211478Y-114364393D01*
X155218184Y-114363534D01*
X155228262Y-114361392D01*
X155432255Y-114300191D01*
X155441842Y-114296433D01*
X155633095Y-114202739D01*
X155641945Y-114197464D01*
X155815328Y-114073792D01*
X155823200Y-114067139D01*
X155974052Y-113916812D01*
X155980730Y-113908965D01*
X156108022Y-113731819D01*
X156109279Y-113732722D01*
X156156373Y-113689362D01*
X156226311Y-113677145D01*
X156291751Y-113704678D01*
X156319579Y-113736511D01*
X156337310Y-113765445D01*
X156379987Y-113835088D01*
X156526250Y-114003938D01*
X156698126Y-114146632D01*
X156891000Y-114259338D01*
X157099692Y-114339030D01*
X157104760Y-114340061D01*
X157104763Y-114340062D01*
X157199862Y-114359410D01*
X157318597Y-114383567D01*
X157323772Y-114383757D01*
X157323774Y-114383757D01*
X157536673Y-114391564D01*
X157536677Y-114391564D01*
X157541837Y-114391753D01*
X157546957Y-114391097D01*
X157546959Y-114391097D01*
X157758288Y-114364025D01*
X157758289Y-114364025D01*
X157763416Y-114363368D01*
X157768366Y-114361883D01*
X157972429Y-114300661D01*
X157972434Y-114300659D01*
X157977384Y-114299174D01*
X158177994Y-114200896D01*
X158359860Y-114071173D01*
X158518096Y-113913489D01*
X158648453Y-113732077D01*
X158661995Y-113704678D01*
X158745136Y-113536453D01*
X158745137Y-113536451D01*
X158747430Y-113531811D01*
X158812370Y-113318069D01*
X158841529Y-113096590D01*
X158843156Y-113030000D01*
X158824852Y-112807361D01*
X158796821Y-112695765D01*
X158799625Y-112624823D01*
X158829930Y-112575974D01*
X161428247Y-109977657D01*
X161436537Y-109970113D01*
X161443018Y-109966000D01*
X161489659Y-109916332D01*
X161492413Y-109913491D01*
X161512134Y-109893770D01*
X161514612Y-109890575D01*
X161522318Y-109881553D01*
X161547158Y-109855101D01*
X161552586Y-109849321D01*
X161562346Y-109831568D01*
X161573199Y-109815045D01*
X161580753Y-109805306D01*
X161585613Y-109799041D01*
X161603176Y-109758457D01*
X161608383Y-109747827D01*
X161629695Y-109709060D01*
X161631666Y-109701383D01*
X161631668Y-109701378D01*
X161634732Y-109689442D01*
X161641138Y-109670730D01*
X161646034Y-109659417D01*
X161649181Y-109652145D01*
X161656097Y-109608481D01*
X161658504Y-109596860D01*
X161667528Y-109561711D01*
X161667528Y-109561710D01*
X161669500Y-109554030D01*
X161669500Y-109533769D01*
X161671051Y-109514058D01*
X161672979Y-109501885D01*
X161674219Y-109494057D01*
X161670059Y-109450046D01*
X161669500Y-109438189D01*
X161669500Y-96072595D01*
X161689502Y-96004474D01*
X161706405Y-95983499D01*
X162002501Y-95687404D01*
X162064813Y-95653379D01*
X162091596Y-95650500D01*
X162147487Y-95650500D01*
X162153939Y-95649128D01*
X162153944Y-95649128D01*
X162274398Y-95623524D01*
X162334288Y-95610794D01*
X162340319Y-95608109D01*
X162502722Y-95535803D01*
X162502724Y-95535802D01*
X162508752Y-95533118D01*
X162663253Y-95420866D01*
X162687087Y-95394396D01*
X162786621Y-95283852D01*
X162786622Y-95283851D01*
X162791040Y-95278944D01*
X162886527Y-95113556D01*
X162945542Y-94931928D01*
X162946625Y-94921629D01*
X162964814Y-94748565D01*
X162965504Y-94742000D01*
X162957639Y-94667165D01*
X162946232Y-94558635D01*
X162946232Y-94558633D01*
X162945542Y-94552072D01*
X162886527Y-94370444D01*
X162881310Y-94361407D01*
X162794341Y-94210774D01*
X162791040Y-94205056D01*
X162766583Y-94177893D01*
X162667675Y-94068045D01*
X162667674Y-94068044D01*
X162663253Y-94063134D01*
X162548829Y-93980000D01*
X162514094Y-93954763D01*
X162514093Y-93954762D01*
X162508752Y-93950882D01*
X162502724Y-93948198D01*
X162502722Y-93948197D01*
X162340319Y-93875891D01*
X162340318Y-93875891D01*
X162334288Y-93873206D01*
X162240888Y-93853353D01*
X162153944Y-93834872D01*
X162153939Y-93834872D01*
X162147487Y-93833500D01*
X161956513Y-93833500D01*
X161950061Y-93834872D01*
X161950056Y-93834872D01*
X161863112Y-93853353D01*
X161769712Y-93873206D01*
X161763682Y-93875891D01*
X161763681Y-93875891D01*
X161601278Y-93948197D01*
X161601276Y-93948198D01*
X161595248Y-93950882D01*
X161589907Y-93954762D01*
X161589906Y-93954763D01*
X161555171Y-93980000D01*
X161440747Y-94063134D01*
X161436326Y-94068044D01*
X161436325Y-94068045D01*
X161337418Y-94177893D01*
X161312960Y-94205056D01*
X161309659Y-94210774D01*
X161222691Y-94361407D01*
X161217473Y-94370444D01*
X161158458Y-94552072D01*
X161157768Y-94558633D01*
X161157768Y-94558635D01*
X161141093Y-94717292D01*
X161114080Y-94782949D01*
X161104879Y-94793217D01*
X160839862Y-95058233D01*
X160643742Y-95254353D01*
X160635463Y-95261887D01*
X160628982Y-95266000D01*
X160616827Y-95278944D01*
X160582357Y-95315651D01*
X160579602Y-95318493D01*
X160559865Y-95338230D01*
X160557385Y-95341427D01*
X160549682Y-95350447D01*
X160519414Y-95382679D01*
X160515595Y-95389625D01*
X160515593Y-95389628D01*
X160509652Y-95400434D01*
X160498801Y-95416953D01*
X160486386Y-95432959D01*
X160483241Y-95440228D01*
X160483238Y-95440232D01*
X160468826Y-95473537D01*
X160463609Y-95484187D01*
X160442305Y-95522940D01*
X160440334Y-95530615D01*
X160440334Y-95530616D01*
X160437267Y-95542562D01*
X160430863Y-95561266D01*
X160422819Y-95579855D01*
X160421580Y-95587678D01*
X160421577Y-95587688D01*
X160415901Y-95623524D01*
X160413495Y-95635144D01*
X160404472Y-95670289D01*
X160402500Y-95677970D01*
X160402500Y-95698224D01*
X160400949Y-95717934D01*
X160397780Y-95737943D01*
X160398526Y-95745835D01*
X160401941Y-95781961D01*
X160402500Y-95793819D01*
X160402500Y-109159405D01*
X160382498Y-109227526D01*
X160365595Y-109248500D01*
X157937345Y-111676750D01*
X157875033Y-111710776D01*
X157826154Y-111711702D01*
X157613373Y-111673800D01*
X157613367Y-111673799D01*
X157608284Y-111672894D01*
X157534452Y-111671992D01*
X157390081Y-111670228D01*
X157390079Y-111670228D01*
X157384911Y-111670165D01*
X157164091Y-111703955D01*
X156951756Y-111773357D01*
X156753607Y-111876507D01*
X156749474Y-111879610D01*
X156749471Y-111879612D01*
X156579100Y-112007530D01*
X156574965Y-112010635D01*
X156571393Y-112014373D01*
X156426798Y-112165683D01*
X156420629Y-112172138D01*
X156417715Y-112176410D01*
X156417714Y-112176411D01*
X156312898Y-112330066D01*
X156257987Y-112375069D01*
X156187462Y-112383240D01*
X156123715Y-112351986D01*
X156103018Y-112327502D01*
X156022426Y-112202926D01*
X156016136Y-112194757D01*
X155872806Y-112037240D01*
X155865273Y-112030215D01*
X155698139Y-111898222D01*
X155689552Y-111892517D01*
X155503117Y-111789599D01*
X155493705Y-111785369D01*
X155292959Y-111714280D01*
X155282988Y-111711646D01*
X155211837Y-111698972D01*
X155198540Y-111700432D01*
X155194000Y-111714989D01*
X155194000Y-114348517D01*
X154686000Y-114348517D01*
X154686000Y-111713102D01*
X154682082Y-111699758D01*
X154667806Y-111697771D01*
X154629324Y-111703660D01*
X154619288Y-111706051D01*
X154416868Y-111772212D01*
X154407359Y-111776209D01*
X154218463Y-111874542D01*
X154209738Y-111880036D01*
X154039433Y-112007905D01*
X154031726Y-112014748D01*
X153954478Y-112095584D01*
X153892954Y-112131014D01*
X153822042Y-112127557D01*
X153764255Y-112086311D01*
X153745402Y-112052763D01*
X153703767Y-111941703D01*
X153700615Y-111933295D01*
X153613261Y-111816739D01*
X153496705Y-111729385D01*
X153360316Y-111678255D01*
X153298134Y-111671500D01*
X151501866Y-111671500D01*
X151439684Y-111678255D01*
X151303295Y-111729385D01*
X151186739Y-111816739D01*
X151099385Y-111933295D01*
X151048255Y-112069684D01*
X151041500Y-112131866D01*
X151041500Y-112270500D01*
X151021498Y-112338621D01*
X150967842Y-112385114D01*
X150915500Y-112396500D01*
X150809595Y-112396500D01*
X150741474Y-112376498D01*
X150720500Y-112359595D01*
X149895405Y-111534500D01*
X149861379Y-111472188D01*
X149858500Y-111445405D01*
X149858500Y-109256669D01*
X150332001Y-109256669D01*
X150332371Y-109263490D01*
X150337895Y-109314352D01*
X150341521Y-109329604D01*
X150386676Y-109450054D01*
X150395214Y-109465649D01*
X150471715Y-109567724D01*
X150484276Y-109580285D01*
X150586351Y-109656786D01*
X150601946Y-109665324D01*
X150722394Y-109710478D01*
X150737649Y-109714105D01*
X150788514Y-109719631D01*
X150795328Y-109720000D01*
X152142885Y-109720000D01*
X152158124Y-109715525D01*
X152159329Y-109714135D01*
X152161000Y-109706452D01*
X152161000Y-109701884D01*
X152669000Y-109701884D01*
X152673475Y-109717123D01*
X152674865Y-109718328D01*
X152682548Y-109719999D01*
X154034669Y-109719999D01*
X154041488Y-109719630D01*
X154092348Y-109714105D01*
X154162230Y-109726634D01*
X154199532Y-109758230D01*
X154200960Y-109756944D01*
X154324159Y-109893770D01*
X154328747Y-109898866D01*
X154483248Y-110011118D01*
X154489276Y-110013802D01*
X154489278Y-110013803D01*
X154651681Y-110086109D01*
X154657712Y-110088794D01*
X154751113Y-110108647D01*
X154838056Y-110127128D01*
X154838061Y-110127128D01*
X154844513Y-110128500D01*
X155035487Y-110128500D01*
X155041939Y-110127128D01*
X155041944Y-110127128D01*
X155128887Y-110108647D01*
X155222288Y-110088794D01*
X155228319Y-110086109D01*
X155390722Y-110013803D01*
X155390724Y-110013802D01*
X155396752Y-110011118D01*
X155551253Y-109898866D01*
X155555842Y-109893770D01*
X155679040Y-109756944D01*
X155680966Y-109758678D01*
X155728019Y-109722412D01*
X155787313Y-109714574D01*
X155838467Y-109720131D01*
X155838471Y-109720131D01*
X155841866Y-109720500D01*
X159088134Y-109720500D01*
X159150316Y-109713745D01*
X159286705Y-109662615D01*
X159403261Y-109575261D01*
X159490615Y-109458705D01*
X159541745Y-109322316D01*
X159548500Y-109260134D01*
X159548500Y-108163866D01*
X159541745Y-108101684D01*
X159490615Y-107965295D01*
X159403261Y-107848739D01*
X159286705Y-107761385D01*
X159150316Y-107710255D01*
X159088134Y-107703500D01*
X155841866Y-107703500D01*
X155779684Y-107710255D01*
X155643295Y-107761385D01*
X155526739Y-107848739D01*
X155521358Y-107855919D01*
X155444767Y-107958113D01*
X155444765Y-107958116D01*
X155439385Y-107965295D01*
X155436234Y-107973699D01*
X155436234Y-107973700D01*
X155423899Y-108006604D01*
X155381258Y-108063369D01*
X155341064Y-108083374D01*
X155332327Y-108085912D01*
X155328654Y-108086979D01*
X155309306Y-108090986D01*
X155297068Y-108092532D01*
X155297066Y-108092533D01*
X155289203Y-108093526D01*
X155248086Y-108109806D01*
X155236885Y-108113641D01*
X155194406Y-108125982D01*
X155187587Y-108130015D01*
X155187582Y-108130017D01*
X155176971Y-108136293D01*
X155159221Y-108144990D01*
X155140383Y-108152448D01*
X155133967Y-108157109D01*
X155133966Y-108157110D01*
X155104625Y-108178428D01*
X155094701Y-108184947D01*
X155063460Y-108203422D01*
X155063455Y-108203426D01*
X155056637Y-108207458D01*
X155042313Y-108221782D01*
X155027281Y-108234621D01*
X155010893Y-108246528D01*
X155005842Y-108252634D01*
X154994936Y-108265817D01*
X154936102Y-108305554D01*
X154897852Y-108311500D01*
X154844513Y-108311500D01*
X154838061Y-108312872D01*
X154838056Y-108312872D01*
X154664171Y-108349833D01*
X154657712Y-108351206D01*
X154657538Y-108350389D01*
X154591966Y-108352261D01*
X154531169Y-108315598D01*
X154499844Y-108251885D01*
X154497999Y-108230401D01*
X154497999Y-108167331D01*
X154497629Y-108160510D01*
X154492105Y-108109648D01*
X154488479Y-108094396D01*
X154443324Y-107973946D01*
X154434786Y-107958351D01*
X154358285Y-107856276D01*
X154345724Y-107843715D01*
X154243649Y-107767214D01*
X154228054Y-107758676D01*
X154107606Y-107713522D01*
X154092351Y-107709895D01*
X154041486Y-107704369D01*
X154034672Y-107704000D01*
X152687115Y-107704000D01*
X152671876Y-107708475D01*
X152670671Y-107709865D01*
X152669000Y-107717548D01*
X152669000Y-109701884D01*
X152161000Y-109701884D01*
X152161000Y-108984115D01*
X152156525Y-108968876D01*
X152155135Y-108967671D01*
X152147452Y-108966000D01*
X150350116Y-108966000D01*
X150334877Y-108970475D01*
X150333672Y-108971865D01*
X150332001Y-108979548D01*
X150332001Y-109256669D01*
X149858500Y-109256669D01*
X149858500Y-108439885D01*
X150332000Y-108439885D01*
X150336475Y-108455124D01*
X150337865Y-108456329D01*
X150345548Y-108458000D01*
X152142885Y-108458000D01*
X152158124Y-108453525D01*
X152159329Y-108452135D01*
X152161000Y-108444452D01*
X152161000Y-107722116D01*
X152156525Y-107706877D01*
X152155135Y-107705672D01*
X152147452Y-107704001D01*
X150795331Y-107704001D01*
X150788510Y-107704371D01*
X150737648Y-107709895D01*
X150722396Y-107713521D01*
X150601946Y-107758676D01*
X150586351Y-107767214D01*
X150484276Y-107843715D01*
X150471715Y-107856276D01*
X150395214Y-107958351D01*
X150386676Y-107973946D01*
X150341522Y-108094394D01*
X150337895Y-108109649D01*
X150332369Y-108160514D01*
X150332000Y-108167328D01*
X150332000Y-108439885D01*
X149858500Y-108439885D01*
X149858500Y-106720134D01*
X150331500Y-106720134D01*
X150338255Y-106782316D01*
X150389385Y-106918705D01*
X150476739Y-107035261D01*
X150593295Y-107122615D01*
X150729684Y-107173745D01*
X150791866Y-107180500D01*
X154038134Y-107180500D01*
X154041529Y-107180131D01*
X154041533Y-107180131D01*
X154092687Y-107174574D01*
X154162569Y-107187102D01*
X154199433Y-107218319D01*
X154200960Y-107216944D01*
X154328747Y-107358866D01*
X154483248Y-107471118D01*
X154489276Y-107473802D01*
X154489278Y-107473803D01*
X154651681Y-107546109D01*
X154657712Y-107548794D01*
X154751113Y-107568647D01*
X154838056Y-107587128D01*
X154838061Y-107587128D01*
X154844513Y-107588500D01*
X155035487Y-107588500D01*
X155041939Y-107587128D01*
X155041944Y-107587128D01*
X155128888Y-107568647D01*
X155222288Y-107548794D01*
X155228319Y-107546109D01*
X155390722Y-107473803D01*
X155390724Y-107473802D01*
X155396752Y-107471118D01*
X155551253Y-107358866D01*
X155679040Y-107216944D01*
X155680966Y-107218678D01*
X155728019Y-107182412D01*
X155787313Y-107174574D01*
X155838467Y-107180131D01*
X155838471Y-107180131D01*
X155841866Y-107180500D01*
X159088134Y-107180500D01*
X159150316Y-107173745D01*
X159286705Y-107122615D01*
X159403261Y-107035261D01*
X159490615Y-106918705D01*
X159541745Y-106782316D01*
X159548500Y-106720134D01*
X159548500Y-105623866D01*
X159541745Y-105561684D01*
X159490615Y-105425295D01*
X159403261Y-105308739D01*
X159286705Y-105221385D01*
X159150316Y-105170255D01*
X159088134Y-105163500D01*
X155906704Y-105163500D01*
X155838583Y-105143498D01*
X155792090Y-105089842D01*
X155786871Y-105076435D01*
X155776570Y-105044731D01*
X155776569Y-105044729D01*
X155774527Y-105038444D01*
X155679040Y-104873056D01*
X155666662Y-104859309D01*
X155635946Y-104795303D01*
X155644710Y-104724850D01*
X155666661Y-104690693D01*
X155679040Y-104676944D01*
X155679040Y-104676943D01*
X155680967Y-104678678D01*
X155728019Y-104642412D01*
X155787313Y-104634574D01*
X155838467Y-104640131D01*
X155838471Y-104640131D01*
X155841866Y-104640500D01*
X159088134Y-104640500D01*
X159150316Y-104633745D01*
X159286705Y-104582615D01*
X159403261Y-104495261D01*
X159490615Y-104378705D01*
X159541745Y-104242316D01*
X159548500Y-104180134D01*
X159548500Y-103083866D01*
X159541745Y-103021684D01*
X159490615Y-102885295D01*
X159403261Y-102768739D01*
X159286705Y-102681385D01*
X159150316Y-102630255D01*
X159088134Y-102623500D01*
X155906704Y-102623500D01*
X155838583Y-102603498D01*
X155792090Y-102549842D01*
X155786871Y-102536435D01*
X155776570Y-102504731D01*
X155776569Y-102504729D01*
X155774527Y-102498444D01*
X155679040Y-102333056D01*
X155666662Y-102319309D01*
X155635946Y-102255303D01*
X155644710Y-102184850D01*
X155666661Y-102150693D01*
X155679040Y-102136944D01*
X155679040Y-102136943D01*
X155680967Y-102138678D01*
X155728019Y-102102412D01*
X155787313Y-102094574D01*
X155838467Y-102100131D01*
X155838471Y-102100131D01*
X155841866Y-102100500D01*
X159088134Y-102100500D01*
X159150316Y-102093745D01*
X159286705Y-102042615D01*
X159403261Y-101955261D01*
X159490615Y-101838705D01*
X159541745Y-101702316D01*
X159548500Y-101640134D01*
X159548500Y-100543866D01*
X159541745Y-100481684D01*
X159490615Y-100345295D01*
X159403261Y-100228739D01*
X159286705Y-100141385D01*
X159150316Y-100090255D01*
X159088134Y-100083500D01*
X155906704Y-100083500D01*
X155838583Y-100063498D01*
X155792090Y-100009842D01*
X155786871Y-99996435D01*
X155776570Y-99964731D01*
X155776569Y-99964729D01*
X155774527Y-99958444D01*
X155679040Y-99793056D01*
X155666662Y-99779309D01*
X155635946Y-99715303D01*
X155644710Y-99644850D01*
X155666661Y-99610693D01*
X155679040Y-99596944D01*
X155679040Y-99596943D01*
X155680967Y-99598678D01*
X155728019Y-99562412D01*
X155787313Y-99554574D01*
X155838467Y-99560131D01*
X155838471Y-99560131D01*
X155841866Y-99560500D01*
X159088134Y-99560500D01*
X159150316Y-99553745D01*
X159286705Y-99502615D01*
X159403261Y-99415261D01*
X159490615Y-99298705D01*
X159541745Y-99162316D01*
X159548500Y-99100134D01*
X159548500Y-98003866D01*
X159541745Y-97941684D01*
X159490615Y-97805295D01*
X159403261Y-97688739D01*
X159286705Y-97601385D01*
X159150316Y-97550255D01*
X159088134Y-97543500D01*
X155906704Y-97543500D01*
X155838583Y-97523498D01*
X155792090Y-97469842D01*
X155786871Y-97456435D01*
X155776570Y-97424731D01*
X155776569Y-97424729D01*
X155774527Y-97418444D01*
X155679040Y-97253056D01*
X155666662Y-97239309D01*
X155635946Y-97175303D01*
X155644710Y-97104850D01*
X155666661Y-97070693D01*
X155679040Y-97056944D01*
X155679040Y-97056943D01*
X155680967Y-97058678D01*
X155728019Y-97022412D01*
X155787313Y-97014574D01*
X155838467Y-97020131D01*
X155838471Y-97020131D01*
X155841866Y-97020500D01*
X159088134Y-97020500D01*
X159150316Y-97013745D01*
X159286705Y-96962615D01*
X159403261Y-96875261D01*
X159490615Y-96758705D01*
X159541745Y-96622316D01*
X159548500Y-96560134D01*
X159548500Y-95463866D01*
X159541745Y-95401684D01*
X159490615Y-95265295D01*
X159403261Y-95148739D01*
X159286705Y-95061385D01*
X159150316Y-95010255D01*
X159088134Y-95003500D01*
X155841866Y-95003500D01*
X155779684Y-95010255D01*
X155643295Y-95061385D01*
X155526739Y-95148739D01*
X155521358Y-95155919D01*
X155444767Y-95258113D01*
X155444765Y-95258116D01*
X155439385Y-95265295D01*
X155436234Y-95273699D01*
X155436234Y-95273700D01*
X155423899Y-95306604D01*
X155381258Y-95363369D01*
X155341064Y-95383374D01*
X155332327Y-95385912D01*
X155328654Y-95386979D01*
X155309306Y-95390986D01*
X155297068Y-95392532D01*
X155297066Y-95392533D01*
X155289203Y-95393526D01*
X155248086Y-95409806D01*
X155236885Y-95413641D01*
X155194406Y-95425982D01*
X155187587Y-95430015D01*
X155187582Y-95430017D01*
X155176971Y-95436293D01*
X155159221Y-95444990D01*
X155140383Y-95452448D01*
X155133967Y-95457109D01*
X155133966Y-95457110D01*
X155104625Y-95478428D01*
X155094701Y-95484947D01*
X155063460Y-95503422D01*
X155063455Y-95503426D01*
X155056637Y-95507458D01*
X155042313Y-95521782D01*
X155027281Y-95534621D01*
X155010893Y-95546528D01*
X155005842Y-95552634D01*
X154994936Y-95565817D01*
X154936102Y-95605554D01*
X154897852Y-95611500D01*
X154844513Y-95611500D01*
X154838061Y-95612872D01*
X154838056Y-95612872D01*
X154667488Y-95649128D01*
X154657712Y-95651206D01*
X154657538Y-95650389D01*
X154591966Y-95652261D01*
X154531169Y-95615598D01*
X154499844Y-95551885D01*
X154497999Y-95530401D01*
X154497999Y-95467331D01*
X154497629Y-95460510D01*
X154492105Y-95409648D01*
X154488479Y-95394396D01*
X154443324Y-95273946D01*
X154434786Y-95258351D01*
X154358285Y-95156276D01*
X154345724Y-95143715D01*
X154243649Y-95067214D01*
X154228054Y-95058676D01*
X154107606Y-95013522D01*
X154092351Y-95009895D01*
X154041486Y-95004369D01*
X154034672Y-95004000D01*
X152687115Y-95004000D01*
X152671876Y-95008475D01*
X152670671Y-95009865D01*
X152669000Y-95017548D01*
X152669000Y-97001884D01*
X152673475Y-97017123D01*
X152674865Y-97018328D01*
X152682548Y-97019999D01*
X154034669Y-97019999D01*
X154041488Y-97019630D01*
X154092348Y-97014105D01*
X154162230Y-97026634D01*
X154199531Y-97058230D01*
X154200960Y-97056943D01*
X154200960Y-97056944D01*
X154213338Y-97070691D01*
X154244054Y-97134697D01*
X154235290Y-97205150D01*
X154213339Y-97239307D01*
X154200960Y-97253056D01*
X154105473Y-97418444D01*
X154103431Y-97424729D01*
X154103430Y-97424731D01*
X154093129Y-97456435D01*
X154053056Y-97515041D01*
X153987660Y-97542679D01*
X153973296Y-97543500D01*
X150791866Y-97543500D01*
X150729684Y-97550255D01*
X150593295Y-97601385D01*
X150476739Y-97688739D01*
X150389385Y-97805295D01*
X150338255Y-97941684D01*
X150331500Y-98003866D01*
X150331500Y-99100134D01*
X150338255Y-99162316D01*
X150389385Y-99298705D01*
X150476739Y-99415261D01*
X150593295Y-99502615D01*
X150729684Y-99553745D01*
X150791866Y-99560500D01*
X154038134Y-99560500D01*
X154041529Y-99560131D01*
X154041533Y-99560131D01*
X154092687Y-99554574D01*
X154162569Y-99567102D01*
X154199433Y-99598318D01*
X154200960Y-99596943D01*
X154200960Y-99596944D01*
X154213338Y-99610691D01*
X154244054Y-99674697D01*
X154235290Y-99745150D01*
X154213339Y-99779307D01*
X154200960Y-99793056D01*
X154105473Y-99958444D01*
X154103431Y-99964729D01*
X154103430Y-99964731D01*
X154093129Y-99996435D01*
X154053056Y-100055041D01*
X153987660Y-100082679D01*
X153973296Y-100083500D01*
X150791866Y-100083500D01*
X150729684Y-100090255D01*
X150593295Y-100141385D01*
X150476739Y-100228739D01*
X150389385Y-100345295D01*
X150338255Y-100481684D01*
X150331500Y-100543866D01*
X150331500Y-101640134D01*
X150338255Y-101702316D01*
X150389385Y-101838705D01*
X150476739Y-101955261D01*
X150593295Y-102042615D01*
X150729684Y-102093745D01*
X150791866Y-102100500D01*
X154038134Y-102100500D01*
X154041529Y-102100131D01*
X154041533Y-102100131D01*
X154092687Y-102094574D01*
X154162569Y-102107102D01*
X154199433Y-102138318D01*
X154200960Y-102136943D01*
X154200960Y-102136944D01*
X154213338Y-102150691D01*
X154244054Y-102214697D01*
X154235290Y-102285150D01*
X154213339Y-102319307D01*
X154200960Y-102333056D01*
X154105473Y-102498444D01*
X154103431Y-102504729D01*
X154103430Y-102504731D01*
X154093129Y-102536435D01*
X154053056Y-102595041D01*
X153987660Y-102622679D01*
X153973296Y-102623500D01*
X150791866Y-102623500D01*
X150729684Y-102630255D01*
X150593295Y-102681385D01*
X150476739Y-102768739D01*
X150389385Y-102885295D01*
X150338255Y-103021684D01*
X150331500Y-103083866D01*
X150331500Y-104180134D01*
X150338255Y-104242316D01*
X150389385Y-104378705D01*
X150476739Y-104495261D01*
X150593295Y-104582615D01*
X150729684Y-104633745D01*
X150791866Y-104640500D01*
X154038134Y-104640500D01*
X154041529Y-104640131D01*
X154041533Y-104640131D01*
X154092687Y-104634574D01*
X154162569Y-104647102D01*
X154199433Y-104678318D01*
X154200960Y-104676943D01*
X154200960Y-104676944D01*
X154213338Y-104690691D01*
X154244054Y-104754697D01*
X154235290Y-104825150D01*
X154213339Y-104859307D01*
X154200960Y-104873056D01*
X154105473Y-105038444D01*
X154103431Y-105044729D01*
X154103430Y-105044731D01*
X154093129Y-105076435D01*
X154053056Y-105135041D01*
X153987660Y-105162679D01*
X153973296Y-105163500D01*
X150791866Y-105163500D01*
X150729684Y-105170255D01*
X150593295Y-105221385D01*
X150476739Y-105308739D01*
X150389385Y-105425295D01*
X150338255Y-105561684D01*
X150331500Y-105623866D01*
X150331500Y-106720134D01*
X149858500Y-106720134D01*
X149858500Y-96556669D01*
X150332001Y-96556669D01*
X150332371Y-96563490D01*
X150337895Y-96614352D01*
X150341521Y-96629604D01*
X150386676Y-96750054D01*
X150395214Y-96765649D01*
X150471715Y-96867724D01*
X150484276Y-96880285D01*
X150586351Y-96956786D01*
X150601946Y-96965324D01*
X150722394Y-97010478D01*
X150737649Y-97014105D01*
X150788514Y-97019631D01*
X150795328Y-97020000D01*
X152142885Y-97020000D01*
X152158124Y-97015525D01*
X152159329Y-97014135D01*
X152161000Y-97006452D01*
X152161000Y-96284115D01*
X152156525Y-96268876D01*
X152155135Y-96267671D01*
X152147452Y-96266000D01*
X150350116Y-96266000D01*
X150334877Y-96270475D01*
X150333672Y-96271865D01*
X150332001Y-96279548D01*
X150332001Y-96556669D01*
X149858500Y-96556669D01*
X149858500Y-95739885D01*
X150332000Y-95739885D01*
X150336475Y-95755124D01*
X150337865Y-95756329D01*
X150345548Y-95758000D01*
X152142885Y-95758000D01*
X152158124Y-95753525D01*
X152159329Y-95752135D01*
X152161000Y-95744452D01*
X152161000Y-95022116D01*
X152156525Y-95006877D01*
X152155135Y-95005672D01*
X152147452Y-95004001D01*
X150795331Y-95004001D01*
X150788510Y-95004371D01*
X150737648Y-95009895D01*
X150722396Y-95013521D01*
X150601946Y-95058676D01*
X150586351Y-95067214D01*
X150484276Y-95143715D01*
X150471715Y-95156276D01*
X150395214Y-95258351D01*
X150386676Y-95273946D01*
X150341522Y-95394394D01*
X150337895Y-95409649D01*
X150332369Y-95460514D01*
X150332000Y-95467328D01*
X150332000Y-95739885D01*
X149858500Y-95739885D01*
X149858500Y-94693768D01*
X149859027Y-94682585D01*
X149860702Y-94675092D01*
X149858562Y-94607001D01*
X149858500Y-94603044D01*
X149858500Y-94575144D01*
X149857996Y-94571153D01*
X149857063Y-94559311D01*
X149856639Y-94545794D01*
X149855674Y-94515111D01*
X149850021Y-94495652D01*
X149846012Y-94476293D01*
X149845690Y-94473745D01*
X149843474Y-94456203D01*
X149840558Y-94448837D01*
X149840556Y-94448831D01*
X149827200Y-94415098D01*
X149823355Y-94403868D01*
X149813230Y-94369017D01*
X149813230Y-94369016D01*
X149811019Y-94361407D01*
X149800705Y-94343966D01*
X149792008Y-94326213D01*
X149787472Y-94314758D01*
X149784552Y-94307383D01*
X149758563Y-94271612D01*
X149752047Y-94261692D01*
X149733578Y-94230463D01*
X149729542Y-94223638D01*
X149715221Y-94209317D01*
X149702380Y-94194283D01*
X149695132Y-94184307D01*
X149690472Y-94177893D01*
X149656401Y-94149707D01*
X149647622Y-94141718D01*
X149537122Y-94031218D01*
X149531069Y-94020134D01*
X150331500Y-94020134D01*
X150338255Y-94082316D01*
X150389385Y-94218705D01*
X150476739Y-94335261D01*
X150593295Y-94422615D01*
X150729684Y-94473745D01*
X150791866Y-94480500D01*
X154038134Y-94480500D01*
X154041529Y-94480131D01*
X154041533Y-94480131D01*
X154092687Y-94474574D01*
X154162569Y-94487102D01*
X154199433Y-94518319D01*
X154200960Y-94516944D01*
X154328747Y-94658866D01*
X154409163Y-94717292D01*
X154452207Y-94748565D01*
X154483248Y-94771118D01*
X154489276Y-94773802D01*
X154489278Y-94773803D01*
X154651681Y-94846109D01*
X154657712Y-94848794D01*
X154751113Y-94868647D01*
X154838056Y-94887128D01*
X154838061Y-94887128D01*
X154844513Y-94888500D01*
X155035487Y-94888500D01*
X155041939Y-94887128D01*
X155041944Y-94887128D01*
X155128888Y-94868647D01*
X155222288Y-94848794D01*
X155228319Y-94846109D01*
X155390722Y-94773803D01*
X155390724Y-94773802D01*
X155396752Y-94771118D01*
X155427794Y-94748565D01*
X155470837Y-94717292D01*
X155551253Y-94658866D01*
X155679040Y-94516944D01*
X155680966Y-94518678D01*
X155728019Y-94482412D01*
X155787313Y-94474574D01*
X155838467Y-94480131D01*
X155838471Y-94480131D01*
X155841866Y-94480500D01*
X159088134Y-94480500D01*
X159150316Y-94473745D01*
X159286705Y-94422615D01*
X159403261Y-94335261D01*
X159490615Y-94218705D01*
X159541745Y-94082316D01*
X159548500Y-94020134D01*
X159548500Y-92923866D01*
X159541745Y-92861684D01*
X159490615Y-92725295D01*
X159403261Y-92608739D01*
X159286705Y-92521385D01*
X159150316Y-92470255D01*
X159088134Y-92463500D01*
X155841866Y-92463500D01*
X155779684Y-92470255D01*
X155643295Y-92521385D01*
X155526739Y-92608739D01*
X155521358Y-92615919D01*
X155444767Y-92718113D01*
X155444765Y-92718116D01*
X155439385Y-92725295D01*
X155436234Y-92733699D01*
X155436234Y-92733700D01*
X155423899Y-92766604D01*
X155381258Y-92823369D01*
X155341064Y-92843374D01*
X155332327Y-92845912D01*
X155328654Y-92846979D01*
X155309306Y-92850986D01*
X155297068Y-92852532D01*
X155297066Y-92852533D01*
X155289203Y-92853526D01*
X155248086Y-92869806D01*
X155236885Y-92873641D01*
X155194406Y-92885982D01*
X155187587Y-92890015D01*
X155187582Y-92890017D01*
X155176971Y-92896293D01*
X155159221Y-92904990D01*
X155140383Y-92912448D01*
X155133967Y-92917109D01*
X155133966Y-92917110D01*
X155104625Y-92938428D01*
X155094701Y-92944947D01*
X155063460Y-92963422D01*
X155063455Y-92963426D01*
X155056637Y-92967458D01*
X155042313Y-92981782D01*
X155027281Y-92994621D01*
X155010893Y-93006528D01*
X155005842Y-93012634D01*
X154994936Y-93025817D01*
X154936102Y-93065554D01*
X154897852Y-93071500D01*
X154844513Y-93071500D01*
X154838061Y-93072872D01*
X154838056Y-93072872D01*
X154683373Y-93105752D01*
X154657712Y-93111206D01*
X154657507Y-93110242D01*
X154592464Y-93112097D01*
X154531667Y-93075432D01*
X154500345Y-93011719D01*
X154498500Y-92990238D01*
X154498500Y-92923866D01*
X154491745Y-92861684D01*
X154440615Y-92725295D01*
X154353261Y-92608739D01*
X154236705Y-92521385D01*
X154100316Y-92470255D01*
X154038134Y-92463500D01*
X150791866Y-92463500D01*
X150729684Y-92470255D01*
X150593295Y-92521385D01*
X150476739Y-92608739D01*
X150389385Y-92725295D01*
X150338255Y-92861684D01*
X150331500Y-92923866D01*
X150331500Y-94020134D01*
X149531069Y-94020134D01*
X149503096Y-93968906D01*
X149500907Y-93955293D01*
X149500852Y-93954763D01*
X149488251Y-93834872D01*
X149484232Y-93796635D01*
X149484232Y-93796633D01*
X149483542Y-93790072D01*
X149424527Y-93608444D01*
X149329040Y-93443056D01*
X149201253Y-93301134D01*
X149046752Y-93188882D01*
X149040724Y-93186198D01*
X149040722Y-93186197D01*
X148878319Y-93113891D01*
X148878318Y-93113891D01*
X148872288Y-93111206D01*
X148778887Y-93091353D01*
X148691944Y-93072872D01*
X148691939Y-93072872D01*
X148685487Y-93071500D01*
X148494513Y-93071500D01*
X148488061Y-93072872D01*
X148488056Y-93072872D01*
X148401113Y-93091353D01*
X148307712Y-93111206D01*
X148301682Y-93113891D01*
X148301681Y-93113891D01*
X148139278Y-93186197D01*
X148139276Y-93186198D01*
X148133248Y-93188882D01*
X147978747Y-93301134D01*
X147850960Y-93443056D01*
X147755473Y-93608444D01*
X147696458Y-93790072D01*
X147695768Y-93796633D01*
X147695768Y-93796635D01*
X147687720Y-93873206D01*
X147676496Y-93980000D01*
X143510501Y-93980000D01*
X143510501Y-91476669D01*
X150332001Y-91476669D01*
X150332371Y-91483490D01*
X150337895Y-91534352D01*
X150341521Y-91549604D01*
X150386676Y-91670054D01*
X150395214Y-91685649D01*
X150471715Y-91787724D01*
X150484276Y-91800285D01*
X150586351Y-91876786D01*
X150601946Y-91885324D01*
X150722394Y-91930478D01*
X150737649Y-91934105D01*
X150788514Y-91939631D01*
X150795328Y-91940000D01*
X152142885Y-91940000D01*
X152158124Y-91935525D01*
X152159329Y-91934135D01*
X152161000Y-91926452D01*
X152161000Y-91921884D01*
X152669000Y-91921884D01*
X152673475Y-91937123D01*
X152674865Y-91938328D01*
X152682548Y-91939999D01*
X154034669Y-91939999D01*
X154041488Y-91939630D01*
X154092348Y-91934105D01*
X154162230Y-91946634D01*
X154199532Y-91978230D01*
X154200960Y-91976944D01*
X154328747Y-92118866D01*
X154483248Y-92231118D01*
X154489276Y-92233802D01*
X154489278Y-92233803D01*
X154651681Y-92306109D01*
X154657712Y-92308794D01*
X154751112Y-92328647D01*
X154838056Y-92347128D01*
X154838061Y-92347128D01*
X154844513Y-92348500D01*
X155035487Y-92348500D01*
X155041939Y-92347128D01*
X155041944Y-92347128D01*
X155128888Y-92328647D01*
X155222288Y-92308794D01*
X155228319Y-92306109D01*
X155390722Y-92233803D01*
X155390724Y-92233802D01*
X155396752Y-92231118D01*
X155551253Y-92118866D01*
X155679040Y-91976944D01*
X155680966Y-91978678D01*
X155728019Y-91942412D01*
X155787313Y-91934574D01*
X155838467Y-91940131D01*
X155838471Y-91940131D01*
X155841866Y-91940500D01*
X159088134Y-91940500D01*
X159150316Y-91933745D01*
X159286705Y-91882615D01*
X159403261Y-91795261D01*
X159490615Y-91678705D01*
X159541745Y-91542316D01*
X159548500Y-91480134D01*
X159548500Y-90383866D01*
X159541745Y-90321684D01*
X159490615Y-90185295D01*
X159403261Y-90068739D01*
X159286705Y-89981385D01*
X159150316Y-89930255D01*
X159088134Y-89923500D01*
X155841866Y-89923500D01*
X155779684Y-89930255D01*
X155643295Y-89981385D01*
X155526739Y-90068739D01*
X155521358Y-90075919D01*
X155444767Y-90178113D01*
X155444765Y-90178116D01*
X155439385Y-90185295D01*
X155436234Y-90193699D01*
X155436234Y-90193700D01*
X155423899Y-90226604D01*
X155381258Y-90283369D01*
X155341064Y-90303374D01*
X155332327Y-90305912D01*
X155328654Y-90306979D01*
X155309306Y-90310986D01*
X155297068Y-90312532D01*
X155297066Y-90312533D01*
X155289203Y-90313526D01*
X155248086Y-90329806D01*
X155236885Y-90333641D01*
X155194406Y-90345982D01*
X155187587Y-90350015D01*
X155187582Y-90350017D01*
X155176971Y-90356293D01*
X155159221Y-90364990D01*
X155140383Y-90372448D01*
X155133967Y-90377109D01*
X155133966Y-90377110D01*
X155104625Y-90398428D01*
X155094701Y-90404947D01*
X155063460Y-90423422D01*
X155063455Y-90423426D01*
X155056637Y-90427458D01*
X155042313Y-90441782D01*
X155027281Y-90454621D01*
X155010893Y-90466528D01*
X155005842Y-90472634D01*
X154994936Y-90485817D01*
X154936102Y-90525554D01*
X154897852Y-90531500D01*
X154844513Y-90531500D01*
X154838061Y-90532872D01*
X154838056Y-90532872D01*
X154664171Y-90569833D01*
X154657712Y-90571206D01*
X154657538Y-90570389D01*
X154591966Y-90572261D01*
X154531169Y-90535598D01*
X154499844Y-90471885D01*
X154497999Y-90450401D01*
X154497999Y-90387331D01*
X154497629Y-90380510D01*
X154492105Y-90329648D01*
X154488479Y-90314396D01*
X154443324Y-90193946D01*
X154434786Y-90178351D01*
X154358285Y-90076276D01*
X154345724Y-90063715D01*
X154243649Y-89987214D01*
X154228054Y-89978676D01*
X154107606Y-89933522D01*
X154092351Y-89929895D01*
X154041486Y-89924369D01*
X154034672Y-89924000D01*
X152687115Y-89924000D01*
X152671876Y-89928475D01*
X152670671Y-89929865D01*
X152669000Y-89937548D01*
X152669000Y-91921884D01*
X152161000Y-91921884D01*
X152161000Y-91204115D01*
X152156525Y-91188876D01*
X152155135Y-91187671D01*
X152147452Y-91186000D01*
X150350116Y-91186000D01*
X150334877Y-91190475D01*
X150333672Y-91191865D01*
X150332001Y-91199548D01*
X150332001Y-91476669D01*
X143510501Y-91476669D01*
X143510501Y-90659885D01*
X150332000Y-90659885D01*
X150336475Y-90675124D01*
X150337865Y-90676329D01*
X150345548Y-90678000D01*
X152142885Y-90678000D01*
X152158124Y-90673525D01*
X152159329Y-90672135D01*
X152161000Y-90664452D01*
X152161000Y-89942116D01*
X152156525Y-89926877D01*
X152155135Y-89925672D01*
X152147452Y-89924001D01*
X150795331Y-89924001D01*
X150788510Y-89924371D01*
X150737648Y-89929895D01*
X150722396Y-89933521D01*
X150601946Y-89978676D01*
X150586351Y-89987214D01*
X150484276Y-90063715D01*
X150471715Y-90076276D01*
X150395214Y-90178351D01*
X150386676Y-90193946D01*
X150341522Y-90314394D01*
X150337895Y-90329649D01*
X150332369Y-90380514D01*
X150332000Y-90387328D01*
X150332000Y-90659885D01*
X143510501Y-90659885D01*
X143510501Y-88936669D01*
X150332001Y-88936669D01*
X150332371Y-88943490D01*
X150337895Y-88994352D01*
X150341521Y-89009604D01*
X150386676Y-89130054D01*
X150395214Y-89145649D01*
X150471715Y-89247724D01*
X150484276Y-89260285D01*
X150586351Y-89336786D01*
X150601946Y-89345324D01*
X150722394Y-89390478D01*
X150737649Y-89394105D01*
X150788514Y-89399631D01*
X150795328Y-89400000D01*
X152142885Y-89400000D01*
X152158124Y-89395525D01*
X152159329Y-89394135D01*
X152161000Y-89386452D01*
X152161000Y-89381884D01*
X152669000Y-89381884D01*
X152673475Y-89397123D01*
X152674865Y-89398328D01*
X152682548Y-89399999D01*
X154034669Y-89399999D01*
X154041488Y-89399630D01*
X154092348Y-89394105D01*
X154162230Y-89406634D01*
X154199532Y-89438230D01*
X154200960Y-89436944D01*
X154328747Y-89578866D01*
X154483248Y-89691118D01*
X154489276Y-89693802D01*
X154489278Y-89693803D01*
X154651681Y-89766109D01*
X154657712Y-89768794D01*
X154751112Y-89788647D01*
X154838056Y-89807128D01*
X154838061Y-89807128D01*
X154844513Y-89808500D01*
X155035487Y-89808500D01*
X155041939Y-89807128D01*
X155041944Y-89807128D01*
X155128887Y-89788647D01*
X155222288Y-89768794D01*
X155228319Y-89766109D01*
X155390722Y-89693803D01*
X155390724Y-89693802D01*
X155396752Y-89691118D01*
X155551253Y-89578866D01*
X155679040Y-89436944D01*
X155680966Y-89438678D01*
X155728019Y-89402412D01*
X155787313Y-89394574D01*
X155838467Y-89400131D01*
X155838471Y-89400131D01*
X155841866Y-89400500D01*
X159088134Y-89400500D01*
X159150316Y-89393745D01*
X159286705Y-89342615D01*
X159403261Y-89255261D01*
X159490615Y-89138705D01*
X159541745Y-89002316D01*
X159548500Y-88940134D01*
X159548500Y-87843866D01*
X159541745Y-87781684D01*
X159490615Y-87645295D01*
X159403261Y-87528739D01*
X159286705Y-87441385D01*
X159150316Y-87390255D01*
X159088134Y-87383500D01*
X155841866Y-87383500D01*
X155779684Y-87390255D01*
X155643295Y-87441385D01*
X155526739Y-87528739D01*
X155521358Y-87535919D01*
X155444767Y-87638113D01*
X155444765Y-87638116D01*
X155439385Y-87645295D01*
X155436234Y-87653699D01*
X155436234Y-87653700D01*
X155423899Y-87686604D01*
X155381258Y-87743369D01*
X155341064Y-87763374D01*
X155332327Y-87765912D01*
X155328654Y-87766979D01*
X155309306Y-87770986D01*
X155297068Y-87772532D01*
X155297066Y-87772533D01*
X155289203Y-87773526D01*
X155248086Y-87789806D01*
X155236885Y-87793641D01*
X155194406Y-87805982D01*
X155187587Y-87810015D01*
X155187582Y-87810017D01*
X155176971Y-87816293D01*
X155159221Y-87824990D01*
X155140383Y-87832448D01*
X155133967Y-87837109D01*
X155133966Y-87837110D01*
X155104625Y-87858428D01*
X155094701Y-87864947D01*
X155063460Y-87883422D01*
X155063455Y-87883426D01*
X155056637Y-87887458D01*
X155042313Y-87901782D01*
X155027281Y-87914621D01*
X155010893Y-87926528D01*
X155005842Y-87932634D01*
X154994936Y-87945817D01*
X154936102Y-87985554D01*
X154897852Y-87991500D01*
X154844513Y-87991500D01*
X154838061Y-87992872D01*
X154838056Y-87992872D01*
X154664171Y-88029833D01*
X154657712Y-88031206D01*
X154657538Y-88030389D01*
X154591966Y-88032261D01*
X154531169Y-87995598D01*
X154499844Y-87931885D01*
X154497999Y-87910401D01*
X154497999Y-87847331D01*
X154497629Y-87840510D01*
X154492105Y-87789648D01*
X154488479Y-87774396D01*
X154443324Y-87653946D01*
X154434786Y-87638351D01*
X154358285Y-87536276D01*
X154345724Y-87523715D01*
X154243649Y-87447214D01*
X154228054Y-87438676D01*
X154107606Y-87393522D01*
X154092351Y-87389895D01*
X154041486Y-87384369D01*
X154034672Y-87384000D01*
X152687115Y-87384000D01*
X152671876Y-87388475D01*
X152670671Y-87389865D01*
X152669000Y-87397548D01*
X152669000Y-89381884D01*
X152161000Y-89381884D01*
X152161000Y-88664115D01*
X152156525Y-88648876D01*
X152155135Y-88647671D01*
X152147452Y-88646000D01*
X150350116Y-88646000D01*
X150334877Y-88650475D01*
X150333672Y-88651865D01*
X150332001Y-88659548D01*
X150332001Y-88936669D01*
X143510501Y-88936669D01*
X143510501Y-88119885D01*
X150332000Y-88119885D01*
X150336475Y-88135124D01*
X150337865Y-88136329D01*
X150345548Y-88138000D01*
X152142885Y-88138000D01*
X152158124Y-88133525D01*
X152159329Y-88132135D01*
X152161000Y-88124452D01*
X152161000Y-87402116D01*
X152156525Y-87386877D01*
X152155135Y-87385672D01*
X152147452Y-87384001D01*
X150795331Y-87384001D01*
X150788510Y-87384371D01*
X150737648Y-87389895D01*
X150722396Y-87393521D01*
X150601946Y-87438676D01*
X150586351Y-87447214D01*
X150484276Y-87523715D01*
X150471715Y-87536276D01*
X150395214Y-87638351D01*
X150386676Y-87653946D01*
X150341522Y-87774394D01*
X150337895Y-87789649D01*
X150332369Y-87840514D01*
X150332000Y-87847328D01*
X150332000Y-88119885D01*
X143510501Y-88119885D01*
X143510501Y-86396669D01*
X150332001Y-86396669D01*
X150332371Y-86403490D01*
X150337895Y-86454352D01*
X150341521Y-86469604D01*
X150386676Y-86590054D01*
X150395214Y-86605649D01*
X150471715Y-86707724D01*
X150484276Y-86720285D01*
X150586351Y-86796786D01*
X150601946Y-86805324D01*
X150722394Y-86850478D01*
X150737649Y-86854105D01*
X150788514Y-86859631D01*
X150795328Y-86860000D01*
X152142885Y-86860000D01*
X152158124Y-86855525D01*
X152159329Y-86854135D01*
X152161000Y-86846452D01*
X152161000Y-86841884D01*
X152669000Y-86841884D01*
X152673475Y-86857123D01*
X152674865Y-86858328D01*
X152682548Y-86859999D01*
X154034669Y-86859999D01*
X154041488Y-86859630D01*
X154092348Y-86854105D01*
X154162230Y-86866634D01*
X154199532Y-86898230D01*
X154200960Y-86896944D01*
X154328747Y-87038866D01*
X154483248Y-87151118D01*
X154489276Y-87153802D01*
X154489278Y-87153803D01*
X154651681Y-87226109D01*
X154657712Y-87228794D01*
X154751113Y-87248647D01*
X154838056Y-87267128D01*
X154838061Y-87267128D01*
X154844513Y-87268500D01*
X155035487Y-87268500D01*
X155041939Y-87267128D01*
X155041944Y-87267128D01*
X155128888Y-87248647D01*
X155222288Y-87228794D01*
X155228319Y-87226109D01*
X155390722Y-87153803D01*
X155390724Y-87153802D01*
X155396752Y-87151118D01*
X155551253Y-87038866D01*
X155679040Y-86896944D01*
X155680966Y-86898678D01*
X155728019Y-86862412D01*
X155787313Y-86854574D01*
X155838467Y-86860131D01*
X155838471Y-86860131D01*
X155841866Y-86860500D01*
X159088134Y-86860500D01*
X159150316Y-86853745D01*
X159286705Y-86802615D01*
X159403261Y-86715261D01*
X159490615Y-86598705D01*
X159541745Y-86462316D01*
X159548500Y-86400134D01*
X159548500Y-85303866D01*
X159541745Y-85241684D01*
X159490615Y-85105295D01*
X159403261Y-84988739D01*
X159286705Y-84901385D01*
X159150316Y-84850255D01*
X159088134Y-84843500D01*
X155841866Y-84843500D01*
X155779684Y-84850255D01*
X155643295Y-84901385D01*
X155526739Y-84988739D01*
X155521358Y-84995919D01*
X155444767Y-85098113D01*
X155444765Y-85098116D01*
X155439385Y-85105295D01*
X155436234Y-85113699D01*
X155436234Y-85113700D01*
X155423899Y-85146604D01*
X155381258Y-85203369D01*
X155341064Y-85223374D01*
X155332327Y-85225912D01*
X155328654Y-85226979D01*
X155309306Y-85230986D01*
X155297068Y-85232532D01*
X155297066Y-85232533D01*
X155289203Y-85233526D01*
X155248086Y-85249806D01*
X155236885Y-85253641D01*
X155194406Y-85265982D01*
X155187587Y-85270015D01*
X155187582Y-85270017D01*
X155176971Y-85276293D01*
X155159221Y-85284990D01*
X155140383Y-85292448D01*
X155133967Y-85297109D01*
X155133966Y-85297110D01*
X155104625Y-85318428D01*
X155094701Y-85324947D01*
X155063460Y-85343422D01*
X155063455Y-85343426D01*
X155056637Y-85347458D01*
X155042313Y-85361782D01*
X155027281Y-85374621D01*
X155010893Y-85386528D01*
X155005842Y-85392634D01*
X154994936Y-85405817D01*
X154936102Y-85445554D01*
X154897852Y-85451500D01*
X154844513Y-85451500D01*
X154838061Y-85452872D01*
X154838056Y-85452872D01*
X154664171Y-85489833D01*
X154657712Y-85491206D01*
X154657538Y-85490389D01*
X154591966Y-85492261D01*
X154531169Y-85455598D01*
X154499844Y-85391885D01*
X154497999Y-85370401D01*
X154497999Y-85307331D01*
X154497629Y-85300510D01*
X154492105Y-85249648D01*
X154488479Y-85234396D01*
X154443324Y-85113946D01*
X154434786Y-85098351D01*
X154358285Y-84996276D01*
X154345724Y-84983715D01*
X154243649Y-84907214D01*
X154228054Y-84898676D01*
X154107606Y-84853522D01*
X154092351Y-84849895D01*
X154041486Y-84844369D01*
X154034672Y-84844000D01*
X152687115Y-84844000D01*
X152671876Y-84848475D01*
X152670671Y-84849865D01*
X152669000Y-84857548D01*
X152669000Y-86841884D01*
X152161000Y-86841884D01*
X152161000Y-86124115D01*
X152156525Y-86108876D01*
X152155135Y-86107671D01*
X152147452Y-86106000D01*
X150350116Y-86106000D01*
X150334877Y-86110475D01*
X150333672Y-86111865D01*
X150332001Y-86119548D01*
X150332001Y-86396669D01*
X143510501Y-86396669D01*
X143510501Y-85579885D01*
X150332000Y-85579885D01*
X150336475Y-85595124D01*
X150337865Y-85596329D01*
X150345548Y-85598000D01*
X152142885Y-85598000D01*
X152158124Y-85593525D01*
X152159329Y-85592135D01*
X152161000Y-85584452D01*
X152161000Y-84862116D01*
X152156525Y-84846877D01*
X152155135Y-84845672D01*
X152147452Y-84844001D01*
X150795331Y-84844001D01*
X150788510Y-84844371D01*
X150737648Y-84849895D01*
X150722396Y-84853521D01*
X150601946Y-84898676D01*
X150586351Y-84907214D01*
X150484276Y-84983715D01*
X150471715Y-84996276D01*
X150395214Y-85098351D01*
X150386676Y-85113946D01*
X150341522Y-85234394D01*
X150337895Y-85249649D01*
X150332369Y-85300514D01*
X150332000Y-85307328D01*
X150332000Y-85579885D01*
X143510501Y-85579885D01*
X143510501Y-83856669D01*
X155382001Y-83856669D01*
X155382371Y-83863490D01*
X155387895Y-83914352D01*
X155391521Y-83929604D01*
X155436676Y-84050054D01*
X155445214Y-84065649D01*
X155521715Y-84167724D01*
X155534276Y-84180285D01*
X155636351Y-84256786D01*
X155651946Y-84265324D01*
X155772394Y-84310478D01*
X155787649Y-84314105D01*
X155838514Y-84319631D01*
X155845328Y-84320000D01*
X157192885Y-84320000D01*
X157208124Y-84315525D01*
X157209329Y-84314135D01*
X157211000Y-84306452D01*
X157211000Y-84301884D01*
X157719000Y-84301884D01*
X157723475Y-84317123D01*
X157724865Y-84318328D01*
X157732548Y-84319999D01*
X159084669Y-84319999D01*
X159091490Y-84319629D01*
X159142352Y-84314105D01*
X159157604Y-84310479D01*
X159278054Y-84265324D01*
X159293649Y-84256786D01*
X159395724Y-84180285D01*
X159408285Y-84167724D01*
X159484786Y-84065649D01*
X159493324Y-84050054D01*
X159538478Y-83929606D01*
X159542105Y-83914351D01*
X159547631Y-83863486D01*
X159548000Y-83856672D01*
X159548000Y-83584115D01*
X159543525Y-83568876D01*
X159542135Y-83567671D01*
X159534452Y-83566000D01*
X157737115Y-83566000D01*
X157721876Y-83570475D01*
X157720671Y-83571865D01*
X157719000Y-83579548D01*
X157719000Y-84301884D01*
X157211000Y-84301884D01*
X157211000Y-83584115D01*
X157206525Y-83568876D01*
X157205135Y-83567671D01*
X157197452Y-83566000D01*
X155400116Y-83566000D01*
X155384877Y-83570475D01*
X155383672Y-83571865D01*
X155382001Y-83579548D01*
X155382001Y-83856669D01*
X143510501Y-83856669D01*
X143510501Y-83039885D01*
X155382000Y-83039885D01*
X155386475Y-83055124D01*
X155387865Y-83056329D01*
X155395548Y-83058000D01*
X157192885Y-83058000D01*
X157208124Y-83053525D01*
X157209329Y-83052135D01*
X157211000Y-83044452D01*
X157211000Y-83039885D01*
X157719000Y-83039885D01*
X157723475Y-83055124D01*
X157724865Y-83056329D01*
X157732548Y-83058000D01*
X159529884Y-83058000D01*
X159545123Y-83053525D01*
X159546328Y-83052135D01*
X159547999Y-83044452D01*
X159547999Y-82767331D01*
X159547629Y-82760510D01*
X159542105Y-82709648D01*
X159538479Y-82694396D01*
X159493324Y-82573946D01*
X159484786Y-82558351D01*
X159408285Y-82456276D01*
X159395724Y-82443715D01*
X159293649Y-82367214D01*
X159278054Y-82358676D01*
X159157606Y-82313522D01*
X159142351Y-82309895D01*
X159091486Y-82304369D01*
X159084672Y-82304000D01*
X157737115Y-82304000D01*
X157721876Y-82308475D01*
X157720671Y-82309865D01*
X157719000Y-82317548D01*
X157719000Y-83039885D01*
X157211000Y-83039885D01*
X157211000Y-82322116D01*
X157206525Y-82306877D01*
X157205135Y-82305672D01*
X157197452Y-82304001D01*
X155845331Y-82304001D01*
X155838510Y-82304371D01*
X155787648Y-82309895D01*
X155772396Y-82313521D01*
X155651946Y-82358676D01*
X155636351Y-82367214D01*
X155534276Y-82443715D01*
X155521715Y-82456276D01*
X155445214Y-82558351D01*
X155436676Y-82573946D01*
X155391522Y-82694394D01*
X155387895Y-82709649D01*
X155382369Y-82760514D01*
X155382000Y-82767328D01*
X155382000Y-83039885D01*
X143510501Y-83039885D01*
X143510501Y-81320134D01*
X150331500Y-81320134D01*
X150338255Y-81382316D01*
X150389385Y-81518705D01*
X150476739Y-81635261D01*
X150593295Y-81722615D01*
X150729684Y-81773745D01*
X150791866Y-81780500D01*
X154038134Y-81780500D01*
X154041529Y-81780131D01*
X154041533Y-81780131D01*
X154092687Y-81774574D01*
X154162569Y-81787102D01*
X154199433Y-81818319D01*
X154200960Y-81816944D01*
X154328747Y-81958866D01*
X154483248Y-82071118D01*
X154489276Y-82073802D01*
X154489278Y-82073803D01*
X154651681Y-82146109D01*
X154657712Y-82148794D01*
X154751112Y-82168647D01*
X154838056Y-82187128D01*
X154838061Y-82187128D01*
X154844513Y-82188500D01*
X155035487Y-82188500D01*
X155041939Y-82187128D01*
X155041944Y-82187128D01*
X155128887Y-82168647D01*
X155222288Y-82148794D01*
X155228319Y-82146109D01*
X155390722Y-82073803D01*
X155390724Y-82073802D01*
X155396752Y-82071118D01*
X155551253Y-81958866D01*
X155679040Y-81816944D01*
X155680966Y-81818678D01*
X155728019Y-81782412D01*
X155787313Y-81774574D01*
X155838467Y-81780131D01*
X155838471Y-81780131D01*
X155841866Y-81780500D01*
X159088134Y-81780500D01*
X159150316Y-81773745D01*
X159286705Y-81722615D01*
X159403261Y-81635261D01*
X159490615Y-81518705D01*
X159541745Y-81382316D01*
X159548500Y-81320134D01*
X159548500Y-80223866D01*
X159541745Y-80161684D01*
X159490615Y-80025295D01*
X159403261Y-79908739D01*
X159286705Y-79821385D01*
X159150316Y-79770255D01*
X159088134Y-79763500D01*
X155906704Y-79763500D01*
X155838583Y-79743498D01*
X155792090Y-79689842D01*
X155786871Y-79676435D01*
X155776570Y-79644731D01*
X155776569Y-79644729D01*
X155774527Y-79638444D01*
X155679040Y-79473056D01*
X155666662Y-79459309D01*
X155635946Y-79395303D01*
X155644710Y-79324850D01*
X155666661Y-79290693D01*
X155679040Y-79276944D01*
X155679040Y-79276943D01*
X155680967Y-79278678D01*
X155728019Y-79242412D01*
X155787313Y-79234574D01*
X155838467Y-79240131D01*
X155838471Y-79240131D01*
X155841866Y-79240500D01*
X159088134Y-79240500D01*
X159150316Y-79233745D01*
X159286705Y-79182615D01*
X159403261Y-79095261D01*
X159490615Y-78978705D01*
X159541745Y-78842316D01*
X159548500Y-78780134D01*
X159548500Y-77683866D01*
X159541745Y-77621684D01*
X159490615Y-77485295D01*
X159403261Y-77368739D01*
X159286705Y-77281385D01*
X159150316Y-77230255D01*
X159088134Y-77223500D01*
X155906704Y-77223500D01*
X155838583Y-77203498D01*
X155792090Y-77149842D01*
X155786871Y-77136435D01*
X155776570Y-77104731D01*
X155776569Y-77104729D01*
X155774527Y-77098444D01*
X155679040Y-76933056D01*
X155666662Y-76919309D01*
X155635946Y-76855303D01*
X155644710Y-76784850D01*
X155666661Y-76750693D01*
X155679040Y-76736944D01*
X155679040Y-76736943D01*
X155680967Y-76738678D01*
X155728019Y-76702412D01*
X155787313Y-76694574D01*
X155838467Y-76700131D01*
X155838471Y-76700131D01*
X155841866Y-76700500D01*
X159088134Y-76700500D01*
X159150316Y-76693745D01*
X159286705Y-76642615D01*
X159403261Y-76555261D01*
X159490615Y-76438705D01*
X159541745Y-76302316D01*
X159548500Y-76240134D01*
X159548500Y-75143866D01*
X159541745Y-75081684D01*
X159490615Y-74945295D01*
X159403261Y-74828739D01*
X159286705Y-74741385D01*
X159150316Y-74690255D01*
X159088134Y-74683500D01*
X155906704Y-74683500D01*
X155838583Y-74663498D01*
X155792090Y-74609842D01*
X155786871Y-74596435D01*
X155776570Y-74564731D01*
X155776569Y-74564729D01*
X155774527Y-74558444D01*
X155679040Y-74393056D01*
X155666662Y-74379309D01*
X155635946Y-74315303D01*
X155644710Y-74244850D01*
X155666661Y-74210693D01*
X155679040Y-74196944D01*
X155679040Y-74196943D01*
X155680967Y-74198678D01*
X155728019Y-74162412D01*
X155787313Y-74154574D01*
X155838467Y-74160131D01*
X155838471Y-74160131D01*
X155841866Y-74160500D01*
X159088134Y-74160500D01*
X159150316Y-74153745D01*
X159286705Y-74102615D01*
X159403261Y-74015261D01*
X159490615Y-73898705D01*
X159541745Y-73762316D01*
X159548500Y-73700134D01*
X159548500Y-72603866D01*
X159541745Y-72541684D01*
X159490615Y-72405295D01*
X159403261Y-72288739D01*
X159286705Y-72201385D01*
X159150316Y-72150255D01*
X159088134Y-72143500D01*
X155906704Y-72143500D01*
X155838583Y-72123498D01*
X155792090Y-72069842D01*
X155786871Y-72056435D01*
X155776570Y-72024731D01*
X155776569Y-72024729D01*
X155774527Y-72018444D01*
X155679040Y-71853056D01*
X155666662Y-71839309D01*
X155635946Y-71775303D01*
X155644710Y-71704850D01*
X155666661Y-71670693D01*
X155679040Y-71656944D01*
X155679040Y-71656943D01*
X155680967Y-71658678D01*
X155728019Y-71622412D01*
X155787313Y-71614574D01*
X155838467Y-71620131D01*
X155838471Y-71620131D01*
X155841866Y-71620500D01*
X159088134Y-71620500D01*
X159150316Y-71613745D01*
X159286705Y-71562615D01*
X159403261Y-71475261D01*
X159490615Y-71358705D01*
X159541745Y-71222316D01*
X159548500Y-71160134D01*
X159548500Y-70063866D01*
X159541745Y-70001684D01*
X159490615Y-69865295D01*
X159403261Y-69748739D01*
X159286705Y-69661385D01*
X159150316Y-69610255D01*
X159088134Y-69603500D01*
X155906704Y-69603500D01*
X155838583Y-69583498D01*
X155792090Y-69529842D01*
X155786871Y-69516435D01*
X155776570Y-69484731D01*
X155776569Y-69484729D01*
X155774527Y-69478444D01*
X155679040Y-69313056D01*
X155666662Y-69299309D01*
X155635946Y-69235303D01*
X155644710Y-69164850D01*
X155666661Y-69130693D01*
X155679040Y-69116944D01*
X155679040Y-69116943D01*
X155680967Y-69118678D01*
X155728019Y-69082412D01*
X155787313Y-69074574D01*
X155838467Y-69080131D01*
X155838471Y-69080131D01*
X155841866Y-69080500D01*
X159088134Y-69080500D01*
X159150316Y-69073745D01*
X159286705Y-69022615D01*
X159403261Y-68935261D01*
X159490615Y-68818705D01*
X159541745Y-68682316D01*
X159548500Y-68620134D01*
X159548500Y-67523866D01*
X159541745Y-67461684D01*
X159490615Y-67325295D01*
X159403261Y-67208739D01*
X159286705Y-67121385D01*
X159150316Y-67070255D01*
X159088134Y-67063500D01*
X155906704Y-67063500D01*
X155838583Y-67043498D01*
X155792090Y-66989842D01*
X155786871Y-66976435D01*
X155776570Y-66944731D01*
X155776569Y-66944729D01*
X155774527Y-66938444D01*
X155679040Y-66773056D01*
X155666662Y-66759309D01*
X155635946Y-66695303D01*
X155644710Y-66624850D01*
X155666661Y-66590693D01*
X155679040Y-66576944D01*
X155679040Y-66576943D01*
X155680967Y-66578678D01*
X155728019Y-66542412D01*
X155787313Y-66534574D01*
X155838467Y-66540131D01*
X155838471Y-66540131D01*
X155841866Y-66540500D01*
X159088134Y-66540500D01*
X159150316Y-66533745D01*
X159286705Y-66482615D01*
X159403261Y-66395261D01*
X159490615Y-66278705D01*
X159541745Y-66142316D01*
X159548500Y-66080134D01*
X159548500Y-64983866D01*
X159541745Y-64921684D01*
X159490615Y-64785295D01*
X159403261Y-64668739D01*
X159286705Y-64581385D01*
X159150316Y-64530255D01*
X159088134Y-64523500D01*
X155906704Y-64523500D01*
X155838583Y-64503498D01*
X155792090Y-64449842D01*
X155786871Y-64436435D01*
X155776570Y-64404731D01*
X155776569Y-64404729D01*
X155774527Y-64398444D01*
X155679040Y-64233056D01*
X155666662Y-64219309D01*
X155635946Y-64155303D01*
X155644710Y-64084850D01*
X155666661Y-64050693D01*
X155679040Y-64036944D01*
X155679040Y-64036943D01*
X155680967Y-64038678D01*
X155728019Y-64002412D01*
X155787313Y-63994574D01*
X155838467Y-64000131D01*
X155838471Y-64000131D01*
X155841866Y-64000500D01*
X159088134Y-64000500D01*
X159150316Y-63993745D01*
X159286705Y-63942615D01*
X159403261Y-63855261D01*
X159490615Y-63738705D01*
X159541745Y-63602316D01*
X159548500Y-63540134D01*
X159548500Y-62443866D01*
X159541745Y-62381684D01*
X159490615Y-62245295D01*
X159403261Y-62128739D01*
X159286705Y-62041385D01*
X159150316Y-61990255D01*
X159088134Y-61983500D01*
X155906704Y-61983500D01*
X155838583Y-61963498D01*
X155792090Y-61909842D01*
X155786871Y-61896435D01*
X155776570Y-61864731D01*
X155776569Y-61864729D01*
X155774527Y-61858444D01*
X155679040Y-61693056D01*
X155666662Y-61679309D01*
X155635946Y-61615303D01*
X155644710Y-61544850D01*
X155666661Y-61510693D01*
X155679040Y-61496944D01*
X155679040Y-61496943D01*
X155680967Y-61498678D01*
X155728019Y-61462412D01*
X155787313Y-61454574D01*
X155838467Y-61460131D01*
X155838471Y-61460131D01*
X155841866Y-61460500D01*
X159088134Y-61460500D01*
X159150316Y-61453745D01*
X159286705Y-61402615D01*
X159403261Y-61315261D01*
X159490615Y-61198705D01*
X159541745Y-61062316D01*
X159548500Y-61000134D01*
X159548500Y-59903866D01*
X159541745Y-59841684D01*
X159490615Y-59705295D01*
X159403261Y-59588739D01*
X159286705Y-59501385D01*
X159150316Y-59450255D01*
X159088134Y-59443500D01*
X155841866Y-59443500D01*
X155779684Y-59450255D01*
X155643295Y-59501385D01*
X155526739Y-59588739D01*
X155521358Y-59595919D01*
X155444767Y-59698113D01*
X155444765Y-59698116D01*
X155439385Y-59705295D01*
X155436234Y-59713699D01*
X155436234Y-59713700D01*
X155423899Y-59746604D01*
X155381258Y-59803369D01*
X155341064Y-59823374D01*
X155332327Y-59825912D01*
X155328654Y-59826979D01*
X155309306Y-59830986D01*
X155297068Y-59832532D01*
X155297066Y-59832533D01*
X155289203Y-59833526D01*
X155248086Y-59849806D01*
X155236885Y-59853641D01*
X155194406Y-59865982D01*
X155187587Y-59870015D01*
X155187582Y-59870017D01*
X155176971Y-59876293D01*
X155159221Y-59884990D01*
X155140383Y-59892448D01*
X155133967Y-59897109D01*
X155133966Y-59897110D01*
X155104625Y-59918428D01*
X155094701Y-59924947D01*
X155063460Y-59943422D01*
X155063455Y-59943426D01*
X155056637Y-59947458D01*
X155042313Y-59961782D01*
X155027281Y-59974621D01*
X155010893Y-59986528D01*
X155005842Y-59992634D01*
X154994936Y-60005817D01*
X154936102Y-60045554D01*
X154897852Y-60051500D01*
X154844513Y-60051500D01*
X154838061Y-60052872D01*
X154838056Y-60052872D01*
X154664171Y-60089833D01*
X154657712Y-60091206D01*
X154657538Y-60090389D01*
X154591966Y-60092261D01*
X154531169Y-60055598D01*
X154499844Y-59991885D01*
X154497999Y-59970401D01*
X154497999Y-59907331D01*
X154497629Y-59900510D01*
X154492105Y-59849648D01*
X154488479Y-59834396D01*
X154443324Y-59713946D01*
X154434786Y-59698351D01*
X154358285Y-59596276D01*
X154345724Y-59583715D01*
X154243649Y-59507214D01*
X154228054Y-59498676D01*
X154107606Y-59453522D01*
X154092351Y-59449895D01*
X154041486Y-59444369D01*
X154034672Y-59444000D01*
X152687115Y-59444000D01*
X152671876Y-59448475D01*
X152670671Y-59449865D01*
X152669000Y-59457548D01*
X152669000Y-61441884D01*
X152673475Y-61457123D01*
X152674865Y-61458328D01*
X152682548Y-61459999D01*
X154034669Y-61459999D01*
X154041488Y-61459630D01*
X154092348Y-61454105D01*
X154162230Y-61466634D01*
X154199531Y-61498230D01*
X154200960Y-61496943D01*
X154200960Y-61496944D01*
X154213338Y-61510691D01*
X154244054Y-61574697D01*
X154235290Y-61645150D01*
X154213339Y-61679307D01*
X154200960Y-61693056D01*
X154105473Y-61858444D01*
X154103431Y-61864729D01*
X154103430Y-61864731D01*
X154093129Y-61896435D01*
X154053056Y-61955041D01*
X153987660Y-61982679D01*
X153973296Y-61983500D01*
X150791866Y-61983500D01*
X150729684Y-61990255D01*
X150593295Y-62041385D01*
X150476739Y-62128739D01*
X150389385Y-62245295D01*
X150338255Y-62381684D01*
X150331500Y-62443866D01*
X150331500Y-63540134D01*
X150338255Y-63602316D01*
X150389385Y-63738705D01*
X150476739Y-63855261D01*
X150593295Y-63942615D01*
X150729684Y-63993745D01*
X150791866Y-64000500D01*
X154038134Y-64000500D01*
X154041529Y-64000131D01*
X154041533Y-64000131D01*
X154092687Y-63994574D01*
X154162569Y-64007102D01*
X154199433Y-64038318D01*
X154200960Y-64036943D01*
X154200960Y-64036944D01*
X154213338Y-64050691D01*
X154244054Y-64114697D01*
X154235290Y-64185150D01*
X154213339Y-64219307D01*
X154200960Y-64233056D01*
X154105473Y-64398444D01*
X154103431Y-64404729D01*
X154103430Y-64404731D01*
X154093129Y-64436435D01*
X154053056Y-64495041D01*
X153987660Y-64522679D01*
X153973296Y-64523500D01*
X150791866Y-64523500D01*
X150729684Y-64530255D01*
X150593295Y-64581385D01*
X150476739Y-64668739D01*
X150389385Y-64785295D01*
X150338255Y-64921684D01*
X150331500Y-64983866D01*
X150331500Y-66080134D01*
X150338255Y-66142316D01*
X150389385Y-66278705D01*
X150476739Y-66395261D01*
X150593295Y-66482615D01*
X150729684Y-66533745D01*
X150791866Y-66540500D01*
X154038134Y-66540500D01*
X154041529Y-66540131D01*
X154041533Y-66540131D01*
X154092687Y-66534574D01*
X154162569Y-66547102D01*
X154199433Y-66578318D01*
X154200960Y-66576943D01*
X154200960Y-66576944D01*
X154213338Y-66590691D01*
X154244054Y-66654697D01*
X154235290Y-66725150D01*
X154213339Y-66759307D01*
X154200960Y-66773056D01*
X154105473Y-66938444D01*
X154103431Y-66944729D01*
X154103430Y-66944731D01*
X154093129Y-66976435D01*
X154053056Y-67035041D01*
X153987660Y-67062679D01*
X153973296Y-67063500D01*
X150791866Y-67063500D01*
X150729684Y-67070255D01*
X150593295Y-67121385D01*
X150476739Y-67208739D01*
X150389385Y-67325295D01*
X150338255Y-67461684D01*
X150331500Y-67523866D01*
X150331500Y-68620134D01*
X150338255Y-68682316D01*
X150389385Y-68818705D01*
X150476739Y-68935261D01*
X150593295Y-69022615D01*
X150729684Y-69073745D01*
X150791866Y-69080500D01*
X154038134Y-69080500D01*
X154041529Y-69080131D01*
X154041533Y-69080131D01*
X154092687Y-69074574D01*
X154162569Y-69087102D01*
X154199433Y-69118318D01*
X154200960Y-69116943D01*
X154200960Y-69116944D01*
X154213338Y-69130691D01*
X154244054Y-69194697D01*
X154235290Y-69265150D01*
X154213339Y-69299307D01*
X154200960Y-69313056D01*
X154105473Y-69478444D01*
X154103431Y-69484729D01*
X154103430Y-69484731D01*
X154093129Y-69516435D01*
X154053056Y-69575041D01*
X153987660Y-69602679D01*
X153973296Y-69603500D01*
X150791866Y-69603500D01*
X150729684Y-69610255D01*
X150593295Y-69661385D01*
X150476739Y-69748739D01*
X150389385Y-69865295D01*
X150338255Y-70001684D01*
X150331500Y-70063866D01*
X150331500Y-71160134D01*
X150338255Y-71222316D01*
X150389385Y-71358705D01*
X150476739Y-71475261D01*
X150593295Y-71562615D01*
X150729684Y-71613745D01*
X150791866Y-71620500D01*
X154038134Y-71620500D01*
X154041529Y-71620131D01*
X154041533Y-71620131D01*
X154092687Y-71614574D01*
X154162569Y-71627102D01*
X154199433Y-71658318D01*
X154200960Y-71656943D01*
X154200960Y-71656944D01*
X154213338Y-71670691D01*
X154244054Y-71734697D01*
X154235290Y-71805150D01*
X154213339Y-71839307D01*
X154200960Y-71853056D01*
X154105473Y-72018444D01*
X154103431Y-72024729D01*
X154103430Y-72024731D01*
X154093129Y-72056435D01*
X154053056Y-72115041D01*
X153987660Y-72142679D01*
X153973296Y-72143500D01*
X150791866Y-72143500D01*
X150729684Y-72150255D01*
X150593295Y-72201385D01*
X150476739Y-72288739D01*
X150389385Y-72405295D01*
X150338255Y-72541684D01*
X150331500Y-72603866D01*
X150331500Y-73700134D01*
X150338255Y-73762316D01*
X150389385Y-73898705D01*
X150476739Y-74015261D01*
X150593295Y-74102615D01*
X150729684Y-74153745D01*
X150791866Y-74160500D01*
X154038134Y-74160500D01*
X154041529Y-74160131D01*
X154041533Y-74160131D01*
X154092687Y-74154574D01*
X154162569Y-74167102D01*
X154199433Y-74198318D01*
X154200960Y-74196943D01*
X154200960Y-74196944D01*
X154213338Y-74210691D01*
X154244054Y-74274697D01*
X154235290Y-74345150D01*
X154213339Y-74379307D01*
X154200960Y-74393056D01*
X154105473Y-74558444D01*
X154103431Y-74564729D01*
X154103430Y-74564731D01*
X154093129Y-74596435D01*
X154053056Y-74655041D01*
X153987660Y-74682679D01*
X153973296Y-74683500D01*
X150791866Y-74683500D01*
X150729684Y-74690255D01*
X150593295Y-74741385D01*
X150476739Y-74828739D01*
X150389385Y-74945295D01*
X150338255Y-75081684D01*
X150331500Y-75143866D01*
X150331500Y-76240134D01*
X150338255Y-76302316D01*
X150389385Y-76438705D01*
X150476739Y-76555261D01*
X150593295Y-76642615D01*
X150729684Y-76693745D01*
X150791866Y-76700500D01*
X154038134Y-76700500D01*
X154041529Y-76700131D01*
X154041533Y-76700131D01*
X154092687Y-76694574D01*
X154162569Y-76707102D01*
X154199433Y-76738318D01*
X154200960Y-76736943D01*
X154200960Y-76736944D01*
X154213338Y-76750691D01*
X154244054Y-76814697D01*
X154235290Y-76885150D01*
X154213339Y-76919307D01*
X154200960Y-76933056D01*
X154105473Y-77098444D01*
X154103431Y-77104729D01*
X154103430Y-77104731D01*
X154093129Y-77136435D01*
X154053056Y-77195041D01*
X153987660Y-77222679D01*
X153973296Y-77223500D01*
X150791866Y-77223500D01*
X150729684Y-77230255D01*
X150593295Y-77281385D01*
X150476739Y-77368739D01*
X150389385Y-77485295D01*
X150338255Y-77621684D01*
X150331500Y-77683866D01*
X150331500Y-78780134D01*
X150338255Y-78842316D01*
X150389385Y-78978705D01*
X150476739Y-79095261D01*
X150593295Y-79182615D01*
X150729684Y-79233745D01*
X150791866Y-79240500D01*
X154038134Y-79240500D01*
X154041529Y-79240131D01*
X154041533Y-79240131D01*
X154092687Y-79234574D01*
X154162569Y-79247102D01*
X154199433Y-79278318D01*
X154200960Y-79276943D01*
X154200960Y-79276944D01*
X154213338Y-79290691D01*
X154244054Y-79354697D01*
X154235290Y-79425150D01*
X154213339Y-79459307D01*
X154200960Y-79473056D01*
X154105473Y-79638444D01*
X154103431Y-79644729D01*
X154103430Y-79644731D01*
X154093129Y-79676435D01*
X154053056Y-79735041D01*
X153987660Y-79762679D01*
X153973296Y-79763500D01*
X150791866Y-79763500D01*
X150729684Y-79770255D01*
X150593295Y-79821385D01*
X150476739Y-79908739D01*
X150389385Y-80025295D01*
X150338255Y-80161684D01*
X150331500Y-80223866D01*
X150331500Y-81320134D01*
X143510501Y-81320134D01*
X143510500Y-60996669D01*
X150332001Y-60996669D01*
X150332371Y-61003490D01*
X150337895Y-61054352D01*
X150341521Y-61069604D01*
X150386676Y-61190054D01*
X150395214Y-61205649D01*
X150471715Y-61307724D01*
X150484276Y-61320285D01*
X150586351Y-61396786D01*
X150601946Y-61405324D01*
X150722394Y-61450478D01*
X150737649Y-61454105D01*
X150788514Y-61459631D01*
X150795328Y-61460000D01*
X152142885Y-61460000D01*
X152158124Y-61455525D01*
X152159329Y-61454135D01*
X152161000Y-61446452D01*
X152161000Y-60724115D01*
X152156525Y-60708876D01*
X152155135Y-60707671D01*
X152147452Y-60706000D01*
X150350116Y-60706000D01*
X150334877Y-60710475D01*
X150333672Y-60711865D01*
X150332001Y-60719548D01*
X150332001Y-60996669D01*
X143510500Y-60996669D01*
X143510500Y-60179885D01*
X150332000Y-60179885D01*
X150336475Y-60195124D01*
X150337865Y-60196329D01*
X150345548Y-60198000D01*
X152142885Y-60198000D01*
X152158124Y-60193525D01*
X152159329Y-60192135D01*
X152161000Y-60184452D01*
X152161000Y-59462116D01*
X152156525Y-59446877D01*
X152155135Y-59445672D01*
X152147452Y-59444001D01*
X150795331Y-59444001D01*
X150788510Y-59444371D01*
X150737648Y-59449895D01*
X150722396Y-59453521D01*
X150601946Y-59498676D01*
X150586351Y-59507214D01*
X150484276Y-59583715D01*
X150471715Y-59596276D01*
X150395214Y-59698351D01*
X150386676Y-59713946D01*
X150341522Y-59834394D01*
X150337895Y-59849649D01*
X150332369Y-59900514D01*
X150332000Y-59907328D01*
X150332000Y-60179885D01*
X143510500Y-60179885D01*
X143510500Y-59743250D01*
X143512246Y-59722345D01*
X143514770Y-59707344D01*
X143514770Y-59707341D01*
X143515576Y-59702552D01*
X143515729Y-59690000D01*
X143514788Y-59683429D01*
X143514123Y-59653218D01*
X143523916Y-59553789D01*
X143528733Y-59529568D01*
X143564866Y-59410454D01*
X143574315Y-59387645D01*
X143632987Y-59277876D01*
X143646705Y-59257345D01*
X143725671Y-59161124D01*
X143743124Y-59143671D01*
X143839345Y-59064705D01*
X143859876Y-59050987D01*
X143969645Y-58992315D01*
X143992454Y-58982866D01*
X144111568Y-58946733D01*
X144135789Y-58941916D01*
X144231809Y-58932459D01*
X144247868Y-58932909D01*
X144247877Y-58932200D01*
X144256853Y-58932310D01*
X144265724Y-58933691D01*
X144274626Y-58932527D01*
X144274628Y-58932527D01*
X144291059Y-58930378D01*
X144297286Y-58929564D01*
X144313621Y-58928500D01*
X165558633Y-58928500D01*
X165578018Y-58930000D01*
G37*
%TD.AperFunction*%
%TD*%
M02*
