%TF.GenerationSoftware,KiCad,Pcbnew,(6.0.4-0)*%
%TF.CreationDate,2022-11-06T15:53:12-07:00*%
%TF.ProjectId,ide_cable_select_switch,6964655f-6361-4626-9c65-5f73656c6563,rev?*%
%TF.SameCoordinates,Original*%
%TF.FileFunction,Legend,Top*%
%TF.FilePolarity,Positive*%
%FSLAX46Y46*%
G04 Gerber Fmt 4.6, Leading zero omitted, Abs format (unit mm)*
G04 Created by KiCad (PCBNEW (6.0.4-0)) date 2022-11-06 15:53:12*
%MOMM*%
%LPD*%
G01*
G04 APERTURE LIST*
%ADD10C,0.150000*%
%ADD11C,0.120000*%
%ADD12R,3.150000X1.000000*%
%ADD13R,1.000000X0.800000*%
%ADD14C,0.900000*%
%ADD15R,0.700000X1.500000*%
G04 APERTURE END LIST*
D10*
X144049714Y-60142380D02*
X143478285Y-60142380D01*
X143764000Y-60142380D02*
X143764000Y-59142380D01*
X143668761Y-59285238D01*
X143573523Y-59380476D01*
X143478285Y-59428095D01*
X154725714Y-109474047D02*
X155011428Y-110235952D01*
X155297142Y-109474047D01*
X143700476Y-85240714D02*
X143462380Y-85240714D01*
X143462380Y-83812142D01*
X143700476Y-83812142D01*
X143994523Y-111577380D02*
X143994523Y-110577380D01*
X144232619Y-110577380D01*
X144375476Y-110625000D01*
X144470714Y-110720238D01*
X144518333Y-110815476D01*
X144565952Y-111005952D01*
X144565952Y-111148809D01*
X144518333Y-111339285D01*
X144470714Y-111434523D01*
X144375476Y-111529761D01*
X144232619Y-111577380D01*
X143994523Y-111577380D01*
X145565952Y-111577380D02*
X145232619Y-111101190D01*
X144994523Y-111577380D02*
X144994523Y-110577380D01*
X145375476Y-110577380D01*
X145470714Y-110625000D01*
X145518333Y-110672619D01*
X145565952Y-110767857D01*
X145565952Y-110910714D01*
X145518333Y-111005952D01*
X145470714Y-111053571D01*
X145375476Y-111101190D01*
X144994523Y-111101190D01*
X145994523Y-111577380D02*
X145994523Y-110577380D01*
X146327857Y-110577380D02*
X146661190Y-111577380D01*
X146994523Y-110577380D01*
X147327857Y-111053571D02*
X147661190Y-111053571D01*
X147804047Y-111577380D02*
X147327857Y-111577380D01*
X147327857Y-110577380D01*
X147804047Y-110577380D01*
X148946904Y-111291666D02*
X149423095Y-111291666D01*
X148851666Y-111577380D02*
X149185000Y-110577380D01*
X149518333Y-111577380D01*
X159798095Y-111577380D02*
X159798095Y-110577380D01*
X160036190Y-110577380D01*
X160179047Y-110625000D01*
X160274285Y-110720238D01*
X160321904Y-110815476D01*
X160369523Y-111005952D01*
X160369523Y-111148809D01*
X160321904Y-111339285D01*
X160274285Y-111434523D01*
X160179047Y-111529761D01*
X160036190Y-111577380D01*
X159798095Y-111577380D01*
X161369523Y-111577380D02*
X161036190Y-111101190D01*
X160798095Y-111577380D02*
X160798095Y-110577380D01*
X161179047Y-110577380D01*
X161274285Y-110625000D01*
X161321904Y-110672619D01*
X161369523Y-110767857D01*
X161369523Y-110910714D01*
X161321904Y-111005952D01*
X161274285Y-111053571D01*
X161179047Y-111101190D01*
X160798095Y-111101190D01*
X161798095Y-111577380D02*
X161798095Y-110577380D01*
X162131428Y-110577380D02*
X162464761Y-111577380D01*
X162798095Y-110577380D01*
X163131428Y-111053571D02*
X163464761Y-111053571D01*
X163607619Y-111577380D02*
X163131428Y-111577380D01*
X163131428Y-110577380D01*
X163607619Y-110577380D01*
X165131428Y-111053571D02*
X165274285Y-111101190D01*
X165321904Y-111148809D01*
X165369523Y-111244047D01*
X165369523Y-111386904D01*
X165321904Y-111482142D01*
X165274285Y-111529761D01*
X165179047Y-111577380D01*
X164798095Y-111577380D01*
X164798095Y-110577380D01*
X165131428Y-110577380D01*
X165226666Y-110625000D01*
X165274285Y-110672619D01*
X165321904Y-110767857D01*
X165321904Y-110863095D01*
X165274285Y-110958333D01*
X165226666Y-111005952D01*
X165131428Y-111053571D01*
X164798095Y-111053571D01*
X154587380Y-108249404D02*
X153587380Y-108249404D01*
X154301666Y-107916071D01*
X153587380Y-107582738D01*
X154587380Y-107582738D01*
X154301666Y-107154166D02*
X154301666Y-106677976D01*
X154587380Y-107249404D02*
X153587380Y-106916071D01*
X154587380Y-106582738D01*
X154539761Y-106297023D02*
X154587380Y-106154166D01*
X154587380Y-105916071D01*
X154539761Y-105820833D01*
X154492142Y-105773214D01*
X154396904Y-105725595D01*
X154301666Y-105725595D01*
X154206428Y-105773214D01*
X154158809Y-105820833D01*
X154111190Y-105916071D01*
X154063571Y-106106547D01*
X154015952Y-106201785D01*
X153968333Y-106249404D01*
X153873095Y-106297023D01*
X153777857Y-106297023D01*
X153682619Y-106249404D01*
X153635000Y-106201785D01*
X153587380Y-106106547D01*
X153587380Y-105868452D01*
X153635000Y-105725595D01*
X153587380Y-105439880D02*
X153587380Y-104868452D01*
X154587380Y-105154166D02*
X153587380Y-105154166D01*
X154063571Y-104535119D02*
X154063571Y-104201785D01*
X154587380Y-104058928D02*
X154587380Y-104535119D01*
X153587380Y-104535119D01*
X153587380Y-104058928D01*
X154587380Y-103058928D02*
X154111190Y-103392261D01*
X154587380Y-103630357D02*
X153587380Y-103630357D01*
X153587380Y-103249404D01*
X153635000Y-103154166D01*
X153682619Y-103106547D01*
X153777857Y-103058928D01*
X153920714Y-103058928D01*
X154015952Y-103106547D01*
X154063571Y-103154166D01*
X154111190Y-103249404D01*
X154111190Y-103630357D01*
X154587380Y-101868452D02*
X153587380Y-101868452D01*
X153587380Y-101630357D01*
X153635000Y-101487500D01*
X153730238Y-101392261D01*
X153825476Y-101344642D01*
X154015952Y-101297023D01*
X154158809Y-101297023D01*
X154349285Y-101344642D01*
X154444523Y-101392261D01*
X154539761Y-101487500D01*
X154587380Y-101630357D01*
X154587380Y-101868452D01*
X154587380Y-100297023D02*
X154111190Y-100630357D01*
X154587380Y-100868452D02*
X153587380Y-100868452D01*
X153587380Y-100487500D01*
X153635000Y-100392261D01*
X153682619Y-100344642D01*
X153777857Y-100297023D01*
X153920714Y-100297023D01*
X154015952Y-100344642D01*
X154063571Y-100392261D01*
X154111190Y-100487500D01*
X154111190Y-100868452D01*
X154587380Y-99868452D02*
X153587380Y-99868452D01*
X153587380Y-99535119D02*
X154587380Y-99201785D01*
X153587380Y-98868452D01*
X154063571Y-98535119D02*
X154063571Y-98201785D01*
X154587380Y-98058928D02*
X154587380Y-98535119D01*
X153587380Y-98535119D01*
X153587380Y-98058928D01*
X156149761Y-108297023D02*
X156197380Y-108154166D01*
X156197380Y-107916071D01*
X156149761Y-107820833D01*
X156102142Y-107773214D01*
X156006904Y-107725595D01*
X155911666Y-107725595D01*
X155816428Y-107773214D01*
X155768809Y-107820833D01*
X155721190Y-107916071D01*
X155673571Y-108106547D01*
X155625952Y-108201785D01*
X155578333Y-108249404D01*
X155483095Y-108297023D01*
X155387857Y-108297023D01*
X155292619Y-108249404D01*
X155245000Y-108201785D01*
X155197380Y-108106547D01*
X155197380Y-107868452D01*
X155245000Y-107725595D01*
X155673571Y-107297023D02*
X155673571Y-106963690D01*
X156197380Y-106820833D02*
X156197380Y-107297023D01*
X155197380Y-107297023D01*
X155197380Y-106820833D01*
X156197380Y-105916071D02*
X156197380Y-106392261D01*
X155197380Y-106392261D01*
X155673571Y-105582738D02*
X155673571Y-105249404D01*
X156197380Y-105106547D02*
X156197380Y-105582738D01*
X155197380Y-105582738D01*
X155197380Y-105106547D01*
X156102142Y-104106547D02*
X156149761Y-104154166D01*
X156197380Y-104297023D01*
X156197380Y-104392261D01*
X156149761Y-104535119D01*
X156054523Y-104630357D01*
X155959285Y-104677976D01*
X155768809Y-104725595D01*
X155625952Y-104725595D01*
X155435476Y-104677976D01*
X155340238Y-104630357D01*
X155245000Y-104535119D01*
X155197380Y-104392261D01*
X155197380Y-104297023D01*
X155245000Y-104154166D01*
X155292619Y-104106547D01*
X155197380Y-103820833D02*
X155197380Y-103249404D01*
X156197380Y-103535119D02*
X155197380Y-103535119D01*
X156149761Y-102201785D02*
X156197380Y-102058928D01*
X156197380Y-101820833D01*
X156149761Y-101725595D01*
X156102142Y-101677976D01*
X156006904Y-101630357D01*
X155911666Y-101630357D01*
X155816428Y-101677976D01*
X155768809Y-101725595D01*
X155721190Y-101820833D01*
X155673571Y-102011309D01*
X155625952Y-102106547D01*
X155578333Y-102154166D01*
X155483095Y-102201785D01*
X155387857Y-102201785D01*
X155292619Y-102154166D01*
X155245000Y-102106547D01*
X155197380Y-102011309D01*
X155197380Y-101773214D01*
X155245000Y-101630357D01*
X155197380Y-101297023D02*
X156197380Y-101058928D01*
X155483095Y-100868452D01*
X156197380Y-100677976D01*
X155197380Y-100439880D01*
X156197380Y-100058928D02*
X155197380Y-100058928D01*
X155197380Y-99725595D02*
X155197380Y-99154166D01*
X156197380Y-99439880D02*
X155197380Y-99439880D01*
X156102142Y-98249404D02*
X156149761Y-98297023D01*
X156197380Y-98439880D01*
X156197380Y-98535119D01*
X156149761Y-98677976D01*
X156054523Y-98773214D01*
X155959285Y-98820833D01*
X155768809Y-98868452D01*
X155625952Y-98868452D01*
X155435476Y-98820833D01*
X155340238Y-98773214D01*
X155245000Y-98677976D01*
X155197380Y-98535119D01*
X155197380Y-98439880D01*
X155245000Y-98297023D01*
X155292619Y-98249404D01*
X156197380Y-97820833D02*
X155197380Y-97820833D01*
X155673571Y-97820833D02*
X155673571Y-97249404D01*
X156197380Y-97249404D02*
X155197380Y-97249404D01*
X156400476Y-85367714D02*
X156162380Y-85367714D01*
X156162380Y-83939142D01*
X156400476Y-83939142D01*
X156749714Y-60142380D02*
X156178285Y-60142380D01*
X156464000Y-60142380D02*
X156464000Y-59142380D01*
X156368761Y-59285238D01*
X156273523Y-59380476D01*
X156178285Y-59428095D01*
%TO.C,J3*%
X160806666Y-59777380D02*
X160806666Y-60491666D01*
X160759047Y-60634523D01*
X160663809Y-60729761D01*
X160520952Y-60777380D01*
X160425714Y-60777380D01*
X161187619Y-59777380D02*
X161806666Y-59777380D01*
X161473333Y-60158333D01*
X161616190Y-60158333D01*
X161711428Y-60205952D01*
X161759047Y-60253571D01*
X161806666Y-60348809D01*
X161806666Y-60586904D01*
X161759047Y-60682142D01*
X161711428Y-60729761D01*
X161616190Y-60777380D01*
X161330476Y-60777380D01*
X161235238Y-60729761D01*
X161187619Y-60682142D01*
%TO.C,J2*%
X148106666Y-59777380D02*
X148106666Y-60491666D01*
X148059047Y-60634523D01*
X147963809Y-60729761D01*
X147820952Y-60777380D01*
X147725714Y-60777380D01*
X148535238Y-59872619D02*
X148582857Y-59825000D01*
X148678095Y-59777380D01*
X148916190Y-59777380D01*
X149011428Y-59825000D01*
X149059047Y-59872619D01*
X149106666Y-59967857D01*
X149106666Y-60063095D01*
X149059047Y-60205952D01*
X148487619Y-60777380D01*
X149106666Y-60777380D01*
%TO.C,SW1*%
X155009809Y-114350666D02*
X155047904Y-114236380D01*
X155047904Y-114045904D01*
X155009809Y-113969714D01*
X154971714Y-113931619D01*
X154895523Y-113893523D01*
X154819333Y-113893523D01*
X154743142Y-113931619D01*
X154705047Y-113969714D01*
X154666952Y-114045904D01*
X154628857Y-114198285D01*
X154590761Y-114274476D01*
X154552666Y-114312571D01*
X154476476Y-114350666D01*
X154400285Y-114350666D01*
X154324095Y-114312571D01*
X154286000Y-114274476D01*
X154247904Y-114198285D01*
X154247904Y-114007809D01*
X154286000Y-113893523D01*
X154247904Y-113626857D02*
X155047904Y-113436380D01*
X154476476Y-113284000D01*
X155047904Y-113131619D01*
X154247904Y-112941142D01*
X155047904Y-112217333D02*
X155047904Y-112674476D01*
X155047904Y-112445904D02*
X154247904Y-112445904D01*
X154362190Y-112522095D01*
X154438380Y-112598285D01*
X154476476Y-112674476D01*
D11*
%TO.C,J3*%
X163890000Y-66292000D02*
X163890000Y-67312000D01*
X158690000Y-71372000D02*
X158690000Y-72392000D01*
X158690000Y-59122000D02*
X158690000Y-59692000D01*
X163890000Y-71372000D02*
X163890000Y-72392000D01*
X163890000Y-63752000D02*
X163890000Y-64772000D01*
X158690000Y-89152000D02*
X158690000Y-90172000D01*
X158690000Y-63752000D02*
X158690000Y-64772000D01*
X163890000Y-106932000D02*
X163890000Y-107952000D01*
X158690000Y-96772000D02*
X158690000Y-97792000D01*
X158690000Y-101852000D02*
X158690000Y-102872000D01*
X158690000Y-109472000D02*
X158690000Y-110042000D01*
X163890000Y-99312000D02*
X163890000Y-100332000D01*
X157250000Y-59692000D02*
X158690000Y-59692000D01*
X158690000Y-86612000D02*
X158690000Y-87632000D01*
X158690000Y-91692000D02*
X158690000Y-92712000D01*
X158690000Y-104392000D02*
X158690000Y-105412000D01*
X158690000Y-59122000D02*
X163890000Y-59122000D01*
X158690000Y-76452000D02*
X158690000Y-77472000D01*
X163890000Y-104392000D02*
X163890000Y-105412000D01*
X163890000Y-89152000D02*
X163890000Y-90172000D01*
X163890000Y-81532000D02*
X163890000Y-85092000D01*
X158690000Y-99312000D02*
X158690000Y-100332000D01*
X158690000Y-110042000D02*
X163890000Y-110042000D01*
X163890000Y-91692000D02*
X163890000Y-92712000D01*
X163890000Y-94232000D02*
X163890000Y-95252000D01*
X163890000Y-76452000D02*
X163890000Y-77472000D01*
X158690000Y-68832000D02*
X158690000Y-69852000D01*
X163890000Y-109472000D02*
X163890000Y-110042000D01*
X158690000Y-106932000D02*
X158690000Y-107952000D01*
X163890000Y-86612000D02*
X163890000Y-87632000D01*
X163890000Y-96772000D02*
X163890000Y-97792000D01*
X158690000Y-78992000D02*
X158690000Y-80012000D01*
X163890000Y-73912000D02*
X163890000Y-74932000D01*
X163890000Y-78992000D02*
X163890000Y-80012000D01*
X163890000Y-59122000D02*
X163890000Y-59692000D01*
X163890000Y-101852000D02*
X163890000Y-102872000D01*
X158690000Y-61212000D02*
X158690000Y-62232000D01*
X158690000Y-81532000D02*
X158690000Y-82552000D01*
X158690000Y-84072000D02*
X158690000Y-85092000D01*
X158690000Y-66292000D02*
X158690000Y-67312000D01*
X163890000Y-68832000D02*
X163890000Y-69852000D01*
X158690000Y-94232000D02*
X158690000Y-95252000D01*
X158690000Y-73912000D02*
X158690000Y-74932000D01*
X163890000Y-61212000D02*
X163890000Y-62232000D01*
%TO.C,J2*%
X151190000Y-66292000D02*
X151190000Y-67312000D01*
X145990000Y-71372000D02*
X145990000Y-72392000D01*
X145990000Y-59122000D02*
X145990000Y-59692000D01*
X151190000Y-71372000D02*
X151190000Y-72392000D01*
X151190000Y-63752000D02*
X151190000Y-64772000D01*
X145990000Y-89152000D02*
X145990000Y-90172000D01*
X145990000Y-63752000D02*
X145990000Y-64772000D01*
X151190000Y-106932000D02*
X151190000Y-107952000D01*
X145990000Y-96772000D02*
X145990000Y-97792000D01*
X145990000Y-101852000D02*
X145990000Y-102872000D01*
X145990000Y-109472000D02*
X145990000Y-110042000D01*
X151190000Y-99312000D02*
X151190000Y-100332000D01*
X144550000Y-59692000D02*
X145990000Y-59692000D01*
X145990000Y-86612000D02*
X145990000Y-87632000D01*
X145990000Y-91692000D02*
X145990000Y-92712000D01*
X145990000Y-104392000D02*
X145990000Y-105412000D01*
X145990000Y-59122000D02*
X151190000Y-59122000D01*
X145990000Y-76452000D02*
X145990000Y-77472000D01*
X151190000Y-104392000D02*
X151190000Y-105412000D01*
X151190000Y-89152000D02*
X151190000Y-90172000D01*
X151190000Y-81532000D02*
X151190000Y-85092000D01*
X145990000Y-99312000D02*
X145990000Y-100332000D01*
X145990000Y-110042000D02*
X151190000Y-110042000D01*
X151190000Y-91692000D02*
X151190000Y-92712000D01*
X151190000Y-94232000D02*
X151190000Y-95252000D01*
X151190000Y-76452000D02*
X151190000Y-77472000D01*
X145990000Y-68832000D02*
X145990000Y-69852000D01*
X151190000Y-109472000D02*
X151190000Y-110042000D01*
X145990000Y-106932000D02*
X145990000Y-107952000D01*
X151190000Y-86612000D02*
X151190000Y-87632000D01*
X151190000Y-96772000D02*
X151190000Y-97792000D01*
X145990000Y-78992000D02*
X145990000Y-80012000D01*
X151190000Y-73912000D02*
X151190000Y-74932000D01*
X151190000Y-78992000D02*
X151190000Y-80012000D01*
X151190000Y-59122000D02*
X151190000Y-59692000D01*
X151190000Y-101852000D02*
X151190000Y-102872000D01*
X145990000Y-61212000D02*
X145990000Y-62232000D01*
X145990000Y-81532000D02*
X145990000Y-82552000D01*
X145990000Y-84072000D02*
X145990000Y-85092000D01*
X145990000Y-66292000D02*
X145990000Y-67312000D01*
X151190000Y-68832000D02*
X151190000Y-69852000D01*
X145990000Y-94232000D02*
X145990000Y-95252000D01*
X145990000Y-73912000D02*
X145990000Y-74932000D01*
X151190000Y-61212000D02*
X151190000Y-62232000D01*
%TO.C,SW1*%
X153540000Y-114760000D02*
X153540000Y-116050000D01*
X158390000Y-113750000D02*
X158390000Y-112960000D01*
X156340000Y-111910000D02*
X156540000Y-111910000D01*
X152090000Y-114760000D02*
X157790000Y-114760000D01*
X153740000Y-116260000D02*
X154640000Y-116260000D01*
X151490000Y-112960000D02*
X151490000Y-113750000D01*
X154840000Y-116050000D02*
X154640000Y-116260000D01*
X154840000Y-116050000D02*
X154840000Y-114760000D01*
X153540000Y-116050000D02*
X153740000Y-116260000D01*
X153340000Y-111910000D02*
X155040000Y-111910000D01*
%TD*%
%LPC*%
D12*
%TO.C,J3*%
X158765000Y-60452000D03*
X163815000Y-60452000D03*
X158765000Y-62992000D03*
X163815000Y-62992000D03*
X158765000Y-65532000D03*
X163815000Y-65532000D03*
X158765000Y-68072000D03*
X163815000Y-68072000D03*
X158765000Y-70612000D03*
X163815000Y-70612000D03*
X158765000Y-73152000D03*
X163815000Y-73152000D03*
X158765000Y-75692000D03*
X163815000Y-75692000D03*
X158765000Y-78232000D03*
X163815000Y-78232000D03*
X158765000Y-80772000D03*
X163815000Y-80772000D03*
X158765000Y-83312000D03*
X158765000Y-85852000D03*
X163815000Y-85852000D03*
X158765000Y-88392000D03*
X163815000Y-88392000D03*
X158765000Y-90932000D03*
X163815000Y-90932000D03*
X158765000Y-93472000D03*
X163815000Y-93472000D03*
X158765000Y-96012000D03*
X163815000Y-96012000D03*
X158765000Y-98552000D03*
X163815000Y-98552000D03*
X158765000Y-101092000D03*
X163815000Y-101092000D03*
X158765000Y-103632000D03*
X163815000Y-103632000D03*
X158765000Y-106172000D03*
X163815000Y-106172000D03*
X158765000Y-108712000D03*
X163815000Y-108712000D03*
%TD*%
%TO.C,J2*%
X146065000Y-60452000D03*
X151115000Y-60452000D03*
X146065000Y-62992000D03*
X151115000Y-62992000D03*
X146065000Y-65532000D03*
X151115000Y-65532000D03*
X146065000Y-68072000D03*
X151115000Y-68072000D03*
X146065000Y-70612000D03*
X151115000Y-70612000D03*
X146065000Y-73152000D03*
X151115000Y-73152000D03*
X146065000Y-75692000D03*
X151115000Y-75692000D03*
X146065000Y-78232000D03*
X151115000Y-78232000D03*
X146065000Y-80772000D03*
X151115000Y-80772000D03*
X146065000Y-83312000D03*
X146065000Y-85852000D03*
X151115000Y-85852000D03*
X146065000Y-88392000D03*
X151115000Y-88392000D03*
X146065000Y-90932000D03*
X151115000Y-90932000D03*
X146065000Y-93472000D03*
X151115000Y-93472000D03*
X146065000Y-96012000D03*
X151115000Y-96012000D03*
X146065000Y-98552000D03*
X151115000Y-98552000D03*
X146065000Y-101092000D03*
X151115000Y-101092000D03*
X146065000Y-103632000D03*
X151115000Y-103632000D03*
X146065000Y-106172000D03*
X151115000Y-106172000D03*
X146065000Y-108712000D03*
X151115000Y-108712000D03*
%TD*%
D13*
%TO.C,SW1*%
X158590000Y-112250000D03*
X151290000Y-114460000D03*
X158590000Y-114460000D03*
X151290000Y-112250000D03*
D14*
X156440000Y-113360000D03*
X153440000Y-113360000D03*
D15*
X152690000Y-111600000D03*
X155690000Y-111600000D03*
X157190000Y-111600000D03*
%TD*%
M02*
