%FSLAX45Y45*%
G04 Gerber Fmt 4.5, Leading zero omitted, Abs format (unit mm)*
G04 Created by KiCad (PCBNEW (6.0.4-0)) date 2022-06-07 12:02:54*
%MOMM*%
%LPD*%
G01*
G04 APERTURE LIST*
%TA.AperFunction,Profile*%
%ADD10C,0.100000*%
%TD*%
%ADD11C,0.200000*%
%ADD12C,0.090000*%
G04 APERTURE END LIST*
D10*
X14300200Y-11366500D02*
G75*
G03*
X14427200Y-11493500I127000J0D01*
G01*
X16560800Y-11493500D02*
G75*
G03*
X16687800Y-11366500I0J127000D01*
G01*
X16687800Y-5969000D02*
G75*
G03*
X16560800Y-5842000I-127000J0D01*
G01*
X14427200Y-5842000D02*
G75*
G03*
X14300200Y-5969000I0J-127000D01*
G01*
X16687800Y-11366500D02*
X16687800Y-5969000D01*
X16560800Y-5842000D02*
X14427200Y-5842000D01*
X14427200Y-11493500D02*
X16560800Y-11493500D01*
X14300200Y-5969000D02*
X14300200Y-11366500D01*
D11*
D12*
X15299000Y-11291000D02*
X15389000Y-11381000D01*
X15389000Y-11291000D02*
X15299000Y-11381000D01*
X15599000Y-11291000D02*
X15689000Y-11381000D01*
X15689000Y-11291000D02*
X15599000Y-11381000D01*
D11*
X14552819Y-11808976D02*
X14552819Y-11608976D01*
X14600438Y-11608976D01*
X14629009Y-11618500D01*
X14648057Y-11637547D01*
X14657581Y-11656595D01*
X14667105Y-11694690D01*
X14667105Y-11723262D01*
X14657581Y-11761357D01*
X14648057Y-11780405D01*
X14629009Y-11799452D01*
X14600438Y-11808976D01*
X14552819Y-11808976D01*
X14752819Y-11808976D02*
X14752819Y-11675643D01*
X14752819Y-11713738D02*
X14762343Y-11694690D01*
X14771867Y-11685166D01*
X14790914Y-11675643D01*
X14809962Y-11675643D01*
X14876628Y-11808976D02*
X14876628Y-11675643D01*
X14876628Y-11608976D02*
X14867105Y-11618500D01*
X14876628Y-11628024D01*
X14886152Y-11618500D01*
X14876628Y-11608976D01*
X14876628Y-11628024D01*
X15000438Y-11808976D02*
X14981390Y-11799452D01*
X14971867Y-11780405D01*
X14971867Y-11608976D01*
X15105200Y-11808976D02*
X15086152Y-11799452D01*
X15076628Y-11780405D01*
X15076628Y-11608976D01*
X15333771Y-11808976D02*
X15333771Y-11608976D01*
X15400438Y-11751833D01*
X15467105Y-11608976D01*
X15467105Y-11808976D01*
X15648057Y-11808976D02*
X15648057Y-11704214D01*
X15638533Y-11685166D01*
X15619486Y-11675643D01*
X15581390Y-11675643D01*
X15562343Y-11685166D01*
X15648057Y-11799452D02*
X15629009Y-11808976D01*
X15581390Y-11808976D01*
X15562343Y-11799452D01*
X15552819Y-11780405D01*
X15552819Y-11761357D01*
X15562343Y-11742309D01*
X15581390Y-11732786D01*
X15629009Y-11732786D01*
X15648057Y-11723262D01*
X15743295Y-11675643D02*
X15743295Y-11875643D01*
X15743295Y-11685166D02*
X15762343Y-11675643D01*
X15800438Y-11675643D01*
X15819486Y-11685166D01*
X15829009Y-11694690D01*
X15838533Y-11713738D01*
X15838533Y-11770881D01*
X15829009Y-11789928D01*
X15819486Y-11799452D01*
X15800438Y-11808976D01*
X15762343Y-11808976D01*
X15743295Y-11799452D01*
X15924248Y-11789928D02*
X15933771Y-11799452D01*
X15924248Y-11808976D01*
X15914724Y-11799452D01*
X15924248Y-11789928D01*
X15924248Y-11808976D01*
X15924248Y-11685166D02*
X15933771Y-11694690D01*
X15924248Y-11704214D01*
X15914724Y-11694690D01*
X15924248Y-11685166D01*
X15924248Y-11704214D01*
D12*
X14205200Y-12093500D02*
X14295200Y-12183500D01*
X14295200Y-12093500D02*
X14205200Y-12183500D01*
D11*
X14590914Y-12028976D02*
X14609962Y-12028976D01*
X14629009Y-12038500D01*
X14638533Y-12048024D01*
X14648057Y-12067071D01*
X14657581Y-12105166D01*
X14657581Y-12152786D01*
X14648057Y-12190881D01*
X14638533Y-12209928D01*
X14629009Y-12219452D01*
X14609962Y-12228976D01*
X14590914Y-12228976D01*
X14571867Y-12219452D01*
X14562343Y-12209928D01*
X14552819Y-12190881D01*
X14543295Y-12152786D01*
X14543295Y-12105166D01*
X14552819Y-12067071D01*
X14562343Y-12048024D01*
X14571867Y-12038500D01*
X14590914Y-12028976D01*
X14743295Y-12209928D02*
X14752819Y-12219452D01*
X14743295Y-12228976D01*
X14733771Y-12219452D01*
X14743295Y-12209928D01*
X14743295Y-12228976D01*
X14848057Y-12228976D02*
X14886152Y-12228976D01*
X14905200Y-12219452D01*
X14914724Y-12209928D01*
X14933771Y-12181357D01*
X14943295Y-12143262D01*
X14943295Y-12067071D01*
X14933771Y-12048024D01*
X14924248Y-12038500D01*
X14905200Y-12028976D01*
X14867105Y-12028976D01*
X14848057Y-12038500D01*
X14838533Y-12048024D01*
X14829009Y-12067071D01*
X14829009Y-12114690D01*
X14838533Y-12133738D01*
X14848057Y-12143262D01*
X14867105Y-12152786D01*
X14905200Y-12152786D01*
X14924248Y-12143262D01*
X14933771Y-12133738D01*
X14943295Y-12114690D01*
X15067105Y-12028976D02*
X15086152Y-12028976D01*
X15105200Y-12038500D01*
X15114724Y-12048024D01*
X15124248Y-12067071D01*
X15133771Y-12105166D01*
X15133771Y-12152786D01*
X15124248Y-12190881D01*
X15114724Y-12209928D01*
X15105200Y-12219452D01*
X15086152Y-12228976D01*
X15067105Y-12228976D01*
X15048057Y-12219452D01*
X15038533Y-12209928D01*
X15029009Y-12190881D01*
X15019486Y-12152786D01*
X15019486Y-12105166D01*
X15029009Y-12067071D01*
X15038533Y-12048024D01*
X15048057Y-12038500D01*
X15067105Y-12028976D01*
X15257581Y-12028976D02*
X15276628Y-12028976D01*
X15295676Y-12038500D01*
X15305200Y-12048024D01*
X15314724Y-12067071D01*
X15324248Y-12105166D01*
X15324248Y-12152786D01*
X15314724Y-12190881D01*
X15305200Y-12209928D01*
X15295676Y-12219452D01*
X15276628Y-12228976D01*
X15257581Y-12228976D01*
X15238533Y-12219452D01*
X15229009Y-12209928D01*
X15219486Y-12190881D01*
X15209962Y-12152786D01*
X15209962Y-12105166D01*
X15219486Y-12067071D01*
X15229009Y-12048024D01*
X15238533Y-12038500D01*
X15257581Y-12028976D01*
X15409962Y-12228976D02*
X15409962Y-12095643D01*
X15409962Y-12114690D02*
X15419486Y-12105166D01*
X15438533Y-12095643D01*
X15467105Y-12095643D01*
X15486152Y-12105166D01*
X15495676Y-12124214D01*
X15495676Y-12228976D01*
X15495676Y-12124214D02*
X15505200Y-12105166D01*
X15524248Y-12095643D01*
X15552819Y-12095643D01*
X15571867Y-12105166D01*
X15581390Y-12124214D01*
X15581390Y-12228976D01*
X15676628Y-12228976D02*
X15676628Y-12095643D01*
X15676628Y-12114690D02*
X15686152Y-12105166D01*
X15705200Y-12095643D01*
X15733771Y-12095643D01*
X15752819Y-12105166D01*
X15762343Y-12124214D01*
X15762343Y-12228976D01*
X15762343Y-12124214D02*
X15771867Y-12105166D01*
X15790914Y-12095643D01*
X15819486Y-12095643D01*
X15838533Y-12105166D01*
X15848057Y-12124214D01*
X15848057Y-12228976D01*
X16238533Y-12019452D02*
X16067105Y-12276595D01*
X16495676Y-12028976D02*
X16514724Y-12028976D01*
X16533771Y-12038500D01*
X16543295Y-12048024D01*
X16552819Y-12067071D01*
X16562343Y-12105166D01*
X16562343Y-12152786D01*
X16552819Y-12190881D01*
X16543295Y-12209928D01*
X16533771Y-12219452D01*
X16514724Y-12228976D01*
X16495676Y-12228976D01*
X16476628Y-12219452D01*
X16467105Y-12209928D01*
X16457581Y-12190881D01*
X16448057Y-12152786D01*
X16448057Y-12105166D01*
X16457581Y-12067071D01*
X16467105Y-12048024D01*
X16476628Y-12038500D01*
X16495676Y-12028976D01*
X16648057Y-12209928D02*
X16657581Y-12219452D01*
X16648057Y-12228976D01*
X16638533Y-12219452D01*
X16648057Y-12209928D01*
X16648057Y-12228976D01*
X16781390Y-12028976D02*
X16800438Y-12028976D01*
X16819486Y-12038500D01*
X16829010Y-12048024D01*
X16838533Y-12067071D01*
X16848057Y-12105166D01*
X16848057Y-12152786D01*
X16838533Y-12190881D01*
X16829010Y-12209928D01*
X16819486Y-12219452D01*
X16800438Y-12228976D01*
X16781390Y-12228976D01*
X16762343Y-12219452D01*
X16752819Y-12209928D01*
X16743295Y-12190881D01*
X16733771Y-12152786D01*
X16733771Y-12105166D01*
X16743295Y-12067071D01*
X16752819Y-12048024D01*
X16762343Y-12038500D01*
X16781390Y-12028976D01*
X16914724Y-12028976D02*
X17038533Y-12028976D01*
X16971867Y-12105166D01*
X17000438Y-12105166D01*
X17019486Y-12114690D01*
X17029010Y-12124214D01*
X17038533Y-12143262D01*
X17038533Y-12190881D01*
X17029010Y-12209928D01*
X17019486Y-12219452D01*
X17000438Y-12228976D01*
X16943295Y-12228976D01*
X16924248Y-12219452D01*
X16914724Y-12209928D01*
X17219486Y-12028976D02*
X17124248Y-12028976D01*
X17114724Y-12124214D01*
X17124248Y-12114690D01*
X17143295Y-12105166D01*
X17190914Y-12105166D01*
X17209962Y-12114690D01*
X17219486Y-12124214D01*
X17229010Y-12143262D01*
X17229010Y-12190881D01*
X17219486Y-12209928D01*
X17209962Y-12219452D01*
X17190914Y-12228976D01*
X17143295Y-12228976D01*
X17124248Y-12219452D01*
X17114724Y-12209928D01*
X17400438Y-12095643D02*
X17400438Y-12228976D01*
X17352819Y-12019452D02*
X17305200Y-12162309D01*
X17429010Y-12162309D01*
X17495676Y-12028976D02*
X17495676Y-12067071D01*
X17571867Y-12028976D02*
X17571867Y-12067071D01*
X17867105Y-12305166D02*
X17857581Y-12295643D01*
X17838533Y-12267071D01*
X17829010Y-12248024D01*
X17819486Y-12219452D01*
X17809962Y-12171833D01*
X17809962Y-12133738D01*
X17819486Y-12086119D01*
X17829010Y-12057547D01*
X17838533Y-12038500D01*
X17857581Y-12009928D01*
X17867105Y-12000405D01*
X17933771Y-12048024D02*
X17943295Y-12038500D01*
X17962343Y-12028976D01*
X18009962Y-12028976D01*
X18029010Y-12038500D01*
X18038533Y-12048024D01*
X18048057Y-12067071D01*
X18048057Y-12086119D01*
X18038533Y-12114690D01*
X17924248Y-12228976D01*
X18048057Y-12228976D01*
X18286152Y-12228976D02*
X18286152Y-12028976D01*
X18371867Y-12228976D02*
X18371867Y-12124214D01*
X18362343Y-12105166D01*
X18343295Y-12095643D01*
X18314724Y-12095643D01*
X18295676Y-12105166D01*
X18286152Y-12114690D01*
X18495676Y-12228976D02*
X18476629Y-12219452D01*
X18467105Y-12209928D01*
X18457581Y-12190881D01*
X18457581Y-12133738D01*
X18467105Y-12114690D01*
X18476629Y-12105166D01*
X18495676Y-12095643D01*
X18524248Y-12095643D01*
X18543295Y-12105166D01*
X18552819Y-12114690D01*
X18562343Y-12133738D01*
X18562343Y-12190881D01*
X18552819Y-12209928D01*
X18543295Y-12219452D01*
X18524248Y-12228976D01*
X18495676Y-12228976D01*
X18676629Y-12228976D02*
X18657581Y-12219452D01*
X18648057Y-12200405D01*
X18648057Y-12028976D01*
X18829010Y-12219452D02*
X18809962Y-12228976D01*
X18771867Y-12228976D01*
X18752819Y-12219452D01*
X18743295Y-12200405D01*
X18743295Y-12124214D01*
X18752819Y-12105166D01*
X18771867Y-12095643D01*
X18809962Y-12095643D01*
X18829010Y-12105166D01*
X18838533Y-12124214D01*
X18838533Y-12143262D01*
X18743295Y-12162309D01*
X18914724Y-12219452D02*
X18933771Y-12228976D01*
X18971867Y-12228976D01*
X18990914Y-12219452D01*
X19000438Y-12200405D01*
X19000438Y-12190881D01*
X18990914Y-12171833D01*
X18971867Y-12162309D01*
X18943295Y-12162309D01*
X18924248Y-12152786D01*
X18914724Y-12133738D01*
X18914724Y-12124214D01*
X18924248Y-12105166D01*
X18943295Y-12095643D01*
X18971867Y-12095643D01*
X18990914Y-12105166D01*
X19067105Y-12305166D02*
X19076629Y-12295643D01*
X19095676Y-12267071D01*
X19105200Y-12248024D01*
X19114724Y-12219452D01*
X19124248Y-12171833D01*
X19124248Y-12133738D01*
X19114724Y-12086119D01*
X19105200Y-12057547D01*
X19095676Y-12038500D01*
X19076629Y-12009928D01*
X19067105Y-12000405D01*
X19429010Y-12305166D02*
X19419486Y-12295643D01*
X19400438Y-12267071D01*
X19390914Y-12248024D01*
X19381390Y-12219452D01*
X19371867Y-12171833D01*
X19371867Y-12133738D01*
X19381390Y-12086119D01*
X19390914Y-12057547D01*
X19400438Y-12038500D01*
X19419486Y-12009928D01*
X19429010Y-12000405D01*
X19505200Y-12095643D02*
X19505200Y-12228976D01*
X19505200Y-12114690D02*
X19514724Y-12105166D01*
X19533771Y-12095643D01*
X19562343Y-12095643D01*
X19581390Y-12105166D01*
X19590914Y-12124214D01*
X19590914Y-12228976D01*
X19714724Y-12228976D02*
X19695676Y-12219452D01*
X19686152Y-12209928D01*
X19676629Y-12190881D01*
X19676629Y-12133738D01*
X19686152Y-12114690D01*
X19695676Y-12105166D01*
X19714724Y-12095643D01*
X19743295Y-12095643D01*
X19762343Y-12105166D01*
X19771867Y-12114690D01*
X19781390Y-12133738D01*
X19781390Y-12190881D01*
X19771867Y-12209928D01*
X19762343Y-12219452D01*
X19743295Y-12228976D01*
X19714724Y-12228976D01*
X19838533Y-12095643D02*
X19914724Y-12095643D01*
X19867105Y-12028976D02*
X19867105Y-12200405D01*
X19876629Y-12219452D01*
X19895676Y-12228976D01*
X19914724Y-12228976D01*
X20133771Y-12095643D02*
X20133771Y-12295643D01*
X20133771Y-12105166D02*
X20152819Y-12095643D01*
X20190914Y-12095643D01*
X20209962Y-12105166D01*
X20219486Y-12114690D01*
X20229010Y-12133738D01*
X20229010Y-12190881D01*
X20219486Y-12209928D01*
X20209962Y-12219452D01*
X20190914Y-12228976D01*
X20152819Y-12228976D01*
X20133771Y-12219452D01*
X20343295Y-12228976D02*
X20324248Y-12219452D01*
X20314724Y-12200405D01*
X20314724Y-12028976D01*
X20505200Y-12228976D02*
X20505200Y-12124214D01*
X20495676Y-12105166D01*
X20476629Y-12095643D01*
X20438533Y-12095643D01*
X20419486Y-12105166D01*
X20505200Y-12219452D02*
X20486152Y-12228976D01*
X20438533Y-12228976D01*
X20419486Y-12219452D01*
X20409962Y-12200405D01*
X20409962Y-12181357D01*
X20419486Y-12162309D01*
X20438533Y-12152786D01*
X20486152Y-12152786D01*
X20505200Y-12143262D01*
X20571867Y-12095643D02*
X20648057Y-12095643D01*
X20600438Y-12028976D02*
X20600438Y-12200405D01*
X20609962Y-12219452D01*
X20629010Y-12228976D01*
X20648057Y-12228976D01*
X20790914Y-12219452D02*
X20771867Y-12228976D01*
X20733771Y-12228976D01*
X20714724Y-12219452D01*
X20705200Y-12200405D01*
X20705200Y-12124214D01*
X20714724Y-12105166D01*
X20733771Y-12095643D01*
X20771867Y-12095643D01*
X20790914Y-12105166D01*
X20800438Y-12124214D01*
X20800438Y-12143262D01*
X20705200Y-12162309D01*
X20971867Y-12228976D02*
X20971867Y-12028976D01*
X20971867Y-12219452D02*
X20952819Y-12228976D01*
X20914724Y-12228976D01*
X20895676Y-12219452D01*
X20886152Y-12209928D01*
X20876629Y-12190881D01*
X20876629Y-12133738D01*
X20886152Y-12114690D01*
X20895676Y-12105166D01*
X20914724Y-12095643D01*
X20952819Y-12095643D01*
X20971867Y-12105166D01*
X21048057Y-12305166D02*
X21057581Y-12295643D01*
X21076629Y-12267071D01*
X21086152Y-12248024D01*
X21095676Y-12219452D01*
X21105200Y-12171833D01*
X21105200Y-12133738D01*
X21095676Y-12086119D01*
X21086152Y-12057547D01*
X21076629Y-12038500D01*
X21057581Y-12009928D01*
X21048057Y-12000405D01*
M02*
