%TF.GenerationSoftware,KiCad,Pcbnew,(6.0.4-0)*%
%TF.CreationDate,2022-11-06T15:53:12-07:00*%
%TF.ProjectId,ide_cable_select_switch,6964655f-6361-4626-9c65-5f73656c6563,rev?*%
%TF.SameCoordinates,Original*%
%TF.FileFunction,Paste,Top*%
%TF.FilePolarity,Positive*%
%FSLAX46Y46*%
G04 Gerber Fmt 4.6, Leading zero omitted, Abs format (unit mm)*
G04 Created by KiCad (PCBNEW (6.0.4-0)) date 2022-11-06 15:53:12*
%MOMM*%
%LPD*%
G01*
G04 APERTURE LIST*
%ADD10R,3.150000X1.000000*%
%ADD11R,1.000000X0.800000*%
%ADD12R,0.700000X1.500000*%
G04 APERTURE END LIST*
D10*
%TO.C,J3*%
X158765000Y-60452000D03*
X163815000Y-60452000D03*
X158765000Y-62992000D03*
X163815000Y-62992000D03*
X158765000Y-65532000D03*
X163815000Y-65532000D03*
X158765000Y-68072000D03*
X163815000Y-68072000D03*
X158765000Y-70612000D03*
X163815000Y-70612000D03*
X158765000Y-73152000D03*
X163815000Y-73152000D03*
X158765000Y-75692000D03*
X163815000Y-75692000D03*
X158765000Y-78232000D03*
X163815000Y-78232000D03*
X158765000Y-80772000D03*
X163815000Y-80772000D03*
X158765000Y-83312000D03*
X158765000Y-85852000D03*
X163815000Y-85852000D03*
X158765000Y-88392000D03*
X163815000Y-88392000D03*
X158765000Y-90932000D03*
X163815000Y-90932000D03*
X158765000Y-93472000D03*
X163815000Y-93472000D03*
X158765000Y-96012000D03*
X163815000Y-96012000D03*
X158765000Y-98552000D03*
X163815000Y-98552000D03*
X158765000Y-101092000D03*
X163815000Y-101092000D03*
X158765000Y-103632000D03*
X163815000Y-103632000D03*
X158765000Y-106172000D03*
X163815000Y-106172000D03*
X158765000Y-108712000D03*
X163815000Y-108712000D03*
%TD*%
%TO.C,J2*%
X146065000Y-60452000D03*
X151115000Y-60452000D03*
X146065000Y-62992000D03*
X151115000Y-62992000D03*
X146065000Y-65532000D03*
X151115000Y-65532000D03*
X146065000Y-68072000D03*
X151115000Y-68072000D03*
X146065000Y-70612000D03*
X151115000Y-70612000D03*
X146065000Y-73152000D03*
X151115000Y-73152000D03*
X146065000Y-75692000D03*
X151115000Y-75692000D03*
X146065000Y-78232000D03*
X151115000Y-78232000D03*
X146065000Y-80772000D03*
X151115000Y-80772000D03*
X146065000Y-83312000D03*
X146065000Y-85852000D03*
X151115000Y-85852000D03*
X146065000Y-88392000D03*
X151115000Y-88392000D03*
X146065000Y-90932000D03*
X151115000Y-90932000D03*
X146065000Y-93472000D03*
X151115000Y-93472000D03*
X146065000Y-96012000D03*
X151115000Y-96012000D03*
X146065000Y-98552000D03*
X151115000Y-98552000D03*
X146065000Y-101092000D03*
X151115000Y-101092000D03*
X146065000Y-103632000D03*
X151115000Y-103632000D03*
X146065000Y-106172000D03*
X151115000Y-106172000D03*
X146065000Y-108712000D03*
X151115000Y-108712000D03*
%TD*%
D11*
%TO.C,SW1*%
X158590000Y-112250000D03*
X151290000Y-114460000D03*
X158590000Y-114460000D03*
X151290000Y-112250000D03*
D12*
X152690000Y-111600000D03*
X155690000Y-111600000D03*
X157190000Y-111600000D03*
%TD*%
M02*
