%FSLAX45Y45*%
G04 Gerber Fmt 4.5, Leading zero omitted, Abs format (unit mm)*
G04 Created by KiCad (PCBNEW (6.0.4-0)) date 2022-11-07 18:10:48*
%MOMM*%
%LPD*%
G01*
G04 APERTURE LIST*
%TA.AperFunction,Profile*%
%ADD10C,0.100000*%
%TD*%
%ADD11C,0.200000*%
%ADD12C,0.040000*%
%ADD13C,0.100000*%
G04 APERTURE END LIST*
D10*
X16687800Y-11430000D02*
X16687800Y-5969000D01*
X16560800Y-5842000D02*
X14427200Y-5842000D01*
X14401800Y-11531600D02*
X16586200Y-11531600D01*
X14300200Y-11430000D02*
G75*
G03*
X14401800Y-11531600I101600J0D01*
G01*
X16586200Y-11531600D02*
G75*
G03*
X16687800Y-11430000I0J101600D01*
G01*
X16687800Y-5969000D02*
G75*
G03*
X16560800Y-5842000I-127000J0D01*
G01*
X14427200Y-5842000D02*
G75*
G03*
X14300200Y-5969000I0J-127000D01*
G01*
X14300200Y-5969000D02*
X14300200Y-11430000D01*
D11*
D12*
X14839000Y-9378000D02*
X14879000Y-9418000D01*
X14879000Y-9378000D02*
X14839000Y-9418000D01*
X15474000Y-5949000D02*
X15514000Y-5989000D01*
X15514000Y-5949000D02*
X15474000Y-5989000D01*
X15474000Y-6076000D02*
X15514000Y-6116000D01*
X15514000Y-6076000D02*
X15474000Y-6116000D01*
X15474000Y-6203000D02*
X15514000Y-6243000D01*
X15514000Y-6203000D02*
X15474000Y-6243000D01*
X15474000Y-6330000D02*
X15514000Y-6370000D01*
X15514000Y-6330000D02*
X15474000Y-6370000D01*
X15474000Y-6457000D02*
X15514000Y-6497000D01*
X15514000Y-6457000D02*
X15474000Y-6497000D01*
X15474000Y-6584000D02*
X15514000Y-6624000D01*
X15514000Y-6584000D02*
X15474000Y-6624000D01*
X15474000Y-6711000D02*
X15514000Y-6751000D01*
X15514000Y-6711000D02*
X15474000Y-6751000D01*
X15474000Y-6838000D02*
X15514000Y-6878000D01*
X15514000Y-6838000D02*
X15474000Y-6878000D01*
X15474000Y-6965000D02*
X15514000Y-7005000D01*
X15514000Y-6965000D02*
X15474000Y-7005000D01*
X15474000Y-7092000D02*
X15514000Y-7132000D01*
X15514000Y-7092000D02*
X15474000Y-7132000D01*
X15474000Y-7219000D02*
X15514000Y-7259000D01*
X15514000Y-7219000D02*
X15474000Y-7259000D01*
X15474000Y-7346000D02*
X15514000Y-7386000D01*
X15514000Y-7346000D02*
X15474000Y-7386000D01*
X15474000Y-7473000D02*
X15514000Y-7513000D01*
X15514000Y-7473000D02*
X15474000Y-7513000D01*
X15474000Y-7600000D02*
X15514000Y-7640000D01*
X15514000Y-7600000D02*
X15474000Y-7640000D01*
X15474000Y-7727000D02*
X15514000Y-7767000D01*
X15514000Y-7727000D02*
X15474000Y-7767000D01*
X15474000Y-7854000D02*
X15514000Y-7894000D01*
X15514000Y-7854000D02*
X15474000Y-7894000D01*
X15474000Y-7981000D02*
X15514000Y-8021000D01*
X15514000Y-7981000D02*
X15474000Y-8021000D01*
X15474000Y-8108000D02*
X15514000Y-8148000D01*
X15514000Y-8108000D02*
X15474000Y-8148000D01*
X15474000Y-8362000D02*
X15514000Y-8402000D01*
X15514000Y-8362000D02*
X15474000Y-8402000D01*
X15474000Y-8616000D02*
X15514000Y-8656000D01*
X15514000Y-8616000D02*
X15474000Y-8656000D01*
X15474000Y-8870000D02*
X15514000Y-8910000D01*
X15514000Y-8870000D02*
X15474000Y-8910000D01*
X15474000Y-9124000D02*
X15514000Y-9164000D01*
X15514000Y-9124000D02*
X15474000Y-9164000D01*
X15474000Y-9378000D02*
X15514000Y-9418000D01*
X15514000Y-9378000D02*
X15474000Y-9418000D01*
X15474000Y-9632000D02*
X15514000Y-9672000D01*
X15514000Y-9632000D02*
X15474000Y-9672000D01*
X15474000Y-9759000D02*
X15514000Y-9799000D01*
X15514000Y-9759000D02*
X15474000Y-9799000D01*
X15474000Y-9886000D02*
X15514000Y-9926000D01*
X15514000Y-9886000D02*
X15474000Y-9926000D01*
X15474000Y-10013000D02*
X15514000Y-10053000D01*
X15514000Y-10013000D02*
X15474000Y-10053000D01*
X15474000Y-10140000D02*
X15514000Y-10180000D01*
X15514000Y-10140000D02*
X15474000Y-10180000D01*
X15474000Y-10267000D02*
X15514000Y-10307000D01*
X15514000Y-10267000D02*
X15474000Y-10307000D01*
X15474000Y-10394000D02*
X15514000Y-10434000D01*
X15514000Y-10394000D02*
X15474000Y-10434000D01*
X15474000Y-10521000D02*
X15514000Y-10561000D01*
X15514000Y-10521000D02*
X15474000Y-10561000D01*
X15474000Y-10648000D02*
X15514000Y-10688000D01*
X15514000Y-10648000D02*
X15474000Y-10688000D01*
X15474000Y-10902000D02*
X15514000Y-10942000D01*
X15514000Y-10902000D02*
X15474000Y-10942000D01*
X16185200Y-9454200D02*
X16225200Y-9494200D01*
X16225200Y-9454200D02*
X16185200Y-9494200D01*
D13*
X15290000Y-11303000D02*
G75*
G03*
X15290000Y-11303000I-50000J0D01*
G01*
X15544000Y-11303000D02*
G75*
G03*
X15544000Y-11303000I-50000J0D01*
G01*
X15798000Y-11303000D02*
G75*
G03*
X15798000Y-11303000I-50000J0D01*
G01*
D11*
X14552819Y-11847076D02*
X14552819Y-11647076D01*
X14600438Y-11647076D01*
X14629009Y-11656600D01*
X14648057Y-11675648D01*
X14657581Y-11694695D01*
X14667105Y-11732790D01*
X14667105Y-11761362D01*
X14657581Y-11799457D01*
X14648057Y-11818505D01*
X14629009Y-11837552D01*
X14600438Y-11847076D01*
X14552819Y-11847076D01*
X14752819Y-11847076D02*
X14752819Y-11713743D01*
X14752819Y-11751838D02*
X14762343Y-11732790D01*
X14771867Y-11723267D01*
X14790914Y-11713743D01*
X14809962Y-11713743D01*
X14876628Y-11847076D02*
X14876628Y-11713743D01*
X14876628Y-11647076D02*
X14867105Y-11656600D01*
X14876628Y-11666124D01*
X14886152Y-11656600D01*
X14876628Y-11647076D01*
X14876628Y-11666124D01*
X15000438Y-11847076D02*
X14981390Y-11837552D01*
X14971867Y-11818505D01*
X14971867Y-11647076D01*
X15105200Y-11847076D02*
X15086152Y-11837552D01*
X15076628Y-11818505D01*
X15076628Y-11647076D01*
X15333771Y-11847076D02*
X15333771Y-11647076D01*
X15400438Y-11789933D01*
X15467105Y-11647076D01*
X15467105Y-11847076D01*
X15648057Y-11847076D02*
X15648057Y-11742314D01*
X15638533Y-11723267D01*
X15619486Y-11713743D01*
X15581390Y-11713743D01*
X15562343Y-11723267D01*
X15648057Y-11837552D02*
X15629009Y-11847076D01*
X15581390Y-11847076D01*
X15562343Y-11837552D01*
X15552819Y-11818505D01*
X15552819Y-11799457D01*
X15562343Y-11780409D01*
X15581390Y-11770886D01*
X15629009Y-11770886D01*
X15648057Y-11761362D01*
X15743295Y-11713743D02*
X15743295Y-11913743D01*
X15743295Y-11723267D02*
X15762343Y-11713743D01*
X15800438Y-11713743D01*
X15819486Y-11723267D01*
X15829009Y-11732790D01*
X15838533Y-11751838D01*
X15838533Y-11808981D01*
X15829009Y-11828028D01*
X15819486Y-11837552D01*
X15800438Y-11847076D01*
X15762343Y-11847076D01*
X15743295Y-11837552D01*
X15924248Y-11828028D02*
X15933771Y-11837552D01*
X15924248Y-11847076D01*
X15914724Y-11837552D01*
X15924248Y-11828028D01*
X15924248Y-11847076D01*
X15924248Y-11723267D02*
X15933771Y-11732790D01*
X15924248Y-11742314D01*
X15914724Y-11732790D01*
X15924248Y-11723267D01*
X15924248Y-11742314D01*
D12*
X14255200Y-12156600D02*
X14295200Y-12196600D01*
X14295200Y-12156600D02*
X14255200Y-12196600D01*
D11*
X14590914Y-12067076D02*
X14609962Y-12067076D01*
X14629009Y-12076600D01*
X14638533Y-12086124D01*
X14648057Y-12105171D01*
X14657581Y-12143267D01*
X14657581Y-12190886D01*
X14648057Y-12228981D01*
X14638533Y-12248028D01*
X14629009Y-12257552D01*
X14609962Y-12267076D01*
X14590914Y-12267076D01*
X14571867Y-12257552D01*
X14562343Y-12248028D01*
X14552819Y-12228981D01*
X14543295Y-12190886D01*
X14543295Y-12143267D01*
X14552819Y-12105171D01*
X14562343Y-12086124D01*
X14571867Y-12076600D01*
X14590914Y-12067076D01*
X14743295Y-12248028D02*
X14752819Y-12257552D01*
X14743295Y-12267076D01*
X14733771Y-12257552D01*
X14743295Y-12248028D01*
X14743295Y-12267076D01*
X14924248Y-12133743D02*
X14924248Y-12267076D01*
X14876628Y-12057552D02*
X14829009Y-12200409D01*
X14952819Y-12200409D01*
X15067105Y-12067076D02*
X15086152Y-12067076D01*
X15105200Y-12076600D01*
X15114724Y-12086124D01*
X15124248Y-12105171D01*
X15133771Y-12143267D01*
X15133771Y-12190886D01*
X15124248Y-12228981D01*
X15114724Y-12248028D01*
X15105200Y-12257552D01*
X15086152Y-12267076D01*
X15067105Y-12267076D01*
X15048057Y-12257552D01*
X15038533Y-12248028D01*
X15029009Y-12228981D01*
X15019486Y-12190886D01*
X15019486Y-12143267D01*
X15029009Y-12105171D01*
X15038533Y-12086124D01*
X15048057Y-12076600D01*
X15067105Y-12067076D01*
X15257581Y-12067076D02*
X15276628Y-12067076D01*
X15295676Y-12076600D01*
X15305200Y-12086124D01*
X15314724Y-12105171D01*
X15324248Y-12143267D01*
X15324248Y-12190886D01*
X15314724Y-12228981D01*
X15305200Y-12248028D01*
X15295676Y-12257552D01*
X15276628Y-12267076D01*
X15257581Y-12267076D01*
X15238533Y-12257552D01*
X15229009Y-12248028D01*
X15219486Y-12228981D01*
X15209962Y-12190886D01*
X15209962Y-12143267D01*
X15219486Y-12105171D01*
X15229009Y-12086124D01*
X15238533Y-12076600D01*
X15257581Y-12067076D01*
X15409962Y-12267076D02*
X15409962Y-12133743D01*
X15409962Y-12152790D02*
X15419486Y-12143267D01*
X15438533Y-12133743D01*
X15467105Y-12133743D01*
X15486152Y-12143267D01*
X15495676Y-12162314D01*
X15495676Y-12267076D01*
X15495676Y-12162314D02*
X15505200Y-12143267D01*
X15524248Y-12133743D01*
X15552819Y-12133743D01*
X15571867Y-12143267D01*
X15581390Y-12162314D01*
X15581390Y-12267076D01*
X15676628Y-12267076D02*
X15676628Y-12133743D01*
X15676628Y-12152790D02*
X15686152Y-12143267D01*
X15705200Y-12133743D01*
X15733771Y-12133743D01*
X15752819Y-12143267D01*
X15762343Y-12162314D01*
X15762343Y-12267076D01*
X15762343Y-12162314D02*
X15771867Y-12143267D01*
X15790914Y-12133743D01*
X15819486Y-12133743D01*
X15838533Y-12143267D01*
X15848057Y-12162314D01*
X15848057Y-12267076D01*
X16238533Y-12057552D02*
X16067105Y-12314695D01*
X16495676Y-12067076D02*
X16514724Y-12067076D01*
X16533771Y-12076600D01*
X16543295Y-12086124D01*
X16552819Y-12105171D01*
X16562343Y-12143267D01*
X16562343Y-12190886D01*
X16552819Y-12228981D01*
X16543295Y-12248028D01*
X16533771Y-12257552D01*
X16514724Y-12267076D01*
X16495676Y-12267076D01*
X16476628Y-12257552D01*
X16467105Y-12248028D01*
X16457581Y-12228981D01*
X16448057Y-12190886D01*
X16448057Y-12143267D01*
X16457581Y-12105171D01*
X16467105Y-12086124D01*
X16476628Y-12076600D01*
X16495676Y-12067076D01*
X16648057Y-12248028D02*
X16657581Y-12257552D01*
X16648057Y-12267076D01*
X16638533Y-12257552D01*
X16648057Y-12248028D01*
X16648057Y-12267076D01*
X16781390Y-12067076D02*
X16800438Y-12067076D01*
X16819486Y-12076600D01*
X16829010Y-12086124D01*
X16838533Y-12105171D01*
X16848057Y-12143267D01*
X16848057Y-12190886D01*
X16838533Y-12228981D01*
X16829010Y-12248028D01*
X16819486Y-12257552D01*
X16800438Y-12267076D01*
X16781390Y-12267076D01*
X16762343Y-12257552D01*
X16752819Y-12248028D01*
X16743295Y-12228981D01*
X16733771Y-12190886D01*
X16733771Y-12143267D01*
X16743295Y-12105171D01*
X16752819Y-12086124D01*
X16762343Y-12076600D01*
X16781390Y-12067076D01*
X17038533Y-12267076D02*
X16924248Y-12267076D01*
X16981390Y-12267076D02*
X16981390Y-12067076D01*
X16962343Y-12095648D01*
X16943295Y-12114695D01*
X16924248Y-12124219D01*
X17219486Y-12067076D02*
X17124248Y-12067076D01*
X17114724Y-12162314D01*
X17124248Y-12152790D01*
X17143295Y-12143267D01*
X17190914Y-12143267D01*
X17209962Y-12152790D01*
X17219486Y-12162314D01*
X17229010Y-12181362D01*
X17229010Y-12228981D01*
X17219486Y-12248028D01*
X17209962Y-12257552D01*
X17190914Y-12267076D01*
X17143295Y-12267076D01*
X17124248Y-12257552D01*
X17114724Y-12248028D01*
X17295676Y-12067076D02*
X17429010Y-12067076D01*
X17343295Y-12267076D01*
X17495676Y-12067076D02*
X17495676Y-12105171D01*
X17571867Y-12067076D02*
X17571867Y-12105171D01*
X17867105Y-12343267D02*
X17857581Y-12333743D01*
X17838533Y-12305171D01*
X17829010Y-12286124D01*
X17819486Y-12257552D01*
X17809962Y-12209933D01*
X17809962Y-12171838D01*
X17819486Y-12124219D01*
X17829010Y-12095648D01*
X17838533Y-12076600D01*
X17857581Y-12048028D01*
X17867105Y-12038505D01*
X17924248Y-12067076D02*
X18048057Y-12067076D01*
X17981390Y-12143267D01*
X18009962Y-12143267D01*
X18029010Y-12152790D01*
X18038533Y-12162314D01*
X18048057Y-12181362D01*
X18048057Y-12228981D01*
X18038533Y-12248028D01*
X18029010Y-12257552D01*
X18009962Y-12267076D01*
X17952819Y-12267076D01*
X17933771Y-12257552D01*
X17924248Y-12248028D01*
X18229010Y-12067076D02*
X18133771Y-12067076D01*
X18124248Y-12162314D01*
X18133771Y-12152790D01*
X18152819Y-12143267D01*
X18200438Y-12143267D01*
X18219486Y-12152790D01*
X18229010Y-12162314D01*
X18238533Y-12181362D01*
X18238533Y-12228981D01*
X18229010Y-12248028D01*
X18219486Y-12257552D01*
X18200438Y-12267076D01*
X18152819Y-12267076D01*
X18133771Y-12257552D01*
X18124248Y-12248028D01*
X18476629Y-12267076D02*
X18476629Y-12067076D01*
X18562343Y-12267076D02*
X18562343Y-12162314D01*
X18552819Y-12143267D01*
X18533771Y-12133743D01*
X18505200Y-12133743D01*
X18486152Y-12143267D01*
X18476629Y-12152790D01*
X18686152Y-12267076D02*
X18667105Y-12257552D01*
X18657581Y-12248028D01*
X18648057Y-12228981D01*
X18648057Y-12171838D01*
X18657581Y-12152790D01*
X18667105Y-12143267D01*
X18686152Y-12133743D01*
X18714724Y-12133743D01*
X18733771Y-12143267D01*
X18743295Y-12152790D01*
X18752819Y-12171838D01*
X18752819Y-12228981D01*
X18743295Y-12248028D01*
X18733771Y-12257552D01*
X18714724Y-12267076D01*
X18686152Y-12267076D01*
X18867105Y-12267076D02*
X18848057Y-12257552D01*
X18838533Y-12238505D01*
X18838533Y-12067076D01*
X19019486Y-12257552D02*
X19000438Y-12267076D01*
X18962343Y-12267076D01*
X18943295Y-12257552D01*
X18933771Y-12238505D01*
X18933771Y-12162314D01*
X18943295Y-12143267D01*
X18962343Y-12133743D01*
X19000438Y-12133743D01*
X19019486Y-12143267D01*
X19029010Y-12162314D01*
X19029010Y-12181362D01*
X18933771Y-12200409D01*
X19105200Y-12257552D02*
X19124248Y-12267076D01*
X19162343Y-12267076D01*
X19181390Y-12257552D01*
X19190914Y-12238505D01*
X19190914Y-12228981D01*
X19181390Y-12209933D01*
X19162343Y-12200409D01*
X19133771Y-12200409D01*
X19114724Y-12190886D01*
X19105200Y-12171838D01*
X19105200Y-12162314D01*
X19114724Y-12143267D01*
X19133771Y-12133743D01*
X19162343Y-12133743D01*
X19181390Y-12143267D01*
X19257581Y-12343267D02*
X19267105Y-12333743D01*
X19286152Y-12305171D01*
X19295676Y-12286124D01*
X19305200Y-12257552D01*
X19314724Y-12209933D01*
X19314724Y-12171838D01*
X19305200Y-12124219D01*
X19295676Y-12095648D01*
X19286152Y-12076600D01*
X19267105Y-12048028D01*
X19257581Y-12038505D01*
D13*
X14295200Y-12440600D02*
G75*
G03*
X14295200Y-12440600I-50000J0D01*
G01*
D11*
X14657581Y-12531076D02*
X14543295Y-12531076D01*
X14600438Y-12531076D02*
X14600438Y-12331076D01*
X14581390Y-12359648D01*
X14562343Y-12378695D01*
X14543295Y-12388219D01*
X14743295Y-12512028D02*
X14752819Y-12521552D01*
X14743295Y-12531076D01*
X14733771Y-12521552D01*
X14743295Y-12512028D01*
X14743295Y-12531076D01*
X14876628Y-12331076D02*
X14895676Y-12331076D01*
X14914724Y-12340600D01*
X14924248Y-12350124D01*
X14933771Y-12369171D01*
X14943295Y-12407267D01*
X14943295Y-12454886D01*
X14933771Y-12492981D01*
X14924248Y-12512028D01*
X14914724Y-12521552D01*
X14895676Y-12531076D01*
X14876628Y-12531076D01*
X14857581Y-12521552D01*
X14848057Y-12512028D01*
X14838533Y-12492981D01*
X14829009Y-12454886D01*
X14829009Y-12407267D01*
X14838533Y-12369171D01*
X14848057Y-12350124D01*
X14857581Y-12340600D01*
X14876628Y-12331076D01*
X15067105Y-12331076D02*
X15086152Y-12331076D01*
X15105200Y-12340600D01*
X15114724Y-12350124D01*
X15124248Y-12369171D01*
X15133771Y-12407267D01*
X15133771Y-12454886D01*
X15124248Y-12492981D01*
X15114724Y-12512028D01*
X15105200Y-12521552D01*
X15086152Y-12531076D01*
X15067105Y-12531076D01*
X15048057Y-12521552D01*
X15038533Y-12512028D01*
X15029009Y-12492981D01*
X15019486Y-12454886D01*
X15019486Y-12407267D01*
X15029009Y-12369171D01*
X15038533Y-12350124D01*
X15048057Y-12340600D01*
X15067105Y-12331076D01*
X15257581Y-12331076D02*
X15276628Y-12331076D01*
X15295676Y-12340600D01*
X15305200Y-12350124D01*
X15314724Y-12369171D01*
X15324248Y-12407267D01*
X15324248Y-12454886D01*
X15314724Y-12492981D01*
X15305200Y-12512028D01*
X15295676Y-12521552D01*
X15276628Y-12531076D01*
X15257581Y-12531076D01*
X15238533Y-12521552D01*
X15229009Y-12512028D01*
X15219486Y-12492981D01*
X15209962Y-12454886D01*
X15209962Y-12407267D01*
X15219486Y-12369171D01*
X15229009Y-12350124D01*
X15238533Y-12340600D01*
X15257581Y-12331076D01*
X15409962Y-12531076D02*
X15409962Y-12397743D01*
X15409962Y-12416790D02*
X15419486Y-12407267D01*
X15438533Y-12397743D01*
X15467105Y-12397743D01*
X15486152Y-12407267D01*
X15495676Y-12426314D01*
X15495676Y-12531076D01*
X15495676Y-12426314D02*
X15505200Y-12407267D01*
X15524248Y-12397743D01*
X15552819Y-12397743D01*
X15571867Y-12407267D01*
X15581390Y-12426314D01*
X15581390Y-12531076D01*
X15676628Y-12531076D02*
X15676628Y-12397743D01*
X15676628Y-12416790D02*
X15686152Y-12407267D01*
X15705200Y-12397743D01*
X15733771Y-12397743D01*
X15752819Y-12407267D01*
X15762343Y-12426314D01*
X15762343Y-12531076D01*
X15762343Y-12426314D02*
X15771867Y-12407267D01*
X15790914Y-12397743D01*
X15819486Y-12397743D01*
X15838533Y-12407267D01*
X15848057Y-12426314D01*
X15848057Y-12531076D01*
X16238533Y-12321552D02*
X16067105Y-12578695D01*
X16495676Y-12331076D02*
X16514724Y-12331076D01*
X16533771Y-12340600D01*
X16543295Y-12350124D01*
X16552819Y-12369171D01*
X16562343Y-12407267D01*
X16562343Y-12454886D01*
X16552819Y-12492981D01*
X16543295Y-12512028D01*
X16533771Y-12521552D01*
X16514724Y-12531076D01*
X16495676Y-12531076D01*
X16476628Y-12521552D01*
X16467105Y-12512028D01*
X16457581Y-12492981D01*
X16448057Y-12454886D01*
X16448057Y-12407267D01*
X16457581Y-12369171D01*
X16467105Y-12350124D01*
X16476628Y-12340600D01*
X16495676Y-12331076D01*
X16648057Y-12512028D02*
X16657581Y-12521552D01*
X16648057Y-12531076D01*
X16638533Y-12521552D01*
X16648057Y-12512028D01*
X16648057Y-12531076D01*
X16781390Y-12331076D02*
X16800438Y-12331076D01*
X16819486Y-12340600D01*
X16829010Y-12350124D01*
X16838533Y-12369171D01*
X16848057Y-12407267D01*
X16848057Y-12454886D01*
X16838533Y-12492981D01*
X16829010Y-12512028D01*
X16819486Y-12521552D01*
X16800438Y-12531076D01*
X16781390Y-12531076D01*
X16762343Y-12521552D01*
X16752819Y-12512028D01*
X16743295Y-12492981D01*
X16733771Y-12454886D01*
X16733771Y-12407267D01*
X16743295Y-12369171D01*
X16752819Y-12350124D01*
X16762343Y-12340600D01*
X16781390Y-12331076D01*
X16914724Y-12331076D02*
X17038533Y-12331076D01*
X16971867Y-12407267D01*
X17000438Y-12407267D01*
X17019486Y-12416790D01*
X17029010Y-12426314D01*
X17038533Y-12445362D01*
X17038533Y-12492981D01*
X17029010Y-12512028D01*
X17019486Y-12521552D01*
X17000438Y-12531076D01*
X16943295Y-12531076D01*
X16924248Y-12521552D01*
X16914724Y-12512028D01*
X17133771Y-12531076D02*
X17171867Y-12531076D01*
X17190914Y-12521552D01*
X17200438Y-12512028D01*
X17219486Y-12483457D01*
X17229010Y-12445362D01*
X17229010Y-12369171D01*
X17219486Y-12350124D01*
X17209962Y-12340600D01*
X17190914Y-12331076D01*
X17152819Y-12331076D01*
X17133771Y-12340600D01*
X17124248Y-12350124D01*
X17114724Y-12369171D01*
X17114724Y-12416790D01*
X17124248Y-12435838D01*
X17133771Y-12445362D01*
X17152819Y-12454886D01*
X17190914Y-12454886D01*
X17209962Y-12445362D01*
X17219486Y-12435838D01*
X17229010Y-12416790D01*
X17400438Y-12397743D02*
X17400438Y-12531076D01*
X17352819Y-12321552D02*
X17305200Y-12464409D01*
X17429010Y-12464409D01*
X17495676Y-12331076D02*
X17495676Y-12369171D01*
X17571867Y-12331076D02*
X17571867Y-12369171D01*
X17867105Y-12607267D02*
X17857581Y-12597743D01*
X17838533Y-12569171D01*
X17829010Y-12550124D01*
X17819486Y-12521552D01*
X17809962Y-12473933D01*
X17809962Y-12435838D01*
X17819486Y-12388219D01*
X17829010Y-12359648D01*
X17838533Y-12340600D01*
X17857581Y-12312028D01*
X17867105Y-12302505D01*
X17924248Y-12331076D02*
X18048057Y-12331076D01*
X17981390Y-12407267D01*
X18009962Y-12407267D01*
X18029010Y-12416790D01*
X18038533Y-12426314D01*
X18048057Y-12445362D01*
X18048057Y-12492981D01*
X18038533Y-12512028D01*
X18029010Y-12521552D01*
X18009962Y-12531076D01*
X17952819Y-12531076D01*
X17933771Y-12521552D01*
X17924248Y-12512028D01*
X18286152Y-12531076D02*
X18286152Y-12331076D01*
X18371867Y-12531076D02*
X18371867Y-12426314D01*
X18362343Y-12407267D01*
X18343295Y-12397743D01*
X18314724Y-12397743D01*
X18295676Y-12407267D01*
X18286152Y-12416790D01*
X18495676Y-12531076D02*
X18476629Y-12521552D01*
X18467105Y-12512028D01*
X18457581Y-12492981D01*
X18457581Y-12435838D01*
X18467105Y-12416790D01*
X18476629Y-12407267D01*
X18495676Y-12397743D01*
X18524248Y-12397743D01*
X18543295Y-12407267D01*
X18552819Y-12416790D01*
X18562343Y-12435838D01*
X18562343Y-12492981D01*
X18552819Y-12512028D01*
X18543295Y-12521552D01*
X18524248Y-12531076D01*
X18495676Y-12531076D01*
X18676629Y-12531076D02*
X18657581Y-12521552D01*
X18648057Y-12502505D01*
X18648057Y-12331076D01*
X18829010Y-12521552D02*
X18809962Y-12531076D01*
X18771867Y-12531076D01*
X18752819Y-12521552D01*
X18743295Y-12502505D01*
X18743295Y-12426314D01*
X18752819Y-12407267D01*
X18771867Y-12397743D01*
X18809962Y-12397743D01*
X18829010Y-12407267D01*
X18838533Y-12426314D01*
X18838533Y-12445362D01*
X18743295Y-12464409D01*
X18914724Y-12521552D02*
X18933771Y-12531076D01*
X18971867Y-12531076D01*
X18990914Y-12521552D01*
X19000438Y-12502505D01*
X19000438Y-12492981D01*
X18990914Y-12473933D01*
X18971867Y-12464409D01*
X18943295Y-12464409D01*
X18924248Y-12454886D01*
X18914724Y-12435838D01*
X18914724Y-12426314D01*
X18924248Y-12407267D01*
X18943295Y-12397743D01*
X18971867Y-12397743D01*
X18990914Y-12407267D01*
X19067105Y-12607267D02*
X19076629Y-12597743D01*
X19095676Y-12569171D01*
X19105200Y-12550124D01*
X19114724Y-12521552D01*
X19124248Y-12473933D01*
X19124248Y-12435838D01*
X19114724Y-12388219D01*
X19105200Y-12359648D01*
X19095676Y-12340600D01*
X19076629Y-12312028D01*
X19067105Y-12302505D01*
M02*
