%TF.GenerationSoftware,KiCad,Pcbnew,(6.0.4-0)*%
%TF.CreationDate,2022-11-06T15:53:12-07:00*%
%TF.ProjectId,ide_cable_select_switch,6964655f-6361-4626-9c65-5f73656c6563,rev?*%
%TF.SameCoordinates,Original*%
%TF.FileFunction,Legend,Bot*%
%TF.FilePolarity,Positive*%
%FSLAX46Y46*%
G04 Gerber Fmt 4.6, Leading zero omitted, Abs format (unit mm)*
G04 Created by KiCad (PCBNEW (6.0.4-0)) date 2022-11-06 15:53:12*
%MOMM*%
%LPD*%
G01*
G04 APERTURE LIST*
%ADD10C,0.150000*%
%ADD11C,0.120000*%
%ADD12R,3.150000X1.000000*%
%ADD13C,0.900000*%
G04 APERTURE END LIST*
D10*
X159829523Y-85367714D02*
X160067619Y-85367714D01*
X160067619Y-83939142D01*
X159829523Y-83939142D01*
X165019285Y-78183571D02*
X164209761Y-78183571D01*
X164114523Y-78231190D01*
X164066904Y-78278809D01*
X164019285Y-78374047D01*
X164019285Y-78516904D01*
X164066904Y-78612142D01*
X164400238Y-78183571D02*
X164352619Y-78278809D01*
X164352619Y-78469285D01*
X164400238Y-78564523D01*
X164447857Y-78612142D01*
X164543095Y-78659761D01*
X164828809Y-78659761D01*
X164924047Y-78612142D01*
X164971666Y-78564523D01*
X165019285Y-78469285D01*
X165019285Y-78278809D01*
X164971666Y-78183571D01*
X164352619Y-77707380D02*
X165019285Y-77707380D01*
X165352619Y-77707380D02*
X165305000Y-77755000D01*
X165257380Y-77707380D01*
X165305000Y-77659761D01*
X165352619Y-77707380D01*
X165257380Y-77707380D01*
X165019285Y-77374047D02*
X165019285Y-76993095D01*
X165352619Y-77231190D02*
X164495476Y-77231190D01*
X164400238Y-77183571D01*
X164352619Y-77088333D01*
X164352619Y-76993095D01*
X164352619Y-76659761D02*
X165352619Y-76659761D01*
X164352619Y-76231190D02*
X164876428Y-76231190D01*
X164971666Y-76278809D01*
X165019285Y-76374047D01*
X165019285Y-76516904D01*
X164971666Y-76612142D01*
X164924047Y-76659761D01*
X165019285Y-75326428D02*
X164352619Y-75326428D01*
X165019285Y-75755000D02*
X164495476Y-75755000D01*
X164400238Y-75707380D01*
X164352619Y-75612142D01*
X164352619Y-75469285D01*
X164400238Y-75374047D01*
X164447857Y-75326428D01*
X164352619Y-74850238D02*
X165352619Y-74850238D01*
X164971666Y-74850238D02*
X165019285Y-74755000D01*
X165019285Y-74564523D01*
X164971666Y-74469285D01*
X164924047Y-74421666D01*
X164828809Y-74374047D01*
X164543095Y-74374047D01*
X164447857Y-74421666D01*
X164400238Y-74469285D01*
X164352619Y-74564523D01*
X164352619Y-74755000D01*
X164400238Y-74850238D01*
X164447857Y-73945476D02*
X164400238Y-73897857D01*
X164352619Y-73945476D01*
X164400238Y-73993095D01*
X164447857Y-73945476D01*
X164352619Y-73945476D01*
X164400238Y-73040714D02*
X164352619Y-73135952D01*
X164352619Y-73326428D01*
X164400238Y-73421666D01*
X164447857Y-73469285D01*
X164543095Y-73516904D01*
X164828809Y-73516904D01*
X164924047Y-73469285D01*
X164971666Y-73421666D01*
X165019285Y-73326428D01*
X165019285Y-73135952D01*
X164971666Y-73040714D01*
X164352619Y-72469285D02*
X164400238Y-72564523D01*
X164447857Y-72612142D01*
X164543095Y-72659761D01*
X164828809Y-72659761D01*
X164924047Y-72612142D01*
X164971666Y-72564523D01*
X165019285Y-72469285D01*
X165019285Y-72326428D01*
X164971666Y-72231190D01*
X164924047Y-72183571D01*
X164828809Y-72135952D01*
X164543095Y-72135952D01*
X164447857Y-72183571D01*
X164400238Y-72231190D01*
X164352619Y-72326428D01*
X164352619Y-72469285D01*
X164352619Y-71707380D02*
X165019285Y-71707380D01*
X164924047Y-71707380D02*
X164971666Y-71659761D01*
X165019285Y-71564523D01*
X165019285Y-71421666D01*
X164971666Y-71326428D01*
X164876428Y-71278809D01*
X164352619Y-71278809D01*
X164876428Y-71278809D02*
X164971666Y-71231190D01*
X165019285Y-71135952D01*
X165019285Y-70993095D01*
X164971666Y-70897857D01*
X164876428Y-70850238D01*
X164352619Y-70850238D01*
X165400238Y-69659761D02*
X164114523Y-70516904D01*
X164352619Y-69421666D02*
X165019285Y-68897857D01*
X165019285Y-69421666D02*
X164352619Y-68897857D01*
X165019285Y-68088333D02*
X164352619Y-68088333D01*
X165019285Y-68516904D02*
X164495476Y-68516904D01*
X164400238Y-68469285D01*
X164352619Y-68374047D01*
X164352619Y-68231190D01*
X164400238Y-68135952D01*
X164447857Y-68088333D01*
X165019285Y-67612142D02*
X164352619Y-67612142D01*
X164924047Y-67612142D02*
X164971666Y-67564523D01*
X165019285Y-67469285D01*
X165019285Y-67326428D01*
X164971666Y-67231190D01*
X164876428Y-67183571D01*
X164352619Y-67183571D01*
X164352619Y-66707380D02*
X165352619Y-66707380D01*
X164733571Y-66612142D02*
X164352619Y-66326428D01*
X165019285Y-66326428D02*
X164638333Y-66707380D01*
X164400238Y-65516904D02*
X164352619Y-65612142D01*
X164352619Y-65802619D01*
X164400238Y-65897857D01*
X164495476Y-65945476D01*
X164876428Y-65945476D01*
X164971666Y-65897857D01*
X165019285Y-65802619D01*
X165019285Y-65612142D01*
X164971666Y-65516904D01*
X164876428Y-65469285D01*
X164781190Y-65469285D01*
X164685952Y-65945476D01*
X164352619Y-65040714D02*
X165019285Y-65040714D01*
X164828809Y-65040714D02*
X164924047Y-64993095D01*
X164971666Y-64945476D01*
X165019285Y-64850238D01*
X165019285Y-64755000D01*
X162361666Y-74683571D02*
X162409285Y-74731190D01*
X162552142Y-74826428D01*
X162647380Y-74874047D01*
X162790238Y-74921666D01*
X163028333Y-74969285D01*
X163218809Y-74969285D01*
X163456904Y-74921666D01*
X163599761Y-74874047D01*
X163695000Y-74826428D01*
X163837857Y-74731190D01*
X163885476Y-74683571D01*
X162837857Y-73731190D02*
X162790238Y-73778809D01*
X162742619Y-73921666D01*
X162742619Y-74016904D01*
X162790238Y-74159761D01*
X162885476Y-74255000D01*
X162980714Y-74302619D01*
X163171190Y-74350238D01*
X163314047Y-74350238D01*
X163504523Y-74302619D01*
X163599761Y-74255000D01*
X163695000Y-74159761D01*
X163742619Y-74016904D01*
X163742619Y-73921666D01*
X163695000Y-73778809D01*
X163647380Y-73731190D01*
X162361666Y-73397857D02*
X162409285Y-73350238D01*
X162552142Y-73255000D01*
X162647380Y-73207380D01*
X162790238Y-73159761D01*
X163028333Y-73112142D01*
X163218809Y-73112142D01*
X163456904Y-73159761D01*
X163599761Y-73207380D01*
X163695000Y-73255000D01*
X163837857Y-73350238D01*
X163885476Y-73397857D01*
X163647380Y-71921666D02*
X163695000Y-71874047D01*
X163742619Y-71778809D01*
X163742619Y-71540714D01*
X163695000Y-71445476D01*
X163647380Y-71397857D01*
X163552142Y-71350238D01*
X163456904Y-71350238D01*
X163314047Y-71397857D01*
X162742619Y-71969285D01*
X162742619Y-71350238D01*
X163742619Y-70731190D02*
X163742619Y-70635952D01*
X163695000Y-70540714D01*
X163647380Y-70493095D01*
X163552142Y-70445476D01*
X163361666Y-70397857D01*
X163123571Y-70397857D01*
X162933095Y-70445476D01*
X162837857Y-70493095D01*
X162790238Y-70540714D01*
X162742619Y-70635952D01*
X162742619Y-70731190D01*
X162790238Y-70826428D01*
X162837857Y-70874047D01*
X162933095Y-70921666D01*
X163123571Y-70969285D01*
X163361666Y-70969285D01*
X163552142Y-70921666D01*
X163647380Y-70874047D01*
X163695000Y-70826428D01*
X163742619Y-70731190D01*
X163647380Y-70016904D02*
X163695000Y-69969285D01*
X163742619Y-69874047D01*
X163742619Y-69635952D01*
X163695000Y-69540714D01*
X163647380Y-69493095D01*
X163552142Y-69445476D01*
X163456904Y-69445476D01*
X163314047Y-69493095D01*
X162742619Y-70064523D01*
X162742619Y-69445476D01*
X163647380Y-69064523D02*
X163695000Y-69016904D01*
X163742619Y-68921666D01*
X163742619Y-68683571D01*
X163695000Y-68588333D01*
X163647380Y-68540714D01*
X163552142Y-68493095D01*
X163456904Y-68493095D01*
X163314047Y-68540714D01*
X162742619Y-69112142D01*
X162742619Y-68493095D01*
X161227857Y-77993095D02*
X161180238Y-78040714D01*
X161132619Y-78183571D01*
X161132619Y-78278809D01*
X161180238Y-78421666D01*
X161275476Y-78516904D01*
X161370714Y-78564523D01*
X161561190Y-78612142D01*
X161704047Y-78612142D01*
X161894523Y-78564523D01*
X161989761Y-78516904D01*
X162085000Y-78421666D01*
X162132619Y-78278809D01*
X162132619Y-78183571D01*
X162085000Y-78040714D01*
X162037380Y-77993095D01*
X161227857Y-76993095D02*
X161180238Y-77040714D01*
X161132619Y-77183571D01*
X161132619Y-77278809D01*
X161180238Y-77421666D01*
X161275476Y-77516904D01*
X161370714Y-77564523D01*
X161561190Y-77612142D01*
X161704047Y-77612142D01*
X161894523Y-77564523D01*
X161989761Y-77516904D01*
X162085000Y-77421666D01*
X162132619Y-77278809D01*
X162132619Y-77183571D01*
X162085000Y-77040714D01*
X162037380Y-76993095D01*
X161132619Y-75802619D02*
X162132619Y-75802619D01*
X161132619Y-75231190D01*
X162132619Y-75231190D01*
X161227857Y-74183571D02*
X161180238Y-74231190D01*
X161132619Y-74374047D01*
X161132619Y-74469285D01*
X161180238Y-74612142D01*
X161275476Y-74707380D01*
X161370714Y-74755000D01*
X161561190Y-74802619D01*
X161704047Y-74802619D01*
X161894523Y-74755000D01*
X161989761Y-74707380D01*
X162085000Y-74612142D01*
X162132619Y-74469285D01*
X162132619Y-74374047D01*
X162085000Y-74231190D01*
X162037380Y-74183571D01*
X161513571Y-73755000D02*
X161513571Y-72993095D01*
X161656428Y-72183571D02*
X161608809Y-72040714D01*
X161561190Y-71993095D01*
X161465952Y-71945476D01*
X161323095Y-71945476D01*
X161227857Y-71993095D01*
X161180238Y-72040714D01*
X161132619Y-72135952D01*
X161132619Y-72516904D01*
X162132619Y-72516904D01*
X162132619Y-72183571D01*
X162085000Y-72088333D01*
X162037380Y-72040714D01*
X161942142Y-71993095D01*
X161846904Y-71993095D01*
X161751666Y-72040714D01*
X161704047Y-72088333D01*
X161656428Y-72183571D01*
X161656428Y-72516904D01*
X161608809Y-71326428D02*
X161132619Y-71326428D01*
X162132619Y-71659761D02*
X161608809Y-71326428D01*
X162132619Y-70993095D01*
X161513571Y-70659761D02*
X161513571Y-69897857D01*
X161180238Y-69469285D02*
X161132619Y-69326428D01*
X161132619Y-69088333D01*
X161180238Y-68993095D01*
X161227857Y-68945476D01*
X161323095Y-68897857D01*
X161418333Y-68897857D01*
X161513571Y-68945476D01*
X161561190Y-68993095D01*
X161608809Y-69088333D01*
X161656428Y-69278809D01*
X161704047Y-69374047D01*
X161751666Y-69421666D01*
X161846904Y-69469285D01*
X161942142Y-69469285D01*
X162037380Y-69421666D01*
X162085000Y-69374047D01*
X162132619Y-69278809D01*
X162132619Y-69040714D01*
X162085000Y-68897857D01*
X161418333Y-68516904D02*
X161418333Y-68040714D01*
X161132619Y-68612142D02*
X162132619Y-68278809D01*
X161132619Y-67945476D01*
X161799285Y-66421666D02*
X161132619Y-66421666D01*
X162180238Y-66659761D02*
X161465952Y-66897857D01*
X161465952Y-66278809D01*
X161227857Y-65897857D02*
X161180238Y-65850238D01*
X161132619Y-65897857D01*
X161180238Y-65945476D01*
X161227857Y-65897857D01*
X161132619Y-65897857D01*
X162132619Y-65231190D02*
X162132619Y-65135952D01*
X162085000Y-65040714D01*
X162037380Y-64993095D01*
X161942142Y-64945476D01*
X161751666Y-64897857D01*
X161513571Y-64897857D01*
X161323095Y-64945476D01*
X161227857Y-64993095D01*
X161180238Y-65040714D01*
X161132619Y-65135952D01*
X161132619Y-65231190D01*
X161180238Y-65326428D01*
X161227857Y-65374047D01*
X161323095Y-65421666D01*
X161513571Y-65469285D01*
X161751666Y-65469285D01*
X161942142Y-65421666D01*
X162037380Y-65374047D01*
X162085000Y-65326428D01*
X162132619Y-65231190D01*
X148229785Y-61974642D02*
X148272642Y-62103214D01*
X148272642Y-62317500D01*
X148229785Y-62403214D01*
X148186928Y-62446071D01*
X148101214Y-62488928D01*
X148015500Y-62488928D01*
X147929785Y-62446071D01*
X147886928Y-62403214D01*
X147844071Y-62317500D01*
X147801214Y-62146071D01*
X147758357Y-62060357D01*
X147715500Y-62017500D01*
X147629785Y-61974642D01*
X147544071Y-61974642D01*
X147458357Y-62017500D01*
X147415500Y-62060357D01*
X147372642Y-62146071D01*
X147372642Y-62360357D01*
X147415500Y-62488928D01*
X148229785Y-63217500D02*
X148272642Y-63131785D01*
X148272642Y-62960357D01*
X148229785Y-62874642D01*
X148144071Y-62831785D01*
X147801214Y-62831785D01*
X147715500Y-62874642D01*
X147672642Y-62960357D01*
X147672642Y-63131785D01*
X147715500Y-63217500D01*
X147801214Y-63260357D01*
X147886928Y-63260357D01*
X147972642Y-62831785D01*
X147672642Y-63517500D02*
X147672642Y-63860357D01*
X147372642Y-63646071D02*
X148144071Y-63646071D01*
X148229785Y-63688928D01*
X148272642Y-63774642D01*
X148272642Y-63860357D01*
X148272642Y-64846071D02*
X147372642Y-64846071D01*
X147715500Y-64846071D02*
X147672642Y-64931785D01*
X147672642Y-65103214D01*
X147715500Y-65188928D01*
X147758357Y-65231785D01*
X147844071Y-65274642D01*
X148101214Y-65274642D01*
X148186928Y-65231785D01*
X148229785Y-65188928D01*
X148272642Y-65103214D01*
X148272642Y-64931785D01*
X148229785Y-64846071D01*
X148272642Y-65788928D02*
X148229785Y-65703214D01*
X148186928Y-65660357D01*
X148101214Y-65617500D01*
X147844071Y-65617500D01*
X147758357Y-65660357D01*
X147715500Y-65703214D01*
X147672642Y-65788928D01*
X147672642Y-65917500D01*
X147715500Y-66003214D01*
X147758357Y-66046071D01*
X147844071Y-66088928D01*
X148101214Y-66088928D01*
X148186928Y-66046071D01*
X148229785Y-66003214D01*
X148272642Y-65917500D01*
X148272642Y-65788928D01*
X147672642Y-66346071D02*
X147672642Y-66688928D01*
X147372642Y-66474642D02*
X148144071Y-66474642D01*
X148229785Y-66517500D01*
X148272642Y-66603214D01*
X148272642Y-66688928D01*
X148272642Y-66988928D02*
X147372642Y-66988928D01*
X148272642Y-67374642D02*
X147801214Y-67374642D01*
X147715500Y-67331785D01*
X147672642Y-67246071D01*
X147672642Y-67117500D01*
X147715500Y-67031785D01*
X147758357Y-66988928D01*
X148229785Y-68874642D02*
X148272642Y-68788928D01*
X148272642Y-68617500D01*
X148229785Y-68531785D01*
X148186928Y-68488928D01*
X148101214Y-68446071D01*
X147844071Y-68446071D01*
X147758357Y-68488928D01*
X147715500Y-68531785D01*
X147672642Y-68617500D01*
X147672642Y-68788928D01*
X147715500Y-68874642D01*
X148272642Y-69388928D02*
X148229785Y-69303214D01*
X148186928Y-69260357D01*
X148101214Y-69217500D01*
X147844071Y-69217500D01*
X147758357Y-69260357D01*
X147715500Y-69303214D01*
X147672642Y-69388928D01*
X147672642Y-69517500D01*
X147715500Y-69603214D01*
X147758357Y-69646071D01*
X147844071Y-69688928D01*
X148101214Y-69688928D01*
X148186928Y-69646071D01*
X148229785Y-69603214D01*
X148272642Y-69517500D01*
X148272642Y-69388928D01*
X147672642Y-70074642D02*
X148272642Y-70074642D01*
X147758357Y-70074642D02*
X147715500Y-70117500D01*
X147672642Y-70203214D01*
X147672642Y-70331785D01*
X147715500Y-70417500D01*
X147801214Y-70460357D01*
X148272642Y-70460357D01*
X147672642Y-70888928D02*
X148272642Y-70888928D01*
X147758357Y-70888928D02*
X147715500Y-70931785D01*
X147672642Y-71017500D01*
X147672642Y-71146071D01*
X147715500Y-71231785D01*
X147801214Y-71274642D01*
X148272642Y-71274642D01*
X148229785Y-72046071D02*
X148272642Y-71960357D01*
X148272642Y-71788928D01*
X148229785Y-71703214D01*
X148144071Y-71660357D01*
X147801214Y-71660357D01*
X147715500Y-71703214D01*
X147672642Y-71788928D01*
X147672642Y-71960357D01*
X147715500Y-72046071D01*
X147801214Y-72088928D01*
X147886928Y-72088928D01*
X147972642Y-71660357D01*
X148229785Y-72860357D02*
X148272642Y-72774642D01*
X148272642Y-72603214D01*
X148229785Y-72517500D01*
X148186928Y-72474642D01*
X148101214Y-72431785D01*
X147844071Y-72431785D01*
X147758357Y-72474642D01*
X147715500Y-72517500D01*
X147672642Y-72603214D01*
X147672642Y-72774642D01*
X147715500Y-72860357D01*
X147672642Y-73117500D02*
X147672642Y-73460357D01*
X147372642Y-73246071D02*
X148144071Y-73246071D01*
X148229785Y-73288928D01*
X148272642Y-73374642D01*
X148272642Y-73460357D01*
X148229785Y-74103214D02*
X148272642Y-74017500D01*
X148272642Y-73846071D01*
X148229785Y-73760357D01*
X148144071Y-73717500D01*
X147801214Y-73717500D01*
X147715500Y-73760357D01*
X147672642Y-73846071D01*
X147672642Y-74017500D01*
X147715500Y-74103214D01*
X147801214Y-74146071D01*
X147886928Y-74146071D01*
X147972642Y-73717500D01*
X148272642Y-74917500D02*
X147372642Y-74917500D01*
X148229785Y-74917500D02*
X148272642Y-74831785D01*
X148272642Y-74660357D01*
X148229785Y-74574642D01*
X148186928Y-74531785D01*
X148101214Y-74488928D01*
X147844071Y-74488928D01*
X147758357Y-74531785D01*
X147715500Y-74574642D01*
X147672642Y-74660357D01*
X147672642Y-74831785D01*
X147715500Y-74917500D01*
X148272642Y-76417500D02*
X147372642Y-76417500D01*
X148229785Y-76417500D02*
X148272642Y-76331785D01*
X148272642Y-76160357D01*
X148229785Y-76074642D01*
X148186928Y-76031785D01*
X148101214Y-75988928D01*
X147844071Y-75988928D01*
X147758357Y-76031785D01*
X147715500Y-76074642D01*
X147672642Y-76160357D01*
X147672642Y-76331785D01*
X147715500Y-76417500D01*
X148272642Y-76846071D02*
X147672642Y-76846071D01*
X147844071Y-76846071D02*
X147758357Y-76888928D01*
X147715500Y-76931785D01*
X147672642Y-77017500D01*
X147672642Y-77103214D01*
X148272642Y-77403214D02*
X147672642Y-77403214D01*
X147372642Y-77403214D02*
X147415500Y-77360357D01*
X147458357Y-77403214D01*
X147415500Y-77446071D01*
X147372642Y-77403214D01*
X147458357Y-77403214D01*
X147672642Y-77746071D02*
X148272642Y-77960357D01*
X147672642Y-78174642D01*
X148229785Y-78860357D02*
X148272642Y-78774642D01*
X148272642Y-78603214D01*
X148229785Y-78517500D01*
X148144071Y-78474642D01*
X147801214Y-78474642D01*
X147715500Y-78517500D01*
X147672642Y-78603214D01*
X147672642Y-78774642D01*
X147715500Y-78860357D01*
X147801214Y-78903214D01*
X147886928Y-78903214D01*
X147972642Y-78474642D01*
X148229785Y-79246071D02*
X148272642Y-79331785D01*
X148272642Y-79503214D01*
X148229785Y-79588928D01*
X148144071Y-79631785D01*
X148101214Y-79631785D01*
X148015500Y-79588928D01*
X147972642Y-79503214D01*
X147972642Y-79374642D01*
X147929785Y-79288928D01*
X147844071Y-79246071D01*
X147801214Y-79246071D01*
X147715500Y-79288928D01*
X147672642Y-79374642D01*
X147672642Y-79503214D01*
X147715500Y-79588928D01*
X147672642Y-80574642D02*
X147672642Y-80917500D01*
X147372642Y-80703214D02*
X148144071Y-80703214D01*
X148229785Y-80746071D01*
X148272642Y-80831785D01*
X148272642Y-80917500D01*
X148272642Y-81346071D02*
X148229785Y-81260357D01*
X148186928Y-81217500D01*
X148101214Y-81174642D01*
X147844071Y-81174642D01*
X147758357Y-81217500D01*
X147715500Y-81260357D01*
X147672642Y-81346071D01*
X147672642Y-81474642D01*
X147715500Y-81560357D01*
X147758357Y-81603214D01*
X147844071Y-81646071D01*
X148101214Y-81646071D01*
X148186928Y-81603214D01*
X148229785Y-81560357D01*
X148272642Y-81474642D01*
X148272642Y-81346071D01*
X148821642Y-60903214D02*
X148993071Y-60903214D01*
X148821642Y-61246071D02*
X148993071Y-61246071D01*
X149635928Y-62146071D02*
X149678785Y-62103214D01*
X149721642Y-61974642D01*
X149721642Y-61888928D01*
X149678785Y-61760357D01*
X149593071Y-61674642D01*
X149507357Y-61631785D01*
X149335928Y-61588928D01*
X149207357Y-61588928D01*
X149035928Y-61631785D01*
X148950214Y-61674642D01*
X148864500Y-61760357D01*
X148821642Y-61888928D01*
X148821642Y-61974642D01*
X148864500Y-62103214D01*
X148907357Y-62146071D01*
X149678785Y-62488928D02*
X149721642Y-62617500D01*
X149721642Y-62831785D01*
X149678785Y-62917500D01*
X149635928Y-62960357D01*
X149550214Y-63003214D01*
X149464500Y-63003214D01*
X149378785Y-62960357D01*
X149335928Y-62917500D01*
X149293071Y-62831785D01*
X149250214Y-62660357D01*
X149207357Y-62574642D01*
X149164500Y-62531785D01*
X149078785Y-62488928D01*
X148993071Y-62488928D01*
X148907357Y-62531785D01*
X148864500Y-62574642D01*
X148821642Y-62660357D01*
X148821642Y-62874642D01*
X148864500Y-63003214D01*
X148821642Y-63346071D02*
X148993071Y-63346071D01*
X148821642Y-63688928D02*
X148993071Y-63688928D01*
X149721642Y-64888928D02*
X149678785Y-64803214D01*
X149635928Y-64760357D01*
X149550214Y-64717500D01*
X149293071Y-64717500D01*
X149207357Y-64760357D01*
X149164500Y-64803214D01*
X149121642Y-64888928D01*
X149121642Y-65017500D01*
X149164500Y-65103214D01*
X149207357Y-65146071D01*
X149293071Y-65188928D01*
X149550214Y-65188928D01*
X149635928Y-65146071D01*
X149678785Y-65103214D01*
X149721642Y-65017500D01*
X149721642Y-64888928D01*
X149721642Y-65574642D02*
X149121642Y-65574642D01*
X149293071Y-65574642D02*
X149207357Y-65617500D01*
X149164500Y-65660357D01*
X149121642Y-65746071D01*
X149121642Y-65831785D01*
X148821642Y-66774642D02*
X148993071Y-66774642D01*
X148821642Y-67117500D02*
X148993071Y-67117500D01*
X149635928Y-68017500D02*
X149678785Y-67974642D01*
X149721642Y-67846071D01*
X149721642Y-67760357D01*
X149678785Y-67631785D01*
X149593071Y-67546071D01*
X149507357Y-67503214D01*
X149335928Y-67460357D01*
X149207357Y-67460357D01*
X149035928Y-67503214D01*
X148950214Y-67546071D01*
X148864500Y-67631785D01*
X148821642Y-67760357D01*
X148821642Y-67846071D01*
X148864500Y-67974642D01*
X148907357Y-68017500D01*
X149678785Y-68360357D02*
X149721642Y-68488928D01*
X149721642Y-68703214D01*
X149678785Y-68788928D01*
X149635928Y-68831785D01*
X149550214Y-68874642D01*
X149464500Y-68874642D01*
X149378785Y-68831785D01*
X149335928Y-68788928D01*
X149293071Y-68703214D01*
X149250214Y-68531785D01*
X149207357Y-68446071D01*
X149164500Y-68403214D01*
X149078785Y-68360357D01*
X148993071Y-68360357D01*
X148907357Y-68403214D01*
X148864500Y-68446071D01*
X148821642Y-68531785D01*
X148821642Y-68746071D01*
X148864500Y-68874642D01*
X149250214Y-69260357D02*
X149250214Y-69560357D01*
X149721642Y-69688928D02*
X149721642Y-69260357D01*
X148821642Y-69260357D01*
X148821642Y-69688928D01*
X149721642Y-70503214D02*
X149721642Y-70074642D01*
X148821642Y-70074642D01*
X148821642Y-70760357D02*
X148993071Y-70760357D01*
X148821642Y-71103214D02*
X148993071Y-71103214D01*
X149121642Y-72174642D02*
X149893071Y-72174642D01*
X149978785Y-72131785D01*
X150021642Y-72046071D01*
X150021642Y-72003214D01*
X148821642Y-72174642D02*
X148864500Y-72131785D01*
X148907357Y-72174642D01*
X148864500Y-72217500D01*
X148821642Y-72174642D01*
X148907357Y-72174642D01*
X149121642Y-72988928D02*
X149721642Y-72988928D01*
X149121642Y-72603214D02*
X149593071Y-72603214D01*
X149678785Y-72646071D01*
X149721642Y-72731785D01*
X149721642Y-72860357D01*
X149678785Y-72946071D01*
X149635928Y-72988928D01*
X149721642Y-73417500D02*
X149121642Y-73417500D01*
X149207357Y-73417500D02*
X149164500Y-73460357D01*
X149121642Y-73546071D01*
X149121642Y-73674642D01*
X149164500Y-73760357D01*
X149250214Y-73803214D01*
X149721642Y-73803214D01*
X149250214Y-73803214D02*
X149164500Y-73846071D01*
X149121642Y-73931785D01*
X149121642Y-74060357D01*
X149164500Y-74146071D01*
X149250214Y-74188928D01*
X149721642Y-74188928D01*
X149121642Y-74617500D02*
X150021642Y-74617500D01*
X149164500Y-74617500D02*
X149121642Y-74703214D01*
X149121642Y-74874642D01*
X149164500Y-74960357D01*
X149207357Y-75003214D01*
X149293071Y-75046071D01*
X149550214Y-75046071D01*
X149635928Y-75003214D01*
X149678785Y-74960357D01*
X149721642Y-74874642D01*
X149721642Y-74703214D01*
X149678785Y-74617500D01*
X149678785Y-75774642D02*
X149721642Y-75688928D01*
X149721642Y-75517500D01*
X149678785Y-75431785D01*
X149593071Y-75388928D01*
X149250214Y-75388928D01*
X149164500Y-75431785D01*
X149121642Y-75517500D01*
X149121642Y-75688928D01*
X149164500Y-75774642D01*
X149250214Y-75817500D01*
X149335928Y-75817500D01*
X149421642Y-75388928D01*
X149721642Y-76203214D02*
X149121642Y-76203214D01*
X149293071Y-76203214D02*
X149207357Y-76246071D01*
X149164500Y-76288928D01*
X149121642Y-76374642D01*
X149121642Y-76460357D01*
X149678785Y-77403214D02*
X149721642Y-77488928D01*
X149721642Y-77660357D01*
X149678785Y-77746071D01*
X149593071Y-77788928D01*
X149550214Y-77788928D01*
X149464500Y-77746071D01*
X149421642Y-77660357D01*
X149421642Y-77531785D01*
X149378785Y-77446071D01*
X149293071Y-77403214D01*
X149250214Y-77403214D01*
X149164500Y-77446071D01*
X149121642Y-77531785D01*
X149121642Y-77660357D01*
X149164500Y-77746071D01*
X149678785Y-78517500D02*
X149721642Y-78431785D01*
X149721642Y-78260357D01*
X149678785Y-78174642D01*
X149593071Y-78131785D01*
X149250214Y-78131785D01*
X149164500Y-78174642D01*
X149121642Y-78260357D01*
X149121642Y-78431785D01*
X149164500Y-78517500D01*
X149250214Y-78560357D01*
X149335928Y-78560357D01*
X149421642Y-78131785D01*
X149121642Y-78817500D02*
X149121642Y-79160357D01*
X148821642Y-78946071D02*
X149593071Y-78946071D01*
X149678785Y-78988928D01*
X149721642Y-79074642D01*
X149721642Y-79160357D01*
X149121642Y-79331785D02*
X149121642Y-79674642D01*
X148821642Y-79460357D02*
X149593071Y-79460357D01*
X149678785Y-79503214D01*
X149721642Y-79588928D01*
X149721642Y-79674642D01*
X149721642Y-79974642D02*
X149121642Y-79974642D01*
X148821642Y-79974642D02*
X148864500Y-79931785D01*
X148907357Y-79974642D01*
X148864500Y-80017500D01*
X148821642Y-79974642D01*
X148907357Y-79974642D01*
X149121642Y-80403214D02*
X149721642Y-80403214D01*
X149207357Y-80403214D02*
X149164500Y-80446071D01*
X149121642Y-80531785D01*
X149121642Y-80660357D01*
X149164500Y-80746071D01*
X149250214Y-80788928D01*
X149721642Y-80788928D01*
X149121642Y-81603214D02*
X149850214Y-81603214D01*
X149935928Y-81560357D01*
X149978785Y-81517500D01*
X150021642Y-81431785D01*
X150021642Y-81303214D01*
X149978785Y-81217500D01*
X149678785Y-81603214D02*
X149721642Y-81517500D01*
X149721642Y-81346071D01*
X149678785Y-81260357D01*
X149635928Y-81217500D01*
X149550214Y-81174642D01*
X149293071Y-81174642D01*
X149207357Y-81217500D01*
X149164500Y-81260357D01*
X149121642Y-81346071D01*
X149121642Y-81517500D01*
X149164500Y-81603214D01*
X145345476Y-67593690D02*
X144095476Y-67593690D01*
X145345476Y-68188928D02*
X144095476Y-68188928D01*
X144095476Y-68486547D01*
X144155000Y-68665119D01*
X144274047Y-68784166D01*
X144393095Y-68843690D01*
X144631190Y-68903214D01*
X144809761Y-68903214D01*
X145047857Y-68843690D01*
X145166904Y-68784166D01*
X145285952Y-68665119D01*
X145345476Y-68486547D01*
X145345476Y-68188928D01*
X144690714Y-69438928D02*
X144690714Y-69855595D01*
X145345476Y-70034166D02*
X145345476Y-69438928D01*
X144095476Y-69438928D01*
X144095476Y-70034166D01*
X145345476Y-71522261D02*
X144095476Y-71522261D01*
X144095476Y-71819880D01*
X144155000Y-71998452D01*
X144274047Y-72117500D01*
X144393095Y-72177023D01*
X144631190Y-72236547D01*
X144809761Y-72236547D01*
X145047857Y-72177023D01*
X145166904Y-72117500D01*
X145285952Y-71998452D01*
X145345476Y-71819880D01*
X145345476Y-71522261D01*
X145345476Y-73486547D02*
X144750238Y-73069880D01*
X145345476Y-72772261D02*
X144095476Y-72772261D01*
X144095476Y-73248452D01*
X144155000Y-73367500D01*
X144214523Y-73427023D01*
X144333571Y-73486547D01*
X144512142Y-73486547D01*
X144631190Y-73427023D01*
X144690714Y-73367500D01*
X144750238Y-73248452D01*
X144750238Y-72772261D01*
X145345476Y-74022261D02*
X144095476Y-74022261D01*
X144095476Y-74438928D02*
X145345476Y-74855595D01*
X144095476Y-75272261D01*
X144690714Y-75688928D02*
X144690714Y-76105595D01*
X145345476Y-76284166D02*
X145345476Y-75688928D01*
X144095476Y-75688928D01*
X144095476Y-76284166D01*
X145226428Y-78486547D02*
X145285952Y-78427023D01*
X145345476Y-78248452D01*
X145345476Y-78129404D01*
X145285952Y-77950833D01*
X145166904Y-77831785D01*
X145047857Y-77772261D01*
X144809761Y-77712738D01*
X144631190Y-77712738D01*
X144393095Y-77772261D01*
X144274047Y-77831785D01*
X144155000Y-77950833D01*
X144095476Y-78129404D01*
X144095476Y-78248452D01*
X144155000Y-78427023D01*
X144214523Y-78486547D01*
X144988333Y-78962738D02*
X144988333Y-79557976D01*
X145345476Y-78843690D02*
X144095476Y-79260357D01*
X145345476Y-79677023D01*
X144690714Y-80510357D02*
X144750238Y-80688928D01*
X144809761Y-80748452D01*
X144928809Y-80807976D01*
X145107380Y-80807976D01*
X145226428Y-80748452D01*
X145285952Y-80688928D01*
X145345476Y-80569880D01*
X145345476Y-80093690D01*
X144095476Y-80093690D01*
X144095476Y-80510357D01*
X144155000Y-80629404D01*
X144214523Y-80688928D01*
X144333571Y-80748452D01*
X144452619Y-80748452D01*
X144571666Y-80688928D01*
X144631190Y-80629404D01*
X144690714Y-80510357D01*
X144690714Y-80093690D01*
X145345476Y-81938928D02*
X145345476Y-81343690D01*
X144095476Y-81343690D01*
X144690714Y-82355595D02*
X144690714Y-82772261D01*
X145345476Y-82950833D02*
X145345476Y-82355595D01*
X144095476Y-82355595D01*
X144095476Y-82950833D01*
X145285952Y-84379404D02*
X145345476Y-84557976D01*
X145345476Y-84855595D01*
X145285952Y-84974642D01*
X145226428Y-85034166D01*
X145107380Y-85093690D01*
X144988333Y-85093690D01*
X144869285Y-85034166D01*
X144809761Y-84974642D01*
X144750238Y-84855595D01*
X144690714Y-84617500D01*
X144631190Y-84498452D01*
X144571666Y-84438928D01*
X144452619Y-84379404D01*
X144333571Y-84379404D01*
X144214523Y-84438928D01*
X144155000Y-84498452D01*
X144095476Y-84617500D01*
X144095476Y-84915119D01*
X144155000Y-85093690D01*
X144690714Y-85629404D02*
X144690714Y-86046071D01*
X145345476Y-86224642D02*
X145345476Y-85629404D01*
X144095476Y-85629404D01*
X144095476Y-86224642D01*
X145345476Y-87355595D02*
X145345476Y-86760357D01*
X144095476Y-86760357D01*
X144690714Y-87772261D02*
X144690714Y-88188928D01*
X145345476Y-88367500D02*
X145345476Y-87772261D01*
X144095476Y-87772261D01*
X144095476Y-88367500D01*
X145226428Y-89617500D02*
X145285952Y-89557976D01*
X145345476Y-89379404D01*
X145345476Y-89260357D01*
X145285952Y-89081785D01*
X145166904Y-88962738D01*
X145047857Y-88903214D01*
X144809761Y-88843690D01*
X144631190Y-88843690D01*
X144393095Y-88903214D01*
X144274047Y-88962738D01*
X144155000Y-89081785D01*
X144095476Y-89260357D01*
X144095476Y-89379404D01*
X144155000Y-89557976D01*
X144214523Y-89617500D01*
X144095476Y-89974642D02*
X144095476Y-90688928D01*
X145345476Y-90331785D02*
X144095476Y-90331785D01*
X145285952Y-91998452D02*
X145345476Y-92177023D01*
X145345476Y-92474642D01*
X145285952Y-92593690D01*
X145226428Y-92653214D01*
X145107380Y-92712738D01*
X144988333Y-92712738D01*
X144869285Y-92653214D01*
X144809761Y-92593690D01*
X144750238Y-92474642D01*
X144690714Y-92236547D01*
X144631190Y-92117500D01*
X144571666Y-92057976D01*
X144452619Y-91998452D01*
X144333571Y-91998452D01*
X144214523Y-92057976D01*
X144155000Y-92117500D01*
X144095476Y-92236547D01*
X144095476Y-92534166D01*
X144155000Y-92712738D01*
X144095476Y-93129404D02*
X145345476Y-93427023D01*
X144452619Y-93665119D01*
X145345476Y-93903214D01*
X144095476Y-94200833D01*
X145345476Y-94677023D02*
X144095476Y-94677023D01*
X144095476Y-95093690D02*
X144095476Y-95807976D01*
X145345476Y-95450833D02*
X144095476Y-95450833D01*
X145226428Y-96938928D02*
X145285952Y-96879404D01*
X145345476Y-96700833D01*
X145345476Y-96581785D01*
X145285952Y-96403214D01*
X145166904Y-96284166D01*
X145047857Y-96224642D01*
X144809761Y-96165119D01*
X144631190Y-96165119D01*
X144393095Y-96224642D01*
X144274047Y-96284166D01*
X144155000Y-96403214D01*
X144095476Y-96581785D01*
X144095476Y-96700833D01*
X144155000Y-96879404D01*
X144214523Y-96938928D01*
X145345476Y-97474642D02*
X144095476Y-97474642D01*
X144690714Y-97474642D02*
X144690714Y-98188928D01*
X145345476Y-98188928D02*
X144095476Y-98188928D01*
X144690714Y-98784166D02*
X144690714Y-99200833D01*
X145345476Y-99379404D02*
X145345476Y-98784166D01*
X144095476Y-98784166D01*
X144095476Y-99379404D01*
X145345476Y-100629404D02*
X144750238Y-100212738D01*
X145345476Y-99915119D02*
X144095476Y-99915119D01*
X144095476Y-100391309D01*
X144155000Y-100510357D01*
X144214523Y-100569880D01*
X144333571Y-100629404D01*
X144512142Y-100629404D01*
X144631190Y-100569880D01*
X144690714Y-100510357D01*
X144750238Y-100391309D01*
X144750238Y-99915119D01*
X146013142Y-98185000D02*
X146013142Y-98356428D01*
X146056000Y-98442142D01*
X146141714Y-98527857D01*
X146313142Y-98570714D01*
X146613142Y-98570714D01*
X146784571Y-98527857D01*
X146870285Y-98442142D01*
X146913142Y-98356428D01*
X146913142Y-98185000D01*
X146870285Y-98099285D01*
X146784571Y-98013571D01*
X146613142Y-97970714D01*
X146313142Y-97970714D01*
X146141714Y-98013571D01*
X146056000Y-98099285D01*
X146013142Y-98185000D01*
X146913142Y-98956428D02*
X146013142Y-98956428D01*
X146913142Y-99470714D01*
X146013142Y-99470714D01*
X146913142Y-100327857D02*
X146913142Y-99899285D01*
X146013142Y-99899285D01*
X146484571Y-100799285D02*
X146913142Y-100799285D01*
X146013142Y-100499285D02*
X146484571Y-100799285D01*
X146013142Y-101099285D01*
X146870285Y-102470714D02*
X146913142Y-102385000D01*
X146913142Y-102213571D01*
X146870285Y-102127857D01*
X146827428Y-102085000D01*
X146741714Y-102042142D01*
X146484571Y-102042142D01*
X146398857Y-102085000D01*
X146356000Y-102127857D01*
X146313142Y-102213571D01*
X146313142Y-102385000D01*
X146356000Y-102470714D01*
X146913142Y-102856428D02*
X146013142Y-102856428D01*
X146913142Y-103242142D02*
X146441714Y-103242142D01*
X146356000Y-103199285D01*
X146313142Y-103113571D01*
X146313142Y-102985000D01*
X146356000Y-102899285D01*
X146398857Y-102856428D01*
X146913142Y-104056428D02*
X146441714Y-104056428D01*
X146356000Y-104013571D01*
X146313142Y-103927857D01*
X146313142Y-103756428D01*
X146356000Y-103670714D01*
X146870285Y-104056428D02*
X146913142Y-103970714D01*
X146913142Y-103756428D01*
X146870285Y-103670714D01*
X146784571Y-103627857D01*
X146698857Y-103627857D01*
X146613142Y-103670714D01*
X146570285Y-103756428D01*
X146570285Y-103970714D01*
X146527428Y-104056428D01*
X146313142Y-104485000D02*
X146913142Y-104485000D01*
X146398857Y-104485000D02*
X146356000Y-104527857D01*
X146313142Y-104613571D01*
X146313142Y-104742142D01*
X146356000Y-104827857D01*
X146441714Y-104870714D01*
X146913142Y-104870714D01*
X146313142Y-105685000D02*
X147041714Y-105685000D01*
X147127428Y-105642142D01*
X147170285Y-105599285D01*
X147213142Y-105513571D01*
X147213142Y-105385000D01*
X147170285Y-105299285D01*
X146870285Y-105685000D02*
X146913142Y-105599285D01*
X146913142Y-105427857D01*
X146870285Y-105342142D01*
X146827428Y-105299285D01*
X146741714Y-105256428D01*
X146484571Y-105256428D01*
X146398857Y-105299285D01*
X146356000Y-105342142D01*
X146313142Y-105427857D01*
X146313142Y-105599285D01*
X146356000Y-105685000D01*
X146870285Y-106456428D02*
X146913142Y-106370714D01*
X146913142Y-106199285D01*
X146870285Y-106113571D01*
X146784571Y-106070714D01*
X146441714Y-106070714D01*
X146356000Y-106113571D01*
X146313142Y-106199285D01*
X146313142Y-106370714D01*
X146356000Y-106456428D01*
X146441714Y-106499285D01*
X146527428Y-106499285D01*
X146613142Y-106070714D01*
X148362142Y-93299285D02*
X147462142Y-93299285D01*
X148105000Y-93599285D01*
X147462142Y-93899285D01*
X148362142Y-93899285D01*
X148362142Y-94713571D02*
X147890714Y-94713571D01*
X147805000Y-94670714D01*
X147762142Y-94585000D01*
X147762142Y-94413571D01*
X147805000Y-94327857D01*
X148319285Y-94713571D02*
X148362142Y-94627857D01*
X148362142Y-94413571D01*
X148319285Y-94327857D01*
X148233571Y-94285000D01*
X148147857Y-94285000D01*
X148062142Y-94327857D01*
X148019285Y-94413571D01*
X148019285Y-94627857D01*
X147976428Y-94713571D01*
X148319285Y-95099285D02*
X148362142Y-95185000D01*
X148362142Y-95356428D01*
X148319285Y-95442142D01*
X148233571Y-95485000D01*
X148190714Y-95485000D01*
X148105000Y-95442142D01*
X148062142Y-95356428D01*
X148062142Y-95227857D01*
X148019285Y-95142142D01*
X147933571Y-95099285D01*
X147890714Y-95099285D01*
X147805000Y-95142142D01*
X147762142Y-95227857D01*
X147762142Y-95356428D01*
X147805000Y-95442142D01*
X147762142Y-95742142D02*
X147762142Y-96085000D01*
X147462142Y-95870714D02*
X148233571Y-95870714D01*
X148319285Y-95913571D01*
X148362142Y-95999285D01*
X148362142Y-96085000D01*
X148319285Y-96727857D02*
X148362142Y-96642142D01*
X148362142Y-96470714D01*
X148319285Y-96385000D01*
X148233571Y-96342142D01*
X147890714Y-96342142D01*
X147805000Y-96385000D01*
X147762142Y-96470714D01*
X147762142Y-96642142D01*
X147805000Y-96727857D01*
X147890714Y-96770714D01*
X147976428Y-96770714D01*
X148062142Y-96342142D01*
X148362142Y-97156428D02*
X147762142Y-97156428D01*
X147933571Y-97156428D02*
X147847857Y-97199285D01*
X147805000Y-97242142D01*
X147762142Y-97327857D01*
X147762142Y-97413571D01*
X148362142Y-98399285D02*
X147462142Y-98399285D01*
X147462142Y-98613571D01*
X147505000Y-98742142D01*
X147590714Y-98827857D01*
X147676428Y-98870714D01*
X147847857Y-98913571D01*
X147976428Y-98913571D01*
X148147857Y-98870714D01*
X148233571Y-98827857D01*
X148319285Y-98742142D01*
X148362142Y-98613571D01*
X148362142Y-98399285D01*
X148362142Y-99299285D02*
X147762142Y-99299285D01*
X147933571Y-99299285D02*
X147847857Y-99342142D01*
X147805000Y-99385000D01*
X147762142Y-99470714D01*
X147762142Y-99556428D01*
X148362142Y-99856428D02*
X147762142Y-99856428D01*
X147462142Y-99856428D02*
X147505000Y-99813571D01*
X147547857Y-99856428D01*
X147505000Y-99899285D01*
X147462142Y-99856428D01*
X147547857Y-99856428D01*
X147762142Y-100199285D02*
X148362142Y-100413571D01*
X147762142Y-100627857D01*
X148319285Y-101313571D02*
X148362142Y-101227857D01*
X148362142Y-101056428D01*
X148319285Y-100970714D01*
X148233571Y-100927857D01*
X147890714Y-100927857D01*
X147805000Y-100970714D01*
X147762142Y-101056428D01*
X147762142Y-101227857D01*
X147805000Y-101313571D01*
X147890714Y-101356428D01*
X147976428Y-101356428D01*
X148062142Y-100927857D01*
X148319285Y-102385000D02*
X148362142Y-102513571D01*
X148362142Y-102727857D01*
X148319285Y-102813571D01*
X148276428Y-102856428D01*
X148190714Y-102899285D01*
X148105000Y-102899285D01*
X148019285Y-102856428D01*
X147976428Y-102813571D01*
X147933571Y-102727857D01*
X147890714Y-102556428D01*
X147847857Y-102470714D01*
X147805000Y-102427857D01*
X147719285Y-102385000D01*
X147633571Y-102385000D01*
X147547857Y-102427857D01*
X147505000Y-102470714D01*
X147462142Y-102556428D01*
X147462142Y-102770714D01*
X147505000Y-102899285D01*
X148319285Y-103627857D02*
X148362142Y-103542142D01*
X148362142Y-103370714D01*
X148319285Y-103285000D01*
X148233571Y-103242142D01*
X147890714Y-103242142D01*
X147805000Y-103285000D01*
X147762142Y-103370714D01*
X147762142Y-103542142D01*
X147805000Y-103627857D01*
X147890714Y-103670714D01*
X147976428Y-103670714D01*
X148062142Y-103242142D01*
X148362142Y-104185000D02*
X148319285Y-104099285D01*
X148233571Y-104056428D01*
X147462142Y-104056428D01*
X148319285Y-104870714D02*
X148362142Y-104785000D01*
X148362142Y-104613571D01*
X148319285Y-104527857D01*
X148233571Y-104485000D01*
X147890714Y-104485000D01*
X147805000Y-104527857D01*
X147762142Y-104613571D01*
X147762142Y-104785000D01*
X147805000Y-104870714D01*
X147890714Y-104913571D01*
X147976428Y-104913571D01*
X148062142Y-104485000D01*
X148319285Y-105685000D02*
X148362142Y-105599285D01*
X148362142Y-105427857D01*
X148319285Y-105342142D01*
X148276428Y-105299285D01*
X148190714Y-105256428D01*
X147933571Y-105256428D01*
X147847857Y-105299285D01*
X147805000Y-105342142D01*
X147762142Y-105427857D01*
X147762142Y-105599285D01*
X147805000Y-105685000D01*
X147762142Y-105942142D02*
X147762142Y-106285000D01*
X147462142Y-106070714D02*
X148233571Y-106070714D01*
X148319285Y-106113571D01*
X148362142Y-106199285D01*
X148362142Y-106285000D01*
X148319285Y-107227857D02*
X148362142Y-107356428D01*
X148362142Y-107570714D01*
X148319285Y-107656428D01*
X148276428Y-107699285D01*
X148190714Y-107742142D01*
X148105000Y-107742142D01*
X148019285Y-107699285D01*
X147976428Y-107656428D01*
X147933571Y-107570714D01*
X147890714Y-107399285D01*
X147847857Y-107313571D01*
X147805000Y-107270714D01*
X147719285Y-107227857D01*
X147633571Y-107227857D01*
X147547857Y-107270714D01*
X147505000Y-107313571D01*
X147462142Y-107399285D01*
X147462142Y-107613571D01*
X147505000Y-107742142D01*
X147762142Y-108042142D02*
X148362142Y-108213571D01*
X147933571Y-108385000D01*
X148362142Y-108556428D01*
X147762142Y-108727857D01*
X148362142Y-109070714D02*
X147762142Y-109070714D01*
X147462142Y-109070714D02*
X147505000Y-109027857D01*
X147547857Y-109070714D01*
X147505000Y-109113571D01*
X147462142Y-109070714D01*
X147547857Y-109070714D01*
X147762142Y-109370714D02*
X147762142Y-109713571D01*
X147462142Y-109499285D02*
X148233571Y-109499285D01*
X148319285Y-109542142D01*
X148362142Y-109627857D01*
X148362142Y-109713571D01*
X148319285Y-110399285D02*
X148362142Y-110313571D01*
X148362142Y-110142142D01*
X148319285Y-110056428D01*
X148276428Y-110013571D01*
X148190714Y-109970714D01*
X147933571Y-109970714D01*
X147847857Y-110013571D01*
X147805000Y-110056428D01*
X147762142Y-110142142D01*
X147762142Y-110313571D01*
X147805000Y-110399285D01*
X148362142Y-110785000D02*
X147462142Y-110785000D01*
X148362142Y-111170714D02*
X147890714Y-111170714D01*
X147805000Y-111127857D01*
X147762142Y-111042142D01*
X147762142Y-110913571D01*
X147805000Y-110827857D01*
X147847857Y-110785000D01*
X149211142Y-93192142D02*
X149811142Y-93363571D01*
X149382571Y-93535000D01*
X149811142Y-93706428D01*
X149211142Y-93877857D01*
X149811142Y-94220714D02*
X148911142Y-94220714D01*
X149811142Y-94606428D02*
X149339714Y-94606428D01*
X149254000Y-94563571D01*
X149211142Y-94477857D01*
X149211142Y-94349285D01*
X149254000Y-94263571D01*
X149296857Y-94220714D01*
X149811142Y-95035000D02*
X149211142Y-95035000D01*
X148911142Y-95035000D02*
X148954000Y-94992142D01*
X148996857Y-95035000D01*
X148954000Y-95077857D01*
X148911142Y-95035000D01*
X148996857Y-95035000D01*
X149811142Y-95592142D02*
X149768285Y-95506428D01*
X149682571Y-95463571D01*
X148911142Y-95463571D01*
X149768285Y-96277857D02*
X149811142Y-96192142D01*
X149811142Y-96020714D01*
X149768285Y-95935000D01*
X149682571Y-95892142D01*
X149339714Y-95892142D01*
X149254000Y-95935000D01*
X149211142Y-96020714D01*
X149211142Y-96192142D01*
X149254000Y-96277857D01*
X149339714Y-96320714D01*
X149425428Y-96320714D01*
X149511142Y-95892142D01*
X149768285Y-97349285D02*
X149811142Y-97435000D01*
X149811142Y-97606428D01*
X149768285Y-97692142D01*
X149682571Y-97735000D01*
X149639714Y-97735000D01*
X149554000Y-97692142D01*
X149511142Y-97606428D01*
X149511142Y-97477857D01*
X149468285Y-97392142D01*
X149382571Y-97349285D01*
X149339714Y-97349285D01*
X149254000Y-97392142D01*
X149211142Y-97477857D01*
X149211142Y-97606428D01*
X149254000Y-97692142D01*
X149211142Y-98035000D02*
X149811142Y-98249285D01*
X149211142Y-98463571D02*
X149811142Y-98249285D01*
X150025428Y-98163571D01*
X150068285Y-98120714D01*
X150111142Y-98035000D01*
X149768285Y-98763571D02*
X149811142Y-98849285D01*
X149811142Y-99020714D01*
X149768285Y-99106428D01*
X149682571Y-99149285D01*
X149639714Y-99149285D01*
X149554000Y-99106428D01*
X149511142Y-99020714D01*
X149511142Y-98892142D01*
X149468285Y-98806428D01*
X149382571Y-98763571D01*
X149339714Y-98763571D01*
X149254000Y-98806428D01*
X149211142Y-98892142D01*
X149211142Y-99020714D01*
X149254000Y-99106428D01*
X149211142Y-99406428D02*
X149211142Y-99749285D01*
X148911142Y-99535000D02*
X149682571Y-99535000D01*
X149768285Y-99577857D01*
X149811142Y-99663571D01*
X149811142Y-99749285D01*
X149768285Y-100392142D02*
X149811142Y-100306428D01*
X149811142Y-100135000D01*
X149768285Y-100049285D01*
X149682571Y-100006428D01*
X149339714Y-100006428D01*
X149254000Y-100049285D01*
X149211142Y-100135000D01*
X149211142Y-100306428D01*
X149254000Y-100392142D01*
X149339714Y-100435000D01*
X149425428Y-100435000D01*
X149511142Y-100006428D01*
X149811142Y-100820714D02*
X149211142Y-100820714D01*
X149296857Y-100820714D02*
X149254000Y-100863571D01*
X149211142Y-100949285D01*
X149211142Y-101077857D01*
X149254000Y-101163571D01*
X149339714Y-101206428D01*
X149811142Y-101206428D01*
X149339714Y-101206428D02*
X149254000Y-101249285D01*
X149211142Y-101335000D01*
X149211142Y-101463571D01*
X149254000Y-101549285D01*
X149339714Y-101592142D01*
X149811142Y-101592142D01*
X149211142Y-102706428D02*
X150111142Y-102706428D01*
X149254000Y-102706428D02*
X149211142Y-102792142D01*
X149211142Y-102963571D01*
X149254000Y-103049285D01*
X149296857Y-103092142D01*
X149382571Y-103135000D01*
X149639714Y-103135000D01*
X149725428Y-103092142D01*
X149768285Y-103049285D01*
X149811142Y-102963571D01*
X149811142Y-102792142D01*
X149768285Y-102706428D01*
X149811142Y-103649285D02*
X149768285Y-103563571D01*
X149725428Y-103520714D01*
X149639714Y-103477857D01*
X149382571Y-103477857D01*
X149296857Y-103520714D01*
X149254000Y-103563571D01*
X149211142Y-103649285D01*
X149211142Y-103777857D01*
X149254000Y-103863571D01*
X149296857Y-103906428D01*
X149382571Y-103949285D01*
X149639714Y-103949285D01*
X149725428Y-103906428D01*
X149768285Y-103863571D01*
X149811142Y-103777857D01*
X149811142Y-103649285D01*
X149211142Y-104249285D02*
X149811142Y-104420714D01*
X149382571Y-104592142D01*
X149811142Y-104763571D01*
X149211142Y-104935000D01*
X149768285Y-105620714D02*
X149811142Y-105535000D01*
X149811142Y-105363571D01*
X149768285Y-105277857D01*
X149682571Y-105235000D01*
X149339714Y-105235000D01*
X149254000Y-105277857D01*
X149211142Y-105363571D01*
X149211142Y-105535000D01*
X149254000Y-105620714D01*
X149339714Y-105663571D01*
X149425428Y-105663571D01*
X149511142Y-105235000D01*
X149811142Y-106049285D02*
X149211142Y-106049285D01*
X149382571Y-106049285D02*
X149296857Y-106092142D01*
X149254000Y-106135000D01*
X149211142Y-106220714D01*
X149211142Y-106306428D01*
X149811142Y-107292142D02*
X149211142Y-107292142D01*
X148911142Y-107292142D02*
X148954000Y-107249285D01*
X148996857Y-107292142D01*
X148954000Y-107335000D01*
X148911142Y-107292142D01*
X148996857Y-107292142D01*
X149768285Y-107677857D02*
X149811142Y-107763571D01*
X149811142Y-107935000D01*
X149768285Y-108020714D01*
X149682571Y-108063571D01*
X149639714Y-108063571D01*
X149554000Y-108020714D01*
X149511142Y-107935000D01*
X149511142Y-107806428D01*
X149468285Y-107720714D01*
X149382571Y-107677857D01*
X149339714Y-107677857D01*
X149254000Y-107720714D01*
X149211142Y-107806428D01*
X149211142Y-107935000D01*
X149254000Y-108020714D01*
X148911142Y-109306428D02*
X148911142Y-109477857D01*
X148954000Y-109563571D01*
X149039714Y-109649285D01*
X149211142Y-109692142D01*
X149511142Y-109692142D01*
X149682571Y-109649285D01*
X149768285Y-109563571D01*
X149811142Y-109477857D01*
X149811142Y-109306428D01*
X149768285Y-109220714D01*
X149682571Y-109135000D01*
X149511142Y-109092142D01*
X149211142Y-109092142D01*
X149039714Y-109135000D01*
X148954000Y-109220714D01*
X148911142Y-109306428D01*
X149339714Y-110377857D02*
X149339714Y-110077857D01*
X149811142Y-110077857D02*
X148911142Y-110077857D01*
X148911142Y-110506428D01*
X149339714Y-111149285D02*
X149339714Y-110849285D01*
X149811142Y-110849285D02*
X148911142Y-110849285D01*
X148911142Y-111277857D01*
X158178095Y-111577380D02*
X158178095Y-110577380D01*
X158178095Y-111053571D02*
X157606666Y-111053571D01*
X157606666Y-111577380D02*
X157606666Y-110577380D01*
X156940000Y-110577380D02*
X156749523Y-110577380D01*
X156654285Y-110625000D01*
X156559047Y-110720238D01*
X156511428Y-110910714D01*
X156511428Y-111244047D01*
X156559047Y-111434523D01*
X156654285Y-111529761D01*
X156749523Y-111577380D01*
X156940000Y-111577380D01*
X157035238Y-111529761D01*
X157130476Y-111434523D01*
X157178095Y-111244047D01*
X157178095Y-110910714D01*
X157130476Y-110720238D01*
X157035238Y-110625000D01*
X156940000Y-110577380D01*
X156130476Y-111529761D02*
X155987619Y-111577380D01*
X155749523Y-111577380D01*
X155654285Y-111529761D01*
X155606666Y-111482142D01*
X155559047Y-111386904D01*
X155559047Y-111291666D01*
X155606666Y-111196428D01*
X155654285Y-111148809D01*
X155749523Y-111101190D01*
X155940000Y-111053571D01*
X156035238Y-111005952D01*
X156082857Y-110958333D01*
X156130476Y-110863095D01*
X156130476Y-110767857D01*
X156082857Y-110672619D01*
X156035238Y-110625000D01*
X155940000Y-110577380D01*
X155701904Y-110577380D01*
X155559047Y-110625000D01*
X155273333Y-110577380D02*
X154701904Y-110577380D01*
X154987619Y-111577380D02*
X154987619Y-110577380D01*
X153606666Y-111577380D02*
X153606666Y-110577380D01*
X153130476Y-111577380D02*
X153130476Y-110577380D01*
X152892380Y-110577380D01*
X152749523Y-110625000D01*
X152654285Y-110720238D01*
X152606666Y-110815476D01*
X152559047Y-111005952D01*
X152559047Y-111148809D01*
X152606666Y-111339285D01*
X152654285Y-111434523D01*
X152749523Y-111529761D01*
X152892380Y-111577380D01*
X153130476Y-111577380D01*
X152130476Y-111053571D02*
X151797142Y-111053571D01*
X151654285Y-111577380D02*
X152130476Y-111577380D01*
X152130476Y-110577380D01*
X151654285Y-110577380D01*
X160369285Y-60142380D02*
X160940714Y-60142380D01*
X160655000Y-60142380D02*
X160655000Y-59142380D01*
X160750238Y-59285238D01*
X160845476Y-59380476D01*
X160940714Y-59428095D01*
X160837619Y-85597857D02*
X161837619Y-85597857D01*
X160837619Y-85026428D02*
X161409047Y-85455000D01*
X161837619Y-85026428D02*
X161266190Y-85597857D01*
X161361428Y-84597857D02*
X161361428Y-84264523D01*
X160837619Y-84121666D02*
X160837619Y-84597857D01*
X161837619Y-84597857D01*
X161837619Y-84121666D01*
X161313809Y-83502619D02*
X160837619Y-83502619D01*
X161837619Y-83835952D02*
X161313809Y-83502619D01*
X161837619Y-83169285D01*
%TO.C,J1*%
X155423333Y-59777380D02*
X155423333Y-60491666D01*
X155470952Y-60634523D01*
X155566190Y-60729761D01*
X155709047Y-60777380D01*
X155804285Y-60777380D01*
X154423333Y-60777380D02*
X154994761Y-60777380D01*
X154709047Y-60777380D02*
X154709047Y-59777380D01*
X154804285Y-59920238D01*
X154899523Y-60015476D01*
X154994761Y-60063095D01*
D11*
X152340000Y-66292000D02*
X152340000Y-67312000D01*
X157540000Y-71372000D02*
X157540000Y-72392000D01*
X157540000Y-59122000D02*
X157540000Y-59692000D01*
X152340000Y-71372000D02*
X152340000Y-72392000D01*
X152340000Y-63752000D02*
X152340000Y-64772000D01*
X157540000Y-89152000D02*
X157540000Y-90172000D01*
X157540000Y-63752000D02*
X157540000Y-64772000D01*
X152340000Y-106932000D02*
X152340000Y-107952000D01*
X157540000Y-96772000D02*
X157540000Y-97792000D01*
X157540000Y-101852000D02*
X157540000Y-102872000D01*
X157540000Y-109472000D02*
X157540000Y-110042000D01*
X152340000Y-99312000D02*
X152340000Y-100332000D01*
X158980000Y-59692000D02*
X157540000Y-59692000D01*
X157540000Y-86612000D02*
X157540000Y-87632000D01*
X157540000Y-91692000D02*
X157540000Y-92712000D01*
X157540000Y-104392000D02*
X157540000Y-105412000D01*
X157540000Y-59122000D02*
X152340000Y-59122000D01*
X157540000Y-76452000D02*
X157540000Y-77472000D01*
X152340000Y-104392000D02*
X152340000Y-105412000D01*
X152340000Y-89152000D02*
X152340000Y-90172000D01*
X152340000Y-81532000D02*
X152340000Y-85092000D01*
X157540000Y-99312000D02*
X157540000Y-100332000D01*
X157540000Y-110042000D02*
X152340000Y-110042000D01*
X152340000Y-91692000D02*
X152340000Y-92712000D01*
X152340000Y-94232000D02*
X152340000Y-95252000D01*
X152340000Y-76452000D02*
X152340000Y-77472000D01*
X157540000Y-68832000D02*
X157540000Y-69852000D01*
X152340000Y-109472000D02*
X152340000Y-110042000D01*
X157540000Y-106932000D02*
X157540000Y-107952000D01*
X152340000Y-86612000D02*
X152340000Y-87632000D01*
X152340000Y-96772000D02*
X152340000Y-97792000D01*
X157540000Y-78992000D02*
X157540000Y-80012000D01*
X152340000Y-73912000D02*
X152340000Y-74932000D01*
X152340000Y-78992000D02*
X152340000Y-80012000D01*
X152340000Y-59122000D02*
X152340000Y-59692000D01*
X152340000Y-101852000D02*
X152340000Y-102872000D01*
X157540000Y-61212000D02*
X157540000Y-62232000D01*
X157540000Y-81532000D02*
X157540000Y-82552000D01*
X157540000Y-84072000D02*
X157540000Y-85092000D01*
X157540000Y-66292000D02*
X157540000Y-67312000D01*
X152340000Y-68832000D02*
X152340000Y-69852000D01*
X157540000Y-94232000D02*
X157540000Y-95252000D01*
X157540000Y-73912000D02*
X157540000Y-74932000D01*
X152340000Y-61212000D02*
X152340000Y-62232000D01*
%TD*%
%LPC*%
D12*
%TO.C,J1*%
X157465000Y-60452000D03*
X152415000Y-60452000D03*
X157465000Y-62992000D03*
X152415000Y-62992000D03*
X157465000Y-65532000D03*
X152415000Y-65532000D03*
X157465000Y-68072000D03*
X152415000Y-68072000D03*
X157465000Y-70612000D03*
X152415000Y-70612000D03*
X157465000Y-73152000D03*
X152415000Y-73152000D03*
X157465000Y-75692000D03*
X152415000Y-75692000D03*
X157465000Y-78232000D03*
X152415000Y-78232000D03*
X157465000Y-80772000D03*
X152415000Y-80772000D03*
X157465000Y-83312000D03*
X157465000Y-85852000D03*
X152415000Y-85852000D03*
X157465000Y-88392000D03*
X152415000Y-88392000D03*
X157465000Y-90932000D03*
X152415000Y-90932000D03*
X157465000Y-93472000D03*
X152415000Y-93472000D03*
X157465000Y-96012000D03*
X152415000Y-96012000D03*
X157465000Y-98552000D03*
X152415000Y-98552000D03*
X157465000Y-101092000D03*
X152415000Y-101092000D03*
X157465000Y-103632000D03*
X152415000Y-103632000D03*
X157465000Y-106172000D03*
X152415000Y-106172000D03*
X157465000Y-108712000D03*
X152415000Y-108712000D03*
%TD*%
D13*
%TO.C,SW1*%
X156440000Y-113360000D03*
X153440000Y-113360000D03*
%TD*%
M02*
