%FSLAX45Y45*%
G04 Gerber Fmt 4.5, Leading zero omitted, Abs format (unit mm)*
G04 Created by KiCad (PCBNEW (6.0.4-0)) date 2022-11-11 17:00:13*
%MOMM*%
%LPD*%
G01*
G04 APERTURE LIST*
%TA.AperFunction,Profile*%
%ADD10C,0.100000*%
%TD*%
%ADD11C,0.200000*%
G04 APERTURE END LIST*
D10*
X16687800Y-11379200D02*
X16687800Y-5969000D01*
X16560800Y-5842000D02*
X14427200Y-5842000D01*
X14401800Y-11480800D02*
X16586200Y-11480800D01*
X14300200Y-11379200D02*
G75*
G03*
X14401800Y-11480800I101600J0D01*
G01*
X16586200Y-11480800D02*
G75*
G03*
X16687800Y-11379200I0J101600D01*
G01*
X16687800Y-5969000D02*
G75*
G03*
X16560800Y-5842000I-127000J0D01*
G01*
X14427200Y-5842000D02*
G75*
G03*
X14300200Y-5969000I0J-127000D01*
G01*
X14300200Y-5969000D02*
X14300200Y-11379200D01*
D11*
X14552819Y-11796276D02*
X14552819Y-11596276D01*
X14600438Y-11596276D01*
X14629009Y-11605800D01*
X14648057Y-11624848D01*
X14657581Y-11643895D01*
X14667105Y-11681990D01*
X14667105Y-11710562D01*
X14657581Y-11748657D01*
X14648057Y-11767705D01*
X14629009Y-11786752D01*
X14600438Y-11796276D01*
X14552819Y-11796276D01*
X14752819Y-11796276D02*
X14752819Y-11662943D01*
X14752819Y-11701038D02*
X14762343Y-11681990D01*
X14771867Y-11672467D01*
X14790914Y-11662943D01*
X14809962Y-11662943D01*
X14876628Y-11796276D02*
X14876628Y-11662943D01*
X14876628Y-11596276D02*
X14867105Y-11605800D01*
X14876628Y-11615324D01*
X14886152Y-11605800D01*
X14876628Y-11596276D01*
X14876628Y-11615324D01*
X15000438Y-11796276D02*
X14981390Y-11786752D01*
X14971867Y-11767705D01*
X14971867Y-11596276D01*
X15105200Y-11796276D02*
X15086152Y-11786752D01*
X15076628Y-11767705D01*
X15076628Y-11596276D01*
X15333771Y-11796276D02*
X15333771Y-11596276D01*
X15400438Y-11739133D01*
X15467105Y-11596276D01*
X15467105Y-11796276D01*
X15648057Y-11796276D02*
X15648057Y-11691514D01*
X15638533Y-11672467D01*
X15619486Y-11662943D01*
X15581390Y-11662943D01*
X15562343Y-11672467D01*
X15648057Y-11786752D02*
X15629009Y-11796276D01*
X15581390Y-11796276D01*
X15562343Y-11786752D01*
X15552819Y-11767705D01*
X15552819Y-11748657D01*
X15562343Y-11729609D01*
X15581390Y-11720086D01*
X15629009Y-11720086D01*
X15648057Y-11710562D01*
X15743295Y-11662943D02*
X15743295Y-11862943D01*
X15743295Y-11672467D02*
X15762343Y-11662943D01*
X15800438Y-11662943D01*
X15819486Y-11672467D01*
X15829009Y-11681990D01*
X15838533Y-11701038D01*
X15838533Y-11758181D01*
X15829009Y-11777228D01*
X15819486Y-11786752D01*
X15800438Y-11796276D01*
X15762343Y-11796276D01*
X15743295Y-11786752D01*
X15924248Y-11777228D02*
X15933771Y-11786752D01*
X15924248Y-11796276D01*
X15914724Y-11786752D01*
X15924248Y-11777228D01*
X15924248Y-11796276D01*
X15924248Y-11672467D02*
X15933771Y-11681990D01*
X15924248Y-11691514D01*
X15914724Y-11681990D01*
X15924248Y-11672467D01*
X15924248Y-11691514D01*
M02*
