%TF.GenerationSoftware,KiCad,Pcbnew,(6.0.4-0)*%
%TF.CreationDate,2022-06-07T12:02:57-06:00*%
%TF.ProjectId,ide_cable_select_switch,6964655f-6361-4626-9c65-5f73656c6563,rev?*%
%TF.SameCoordinates,Original*%
%TF.FileFunction,Copper,L1,Top*%
%TF.FilePolarity,Positive*%
%FSLAX46Y46*%
G04 Gerber Fmt 4.6, Leading zero omitted, Abs format (unit mm)*
G04 Created by KiCad (PCBNEW (6.0.4-0)) date 2022-06-07 12:02:57*
%MOMM*%
%LPD*%
G01*
G04 APERTURE LIST*
%TA.AperFunction,SMDPad,CuDef*%
%ADD10R,0.700000X1.500000*%
%TD*%
%TA.AperFunction,SMDPad,CuDef*%
%ADD11R,1.000000X0.800000*%
%TD*%
%TA.AperFunction,SMDPad,CuDef*%
%ADD12R,3.150000X1.000000*%
%TD*%
%TA.AperFunction,ViaPad*%
%ADD13C,0.800000*%
%TD*%
%TA.AperFunction,Conductor*%
%ADD14C,0.250000*%
%TD*%
G04 APERTURE END LIST*
D10*
%TO.P,SW1,3,C*%
%TO.N,CSEL_OUT_B*%
X157190000Y-111600000D03*
%TO.P,SW1,2,B*%
%TO.N,GND*%
X155690000Y-111600000D03*
%TO.P,SW1,1,A*%
%TO.N,CSEL_OUT_A*%
X152690000Y-111600000D03*
D11*
%TO.P,SW1,*%
%TO.N,*%
X151290000Y-112250000D03*
X151290000Y-114460000D03*
X158590000Y-114460000D03*
X158590000Y-112250000D03*
%TD*%
D12*
%TO.P,J2,1,Pin_1*%
%TO.N,RESET*%
X146065000Y-60452000D03*
%TO.P,J2,2,Pin_2*%
%TO.N,GND*%
X151115000Y-60452000D03*
%TO.P,J2,3,Pin_3*%
%TO.N,DB7*%
X146065000Y-62992000D03*
%TO.P,J2,4,Pin_4*%
%TO.N,DB8*%
X151115000Y-62992000D03*
%TO.P,J2,5,Pin_5*%
%TO.N,DB6*%
X146065000Y-65532000D03*
%TO.P,J2,6,Pin_6*%
%TO.N,DB9*%
X151115000Y-65532000D03*
%TO.P,J2,7,Pin_7*%
%TO.N,DB5*%
X146065000Y-68072000D03*
%TO.P,J2,8,Pin_8*%
%TO.N,DB10*%
X151115000Y-68072000D03*
%TO.P,J2,9,Pin_9*%
%TO.N,DB4*%
X146065000Y-70612000D03*
%TO.P,J2,10,Pin_10*%
%TO.N,DB11*%
X151115000Y-70612000D03*
%TO.P,J2,11,Pin_11*%
%TO.N,DB3*%
X146065000Y-73152000D03*
%TO.P,J2,12,Pin_12*%
%TO.N,DB12*%
X151115000Y-73152000D03*
%TO.P,J2,13,Pin_13*%
%TO.N,DB2*%
X146065000Y-75692000D03*
%TO.P,J2,14,Pin_14*%
%TO.N,DB13*%
X151115000Y-75692000D03*
%TO.P,J2,15,Pin_15*%
%TO.N,DB1*%
X146065000Y-78232000D03*
%TO.P,J2,16,Pin_16*%
%TO.N,DB14*%
X151115000Y-78232000D03*
%TO.P,J2,17,Pin_17*%
%TO.N,DB0*%
X146065000Y-80772000D03*
%TO.P,J2,18,Pin_18*%
%TO.N,DB15*%
X151115000Y-80772000D03*
%TO.P,J2,19,Pin_19*%
%TO.N,GND*%
X146065000Y-83312000D03*
%TO.P,J2,20,Pin_20*%
%TO.N,unconnected-(J2-Pad20)*%
X151115000Y-83312000D03*
%TO.P,J2,21,Pin_21*%
%TO.N,DRQ3*%
X146065000Y-85852000D03*
%TO.P,J2,22,Pin_22*%
%TO.N,GND*%
X151115000Y-85852000D03*
%TO.P,J2,23,Pin_23*%
%TO.N,IOW*%
X146065000Y-88392000D03*
%TO.P,J2,24,Pin_24*%
%TO.N,GND*%
X151115000Y-88392000D03*
%TO.P,J2,25,Pin_25*%
%TO.N,IOR*%
X146065000Y-90932000D03*
%TO.P,J2,26,Pin_26*%
%TO.N,GND*%
X151115000Y-90932000D03*
%TO.P,J2,27,Pin_27*%
%TO.N,IO_CH_RDY*%
X146065000Y-93472000D03*
%TO.P,J2,28,Pin_28*%
%TO.N,CSEL_OUT_A*%
X151115000Y-93472000D03*
%TO.P,J2,29,Pin_29*%
%TO.N,DACK3*%
X146065000Y-96012000D03*
%TO.P,J2,30,Pin_30*%
%TO.N,GND*%
X151115000Y-96012000D03*
%TO.P,J2,31,Pin_31*%
%TO.N,IRQ14*%
X146065000Y-98552000D03*
%TO.P,J2,32,Pin_32*%
%TO.N,RESERVED*%
X151115000Y-98552000D03*
%TO.P,J2,33,Pin_33*%
%TO.N,ADDRESS_BIT_1*%
X146065000Y-101092000D03*
%TO.P,J2,34,Pin_34*%
%TO.N,PDIAG*%
X151115000Y-101092000D03*
%TO.P,J2,35,Pin_35*%
%TO.N,ADDRESS_BIT_0*%
X146065000Y-103632000D03*
%TO.P,J2,36,Pin_36*%
%TO.N,ADDRESS_BIT_2*%
X151115000Y-103632000D03*
%TO.P,J2,37,Pin_37*%
%TO.N,CS1FX*%
X146065000Y-106172000D03*
%TO.P,J2,38,Pin_38*%
%TO.N,CS3FX*%
X151115000Y-106172000D03*
%TO.P,J2,39,Pin_39*%
%TO.N,DA_SP*%
X146065000Y-108712000D03*
%TO.P,J2,40,Pin_40*%
%TO.N,GND*%
X151115000Y-108712000D03*
%TD*%
%TO.P,J3,1,Pin_1*%
%TO.N,RESET*%
X158765000Y-60452000D03*
%TO.P,J3,2,Pin_2*%
%TO.N,GND*%
X163815000Y-60452000D03*
%TO.P,J3,3,Pin_3*%
%TO.N,DB7*%
X158765000Y-62992000D03*
%TO.P,J3,4,Pin_4*%
%TO.N,DB8*%
X163815000Y-62992000D03*
%TO.P,J3,5,Pin_5*%
%TO.N,DB6*%
X158765000Y-65532000D03*
%TO.P,J3,6,Pin_6*%
%TO.N,DB9*%
X163815000Y-65532000D03*
%TO.P,J3,7,Pin_7*%
%TO.N,DB5*%
X158765000Y-68072000D03*
%TO.P,J3,8,Pin_8*%
%TO.N,DB10*%
X163815000Y-68072000D03*
%TO.P,J3,9,Pin_9*%
%TO.N,DB4*%
X158765000Y-70612000D03*
%TO.P,J3,10,Pin_10*%
%TO.N,DB11*%
X163815000Y-70612000D03*
%TO.P,J3,11,Pin_11*%
%TO.N,DB3*%
X158765000Y-73152000D03*
%TO.P,J3,12,Pin_12*%
%TO.N,DB12*%
X163815000Y-73152000D03*
%TO.P,J3,13,Pin_13*%
%TO.N,DB2*%
X158765000Y-75692000D03*
%TO.P,J3,14,Pin_14*%
%TO.N,DB13*%
X163815000Y-75692000D03*
%TO.P,J3,15,Pin_15*%
%TO.N,DB1*%
X158765000Y-78232000D03*
%TO.P,J3,16,Pin_16*%
%TO.N,DB14*%
X163815000Y-78232000D03*
%TO.P,J3,17,Pin_17*%
%TO.N,DB0*%
X158765000Y-80772000D03*
%TO.P,J3,18,Pin_18*%
%TO.N,DB15*%
X163815000Y-80772000D03*
%TO.P,J3,19,Pin_19*%
%TO.N,GND*%
X158765000Y-83312000D03*
%TO.P,J3,20,Pin_20*%
%TO.N,unconnected-(J3-Pad20)*%
X163815000Y-83312000D03*
%TO.P,J3,21,Pin_21*%
%TO.N,DRQ3*%
X158765000Y-85852000D03*
%TO.P,J3,22,Pin_22*%
%TO.N,GND*%
X163815000Y-85852000D03*
%TO.P,J3,23,Pin_23*%
%TO.N,IOW*%
X158765000Y-88392000D03*
%TO.P,J3,24,Pin_24*%
%TO.N,GND*%
X163815000Y-88392000D03*
%TO.P,J3,25,Pin_25*%
%TO.N,IOR*%
X158765000Y-90932000D03*
%TO.P,J3,26,Pin_26*%
%TO.N,GND*%
X163815000Y-90932000D03*
%TO.P,J3,27,Pin_27*%
%TO.N,IO_CH_RDY*%
X158765000Y-93472000D03*
%TO.P,J3,28,Pin_28*%
%TO.N,CSEL_OUT_B*%
X163815000Y-93472000D03*
%TO.P,J3,29,Pin_29*%
%TO.N,DACK3*%
X158765000Y-96012000D03*
%TO.P,J3,30,Pin_30*%
%TO.N,GND*%
X163815000Y-96012000D03*
%TO.P,J3,31,Pin_31*%
%TO.N,IRQ14*%
X158765000Y-98552000D03*
%TO.P,J3,32,Pin_32*%
%TO.N,RESERVED*%
X163815000Y-98552000D03*
%TO.P,J3,33,Pin_33*%
%TO.N,ADDRESS_BIT_1*%
X158765000Y-101092000D03*
%TO.P,J3,34,Pin_34*%
%TO.N,PDIAG*%
X163815000Y-101092000D03*
%TO.P,J3,35,Pin_35*%
%TO.N,ADDRESS_BIT_0*%
X158765000Y-103632000D03*
%TO.P,J3,36,Pin_36*%
%TO.N,ADDRESS_BIT_2*%
X163815000Y-103632000D03*
%TO.P,J3,37,Pin_37*%
%TO.N,CS1FX*%
X158765000Y-106172000D03*
%TO.P,J3,38,Pin_38*%
%TO.N,CS3FX*%
X163815000Y-106172000D03*
%TO.P,J3,39,Pin_39*%
%TO.N,DA_SP*%
X158765000Y-108712000D03*
%TO.P,J3,40,Pin_40*%
%TO.N,GND*%
X163815000Y-108712000D03*
%TD*%
D13*
%TO.N,GND*%
X161290000Y-109220000D03*
%TO.N,CSEL_OUT_A*%
X149225000Y-111760000D03*
%TO.N,CSEL_OUT_B*%
X161290000Y-111125000D03*
%TO.N,RESET*%
X154940000Y-60960000D03*
%TO.N,GND*%
X148590000Y-109220000D03*
X162560000Y-84455000D03*
X148590000Y-84455000D03*
X154940000Y-59690000D03*
%TO.N,DB7*%
X154940000Y-63500000D03*
%TO.N,DB8*%
X154940000Y-62230000D03*
%TO.N,DB6*%
X154940000Y-66040000D03*
%TO.N,DB9*%
X154940000Y-64770000D03*
%TO.N,DB5*%
X154940000Y-68580000D03*
%TO.N,DB10*%
X154940000Y-67310000D03*
%TO.N,DB4*%
X154940000Y-71120000D03*
%TO.N,DB11*%
X154940000Y-69850000D03*
%TO.N,DB3*%
X154940000Y-73660000D03*
%TO.N,DB12*%
X154940000Y-72390000D03*
%TO.N,DB2*%
X154940000Y-76200000D03*
%TO.N,DB13*%
X154940000Y-74930000D03*
%TO.N,DB1*%
X154940000Y-78740000D03*
%TO.N,DB14*%
X154940000Y-77470000D03*
%TO.N,DB0*%
X154940000Y-81280000D03*
%TO.N,DB15*%
X154940000Y-80010000D03*
%TO.N,DRQ3*%
X154940000Y-86360000D03*
%TO.N,IOW*%
X154940000Y-88900000D03*
%TO.N,IOR*%
X154940000Y-91440000D03*
%TO.N,IO_CH_RDY*%
X154940000Y-93980000D03*
%TO.N,DACK3*%
X154940000Y-96520000D03*
%TO.N,IRQ14*%
X154940000Y-99060000D03*
%TO.N,RESERVED*%
X154940000Y-97790000D03*
%TO.N,ADDRESS_BIT_1*%
X154940000Y-101600000D03*
%TO.N,PDIAG*%
X154940000Y-100330000D03*
%TO.N,ADDRESS_BIT_0*%
X154940000Y-104140000D03*
%TO.N,ADDRESS_BIT_2*%
X154940000Y-102870000D03*
%TO.N,CS1FX*%
X154940000Y-106680000D03*
%TO.N,CS3FX*%
X154940000Y-105410000D03*
%TO.N,DA_SP*%
X154940000Y-109220000D03*
%TO.N,CSEL_OUT_A*%
X148590000Y-92880498D03*
%TO.N,CSEL_OUT_B*%
X162560000Y-94615000D03*
%TD*%
D14*
%TO.N,CSEL_OUT_B*%
X161290000Y-111125000D02*
X157665000Y-111125000D01*
X157665000Y-111125000D02*
X157190000Y-111600000D01*
%TO.N,DA_SP*%
X146065000Y-108712000D02*
X146889511Y-107887489D01*
X146889511Y-107887489D02*
X153607489Y-107887489D01*
X153607489Y-107887489D02*
X154940000Y-109220000D01*
%TO.N,CSEL_OUT_A*%
X152690000Y-111600000D02*
X152290000Y-111200000D01*
X149785000Y-111200000D02*
X149225000Y-111760000D01*
X152290000Y-111200000D02*
X149785000Y-111200000D01*
%TO.N,RESERVED*%
X163815000Y-98552000D02*
X162990489Y-97727489D01*
X155002511Y-97727489D02*
X154940000Y-97790000D01*
X162990489Y-97727489D02*
X155002511Y-97727489D01*
X151115000Y-98552000D02*
X154178000Y-98552000D01*
X154178000Y-98552000D02*
X154940000Y-97790000D01*
%TO.N,PDIAG*%
X151115000Y-101092000D02*
X154178000Y-101092000D01*
X162990489Y-100267489D02*
X155002511Y-100267489D01*
X163815000Y-101092000D02*
X162990489Y-100267489D01*
X155002511Y-100267489D02*
X154940000Y-100330000D01*
X154178000Y-101092000D02*
X154940000Y-100330000D01*
%TO.N,ADDRESS_BIT_2*%
X163815000Y-103632000D02*
X162990489Y-102807489D01*
X162990489Y-102807489D02*
X155002511Y-102807489D01*
X155002511Y-102807489D02*
X154940000Y-102870000D01*
X151115000Y-103632000D02*
X154178000Y-103632000D01*
X154178000Y-103632000D02*
X154940000Y-102870000D01*
%TO.N,CS3FX*%
X162990489Y-105347489D02*
X155002511Y-105347489D01*
X151115000Y-106172000D02*
X154178000Y-106172000D01*
X154178000Y-106172000D02*
X154940000Y-105410000D01*
X155002511Y-105347489D02*
X154940000Y-105410000D01*
X163815000Y-106172000D02*
X162990489Y-105347489D01*
%TO.N,CSEL_OUT_B*%
X162560000Y-94615000D02*
X162672000Y-94615000D01*
X162672000Y-94615000D02*
X163815000Y-93472000D01*
%TO.N,RESET*%
X146889511Y-61276511D02*
X154623489Y-61276511D01*
X146065000Y-60452000D02*
X146889511Y-61276511D01*
X155448000Y-60452000D02*
X154940000Y-60960000D01*
X154623489Y-61276511D02*
X154940000Y-60960000D01*
X158765000Y-60452000D02*
X155448000Y-60452000D01*
%TO.N,DB7*%
X146889511Y-63816511D02*
X154623489Y-63816511D01*
X155448000Y-62992000D02*
X154940000Y-63500000D01*
X154623489Y-63816511D02*
X154940000Y-63500000D01*
X158765000Y-62992000D02*
X155448000Y-62992000D01*
X146065000Y-62992000D02*
X146889511Y-63816511D01*
%TO.N,DB8*%
X154940000Y-62230000D02*
X155002511Y-62167489D01*
X162990489Y-62167489D02*
X163815000Y-62992000D01*
X151115000Y-62992000D02*
X154178000Y-62992000D01*
X155002511Y-62167489D02*
X162990489Y-62167489D01*
X154178000Y-62992000D02*
X154940000Y-62230000D01*
%TO.N,DB6*%
X146889511Y-66356511D02*
X154623489Y-66356511D01*
X155448000Y-65532000D02*
X154940000Y-66040000D01*
X146065000Y-65532000D02*
X146889511Y-66356511D01*
X158765000Y-65532000D02*
X155448000Y-65532000D01*
X154623489Y-66356511D02*
X154940000Y-66040000D01*
%TO.N,DB9*%
X154940000Y-64770000D02*
X155002511Y-64707489D01*
X154178000Y-65532000D02*
X154940000Y-64770000D01*
X162990489Y-64707489D02*
X163815000Y-65532000D01*
X151115000Y-65532000D02*
X154178000Y-65532000D01*
X155002511Y-64707489D02*
X162990489Y-64707489D01*
%TO.N,DB5*%
X146065000Y-68072000D02*
X146889511Y-68896511D01*
X154623489Y-68896511D02*
X154940000Y-68580000D01*
X146889511Y-68896511D02*
X154623489Y-68896511D01*
X155448000Y-68072000D02*
X154940000Y-68580000D01*
X158765000Y-68072000D02*
X155448000Y-68072000D01*
%TO.N,DB10*%
X155002511Y-67247489D02*
X162990489Y-67247489D01*
X151115000Y-68072000D02*
X154178000Y-68072000D01*
X162990489Y-67247489D02*
X163815000Y-68072000D01*
X154178000Y-68072000D02*
X154940000Y-67310000D01*
X154940000Y-67310000D02*
X155002511Y-67247489D01*
%TO.N,DB4*%
X155448000Y-70612000D02*
X154940000Y-71120000D01*
X146889511Y-71436511D02*
X154623489Y-71436511D01*
X146065000Y-70612000D02*
X146889511Y-71436511D01*
X154623489Y-71436511D02*
X154940000Y-71120000D01*
X158765000Y-70612000D02*
X155448000Y-70612000D01*
%TO.N,DB11*%
X162990489Y-69787489D02*
X163815000Y-70612000D01*
X155002511Y-69787489D02*
X162990489Y-69787489D01*
X151115000Y-70612000D02*
X154178000Y-70612000D01*
X154940000Y-69850000D02*
X155002511Y-69787489D01*
X154178000Y-70612000D02*
X154940000Y-69850000D01*
%TO.N,DB3*%
X146889511Y-73976511D02*
X154623489Y-73976511D01*
X155448000Y-73152000D02*
X154940000Y-73660000D01*
X146065000Y-73152000D02*
X146889511Y-73976511D01*
X158765000Y-73152000D02*
X155448000Y-73152000D01*
X154623489Y-73976511D02*
X154940000Y-73660000D01*
%TO.N,DB12*%
X155002511Y-72327489D02*
X162990489Y-72327489D01*
X151115000Y-73152000D02*
X154178000Y-73152000D01*
X154940000Y-72390000D02*
X155002511Y-72327489D01*
X154178000Y-73152000D02*
X154940000Y-72390000D01*
X162990489Y-72327489D02*
X163815000Y-73152000D01*
%TO.N,DB2*%
X154623489Y-76516511D02*
X154940000Y-76200000D01*
X146889511Y-76516511D02*
X154623489Y-76516511D01*
X155448000Y-75692000D02*
X154940000Y-76200000D01*
X158765000Y-75692000D02*
X155448000Y-75692000D01*
X146065000Y-75692000D02*
X146889511Y-76516511D01*
%TO.N,DB13*%
X155002511Y-74867489D02*
X162990489Y-74867489D01*
X151115000Y-75692000D02*
X154178000Y-75692000D01*
X162990489Y-74867489D02*
X163815000Y-75692000D01*
X154940000Y-74930000D02*
X155002511Y-74867489D01*
X154178000Y-75692000D02*
X154940000Y-74930000D01*
%TO.N,DB1*%
X155448000Y-78232000D02*
X154940000Y-78740000D01*
X154623489Y-79056511D02*
X154940000Y-78740000D01*
X146065000Y-78232000D02*
X146889511Y-79056511D01*
X158765000Y-78232000D02*
X155448000Y-78232000D01*
X146889511Y-79056511D02*
X154623489Y-79056511D01*
%TO.N,DB14*%
X154940000Y-77470000D02*
X155002511Y-77407489D01*
X155002511Y-77407489D02*
X162990489Y-77407489D01*
X151115000Y-78232000D02*
X154178000Y-78232000D01*
X162990489Y-77407489D02*
X163815000Y-78232000D01*
X154178000Y-78232000D02*
X154940000Y-77470000D01*
%TO.N,DB0*%
X146065000Y-80772000D02*
X146889511Y-81596511D01*
X158765000Y-80772000D02*
X155448000Y-80772000D01*
X155448000Y-80772000D02*
X154940000Y-81280000D01*
X146889511Y-81596511D02*
X154623489Y-81596511D01*
X154623489Y-81596511D02*
X154940000Y-81280000D01*
%TO.N,DB15*%
X151115000Y-80772000D02*
X154178000Y-80772000D01*
X162990489Y-79947489D02*
X163815000Y-80772000D01*
X155002511Y-79947489D02*
X162990489Y-79947489D01*
X154940000Y-80010000D02*
X155002511Y-79947489D01*
X154178000Y-80772000D02*
X154940000Y-80010000D01*
%TO.N,DRQ3*%
X158765000Y-85852000D02*
X155448000Y-85852000D01*
X154623489Y-86676511D02*
X154940000Y-86360000D01*
X146889511Y-86676511D02*
X154623489Y-86676511D01*
X146065000Y-85852000D02*
X146889511Y-86676511D01*
X155448000Y-85852000D02*
X154940000Y-86360000D01*
%TO.N,IOW*%
X154623489Y-89216511D02*
X154940000Y-88900000D01*
X146889511Y-89216511D02*
X154623489Y-89216511D01*
X155448000Y-88392000D02*
X154940000Y-88900000D01*
X146065000Y-88392000D02*
X146889511Y-89216511D01*
X158765000Y-88392000D02*
X155448000Y-88392000D01*
%TO.N,IOR*%
X146889511Y-90107489D02*
X153607489Y-90107489D01*
X158765000Y-90932000D02*
X155448000Y-90932000D01*
X146065000Y-90932000D02*
X146889511Y-90107489D01*
X153607489Y-90107489D02*
X154940000Y-91440000D01*
X155448000Y-90932000D02*
X154940000Y-91440000D01*
%TO.N,IO_CH_RDY*%
X153115987Y-92155987D02*
X154940000Y-93980000D01*
X146065000Y-93472000D02*
X147381013Y-92155987D01*
X147381013Y-92155987D02*
X153115987Y-92155987D01*
X155448000Y-93472000D02*
X154940000Y-93980000D01*
X158765000Y-93472000D02*
X155448000Y-93472000D01*
%TO.N,DACK3*%
X154623489Y-96836511D02*
X154940000Y-96520000D01*
X146889511Y-96836511D02*
X154623489Y-96836511D01*
X155448000Y-96012000D02*
X154940000Y-96520000D01*
X158765000Y-96012000D02*
X155448000Y-96012000D01*
X146065000Y-96012000D02*
X146889511Y-96836511D01*
%TO.N,IRQ14*%
X146889511Y-99376511D02*
X154623489Y-99376511D01*
X155448000Y-98552000D02*
X154940000Y-99060000D01*
X146065000Y-98552000D02*
X146889511Y-99376511D01*
X154623489Y-99376511D02*
X154940000Y-99060000D01*
X158765000Y-98552000D02*
X155448000Y-98552000D01*
%TO.N,ADDRESS_BIT_1*%
X147118489Y-102145489D02*
X154394511Y-102145489D01*
X155448000Y-101092000D02*
X154940000Y-101600000D01*
X146065000Y-101092000D02*
X147118489Y-102145489D01*
X158765000Y-101092000D02*
X155448000Y-101092000D01*
X154394511Y-102145489D02*
X154940000Y-101600000D01*
%TO.N,ADDRESS_BIT_0*%
X158765000Y-103632000D02*
X155448000Y-103632000D01*
X154623489Y-104456511D02*
X154940000Y-104140000D01*
X155448000Y-103632000D02*
X154940000Y-104140000D01*
X146889511Y-104456511D02*
X154623489Y-104456511D01*
X146065000Y-103632000D02*
X146889511Y-104456511D01*
%TO.N,CS1FX*%
X155448000Y-106172000D02*
X154940000Y-106680000D01*
X146889511Y-106996511D02*
X154623489Y-106996511D01*
X154623489Y-106996511D02*
X154940000Y-106680000D01*
X146065000Y-106172000D02*
X146889511Y-106996511D01*
X158765000Y-106172000D02*
X155448000Y-106172000D01*
%TO.N,DA_SP*%
X155448000Y-108712000D02*
X154940000Y-109220000D01*
X158765000Y-108712000D02*
X155448000Y-108712000D01*
%TO.N,CSEL_OUT_A*%
X148590000Y-92880498D02*
X149181502Y-93472000D01*
X149181502Y-93472000D02*
X151115000Y-93472000D01*
%TD*%
%TA.AperFunction,Conductor*%
%TO.N,GND*%
G36*
X165578018Y-58930000D02*
G01*
X165592852Y-58932310D01*
X165592855Y-58932310D01*
X165601724Y-58933691D01*
X165611659Y-58932392D01*
X165612746Y-58932250D01*
X165641431Y-58931793D01*
X165714741Y-58939013D01*
X165744212Y-58941916D01*
X165768432Y-58946733D01*
X165887546Y-58982866D01*
X165910355Y-58992315D01*
X166020124Y-59050987D01*
X166040655Y-59064705D01*
X166136876Y-59143671D01*
X166154329Y-59161124D01*
X166233295Y-59257345D01*
X166247013Y-59277876D01*
X166305685Y-59387645D01*
X166315134Y-59410454D01*
X166351267Y-59529568D01*
X166356084Y-59553789D01*
X166365541Y-59649809D01*
X166365091Y-59665868D01*
X166365800Y-59665877D01*
X166365690Y-59674853D01*
X166364309Y-59683724D01*
X166365473Y-59692626D01*
X166365473Y-59692628D01*
X166368436Y-59715283D01*
X166369500Y-59731621D01*
X166369499Y-113615632D01*
X166367999Y-113635017D01*
X166367268Y-113639716D01*
X166364308Y-113658723D01*
X166365472Y-113667625D01*
X166365749Y-113669745D01*
X166366206Y-113698430D01*
X166365541Y-113705183D01*
X166356083Y-113801212D01*
X166351264Y-113825438D01*
X166315136Y-113944536D01*
X166305685Y-113967355D01*
X166275189Y-114024409D01*
X166247012Y-114077124D01*
X166233294Y-114097654D01*
X166154328Y-114193875D01*
X166136875Y-114211328D01*
X166040654Y-114290294D01*
X166020127Y-114304010D01*
X165928771Y-114352841D01*
X165910356Y-114362684D01*
X165887546Y-114372133D01*
X165768432Y-114408266D01*
X165744211Y-114413083D01*
X165648190Y-114422540D01*
X165632131Y-114422090D01*
X165632122Y-114422799D01*
X165623146Y-114422689D01*
X165614275Y-114421308D01*
X165605373Y-114422472D01*
X165605371Y-114422472D01*
X165592855Y-114424109D01*
X165582713Y-114425435D01*
X165566378Y-114426499D01*
X159724500Y-114426499D01*
X159656379Y-114406497D01*
X159609886Y-114352841D01*
X159598500Y-114300499D01*
X159598500Y-114011866D01*
X159591745Y-113949684D01*
X159540615Y-113813295D01*
X159453261Y-113696739D01*
X159336705Y-113609385D01*
X159200316Y-113558255D01*
X159138134Y-113551500D01*
X158041866Y-113551500D01*
X157979684Y-113558255D01*
X157843295Y-113609385D01*
X157726739Y-113696739D01*
X157639385Y-113813295D01*
X157588255Y-113949684D01*
X157581500Y-114011866D01*
X157581500Y-114300499D01*
X157561498Y-114368620D01*
X157507842Y-114415113D01*
X157455500Y-114426499D01*
X156980279Y-114426499D01*
X156912158Y-114406497D01*
X156865665Y-114352841D01*
X156855561Y-114282567D01*
X156885055Y-114217987D01*
X156919192Y-114190297D01*
X156984271Y-114154223D01*
X156984274Y-114154221D01*
X156989850Y-114151130D01*
X156994691Y-114146981D01*
X156994695Y-114146978D01*
X157132855Y-114028560D01*
X157137698Y-114024409D01*
X157147428Y-114011866D01*
X157253131Y-113875594D01*
X157257046Y-113870547D01*
X157279243Y-113825438D01*
X157340200Y-113701556D01*
X157343018Y-113695829D01*
X157347779Y-113677551D01*
X157390492Y-113513575D01*
X157390492Y-113513572D01*
X157392102Y-113507393D01*
X157402293Y-113312936D01*
X157373175Y-113120401D01*
X157370972Y-113114415D01*
X157370971Y-113114409D01*
X157339181Y-113028008D01*
X157334431Y-112957170D01*
X157368732Y-112895010D01*
X157431195Y-112861262D01*
X157457431Y-112858500D01*
X157547725Y-112858500D01*
X157615846Y-112878502D01*
X157648551Y-112908935D01*
X157726739Y-113013261D01*
X157843295Y-113100615D01*
X157979684Y-113151745D01*
X158041866Y-113158500D01*
X159138134Y-113158500D01*
X159200316Y-113151745D01*
X159336705Y-113100615D01*
X159453261Y-113013261D01*
X159540615Y-112896705D01*
X159591745Y-112760316D01*
X159598500Y-112698134D01*
X159598500Y-111884500D01*
X159618502Y-111816379D01*
X159672158Y-111769886D01*
X159724500Y-111758500D01*
X160581800Y-111758500D01*
X160649921Y-111778502D01*
X160669147Y-111794843D01*
X160669420Y-111794540D01*
X160674332Y-111798963D01*
X160678747Y-111803866D01*
X160695970Y-111816379D01*
X160753910Y-111858475D01*
X160833248Y-111916118D01*
X160839276Y-111918802D01*
X160839278Y-111918803D01*
X161001681Y-111991109D01*
X161007712Y-111993794D01*
X161101112Y-112013647D01*
X161188056Y-112032128D01*
X161188061Y-112032128D01*
X161194513Y-112033500D01*
X161385487Y-112033500D01*
X161391939Y-112032128D01*
X161391944Y-112032128D01*
X161478888Y-112013647D01*
X161572288Y-111993794D01*
X161578319Y-111991109D01*
X161740722Y-111918803D01*
X161740724Y-111918802D01*
X161746752Y-111916118D01*
X161901253Y-111803866D01*
X162029040Y-111661944D01*
X162124527Y-111496556D01*
X162183542Y-111314928D01*
X162203504Y-111125000D01*
X162198485Y-111077251D01*
X162184232Y-110941635D01*
X162184232Y-110941633D01*
X162183542Y-110935072D01*
X162124527Y-110753444D01*
X162103367Y-110716793D01*
X162074293Y-110666437D01*
X162029040Y-110588056D01*
X162023161Y-110581526D01*
X161905675Y-110451045D01*
X161905674Y-110451044D01*
X161901253Y-110446134D01*
X161758436Y-110342371D01*
X161752094Y-110337763D01*
X161752093Y-110337762D01*
X161746752Y-110333882D01*
X161740724Y-110331198D01*
X161740722Y-110331197D01*
X161578319Y-110258891D01*
X161578318Y-110258891D01*
X161572288Y-110256206D01*
X161478888Y-110236353D01*
X161391944Y-110217872D01*
X161391939Y-110217872D01*
X161385487Y-110216500D01*
X161194513Y-110216500D01*
X161188061Y-110217872D01*
X161188056Y-110217872D01*
X161101112Y-110236353D01*
X161007712Y-110256206D01*
X161001682Y-110258891D01*
X161001681Y-110258891D01*
X160839278Y-110331197D01*
X160839276Y-110331198D01*
X160833248Y-110333882D01*
X160827907Y-110337762D01*
X160827906Y-110337763D01*
X160746820Y-110396676D01*
X160678747Y-110446134D01*
X160674332Y-110451037D01*
X160669420Y-110455460D01*
X160668295Y-110454211D01*
X160614986Y-110487051D01*
X160581800Y-110491500D01*
X157951589Y-110491500D01*
X157883468Y-110471498D01*
X157876024Y-110466326D01*
X157864852Y-110457953D01*
X157786705Y-110399385D01*
X157650316Y-110348255D01*
X157588134Y-110341500D01*
X156791866Y-110341500D01*
X156729684Y-110348255D01*
X156593295Y-110399385D01*
X156536099Y-110442251D01*
X156515148Y-110457953D01*
X156448642Y-110482801D01*
X156379259Y-110467748D01*
X156364018Y-110457953D01*
X156293648Y-110405214D01*
X156278054Y-110396676D01*
X156157606Y-110351522D01*
X156142351Y-110347895D01*
X156091486Y-110342369D01*
X156084672Y-110342000D01*
X155962115Y-110342000D01*
X155946876Y-110346475D01*
X155945671Y-110347865D01*
X155944000Y-110355548D01*
X155944000Y-111728000D01*
X155923998Y-111796121D01*
X155870342Y-111842614D01*
X155818000Y-111854000D01*
X154850116Y-111854000D01*
X154834877Y-111858475D01*
X154833672Y-111859865D01*
X154832001Y-111867548D01*
X154832001Y-112394669D01*
X154832371Y-112401490D01*
X154837895Y-112452352D01*
X154841521Y-112467604D01*
X154886676Y-112588054D01*
X154895214Y-112603649D01*
X154971715Y-112705724D01*
X154984276Y-112718285D01*
X155086351Y-112794786D01*
X155101946Y-112803324D01*
X155222394Y-112848478D01*
X155237649Y-112852105D01*
X155288514Y-112857631D01*
X155295328Y-112858000D01*
X155418179Y-112858000D01*
X155486300Y-112878002D01*
X155532793Y-112931658D01*
X155542897Y-113001932D01*
X155537499Y-113023121D01*
X155536982Y-113024171D01*
X155487898Y-113212607D01*
X155477707Y-113407064D01*
X155506825Y-113599599D01*
X155509028Y-113605585D01*
X155509029Y-113605591D01*
X155571860Y-113776360D01*
X155571862Y-113776365D01*
X155574063Y-113782346D01*
X155600781Y-113825438D01*
X155658639Y-113918752D01*
X155676674Y-113947840D01*
X155810466Y-114089322D01*
X155815696Y-114092984D01*
X155815697Y-114092985D01*
X155964655Y-114197286D01*
X156008984Y-114252743D01*
X156016293Y-114323362D01*
X155984263Y-114386723D01*
X155923061Y-114422708D01*
X155892385Y-114426499D01*
X153980279Y-114426499D01*
X153912158Y-114406497D01*
X153865665Y-114352841D01*
X153855561Y-114282567D01*
X153885055Y-114217987D01*
X153919192Y-114190297D01*
X153984271Y-114154223D01*
X153984274Y-114154221D01*
X153989850Y-114151130D01*
X153994691Y-114146981D01*
X153994695Y-114146978D01*
X154132855Y-114028560D01*
X154137698Y-114024409D01*
X154147428Y-114011866D01*
X154253131Y-113875594D01*
X154257046Y-113870547D01*
X154279243Y-113825438D01*
X154340200Y-113701556D01*
X154343018Y-113695829D01*
X154347779Y-113677551D01*
X154390492Y-113513575D01*
X154390492Y-113513572D01*
X154392102Y-113507393D01*
X154402293Y-113312936D01*
X154373175Y-113120401D01*
X154370972Y-113114415D01*
X154370971Y-113114409D01*
X154308140Y-112943640D01*
X154308138Y-112943635D01*
X154305937Y-112937654D01*
X154203326Y-112772160D01*
X154069534Y-112630678D01*
X154030933Y-112603649D01*
X153915259Y-112522654D01*
X153910025Y-112518989D01*
X153791281Y-112467604D01*
X153737175Y-112444190D01*
X153737171Y-112444189D01*
X153731316Y-112441655D01*
X153725069Y-112440350D01*
X153725066Y-112440349D01*
X153648734Y-112424403D01*
X153586143Y-112390894D01*
X153551605Y-112328865D01*
X153548500Y-112301066D01*
X153548500Y-111327885D01*
X154832000Y-111327885D01*
X154836475Y-111343124D01*
X154837865Y-111344329D01*
X154845548Y-111346000D01*
X155417885Y-111346000D01*
X155433124Y-111341525D01*
X155434329Y-111340135D01*
X155436000Y-111332452D01*
X155436000Y-110360116D01*
X155431525Y-110344877D01*
X155430135Y-110343672D01*
X155422452Y-110342001D01*
X155295331Y-110342001D01*
X155288510Y-110342371D01*
X155237648Y-110347895D01*
X155222396Y-110351521D01*
X155101946Y-110396676D01*
X155086351Y-110405214D01*
X154984276Y-110481715D01*
X154971715Y-110494276D01*
X154895214Y-110596351D01*
X154886676Y-110611946D01*
X154841522Y-110732394D01*
X154837895Y-110747649D01*
X154832369Y-110798514D01*
X154832000Y-110805328D01*
X154832000Y-111327885D01*
X153548500Y-111327885D01*
X153548500Y-110801866D01*
X153541745Y-110739684D01*
X153490615Y-110603295D01*
X153403261Y-110486739D01*
X153286705Y-110399385D01*
X153150316Y-110348255D01*
X153088134Y-110341500D01*
X152291866Y-110341500D01*
X152229684Y-110348255D01*
X152093295Y-110399385D01*
X151976739Y-110486739D01*
X151954759Y-110516067D01*
X151897900Y-110558580D01*
X151853934Y-110566500D01*
X149863768Y-110566500D01*
X149852585Y-110565973D01*
X149845092Y-110564298D01*
X149837166Y-110564547D01*
X149837165Y-110564547D01*
X149777002Y-110566438D01*
X149773044Y-110566500D01*
X149745144Y-110566500D01*
X149741154Y-110567004D01*
X149729320Y-110567936D01*
X149685111Y-110569326D01*
X149677495Y-110571539D01*
X149677493Y-110571539D01*
X149665652Y-110574979D01*
X149646293Y-110578988D01*
X149644983Y-110579154D01*
X149626203Y-110581526D01*
X149618837Y-110584442D01*
X149618831Y-110584444D01*
X149585098Y-110597800D01*
X149573868Y-110601645D01*
X149568189Y-110603295D01*
X149531407Y-110613981D01*
X149524584Y-110618016D01*
X149513966Y-110624295D01*
X149496213Y-110632992D01*
X149488568Y-110636019D01*
X149477383Y-110640448D01*
X149470968Y-110645109D01*
X149441612Y-110666437D01*
X149431695Y-110672951D01*
X149393638Y-110695458D01*
X149379317Y-110709779D01*
X149364284Y-110722619D01*
X149347893Y-110734528D01*
X149342840Y-110740636D01*
X149319708Y-110768598D01*
X149311718Y-110777378D01*
X149274501Y-110814595D01*
X149212189Y-110848621D01*
X149185406Y-110851500D01*
X149129513Y-110851500D01*
X149123061Y-110852872D01*
X149123056Y-110852872D01*
X149036113Y-110871353D01*
X148942712Y-110891206D01*
X148936682Y-110893891D01*
X148936681Y-110893891D01*
X148774278Y-110966197D01*
X148774276Y-110966198D01*
X148768248Y-110968882D01*
X148613747Y-111081134D01*
X148485960Y-111223056D01*
X148390473Y-111388444D01*
X148331458Y-111570072D01*
X148311496Y-111760000D01*
X148312186Y-111766565D01*
X148328187Y-111918803D01*
X148331458Y-111949928D01*
X148390473Y-112131556D01*
X148485960Y-112296944D01*
X148490378Y-112301851D01*
X148490379Y-112301852D01*
X148581764Y-112403345D01*
X148613747Y-112438866D01*
X148662745Y-112474465D01*
X148720535Y-112516452D01*
X148768248Y-112551118D01*
X148774276Y-112553802D01*
X148774278Y-112553803D01*
X148851208Y-112588054D01*
X148942712Y-112628794D01*
X149036112Y-112648647D01*
X149123056Y-112667128D01*
X149123061Y-112667128D01*
X149129513Y-112668500D01*
X149320487Y-112668500D01*
X149326939Y-112667128D01*
X149326944Y-112667128D01*
X149413888Y-112648647D01*
X149507288Y-112628794D01*
X149598792Y-112588054D01*
X149675722Y-112553803D01*
X149675724Y-112553802D01*
X149681752Y-112551118D01*
X149729466Y-112516452D01*
X149787255Y-112474465D01*
X149836253Y-112438866D01*
X149868236Y-112403345D01*
X149959621Y-112301852D01*
X149959622Y-112301851D01*
X149964040Y-112296944D01*
X150046382Y-112154324D01*
X150097763Y-112105332D01*
X150167477Y-112091896D01*
X150233388Y-112118282D01*
X150274570Y-112176114D01*
X150281500Y-112217325D01*
X150281500Y-112698134D01*
X150288255Y-112760316D01*
X150339385Y-112896705D01*
X150426739Y-113013261D01*
X150543295Y-113100615D01*
X150679684Y-113151745D01*
X150741866Y-113158500D01*
X151838134Y-113158500D01*
X151900316Y-113151745D01*
X152036705Y-113100615D01*
X152153261Y-113013261D01*
X152231449Y-112908935D01*
X152288308Y-112866420D01*
X152332275Y-112858500D01*
X152417992Y-112858500D01*
X152486113Y-112878502D01*
X152532606Y-112932158D01*
X152542710Y-113002432D01*
X152537378Y-113023366D01*
X152536982Y-113024171D01*
X152535375Y-113030341D01*
X152535373Y-113030346D01*
X152489508Y-113206425D01*
X152487898Y-113212607D01*
X152477707Y-113407064D01*
X152506825Y-113599599D01*
X152509028Y-113605585D01*
X152509029Y-113605591D01*
X152571860Y-113776360D01*
X152571862Y-113776365D01*
X152574063Y-113782346D01*
X152600781Y-113825438D01*
X152658639Y-113918752D01*
X152676674Y-113947840D01*
X152810466Y-114089322D01*
X152815696Y-114092984D01*
X152815697Y-114092985D01*
X152964655Y-114197286D01*
X153008984Y-114252743D01*
X153016293Y-114323362D01*
X152984263Y-114386723D01*
X152923061Y-114422708D01*
X152892385Y-114426499D01*
X152424500Y-114426499D01*
X152356379Y-114406497D01*
X152309886Y-114352841D01*
X152298500Y-114300499D01*
X152298500Y-114011866D01*
X152291745Y-113949684D01*
X152240615Y-113813295D01*
X152153261Y-113696739D01*
X152036705Y-113609385D01*
X151900316Y-113558255D01*
X151838134Y-113551500D01*
X150741866Y-113551500D01*
X150679684Y-113558255D01*
X150543295Y-113609385D01*
X150426739Y-113696739D01*
X150339385Y-113813295D01*
X150288255Y-113949684D01*
X150281500Y-114011866D01*
X150281500Y-114300499D01*
X150261498Y-114368620D01*
X150207842Y-114415113D01*
X150155500Y-114426499D01*
X144321367Y-114426499D01*
X144301982Y-114424999D01*
X144287148Y-114422689D01*
X144287145Y-114422689D01*
X144278276Y-114421308D01*
X144268341Y-114422607D01*
X144267254Y-114422749D01*
X144238569Y-114423206D01*
X144165259Y-114415986D01*
X144135788Y-114413083D01*
X144111568Y-114408266D01*
X143992454Y-114372133D01*
X143969644Y-114362684D01*
X143951229Y-114352841D01*
X143859873Y-114304010D01*
X143839346Y-114290294D01*
X143743125Y-114211328D01*
X143725672Y-114193875D01*
X143646707Y-114097656D01*
X143632990Y-114077127D01*
X143604811Y-114024409D01*
X143574315Y-113967355D01*
X143564865Y-113944542D01*
X143528732Y-113825427D01*
X143523916Y-113801208D01*
X143522593Y-113787768D01*
X143514459Y-113705181D01*
X143514912Y-113689129D01*
X143514200Y-113689120D01*
X143514310Y-113680147D01*
X143515691Y-113671275D01*
X143512890Y-113649851D01*
X143511564Y-113639716D01*
X143510500Y-113623378D01*
X143510500Y-109260134D01*
X143981500Y-109260134D01*
X143988255Y-109322316D01*
X144039385Y-109458705D01*
X144126739Y-109575261D01*
X144243295Y-109662615D01*
X144379684Y-109713745D01*
X144441866Y-109720500D01*
X147688134Y-109720500D01*
X147750316Y-109713745D01*
X147886705Y-109662615D01*
X148003261Y-109575261D01*
X148090615Y-109458705D01*
X148141745Y-109322316D01*
X148148500Y-109260134D01*
X148148500Y-109256669D01*
X149032001Y-109256669D01*
X149032371Y-109263490D01*
X149037895Y-109314352D01*
X149041521Y-109329604D01*
X149086676Y-109450054D01*
X149095214Y-109465649D01*
X149171715Y-109567724D01*
X149184276Y-109580285D01*
X149286351Y-109656786D01*
X149301946Y-109665324D01*
X149422394Y-109710478D01*
X149437649Y-109714105D01*
X149488514Y-109719631D01*
X149495328Y-109720000D01*
X150842885Y-109720000D01*
X150858124Y-109715525D01*
X150859329Y-109714135D01*
X150861000Y-109706452D01*
X150861000Y-109701884D01*
X151369000Y-109701884D01*
X151373475Y-109717123D01*
X151374865Y-109718328D01*
X151382548Y-109719999D01*
X152734669Y-109719999D01*
X152741490Y-109719629D01*
X152792352Y-109714105D01*
X152807604Y-109710479D01*
X152928054Y-109665324D01*
X152943649Y-109656786D01*
X153045724Y-109580285D01*
X153058285Y-109567724D01*
X153134786Y-109465649D01*
X153143324Y-109450054D01*
X153188478Y-109329606D01*
X153192105Y-109314351D01*
X153197631Y-109263486D01*
X153198000Y-109256672D01*
X153198000Y-108984115D01*
X153193525Y-108968876D01*
X153192135Y-108967671D01*
X153184452Y-108966000D01*
X151387115Y-108966000D01*
X151371876Y-108970475D01*
X151370671Y-108971865D01*
X151369000Y-108979548D01*
X151369000Y-109701884D01*
X150861000Y-109701884D01*
X150861000Y-108984115D01*
X150856525Y-108968876D01*
X150855135Y-108967671D01*
X150847452Y-108966000D01*
X149050116Y-108966000D01*
X149034877Y-108970475D01*
X149033672Y-108971865D01*
X149032001Y-108979548D01*
X149032001Y-109256669D01*
X148148500Y-109256669D01*
X148148500Y-108646989D01*
X148168502Y-108578868D01*
X148222158Y-108532375D01*
X148274500Y-108520989D01*
X153292895Y-108520989D01*
X153361016Y-108540991D01*
X153381990Y-108557894D01*
X153992878Y-109168782D01*
X154026904Y-109231094D01*
X154029092Y-109244703D01*
X154046458Y-109409928D01*
X154105473Y-109591556D01*
X154200960Y-109756944D01*
X154328747Y-109898866D01*
X154483248Y-110011118D01*
X154489276Y-110013802D01*
X154489278Y-110013803D01*
X154651681Y-110086109D01*
X154657712Y-110088794D01*
X154751113Y-110108647D01*
X154838056Y-110127128D01*
X154838061Y-110127128D01*
X154844513Y-110128500D01*
X155035487Y-110128500D01*
X155041939Y-110127128D01*
X155041944Y-110127128D01*
X155128887Y-110108647D01*
X155222288Y-110088794D01*
X155228319Y-110086109D01*
X155390722Y-110013803D01*
X155390724Y-110013802D01*
X155396752Y-110011118D01*
X155551253Y-109898866D01*
X155679040Y-109756944D01*
X155774527Y-109591556D01*
X155826187Y-109432564D01*
X155866261Y-109373958D01*
X155931657Y-109346321D01*
X155946020Y-109345500D01*
X156609618Y-109345500D01*
X156677739Y-109365502D01*
X156724232Y-109419158D01*
X156727599Y-109427269D01*
X156736231Y-109450293D01*
X156739385Y-109458705D01*
X156826739Y-109575261D01*
X156943295Y-109662615D01*
X157079684Y-109713745D01*
X157141866Y-109720500D01*
X160388134Y-109720500D01*
X160450316Y-109713745D01*
X160586705Y-109662615D01*
X160703261Y-109575261D01*
X160790615Y-109458705D01*
X160841745Y-109322316D01*
X160848500Y-109260134D01*
X160848500Y-109256669D01*
X161732001Y-109256669D01*
X161732371Y-109263490D01*
X161737895Y-109314352D01*
X161741521Y-109329604D01*
X161786676Y-109450054D01*
X161795214Y-109465649D01*
X161871715Y-109567724D01*
X161884276Y-109580285D01*
X161986351Y-109656786D01*
X162001946Y-109665324D01*
X162122394Y-109710478D01*
X162137649Y-109714105D01*
X162188514Y-109719631D01*
X162195328Y-109720000D01*
X163542885Y-109720000D01*
X163558124Y-109715525D01*
X163559329Y-109714135D01*
X163561000Y-109706452D01*
X163561000Y-109701884D01*
X164069000Y-109701884D01*
X164073475Y-109717123D01*
X164074865Y-109718328D01*
X164082548Y-109719999D01*
X165434669Y-109719999D01*
X165441490Y-109719629D01*
X165492352Y-109714105D01*
X165507604Y-109710479D01*
X165628054Y-109665324D01*
X165643649Y-109656786D01*
X165745724Y-109580285D01*
X165758285Y-109567724D01*
X165834786Y-109465649D01*
X165843324Y-109450054D01*
X165888478Y-109329606D01*
X165892105Y-109314351D01*
X165897631Y-109263486D01*
X165898000Y-109256672D01*
X165898000Y-108984115D01*
X165893525Y-108968876D01*
X165892135Y-108967671D01*
X165884452Y-108966000D01*
X164087115Y-108966000D01*
X164071876Y-108970475D01*
X164070671Y-108971865D01*
X164069000Y-108979548D01*
X164069000Y-109701884D01*
X163561000Y-109701884D01*
X163561000Y-108984115D01*
X163556525Y-108968876D01*
X163555135Y-108967671D01*
X163547452Y-108966000D01*
X161750116Y-108966000D01*
X161734877Y-108970475D01*
X161733672Y-108971865D01*
X161732001Y-108979548D01*
X161732001Y-109256669D01*
X160848500Y-109256669D01*
X160848500Y-108439885D01*
X161732000Y-108439885D01*
X161736475Y-108455124D01*
X161737865Y-108456329D01*
X161745548Y-108458000D01*
X163542885Y-108458000D01*
X163558124Y-108453525D01*
X163559329Y-108452135D01*
X163561000Y-108444452D01*
X163561000Y-108439885D01*
X164069000Y-108439885D01*
X164073475Y-108455124D01*
X164074865Y-108456329D01*
X164082548Y-108458000D01*
X165879884Y-108458000D01*
X165895123Y-108453525D01*
X165896328Y-108452135D01*
X165897999Y-108444452D01*
X165897999Y-108167331D01*
X165897629Y-108160510D01*
X165892105Y-108109648D01*
X165888479Y-108094396D01*
X165843324Y-107973946D01*
X165834786Y-107958351D01*
X165758285Y-107856276D01*
X165745724Y-107843715D01*
X165643649Y-107767214D01*
X165628054Y-107758676D01*
X165507606Y-107713522D01*
X165492351Y-107709895D01*
X165441486Y-107704369D01*
X165434672Y-107704000D01*
X164087115Y-107704000D01*
X164071876Y-107708475D01*
X164070671Y-107709865D01*
X164069000Y-107717548D01*
X164069000Y-108439885D01*
X163561000Y-108439885D01*
X163561000Y-107722116D01*
X163556525Y-107706877D01*
X163555135Y-107705672D01*
X163547452Y-107704001D01*
X162195331Y-107704001D01*
X162188510Y-107704371D01*
X162137648Y-107709895D01*
X162122396Y-107713521D01*
X162001946Y-107758676D01*
X161986351Y-107767214D01*
X161884276Y-107843715D01*
X161871715Y-107856276D01*
X161795214Y-107958351D01*
X161786676Y-107973946D01*
X161741522Y-108094394D01*
X161737895Y-108109649D01*
X161732369Y-108160514D01*
X161732000Y-108167328D01*
X161732000Y-108439885D01*
X160848500Y-108439885D01*
X160848500Y-108163866D01*
X160841745Y-108101684D01*
X160790615Y-107965295D01*
X160703261Y-107848739D01*
X160586705Y-107761385D01*
X160450316Y-107710255D01*
X160388134Y-107703500D01*
X157141866Y-107703500D01*
X157079684Y-107710255D01*
X156943295Y-107761385D01*
X156826739Y-107848739D01*
X156739385Y-107965295D01*
X156736233Y-107973703D01*
X156736231Y-107973707D01*
X156727599Y-107996731D01*
X156684957Y-108053495D01*
X156618395Y-108078194D01*
X156609618Y-108078500D01*
X155526763Y-108078500D01*
X155515579Y-108077973D01*
X155508091Y-108076299D01*
X155500168Y-108076548D01*
X155440033Y-108078438D01*
X155436075Y-108078500D01*
X155408144Y-108078500D01*
X155404229Y-108078995D01*
X155404225Y-108078995D01*
X155404167Y-108079003D01*
X155404138Y-108079006D01*
X155392296Y-108079939D01*
X155348110Y-108081327D01*
X155330744Y-108086372D01*
X155328658Y-108086978D01*
X155309306Y-108090986D01*
X155297068Y-108092532D01*
X155297066Y-108092533D01*
X155289203Y-108093526D01*
X155248086Y-108109806D01*
X155236885Y-108113641D01*
X155194406Y-108125982D01*
X155187587Y-108130015D01*
X155187582Y-108130017D01*
X155176971Y-108136293D01*
X155159221Y-108144990D01*
X155140383Y-108152448D01*
X155133967Y-108157109D01*
X155133966Y-108157110D01*
X155104625Y-108178428D01*
X155094701Y-108184947D01*
X155063460Y-108203422D01*
X155063455Y-108203426D01*
X155056637Y-108207458D01*
X155042313Y-108221782D01*
X155027275Y-108234626D01*
X155011963Y-108245750D01*
X154945095Y-108269606D01*
X154875944Y-108253523D01*
X154848810Y-108232906D01*
X154461573Y-107845668D01*
X154427548Y-107783356D01*
X154432613Y-107712540D01*
X154475160Y-107655705D01*
X154541680Y-107630894D01*
X154558352Y-107631085D01*
X154563398Y-107632213D01*
X154571319Y-107631964D01*
X154631475Y-107630073D01*
X154635434Y-107630011D01*
X154663345Y-107630011D01*
X154667280Y-107629514D01*
X154667345Y-107629506D01*
X154679182Y-107628573D01*
X154711440Y-107627559D01*
X154715459Y-107627433D01*
X154723378Y-107627184D01*
X154742832Y-107621532D01*
X154762189Y-107617524D01*
X154774419Y-107615979D01*
X154774420Y-107615979D01*
X154782286Y-107614985D01*
X154789657Y-107612066D01*
X154789659Y-107612066D01*
X154823392Y-107598710D01*
X154834634Y-107594861D01*
X154839320Y-107593500D01*
X154874463Y-107588500D01*
X155035487Y-107588500D01*
X155041939Y-107587128D01*
X155041944Y-107587128D01*
X155128888Y-107568647D01*
X155222288Y-107548794D01*
X155363257Y-107486031D01*
X155390722Y-107473803D01*
X155390724Y-107473802D01*
X155396752Y-107471118D01*
X155551253Y-107358866D01*
X155679040Y-107216944D01*
X155774527Y-107051556D01*
X155826187Y-106892564D01*
X155866261Y-106833958D01*
X155931657Y-106806321D01*
X155946020Y-106805500D01*
X156609618Y-106805500D01*
X156677739Y-106825502D01*
X156724232Y-106879158D01*
X156727599Y-106887269D01*
X156736231Y-106910293D01*
X156739385Y-106918705D01*
X156826739Y-107035261D01*
X156943295Y-107122615D01*
X157079684Y-107173745D01*
X157141866Y-107180500D01*
X160388134Y-107180500D01*
X160450316Y-107173745D01*
X160586705Y-107122615D01*
X160703261Y-107035261D01*
X160790615Y-106918705D01*
X160841745Y-106782316D01*
X160848500Y-106720134D01*
X160848500Y-106106989D01*
X160868502Y-106038868D01*
X160922158Y-105992375D01*
X160974500Y-105980989D01*
X161605500Y-105980989D01*
X161673621Y-106000991D01*
X161720114Y-106054647D01*
X161731500Y-106106989D01*
X161731500Y-106720134D01*
X161738255Y-106782316D01*
X161789385Y-106918705D01*
X161876739Y-107035261D01*
X161993295Y-107122615D01*
X162129684Y-107173745D01*
X162191866Y-107180500D01*
X165438134Y-107180500D01*
X165500316Y-107173745D01*
X165636705Y-107122615D01*
X165753261Y-107035261D01*
X165840615Y-106918705D01*
X165891745Y-106782316D01*
X165898500Y-106720134D01*
X165898500Y-105623866D01*
X165891745Y-105561684D01*
X165840615Y-105425295D01*
X165753261Y-105308739D01*
X165636705Y-105221385D01*
X165500316Y-105170255D01*
X165438134Y-105163500D01*
X163754595Y-105163500D01*
X163686474Y-105143498D01*
X163665500Y-105126595D01*
X163494141Y-104955236D01*
X163486601Y-104946950D01*
X163482489Y-104940471D01*
X163432837Y-104893845D01*
X163429996Y-104891091D01*
X163410259Y-104871354D01*
X163407062Y-104868874D01*
X163398041Y-104861170D01*
X163395039Y-104858351D01*
X163359073Y-104797139D01*
X163361910Y-104726199D01*
X163402650Y-104668054D01*
X163468358Y-104641166D01*
X163481291Y-104640500D01*
X165438134Y-104640500D01*
X165500316Y-104633745D01*
X165636705Y-104582615D01*
X165753261Y-104495261D01*
X165840615Y-104378705D01*
X165891745Y-104242316D01*
X165898500Y-104180134D01*
X165898500Y-103083866D01*
X165891745Y-103021684D01*
X165840615Y-102885295D01*
X165753261Y-102768739D01*
X165636705Y-102681385D01*
X165500316Y-102630255D01*
X165438134Y-102623500D01*
X163754595Y-102623500D01*
X163686474Y-102603498D01*
X163665500Y-102586595D01*
X163494141Y-102415236D01*
X163486601Y-102406950D01*
X163482489Y-102400471D01*
X163432837Y-102353845D01*
X163429996Y-102351091D01*
X163410259Y-102331354D01*
X163407062Y-102328874D01*
X163398041Y-102321170D01*
X163395039Y-102318351D01*
X163359073Y-102257139D01*
X163361910Y-102186199D01*
X163402650Y-102128054D01*
X163468358Y-102101166D01*
X163481291Y-102100500D01*
X165438134Y-102100500D01*
X165500316Y-102093745D01*
X165636705Y-102042615D01*
X165753261Y-101955261D01*
X165840615Y-101838705D01*
X165891745Y-101702316D01*
X165898500Y-101640134D01*
X165898500Y-100543866D01*
X165891745Y-100481684D01*
X165840615Y-100345295D01*
X165753261Y-100228739D01*
X165636705Y-100141385D01*
X165500316Y-100090255D01*
X165438134Y-100083500D01*
X163754595Y-100083500D01*
X163686474Y-100063498D01*
X163665500Y-100046595D01*
X163494141Y-99875236D01*
X163486601Y-99866950D01*
X163482489Y-99860471D01*
X163432837Y-99813845D01*
X163429996Y-99811091D01*
X163410259Y-99791354D01*
X163407062Y-99788874D01*
X163398041Y-99781170D01*
X163395039Y-99778351D01*
X163359073Y-99717139D01*
X163361910Y-99646199D01*
X163402650Y-99588054D01*
X163468358Y-99561166D01*
X163481291Y-99560500D01*
X165438134Y-99560500D01*
X165500316Y-99553745D01*
X165636705Y-99502615D01*
X165753261Y-99415261D01*
X165840615Y-99298705D01*
X165891745Y-99162316D01*
X165898500Y-99100134D01*
X165898500Y-98003866D01*
X165891745Y-97941684D01*
X165840615Y-97805295D01*
X165753261Y-97688739D01*
X165636705Y-97601385D01*
X165500316Y-97550255D01*
X165438134Y-97543500D01*
X163754595Y-97543500D01*
X163686474Y-97523498D01*
X163665500Y-97506595D01*
X163494141Y-97335236D01*
X163486601Y-97326950D01*
X163482489Y-97320471D01*
X163432837Y-97273845D01*
X163429996Y-97271091D01*
X163410259Y-97251354D01*
X163407062Y-97248875D01*
X163398035Y-97241164D01*
X163394501Y-97237845D01*
X163358539Y-97176631D01*
X163361381Y-97105691D01*
X163402124Y-97047549D01*
X163467834Y-97020665D01*
X163480759Y-97020000D01*
X163542885Y-97020000D01*
X163558124Y-97015525D01*
X163559329Y-97014135D01*
X163561000Y-97006452D01*
X163561000Y-97001884D01*
X164069000Y-97001884D01*
X164073475Y-97017123D01*
X164074865Y-97018328D01*
X164082548Y-97019999D01*
X165434669Y-97019999D01*
X165441490Y-97019629D01*
X165492352Y-97014105D01*
X165507604Y-97010479D01*
X165628054Y-96965324D01*
X165643649Y-96956786D01*
X165745724Y-96880285D01*
X165758285Y-96867724D01*
X165834786Y-96765649D01*
X165843324Y-96750054D01*
X165888478Y-96629606D01*
X165892105Y-96614351D01*
X165897631Y-96563486D01*
X165898000Y-96556672D01*
X165898000Y-96284115D01*
X165893525Y-96268876D01*
X165892135Y-96267671D01*
X165884452Y-96266000D01*
X164087115Y-96266000D01*
X164071876Y-96270475D01*
X164070671Y-96271865D01*
X164069000Y-96279548D01*
X164069000Y-97001884D01*
X163561000Y-97001884D01*
X163561000Y-96284115D01*
X163556525Y-96268876D01*
X163555135Y-96267671D01*
X163547452Y-96266000D01*
X161750116Y-96266000D01*
X161734877Y-96270475D01*
X161733672Y-96271865D01*
X161732001Y-96279548D01*
X161732001Y-96556669D01*
X161732371Y-96563490D01*
X161737895Y-96614352D01*
X161741521Y-96629604D01*
X161786676Y-96750054D01*
X161795214Y-96765649D01*
X161871715Y-96867724D01*
X161882885Y-96878894D01*
X161916911Y-96941206D01*
X161911846Y-97012021D01*
X161869299Y-97068857D01*
X161802779Y-97093668D01*
X161793790Y-97093989D01*
X160786924Y-97093989D01*
X160718803Y-97073987D01*
X160672310Y-97020331D01*
X160662206Y-96950057D01*
X160691700Y-96885477D01*
X160696480Y-96880343D01*
X160703261Y-96875261D01*
X160790615Y-96758705D01*
X160841745Y-96622316D01*
X160848500Y-96560134D01*
X160848500Y-95463866D01*
X160841745Y-95401684D01*
X160790615Y-95265295D01*
X160703261Y-95148739D01*
X160586705Y-95061385D01*
X160450316Y-95010255D01*
X160388134Y-95003500D01*
X157141866Y-95003500D01*
X157079684Y-95010255D01*
X156943295Y-95061385D01*
X156826739Y-95148739D01*
X156739385Y-95265295D01*
X156736233Y-95273703D01*
X156736231Y-95273707D01*
X156727599Y-95296731D01*
X156684957Y-95353495D01*
X156618395Y-95378194D01*
X156609618Y-95378500D01*
X155526763Y-95378500D01*
X155515579Y-95377973D01*
X155508091Y-95376299D01*
X155500168Y-95376548D01*
X155440033Y-95378438D01*
X155436075Y-95378500D01*
X155408144Y-95378500D01*
X155404229Y-95378995D01*
X155404225Y-95378995D01*
X155404167Y-95379003D01*
X155404138Y-95379006D01*
X155392296Y-95379939D01*
X155348110Y-95381327D01*
X155330744Y-95386372D01*
X155328658Y-95386978D01*
X155309306Y-95390986D01*
X155297068Y-95392532D01*
X155297066Y-95392533D01*
X155289203Y-95393526D01*
X155248086Y-95409806D01*
X155236885Y-95413641D01*
X155194406Y-95425982D01*
X155187587Y-95430015D01*
X155187582Y-95430017D01*
X155176971Y-95436293D01*
X155159221Y-95444990D01*
X155140383Y-95452448D01*
X155133967Y-95457109D01*
X155133966Y-95457110D01*
X155104625Y-95478428D01*
X155094701Y-95484947D01*
X155063460Y-95503422D01*
X155063455Y-95503426D01*
X155056637Y-95507458D01*
X155042313Y-95521782D01*
X155027281Y-95534621D01*
X155010893Y-95546528D01*
X155005842Y-95552634D01*
X154994936Y-95565817D01*
X154936102Y-95605554D01*
X154897852Y-95611500D01*
X154844513Y-95611500D01*
X154838061Y-95612872D01*
X154838056Y-95612872D01*
X154751112Y-95631353D01*
X154657712Y-95651206D01*
X154651682Y-95653891D01*
X154651681Y-95653891D01*
X154489278Y-95726197D01*
X154489276Y-95726198D01*
X154483248Y-95728882D01*
X154477907Y-95732762D01*
X154477906Y-95732763D01*
X154443171Y-95758000D01*
X154328747Y-95841134D01*
X154200960Y-95983056D01*
X154197659Y-95988774D01*
X154110342Y-96140011D01*
X154058960Y-96189004D01*
X154001223Y-96203011D01*
X148274500Y-96203011D01*
X148206379Y-96183009D01*
X148159886Y-96129353D01*
X148148500Y-96077011D01*
X148148500Y-95739885D01*
X149032000Y-95739885D01*
X149036475Y-95755124D01*
X149037865Y-95756329D01*
X149045548Y-95758000D01*
X150842885Y-95758000D01*
X150858124Y-95753525D01*
X150859329Y-95752135D01*
X150861000Y-95744452D01*
X150861000Y-95739885D01*
X151369000Y-95739885D01*
X151373475Y-95755124D01*
X151374865Y-95756329D01*
X151382548Y-95758000D01*
X153179884Y-95758000D01*
X153195123Y-95753525D01*
X153196328Y-95752135D01*
X153197999Y-95744452D01*
X153197999Y-95467331D01*
X153197629Y-95460510D01*
X153192105Y-95409648D01*
X153188479Y-95394396D01*
X153143324Y-95273946D01*
X153134786Y-95258351D01*
X153058285Y-95156276D01*
X153045724Y-95143715D01*
X152943649Y-95067214D01*
X152928054Y-95058676D01*
X152807606Y-95013522D01*
X152792351Y-95009895D01*
X152741486Y-95004369D01*
X152734672Y-95004000D01*
X151387115Y-95004000D01*
X151371876Y-95008475D01*
X151370671Y-95009865D01*
X151369000Y-95017548D01*
X151369000Y-95739885D01*
X150861000Y-95739885D01*
X150861000Y-95022116D01*
X150856525Y-95006877D01*
X150855135Y-95005672D01*
X150847452Y-95004001D01*
X149495331Y-95004001D01*
X149488510Y-95004371D01*
X149437648Y-95009895D01*
X149422396Y-95013521D01*
X149301946Y-95058676D01*
X149286351Y-95067214D01*
X149184276Y-95143715D01*
X149171715Y-95156276D01*
X149095214Y-95258351D01*
X149086676Y-95273946D01*
X149041522Y-95394394D01*
X149037895Y-95409649D01*
X149032369Y-95460514D01*
X149032000Y-95467328D01*
X149032000Y-95739885D01*
X148148500Y-95739885D01*
X148148500Y-95463866D01*
X148141745Y-95401684D01*
X148090615Y-95265295D01*
X148003261Y-95148739D01*
X147886705Y-95061385D01*
X147750316Y-95010255D01*
X147688134Y-95003500D01*
X144441866Y-95003500D01*
X144379684Y-95010255D01*
X144243295Y-95061385D01*
X144126739Y-95148739D01*
X144039385Y-95265295D01*
X143988255Y-95401684D01*
X143981500Y-95463866D01*
X143981500Y-96560134D01*
X143988255Y-96622316D01*
X144039385Y-96758705D01*
X144126739Y-96875261D01*
X144243295Y-96962615D01*
X144379684Y-97013745D01*
X144441866Y-97020500D01*
X146125406Y-97020500D01*
X146193527Y-97040502D01*
X146214501Y-97057405D01*
X146385854Y-97228758D01*
X146393398Y-97237048D01*
X146397511Y-97243529D01*
X146403288Y-97248954D01*
X146447178Y-97290169D01*
X146450020Y-97292924D01*
X146469742Y-97312646D01*
X146472866Y-97315069D01*
X146472870Y-97315073D01*
X146472935Y-97315123D01*
X146481958Y-97322830D01*
X146484962Y-97325651D01*
X146520927Y-97386864D01*
X146518088Y-97457804D01*
X146477347Y-97515947D01*
X146411639Y-97542835D01*
X146398708Y-97543500D01*
X144441866Y-97543500D01*
X144379684Y-97550255D01*
X144243295Y-97601385D01*
X144126739Y-97688739D01*
X144039385Y-97805295D01*
X143988255Y-97941684D01*
X143981500Y-98003866D01*
X143981500Y-99100134D01*
X143988255Y-99162316D01*
X144039385Y-99298705D01*
X144126739Y-99415261D01*
X144243295Y-99502615D01*
X144379684Y-99553745D01*
X144441866Y-99560500D01*
X146125406Y-99560500D01*
X146193527Y-99580502D01*
X146214501Y-99597405D01*
X146385854Y-99768758D01*
X146393398Y-99777048D01*
X146397511Y-99783529D01*
X146403288Y-99788954D01*
X146447178Y-99830169D01*
X146450020Y-99832924D01*
X146469742Y-99852646D01*
X146472866Y-99855069D01*
X146472870Y-99855073D01*
X146472935Y-99855123D01*
X146481958Y-99862830D01*
X146484962Y-99865651D01*
X146520927Y-99926864D01*
X146518088Y-99997804D01*
X146477347Y-100055947D01*
X146411639Y-100082835D01*
X146398708Y-100083500D01*
X144441866Y-100083500D01*
X144379684Y-100090255D01*
X144243295Y-100141385D01*
X144126739Y-100228739D01*
X144039385Y-100345295D01*
X143988255Y-100481684D01*
X143981500Y-100543866D01*
X143981500Y-101640134D01*
X143988255Y-101702316D01*
X144039385Y-101838705D01*
X144126739Y-101955261D01*
X144243295Y-102042615D01*
X144379684Y-102093745D01*
X144441866Y-102100500D01*
X146125406Y-102100500D01*
X146193527Y-102120502D01*
X146214501Y-102137405D01*
X146485501Y-102408405D01*
X146519527Y-102470717D01*
X146514462Y-102541532D01*
X146471915Y-102598368D01*
X146405395Y-102623179D01*
X146396406Y-102623500D01*
X144441866Y-102623500D01*
X144379684Y-102630255D01*
X144243295Y-102681385D01*
X144126739Y-102768739D01*
X144039385Y-102885295D01*
X143988255Y-103021684D01*
X143981500Y-103083866D01*
X143981500Y-104180134D01*
X143988255Y-104242316D01*
X144039385Y-104378705D01*
X144126739Y-104495261D01*
X144243295Y-104582615D01*
X144379684Y-104633745D01*
X144441866Y-104640500D01*
X146125406Y-104640500D01*
X146193527Y-104660502D01*
X146214501Y-104677405D01*
X146385854Y-104848758D01*
X146393398Y-104857048D01*
X146397511Y-104863529D01*
X146403288Y-104868954D01*
X146447178Y-104910169D01*
X146450020Y-104912924D01*
X146469742Y-104932646D01*
X146472866Y-104935069D01*
X146472870Y-104935073D01*
X146472935Y-104935123D01*
X146481958Y-104942830D01*
X146484962Y-104945651D01*
X146520927Y-105006864D01*
X146518088Y-105077804D01*
X146477347Y-105135947D01*
X146411639Y-105162835D01*
X146398708Y-105163500D01*
X144441866Y-105163500D01*
X144379684Y-105170255D01*
X144243295Y-105221385D01*
X144126739Y-105308739D01*
X144039385Y-105425295D01*
X143988255Y-105561684D01*
X143981500Y-105623866D01*
X143981500Y-106720134D01*
X143988255Y-106782316D01*
X144039385Y-106918705D01*
X144126739Y-107035261D01*
X144243295Y-107122615D01*
X144379684Y-107173745D01*
X144441866Y-107180500D01*
X146125406Y-107180500D01*
X146193527Y-107200502D01*
X146214501Y-107217405D01*
X146350000Y-107352904D01*
X146384026Y-107415216D01*
X146378961Y-107486031D01*
X146350001Y-107531094D01*
X146214501Y-107666595D01*
X146152189Y-107700620D01*
X146125405Y-107703500D01*
X144441866Y-107703500D01*
X144379684Y-107710255D01*
X144243295Y-107761385D01*
X144126739Y-107848739D01*
X144039385Y-107965295D01*
X143988255Y-108101684D01*
X143981500Y-108163866D01*
X143981500Y-109260134D01*
X143510500Y-109260134D01*
X143510500Y-94020134D01*
X143981500Y-94020134D01*
X143988255Y-94082316D01*
X144039385Y-94218705D01*
X144126739Y-94335261D01*
X144243295Y-94422615D01*
X144379684Y-94473745D01*
X144441866Y-94480500D01*
X147688134Y-94480500D01*
X147750316Y-94473745D01*
X147886705Y-94422615D01*
X148003261Y-94335261D01*
X148090615Y-94218705D01*
X148141745Y-94082316D01*
X148148500Y-94020134D01*
X148148500Y-93870260D01*
X148168502Y-93802139D01*
X148222158Y-93755646D01*
X148292432Y-93745542D01*
X148306786Y-93748880D01*
X148307712Y-93749292D01*
X148314168Y-93750664D01*
X148314167Y-93750664D01*
X148488056Y-93787626D01*
X148488061Y-93787626D01*
X148494513Y-93788998D01*
X148550406Y-93788998D01*
X148618527Y-93809000D01*
X148639501Y-93825903D01*
X148677845Y-93864247D01*
X148685389Y-93872537D01*
X148689502Y-93879018D01*
X148695279Y-93884443D01*
X148739169Y-93925658D01*
X148742011Y-93928413D01*
X148761732Y-93948134D01*
X148764927Y-93950612D01*
X148773949Y-93958318D01*
X148806181Y-93988586D01*
X148813130Y-93992406D01*
X148823934Y-93998346D01*
X148840458Y-94009199D01*
X148856461Y-94021613D01*
X148897045Y-94039176D01*
X148907675Y-94044383D01*
X148946442Y-94065695D01*
X148954119Y-94067666D01*
X148954124Y-94067668D01*
X148966060Y-94070732D01*
X148984775Y-94077140D01*
X148997157Y-94082499D01*
X149051729Y-94127913D01*
X149065092Y-94153903D01*
X149089385Y-94218705D01*
X149094765Y-94225884D01*
X149094767Y-94225887D01*
X149112630Y-94249721D01*
X149176739Y-94335261D01*
X149293295Y-94422615D01*
X149429684Y-94473745D01*
X149491866Y-94480500D01*
X152738134Y-94480500D01*
X152800316Y-94473745D01*
X152936705Y-94422615D01*
X153053261Y-94335261D01*
X153140615Y-94218705D01*
X153191745Y-94082316D01*
X153198500Y-94020134D01*
X153198500Y-93438595D01*
X153218502Y-93370474D01*
X153272158Y-93323981D01*
X153342432Y-93313877D01*
X153407012Y-93343371D01*
X153413596Y-93349500D01*
X153992879Y-93928784D01*
X154026904Y-93991096D01*
X154029093Y-94004709D01*
X154031201Y-94024761D01*
X154046458Y-94169928D01*
X154105473Y-94351556D01*
X154200960Y-94516944D01*
X154328747Y-94658866D01*
X154483248Y-94771118D01*
X154489276Y-94773802D01*
X154489278Y-94773803D01*
X154636444Y-94839325D01*
X154657712Y-94848794D01*
X154751113Y-94868647D01*
X154838056Y-94887128D01*
X154838061Y-94887128D01*
X154844513Y-94888500D01*
X155035487Y-94888500D01*
X155041939Y-94887128D01*
X155041944Y-94887128D01*
X155128888Y-94868647D01*
X155222288Y-94848794D01*
X155243556Y-94839325D01*
X155390722Y-94773803D01*
X155390724Y-94773802D01*
X155396752Y-94771118D01*
X155551253Y-94658866D01*
X155590750Y-94615000D01*
X161646496Y-94615000D01*
X161647186Y-94621565D01*
X161663187Y-94773803D01*
X161666458Y-94804928D01*
X161725473Y-94986556D01*
X161728776Y-94992278D01*
X161728777Y-94992279D01*
X161802878Y-95120625D01*
X161819616Y-95189620D01*
X161798016Y-95249658D01*
X161799522Y-95250483D01*
X161786676Y-95273946D01*
X161741522Y-95394394D01*
X161737895Y-95409649D01*
X161732369Y-95460514D01*
X161732000Y-95467328D01*
X161732000Y-95739885D01*
X161736475Y-95755124D01*
X161737865Y-95756329D01*
X161745548Y-95758000D01*
X163542885Y-95758000D01*
X163558124Y-95753525D01*
X163559329Y-95752135D01*
X163561000Y-95744452D01*
X163561000Y-95739885D01*
X164069000Y-95739885D01*
X164073475Y-95755124D01*
X164074865Y-95756329D01*
X164082548Y-95758000D01*
X165879884Y-95758000D01*
X165895123Y-95753525D01*
X165896328Y-95752135D01*
X165897999Y-95744452D01*
X165897999Y-95467331D01*
X165897629Y-95460510D01*
X165892105Y-95409648D01*
X165888479Y-95394396D01*
X165843324Y-95273946D01*
X165834786Y-95258351D01*
X165758285Y-95156276D01*
X165745724Y-95143715D01*
X165643649Y-95067214D01*
X165628054Y-95058676D01*
X165507606Y-95013522D01*
X165492351Y-95009895D01*
X165441486Y-95004369D01*
X165434672Y-95004000D01*
X164087115Y-95004000D01*
X164071876Y-95008475D01*
X164070671Y-95009865D01*
X164069000Y-95017548D01*
X164069000Y-95739885D01*
X163561000Y-95739885D01*
X163561000Y-95022116D01*
X163556525Y-95006877D01*
X163555135Y-95005672D01*
X163535416Y-95001383D01*
X163473104Y-94967359D01*
X163439078Y-94905047D01*
X163442365Y-94839327D01*
X163453542Y-94804928D01*
X163457753Y-94764862D01*
X163484766Y-94699205D01*
X163493968Y-94688936D01*
X163665501Y-94517404D01*
X163727813Y-94483379D01*
X163754596Y-94480500D01*
X165438134Y-94480500D01*
X165500316Y-94473745D01*
X165636705Y-94422615D01*
X165753261Y-94335261D01*
X165840615Y-94218705D01*
X165891745Y-94082316D01*
X165898500Y-94020134D01*
X165898500Y-92923866D01*
X165891745Y-92861684D01*
X165840615Y-92725295D01*
X165753261Y-92608739D01*
X165636705Y-92521385D01*
X165500316Y-92470255D01*
X165438134Y-92463500D01*
X162191866Y-92463500D01*
X162129684Y-92470255D01*
X161993295Y-92521385D01*
X161876739Y-92608739D01*
X161789385Y-92725295D01*
X161738255Y-92861684D01*
X161731500Y-92923866D01*
X161731500Y-94020134D01*
X161738255Y-94082316D01*
X161747254Y-94106321D01*
X161748963Y-94110879D01*
X161754146Y-94181686D01*
X161740099Y-94218110D01*
X161735607Y-94225891D01*
X161725473Y-94243444D01*
X161666458Y-94425072D01*
X161646496Y-94615000D01*
X155590750Y-94615000D01*
X155679040Y-94516944D01*
X155774527Y-94351556D01*
X155826187Y-94192564D01*
X155866261Y-94133958D01*
X155931657Y-94106321D01*
X155946020Y-94105500D01*
X156609618Y-94105500D01*
X156677739Y-94125502D01*
X156724232Y-94179158D01*
X156727599Y-94187269D01*
X156736231Y-94210293D01*
X156739385Y-94218705D01*
X156826739Y-94335261D01*
X156943295Y-94422615D01*
X157079684Y-94473745D01*
X157141866Y-94480500D01*
X160388134Y-94480500D01*
X160450316Y-94473745D01*
X160586705Y-94422615D01*
X160703261Y-94335261D01*
X160790615Y-94218705D01*
X160841745Y-94082316D01*
X160848500Y-94020134D01*
X160848500Y-92923866D01*
X160841745Y-92861684D01*
X160790615Y-92725295D01*
X160703261Y-92608739D01*
X160586705Y-92521385D01*
X160450316Y-92470255D01*
X160388134Y-92463500D01*
X157141866Y-92463500D01*
X157079684Y-92470255D01*
X156943295Y-92521385D01*
X156826739Y-92608739D01*
X156739385Y-92725295D01*
X156736233Y-92733703D01*
X156736231Y-92733707D01*
X156727599Y-92756731D01*
X156684957Y-92813495D01*
X156618395Y-92838194D01*
X156609618Y-92838500D01*
X155526763Y-92838500D01*
X155515579Y-92837973D01*
X155508091Y-92836299D01*
X155500168Y-92836548D01*
X155440033Y-92838438D01*
X155436075Y-92838500D01*
X155408144Y-92838500D01*
X155404229Y-92838995D01*
X155404225Y-92838995D01*
X155404167Y-92839003D01*
X155404138Y-92839006D01*
X155392296Y-92839939D01*
X155348110Y-92841327D01*
X155330744Y-92846372D01*
X155328658Y-92846978D01*
X155309306Y-92850986D01*
X155297068Y-92852532D01*
X155297066Y-92852533D01*
X155289203Y-92853526D01*
X155248086Y-92869806D01*
X155236885Y-92873641D01*
X155194406Y-92885982D01*
X155187587Y-92890015D01*
X155187582Y-92890017D01*
X155176971Y-92896293D01*
X155159221Y-92904990D01*
X155140383Y-92912448D01*
X155133967Y-92917109D01*
X155133966Y-92917110D01*
X155104625Y-92938428D01*
X155094701Y-92944947D01*
X155063460Y-92963422D01*
X155063455Y-92963426D01*
X155056637Y-92967458D01*
X155042313Y-92981782D01*
X155027287Y-92994617D01*
X155011965Y-93005749D01*
X154945100Y-93029606D01*
X154875948Y-93013526D01*
X154848814Y-92992910D01*
X154166359Y-92310455D01*
X154155397Y-92290379D01*
X154149496Y-92288768D01*
X154126499Y-92270594D01*
X153619628Y-91763723D01*
X153612099Y-91755449D01*
X153607987Y-91748969D01*
X153558335Y-91702343D01*
X153555494Y-91699589D01*
X153535757Y-91679852D01*
X153532560Y-91677372D01*
X153523538Y-91669667D01*
X153505325Y-91652564D01*
X153491308Y-91639401D01*
X153484362Y-91635582D01*
X153484359Y-91635580D01*
X153473553Y-91629639D01*
X153457034Y-91618788D01*
X153456570Y-91618428D01*
X153441028Y-91606373D01*
X153433759Y-91603228D01*
X153433755Y-91603225D01*
X153400450Y-91588813D01*
X153389800Y-91583596D01*
X153351047Y-91562292D01*
X153331424Y-91557254D01*
X153312721Y-91550850D01*
X153301408Y-91545954D01*
X153301404Y-91545953D01*
X153294132Y-91542806D01*
X153288145Y-91541858D01*
X153229010Y-91504090D01*
X153199334Y-91439593D01*
X153198000Y-91421308D01*
X153198000Y-91204115D01*
X153193525Y-91188876D01*
X153192135Y-91187671D01*
X153184452Y-91186000D01*
X149050116Y-91186000D01*
X149034877Y-91190475D01*
X149033672Y-91191865D01*
X149032001Y-91199548D01*
X149032001Y-91396487D01*
X149011999Y-91464608D01*
X148958343Y-91511101D01*
X148906001Y-91522487D01*
X148274500Y-91522487D01*
X148206379Y-91502485D01*
X148159886Y-91448829D01*
X148148500Y-91396487D01*
X148148500Y-90866989D01*
X148168502Y-90798868D01*
X148222158Y-90752375D01*
X148274500Y-90740989D01*
X153292895Y-90740989D01*
X153361016Y-90760991D01*
X153381990Y-90777894D01*
X153992878Y-91388782D01*
X154026904Y-91451094D01*
X154029092Y-91464703D01*
X154046458Y-91629928D01*
X154105473Y-91811556D01*
X154200960Y-91976944D01*
X154297743Y-92084432D01*
X154309224Y-92097183D01*
X154315735Y-92110750D01*
X154315841Y-92110773D01*
X154329512Y-92119422D01*
X154483248Y-92231118D01*
X154489276Y-92233802D01*
X154489278Y-92233803D01*
X154616351Y-92290379D01*
X154657712Y-92308794D01*
X154751112Y-92328647D01*
X154838056Y-92347128D01*
X154838061Y-92347128D01*
X154844513Y-92348500D01*
X155035487Y-92348500D01*
X155041939Y-92347128D01*
X155041944Y-92347128D01*
X155128888Y-92328647D01*
X155222288Y-92308794D01*
X155263649Y-92290379D01*
X155390722Y-92233803D01*
X155390724Y-92233802D01*
X155396752Y-92231118D01*
X155551253Y-92118866D01*
X155558561Y-92110750D01*
X155674621Y-91981852D01*
X155674622Y-91981851D01*
X155679040Y-91976944D01*
X155774527Y-91811556D01*
X155826187Y-91652564D01*
X155866261Y-91593958D01*
X155931657Y-91566321D01*
X155946020Y-91565500D01*
X156609618Y-91565500D01*
X156677739Y-91585502D01*
X156724232Y-91639158D01*
X156727599Y-91647269D01*
X156736231Y-91670293D01*
X156739385Y-91678705D01*
X156826739Y-91795261D01*
X156943295Y-91882615D01*
X157079684Y-91933745D01*
X157141866Y-91940500D01*
X160388134Y-91940500D01*
X160450316Y-91933745D01*
X160586705Y-91882615D01*
X160703261Y-91795261D01*
X160790615Y-91678705D01*
X160841745Y-91542316D01*
X160848500Y-91480134D01*
X160848500Y-91476669D01*
X161732001Y-91476669D01*
X161732371Y-91483490D01*
X161737895Y-91534352D01*
X161741521Y-91549604D01*
X161786676Y-91670054D01*
X161795214Y-91685649D01*
X161871715Y-91787724D01*
X161884276Y-91800285D01*
X161986351Y-91876786D01*
X162001946Y-91885324D01*
X162122394Y-91930478D01*
X162137649Y-91934105D01*
X162188514Y-91939631D01*
X162195328Y-91940000D01*
X163542885Y-91940000D01*
X163558124Y-91935525D01*
X163559329Y-91934135D01*
X163561000Y-91926452D01*
X163561000Y-91921884D01*
X164069000Y-91921884D01*
X164073475Y-91937123D01*
X164074865Y-91938328D01*
X164082548Y-91939999D01*
X165434669Y-91939999D01*
X165441490Y-91939629D01*
X165492352Y-91934105D01*
X165507604Y-91930479D01*
X165628054Y-91885324D01*
X165643649Y-91876786D01*
X165745724Y-91800285D01*
X165758285Y-91787724D01*
X165834786Y-91685649D01*
X165843324Y-91670054D01*
X165888478Y-91549606D01*
X165892105Y-91534351D01*
X165897631Y-91483486D01*
X165898000Y-91476672D01*
X165898000Y-91204115D01*
X165893525Y-91188876D01*
X165892135Y-91187671D01*
X165884452Y-91186000D01*
X164087115Y-91186000D01*
X164071876Y-91190475D01*
X164070671Y-91191865D01*
X164069000Y-91199548D01*
X164069000Y-91921884D01*
X163561000Y-91921884D01*
X163561000Y-91204115D01*
X163556525Y-91188876D01*
X163555135Y-91187671D01*
X163547452Y-91186000D01*
X161750116Y-91186000D01*
X161734877Y-91190475D01*
X161733672Y-91191865D01*
X161732001Y-91199548D01*
X161732001Y-91476669D01*
X160848500Y-91476669D01*
X160848500Y-90659885D01*
X161732000Y-90659885D01*
X161736475Y-90675124D01*
X161737865Y-90676329D01*
X161745548Y-90678000D01*
X163542885Y-90678000D01*
X163558124Y-90673525D01*
X163559329Y-90672135D01*
X163561000Y-90664452D01*
X163561000Y-90659885D01*
X164069000Y-90659885D01*
X164073475Y-90675124D01*
X164074865Y-90676329D01*
X164082548Y-90678000D01*
X165879884Y-90678000D01*
X165895123Y-90673525D01*
X165896328Y-90672135D01*
X165897999Y-90664452D01*
X165897999Y-90387331D01*
X165897629Y-90380510D01*
X165892105Y-90329648D01*
X165888479Y-90314396D01*
X165843324Y-90193946D01*
X165834786Y-90178351D01*
X165758285Y-90076276D01*
X165745724Y-90063715D01*
X165643649Y-89987214D01*
X165628054Y-89978676D01*
X165507606Y-89933522D01*
X165492351Y-89929895D01*
X165441486Y-89924369D01*
X165434672Y-89924000D01*
X164087115Y-89924000D01*
X164071876Y-89928475D01*
X164070671Y-89929865D01*
X164069000Y-89937548D01*
X164069000Y-90659885D01*
X163561000Y-90659885D01*
X163561000Y-89942116D01*
X163556525Y-89926877D01*
X163555135Y-89925672D01*
X163547452Y-89924001D01*
X162195331Y-89924001D01*
X162188510Y-89924371D01*
X162137648Y-89929895D01*
X162122396Y-89933521D01*
X162001946Y-89978676D01*
X161986351Y-89987214D01*
X161884276Y-90063715D01*
X161871715Y-90076276D01*
X161795214Y-90178351D01*
X161786676Y-90193946D01*
X161741522Y-90314394D01*
X161737895Y-90329649D01*
X161732369Y-90380514D01*
X161732000Y-90387328D01*
X161732000Y-90659885D01*
X160848500Y-90659885D01*
X160848500Y-90383866D01*
X160841745Y-90321684D01*
X160790615Y-90185295D01*
X160703261Y-90068739D01*
X160586705Y-89981385D01*
X160450316Y-89930255D01*
X160388134Y-89923500D01*
X157141866Y-89923500D01*
X157079684Y-89930255D01*
X156943295Y-89981385D01*
X156826739Y-90068739D01*
X156739385Y-90185295D01*
X156736233Y-90193703D01*
X156736231Y-90193707D01*
X156727599Y-90216731D01*
X156684957Y-90273495D01*
X156618395Y-90298194D01*
X156609618Y-90298500D01*
X155526763Y-90298500D01*
X155515579Y-90297973D01*
X155508091Y-90296299D01*
X155500168Y-90296548D01*
X155440033Y-90298438D01*
X155436075Y-90298500D01*
X155408144Y-90298500D01*
X155404229Y-90298995D01*
X155404225Y-90298995D01*
X155404167Y-90299003D01*
X155404138Y-90299006D01*
X155392296Y-90299939D01*
X155348110Y-90301327D01*
X155330744Y-90306372D01*
X155328658Y-90306978D01*
X155309306Y-90310986D01*
X155297068Y-90312532D01*
X155297066Y-90312533D01*
X155289203Y-90313526D01*
X155248086Y-90329806D01*
X155236885Y-90333641D01*
X155194406Y-90345982D01*
X155187587Y-90350015D01*
X155187582Y-90350017D01*
X155176971Y-90356293D01*
X155159221Y-90364990D01*
X155140383Y-90372448D01*
X155133967Y-90377109D01*
X155133966Y-90377110D01*
X155104625Y-90398428D01*
X155094701Y-90404947D01*
X155063460Y-90423422D01*
X155063455Y-90423426D01*
X155056637Y-90427458D01*
X155042313Y-90441782D01*
X155027275Y-90454626D01*
X155011963Y-90465750D01*
X154945095Y-90489606D01*
X154875944Y-90473523D01*
X154848810Y-90452906D01*
X154461573Y-90065668D01*
X154427548Y-90003356D01*
X154432613Y-89932540D01*
X154475160Y-89875705D01*
X154541680Y-89850894D01*
X154558352Y-89851085D01*
X154563398Y-89852213D01*
X154571319Y-89851964D01*
X154631475Y-89850073D01*
X154635434Y-89850011D01*
X154663345Y-89850011D01*
X154667280Y-89849514D01*
X154667345Y-89849506D01*
X154679182Y-89848573D01*
X154711440Y-89847559D01*
X154715459Y-89847433D01*
X154723378Y-89847184D01*
X154742832Y-89841532D01*
X154762189Y-89837524D01*
X154774419Y-89835979D01*
X154774420Y-89835979D01*
X154782286Y-89834985D01*
X154789657Y-89832066D01*
X154789659Y-89832066D01*
X154823392Y-89818710D01*
X154834634Y-89814861D01*
X154839320Y-89813500D01*
X154874463Y-89808500D01*
X155035487Y-89808500D01*
X155041939Y-89807128D01*
X155041944Y-89807128D01*
X155128887Y-89788647D01*
X155222288Y-89768794D01*
X155363257Y-89706031D01*
X155390722Y-89693803D01*
X155390724Y-89693802D01*
X155396752Y-89691118D01*
X155551253Y-89578866D01*
X155679040Y-89436944D01*
X155774527Y-89271556D01*
X155826187Y-89112564D01*
X155866261Y-89053958D01*
X155931657Y-89026321D01*
X155946020Y-89025500D01*
X156609618Y-89025500D01*
X156677739Y-89045502D01*
X156724232Y-89099158D01*
X156727599Y-89107269D01*
X156736231Y-89130293D01*
X156739385Y-89138705D01*
X156826739Y-89255261D01*
X156943295Y-89342615D01*
X157079684Y-89393745D01*
X157141866Y-89400500D01*
X160388134Y-89400500D01*
X160450316Y-89393745D01*
X160586705Y-89342615D01*
X160703261Y-89255261D01*
X160790615Y-89138705D01*
X160841745Y-89002316D01*
X160848500Y-88940134D01*
X160848500Y-88936669D01*
X161732001Y-88936669D01*
X161732371Y-88943490D01*
X161737895Y-88994352D01*
X161741521Y-89009604D01*
X161786676Y-89130054D01*
X161795214Y-89145649D01*
X161871715Y-89247724D01*
X161884276Y-89260285D01*
X161986351Y-89336786D01*
X162001946Y-89345324D01*
X162122394Y-89390478D01*
X162137649Y-89394105D01*
X162188514Y-89399631D01*
X162195328Y-89400000D01*
X163542885Y-89400000D01*
X163558124Y-89395525D01*
X163559329Y-89394135D01*
X163561000Y-89386452D01*
X163561000Y-89381884D01*
X164069000Y-89381884D01*
X164073475Y-89397123D01*
X164074865Y-89398328D01*
X164082548Y-89399999D01*
X165434669Y-89399999D01*
X165441490Y-89399629D01*
X165492352Y-89394105D01*
X165507604Y-89390479D01*
X165628054Y-89345324D01*
X165643649Y-89336786D01*
X165745724Y-89260285D01*
X165758285Y-89247724D01*
X165834786Y-89145649D01*
X165843324Y-89130054D01*
X165888478Y-89009606D01*
X165892105Y-88994351D01*
X165897631Y-88943486D01*
X165898000Y-88936672D01*
X165898000Y-88664115D01*
X165893525Y-88648876D01*
X165892135Y-88647671D01*
X165884452Y-88646000D01*
X164087115Y-88646000D01*
X164071876Y-88650475D01*
X164070671Y-88651865D01*
X164069000Y-88659548D01*
X164069000Y-89381884D01*
X163561000Y-89381884D01*
X163561000Y-88664115D01*
X163556525Y-88648876D01*
X163555135Y-88647671D01*
X163547452Y-88646000D01*
X161750116Y-88646000D01*
X161734877Y-88650475D01*
X161733672Y-88651865D01*
X161732001Y-88659548D01*
X161732001Y-88936669D01*
X160848500Y-88936669D01*
X160848500Y-88119885D01*
X161732000Y-88119885D01*
X161736475Y-88135124D01*
X161737865Y-88136329D01*
X161745548Y-88138000D01*
X163542885Y-88138000D01*
X163558124Y-88133525D01*
X163559329Y-88132135D01*
X163561000Y-88124452D01*
X163561000Y-88119885D01*
X164069000Y-88119885D01*
X164073475Y-88135124D01*
X164074865Y-88136329D01*
X164082548Y-88138000D01*
X165879884Y-88138000D01*
X165895123Y-88133525D01*
X165896328Y-88132135D01*
X165897999Y-88124452D01*
X165897999Y-87847331D01*
X165897629Y-87840510D01*
X165892105Y-87789648D01*
X165888479Y-87774396D01*
X165843324Y-87653946D01*
X165834786Y-87638351D01*
X165758285Y-87536276D01*
X165745724Y-87523715D01*
X165643649Y-87447214D01*
X165628054Y-87438676D01*
X165507606Y-87393522D01*
X165492351Y-87389895D01*
X165441486Y-87384369D01*
X165434672Y-87384000D01*
X164087115Y-87384000D01*
X164071876Y-87388475D01*
X164070671Y-87389865D01*
X164069000Y-87397548D01*
X164069000Y-88119885D01*
X163561000Y-88119885D01*
X163561000Y-87402116D01*
X163556525Y-87386877D01*
X163555135Y-87385672D01*
X163547452Y-87384001D01*
X162195331Y-87384001D01*
X162188510Y-87384371D01*
X162137648Y-87389895D01*
X162122396Y-87393521D01*
X162001946Y-87438676D01*
X161986351Y-87447214D01*
X161884276Y-87523715D01*
X161871715Y-87536276D01*
X161795214Y-87638351D01*
X161786676Y-87653946D01*
X161741522Y-87774394D01*
X161737895Y-87789649D01*
X161732369Y-87840514D01*
X161732000Y-87847328D01*
X161732000Y-88119885D01*
X160848500Y-88119885D01*
X160848500Y-87843866D01*
X160841745Y-87781684D01*
X160790615Y-87645295D01*
X160703261Y-87528739D01*
X160586705Y-87441385D01*
X160450316Y-87390255D01*
X160388134Y-87383500D01*
X157141866Y-87383500D01*
X157079684Y-87390255D01*
X156943295Y-87441385D01*
X156826739Y-87528739D01*
X156739385Y-87645295D01*
X156736233Y-87653703D01*
X156736231Y-87653707D01*
X156727599Y-87676731D01*
X156684957Y-87733495D01*
X156618395Y-87758194D01*
X156609618Y-87758500D01*
X155526763Y-87758500D01*
X155515579Y-87757973D01*
X155508091Y-87756299D01*
X155500168Y-87756548D01*
X155440033Y-87758438D01*
X155436075Y-87758500D01*
X155408144Y-87758500D01*
X155404229Y-87758995D01*
X155404225Y-87758995D01*
X155404167Y-87759003D01*
X155404138Y-87759006D01*
X155392296Y-87759939D01*
X155348110Y-87761327D01*
X155330744Y-87766372D01*
X155328658Y-87766978D01*
X155309306Y-87770986D01*
X155297068Y-87772532D01*
X155297066Y-87772533D01*
X155289203Y-87773526D01*
X155248086Y-87789806D01*
X155236885Y-87793641D01*
X155194406Y-87805982D01*
X155187587Y-87810015D01*
X155187582Y-87810017D01*
X155176971Y-87816293D01*
X155159221Y-87824990D01*
X155140383Y-87832448D01*
X155133967Y-87837109D01*
X155133966Y-87837110D01*
X155104625Y-87858428D01*
X155094701Y-87864947D01*
X155063460Y-87883422D01*
X155063455Y-87883426D01*
X155056637Y-87887458D01*
X155042313Y-87901782D01*
X155027281Y-87914621D01*
X155010893Y-87926528D01*
X155005842Y-87932634D01*
X154994936Y-87945817D01*
X154936102Y-87985554D01*
X154897852Y-87991500D01*
X154844513Y-87991500D01*
X154838061Y-87992872D01*
X154838056Y-87992872D01*
X154751112Y-88011353D01*
X154657712Y-88031206D01*
X154651682Y-88033891D01*
X154651681Y-88033891D01*
X154489278Y-88106197D01*
X154489276Y-88106198D01*
X154483248Y-88108882D01*
X154477907Y-88112762D01*
X154477906Y-88112763D01*
X154443171Y-88138000D01*
X154328747Y-88221134D01*
X154200960Y-88363056D01*
X154197659Y-88368774D01*
X154110342Y-88520011D01*
X154058960Y-88569004D01*
X154001223Y-88583011D01*
X148274500Y-88583011D01*
X148206379Y-88563009D01*
X148159886Y-88509353D01*
X148148500Y-88457011D01*
X148148500Y-87843866D01*
X148141745Y-87781684D01*
X148090615Y-87645295D01*
X148003261Y-87528739D01*
X147997424Y-87524364D01*
X147963803Y-87462794D01*
X147968868Y-87391979D01*
X148011415Y-87335143D01*
X148077935Y-87310332D01*
X148086924Y-87310011D01*
X149093790Y-87310011D01*
X149161911Y-87330013D01*
X149208404Y-87383669D01*
X149218508Y-87453943D01*
X149189014Y-87518523D01*
X149182885Y-87525106D01*
X149171715Y-87536276D01*
X149095214Y-87638351D01*
X149086676Y-87653946D01*
X149041522Y-87774394D01*
X149037895Y-87789649D01*
X149032369Y-87840514D01*
X149032000Y-87847328D01*
X149032000Y-88119885D01*
X149036475Y-88135124D01*
X149037865Y-88136329D01*
X149045548Y-88138000D01*
X153179884Y-88138000D01*
X153195123Y-88133525D01*
X153196328Y-88132135D01*
X153197999Y-88124452D01*
X153197999Y-87847331D01*
X153197629Y-87840510D01*
X153192105Y-87789648D01*
X153188479Y-87774396D01*
X153143324Y-87653946D01*
X153134786Y-87638351D01*
X153058285Y-87536276D01*
X153047115Y-87525106D01*
X153013089Y-87462794D01*
X153018154Y-87391979D01*
X153060701Y-87335143D01*
X153127221Y-87310332D01*
X153136210Y-87310011D01*
X154544722Y-87310011D01*
X154555905Y-87310538D01*
X154563398Y-87312213D01*
X154571324Y-87311964D01*
X154571325Y-87311964D01*
X154631475Y-87310073D01*
X154635434Y-87310011D01*
X154663345Y-87310011D01*
X154667280Y-87309514D01*
X154667345Y-87309506D01*
X154679182Y-87308573D01*
X154711440Y-87307559D01*
X154715459Y-87307433D01*
X154723378Y-87307184D01*
X154742832Y-87301532D01*
X154762189Y-87297524D01*
X154774419Y-87295979D01*
X154774420Y-87295979D01*
X154782286Y-87294985D01*
X154789657Y-87292066D01*
X154789659Y-87292066D01*
X154823392Y-87278710D01*
X154834634Y-87274861D01*
X154839320Y-87273500D01*
X154874463Y-87268500D01*
X155035487Y-87268500D01*
X155041939Y-87267128D01*
X155041944Y-87267128D01*
X155141143Y-87246042D01*
X155222288Y-87228794D01*
X155269817Y-87207633D01*
X155390722Y-87153803D01*
X155390724Y-87153802D01*
X155396752Y-87151118D01*
X155551253Y-87038866D01*
X155679040Y-86896944D01*
X155774527Y-86731556D01*
X155826187Y-86572564D01*
X155866261Y-86513958D01*
X155931657Y-86486321D01*
X155946020Y-86485500D01*
X156609618Y-86485500D01*
X156677739Y-86505502D01*
X156724232Y-86559158D01*
X156727599Y-86567269D01*
X156736231Y-86590293D01*
X156739385Y-86598705D01*
X156826739Y-86715261D01*
X156943295Y-86802615D01*
X157079684Y-86853745D01*
X157141866Y-86860500D01*
X160388134Y-86860500D01*
X160450316Y-86853745D01*
X160586705Y-86802615D01*
X160703261Y-86715261D01*
X160790615Y-86598705D01*
X160841745Y-86462316D01*
X160848500Y-86400134D01*
X160848500Y-86396669D01*
X161732001Y-86396669D01*
X161732371Y-86403490D01*
X161737895Y-86454352D01*
X161741521Y-86469604D01*
X161786676Y-86590054D01*
X161795214Y-86605649D01*
X161871715Y-86707724D01*
X161884276Y-86720285D01*
X161986351Y-86796786D01*
X162001946Y-86805324D01*
X162122394Y-86850478D01*
X162137649Y-86854105D01*
X162188514Y-86859631D01*
X162195328Y-86860000D01*
X163542885Y-86860000D01*
X163558124Y-86855525D01*
X163559329Y-86854135D01*
X163561000Y-86846452D01*
X163561000Y-86841884D01*
X164069000Y-86841884D01*
X164073475Y-86857123D01*
X164074865Y-86858328D01*
X164082548Y-86859999D01*
X165434669Y-86859999D01*
X165441490Y-86859629D01*
X165492352Y-86854105D01*
X165507604Y-86850479D01*
X165628054Y-86805324D01*
X165643649Y-86796786D01*
X165745724Y-86720285D01*
X165758285Y-86707724D01*
X165834786Y-86605649D01*
X165843324Y-86590054D01*
X165888478Y-86469606D01*
X165892105Y-86454351D01*
X165897631Y-86403486D01*
X165898000Y-86396672D01*
X165898000Y-86124115D01*
X165893525Y-86108876D01*
X165892135Y-86107671D01*
X165884452Y-86106000D01*
X164087115Y-86106000D01*
X164071876Y-86110475D01*
X164070671Y-86111865D01*
X164069000Y-86119548D01*
X164069000Y-86841884D01*
X163561000Y-86841884D01*
X163561000Y-86124115D01*
X163556525Y-86108876D01*
X163555135Y-86107671D01*
X163547452Y-86106000D01*
X161750116Y-86106000D01*
X161734877Y-86110475D01*
X161733672Y-86111865D01*
X161732001Y-86119548D01*
X161732001Y-86396669D01*
X160848500Y-86396669D01*
X160848500Y-85579885D01*
X161732000Y-85579885D01*
X161736475Y-85595124D01*
X161737865Y-85596329D01*
X161745548Y-85598000D01*
X163542885Y-85598000D01*
X163558124Y-85593525D01*
X163559329Y-85592135D01*
X163561000Y-85584452D01*
X163561000Y-85579885D01*
X164069000Y-85579885D01*
X164073475Y-85595124D01*
X164074865Y-85596329D01*
X164082548Y-85598000D01*
X165879884Y-85598000D01*
X165895123Y-85593525D01*
X165896328Y-85592135D01*
X165897999Y-85584452D01*
X165897999Y-85307331D01*
X165897629Y-85300510D01*
X165892105Y-85249648D01*
X165888479Y-85234396D01*
X165843324Y-85113946D01*
X165834786Y-85098351D01*
X165758285Y-84996276D01*
X165745724Y-84983715D01*
X165643649Y-84907214D01*
X165628054Y-84898676D01*
X165507606Y-84853522D01*
X165492351Y-84849895D01*
X165441486Y-84844369D01*
X165434672Y-84844000D01*
X164087115Y-84844000D01*
X164071876Y-84848475D01*
X164070671Y-84849865D01*
X164069000Y-84857548D01*
X164069000Y-85579885D01*
X163561000Y-85579885D01*
X163561000Y-84862116D01*
X163556525Y-84846877D01*
X163555135Y-84845672D01*
X163547452Y-84844001D01*
X162195331Y-84844001D01*
X162188510Y-84844371D01*
X162137648Y-84849895D01*
X162122396Y-84853521D01*
X162001946Y-84898676D01*
X161986351Y-84907214D01*
X161884276Y-84983715D01*
X161871715Y-84996276D01*
X161795214Y-85098351D01*
X161786676Y-85113946D01*
X161741522Y-85234394D01*
X161737895Y-85249649D01*
X161732369Y-85300514D01*
X161732000Y-85307328D01*
X161732000Y-85579885D01*
X160848500Y-85579885D01*
X160848500Y-85303866D01*
X160841745Y-85241684D01*
X160790615Y-85105295D01*
X160703261Y-84988739D01*
X160586705Y-84901385D01*
X160450316Y-84850255D01*
X160388134Y-84843500D01*
X157141866Y-84843500D01*
X157079684Y-84850255D01*
X156943295Y-84901385D01*
X156826739Y-84988739D01*
X156739385Y-85105295D01*
X156736233Y-85113703D01*
X156736231Y-85113707D01*
X156727599Y-85136731D01*
X156684957Y-85193495D01*
X156618395Y-85218194D01*
X156609618Y-85218500D01*
X155526763Y-85218500D01*
X155515579Y-85217973D01*
X155508091Y-85216299D01*
X155500168Y-85216548D01*
X155440033Y-85218438D01*
X155436075Y-85218500D01*
X155408144Y-85218500D01*
X155404229Y-85218995D01*
X155404225Y-85218995D01*
X155404167Y-85219003D01*
X155404138Y-85219006D01*
X155392296Y-85219939D01*
X155348110Y-85221327D01*
X155330744Y-85226372D01*
X155328658Y-85226978D01*
X155309306Y-85230986D01*
X155297068Y-85232532D01*
X155297066Y-85232533D01*
X155289203Y-85233526D01*
X155248086Y-85249806D01*
X155236885Y-85253641D01*
X155194406Y-85265982D01*
X155187587Y-85270015D01*
X155187582Y-85270017D01*
X155176971Y-85276293D01*
X155159221Y-85284990D01*
X155140383Y-85292448D01*
X155133967Y-85297109D01*
X155133966Y-85297110D01*
X155104625Y-85318428D01*
X155094701Y-85324947D01*
X155063460Y-85343422D01*
X155063455Y-85343426D01*
X155056637Y-85347458D01*
X155042313Y-85361782D01*
X155027281Y-85374621D01*
X155010893Y-85386528D01*
X155005842Y-85392634D01*
X154994936Y-85405817D01*
X154936102Y-85445554D01*
X154897852Y-85451500D01*
X154844513Y-85451500D01*
X154838061Y-85452872D01*
X154838056Y-85452872D01*
X154751112Y-85471353D01*
X154657712Y-85491206D01*
X154651682Y-85493891D01*
X154651681Y-85493891D01*
X154489278Y-85566197D01*
X154489276Y-85566198D01*
X154483248Y-85568882D01*
X154477907Y-85572762D01*
X154477906Y-85572763D01*
X154443171Y-85598000D01*
X154328747Y-85681134D01*
X154200960Y-85823056D01*
X154197659Y-85828774D01*
X154110342Y-85980011D01*
X154058960Y-86029004D01*
X154001223Y-86043011D01*
X148274500Y-86043011D01*
X148206379Y-86023009D01*
X148159886Y-85969353D01*
X148148500Y-85917011D01*
X148148500Y-85579885D01*
X149032000Y-85579885D01*
X149036475Y-85595124D01*
X149037865Y-85596329D01*
X149045548Y-85598000D01*
X150842885Y-85598000D01*
X150858124Y-85593525D01*
X150859329Y-85592135D01*
X150861000Y-85584452D01*
X150861000Y-85579885D01*
X151369000Y-85579885D01*
X151373475Y-85595124D01*
X151374865Y-85596329D01*
X151382548Y-85598000D01*
X153179884Y-85598000D01*
X153195123Y-85593525D01*
X153196328Y-85592135D01*
X153197999Y-85584452D01*
X153197999Y-85307331D01*
X153197629Y-85300510D01*
X153192105Y-85249648D01*
X153188479Y-85234396D01*
X153143324Y-85113946D01*
X153134786Y-85098351D01*
X153058285Y-84996276D01*
X153045724Y-84983715D01*
X152943649Y-84907214D01*
X152928054Y-84898676D01*
X152807606Y-84853522D01*
X152792351Y-84849895D01*
X152741486Y-84844369D01*
X152734672Y-84844000D01*
X151387115Y-84844000D01*
X151371876Y-84848475D01*
X151370671Y-84849865D01*
X151369000Y-84857548D01*
X151369000Y-85579885D01*
X150861000Y-85579885D01*
X150861000Y-84862116D01*
X150856525Y-84846877D01*
X150855135Y-84845672D01*
X150847452Y-84844001D01*
X149495331Y-84844001D01*
X149488510Y-84844371D01*
X149437648Y-84849895D01*
X149422396Y-84853521D01*
X149301946Y-84898676D01*
X149286351Y-84907214D01*
X149184276Y-84983715D01*
X149171715Y-84996276D01*
X149095214Y-85098351D01*
X149086676Y-85113946D01*
X149041522Y-85234394D01*
X149037895Y-85249649D01*
X149032369Y-85300514D01*
X149032000Y-85307328D01*
X149032000Y-85579885D01*
X148148500Y-85579885D01*
X148148500Y-85303866D01*
X148141745Y-85241684D01*
X148090615Y-85105295D01*
X148003261Y-84988739D01*
X147886705Y-84901385D01*
X147750316Y-84850255D01*
X147688134Y-84843500D01*
X144441866Y-84843500D01*
X144379684Y-84850255D01*
X144243295Y-84901385D01*
X144126739Y-84988739D01*
X144039385Y-85105295D01*
X143988255Y-85241684D01*
X143981500Y-85303866D01*
X143981500Y-86400134D01*
X143988255Y-86462316D01*
X144039385Y-86598705D01*
X144126739Y-86715261D01*
X144243295Y-86802615D01*
X144379684Y-86853745D01*
X144441866Y-86860500D01*
X146125406Y-86860500D01*
X146193527Y-86880502D01*
X146214501Y-86897405D01*
X146385854Y-87068758D01*
X146393398Y-87077048D01*
X146397511Y-87083529D01*
X146403288Y-87088954D01*
X146447178Y-87130169D01*
X146450020Y-87132924D01*
X146469742Y-87152646D01*
X146472866Y-87155069D01*
X146472870Y-87155073D01*
X146472935Y-87155123D01*
X146481958Y-87162830D01*
X146484962Y-87165651D01*
X146520927Y-87226864D01*
X146518088Y-87297804D01*
X146477347Y-87355947D01*
X146411639Y-87382835D01*
X146398708Y-87383500D01*
X144441866Y-87383500D01*
X144379684Y-87390255D01*
X144243295Y-87441385D01*
X144126739Y-87528739D01*
X144039385Y-87645295D01*
X143988255Y-87781684D01*
X143981500Y-87843866D01*
X143981500Y-88940134D01*
X143988255Y-89002316D01*
X144039385Y-89138705D01*
X144126739Y-89255261D01*
X144243295Y-89342615D01*
X144379684Y-89393745D01*
X144441866Y-89400500D01*
X146125406Y-89400500D01*
X146193527Y-89420502D01*
X146214501Y-89437405D01*
X146350000Y-89572904D01*
X146384026Y-89635216D01*
X146378961Y-89706031D01*
X146350001Y-89751094D01*
X146214501Y-89886595D01*
X146152189Y-89920620D01*
X146125405Y-89923500D01*
X144441866Y-89923500D01*
X144379684Y-89930255D01*
X144243295Y-89981385D01*
X144126739Y-90068739D01*
X144039385Y-90185295D01*
X143988255Y-90321684D01*
X143981500Y-90383866D01*
X143981500Y-91480134D01*
X143988255Y-91542316D01*
X144039385Y-91678705D01*
X144126739Y-91795261D01*
X144243295Y-91882615D01*
X144379684Y-91933745D01*
X144441866Y-91940500D01*
X146396405Y-91940500D01*
X146464526Y-91960502D01*
X146511019Y-92014158D01*
X146521123Y-92084432D01*
X146491629Y-92149012D01*
X146485500Y-92155595D01*
X146214500Y-92426595D01*
X146152188Y-92460621D01*
X146125405Y-92463500D01*
X144441866Y-92463500D01*
X144379684Y-92470255D01*
X144243295Y-92521385D01*
X144126739Y-92608739D01*
X144039385Y-92725295D01*
X143988255Y-92861684D01*
X143981500Y-92923866D01*
X143981500Y-94020134D01*
X143510500Y-94020134D01*
X143510500Y-83856669D01*
X143982001Y-83856669D01*
X143982371Y-83863490D01*
X143987895Y-83914352D01*
X143991521Y-83929604D01*
X144036676Y-84050054D01*
X144045214Y-84065649D01*
X144121715Y-84167724D01*
X144134276Y-84180285D01*
X144236351Y-84256786D01*
X144251946Y-84265324D01*
X144372394Y-84310478D01*
X144387649Y-84314105D01*
X144438514Y-84319631D01*
X144445328Y-84320000D01*
X145792885Y-84320000D01*
X145808124Y-84315525D01*
X145809329Y-84314135D01*
X145811000Y-84306452D01*
X145811000Y-84301884D01*
X146319000Y-84301884D01*
X146323475Y-84317123D01*
X146324865Y-84318328D01*
X146332548Y-84319999D01*
X147684669Y-84319999D01*
X147691490Y-84319629D01*
X147742352Y-84314105D01*
X147757604Y-84310479D01*
X147878054Y-84265324D01*
X147893649Y-84256786D01*
X147995724Y-84180285D01*
X148008285Y-84167724D01*
X148084786Y-84065649D01*
X148093324Y-84050054D01*
X148138478Y-83929606D01*
X148142105Y-83914351D01*
X148147631Y-83863486D01*
X148148000Y-83856672D01*
X148148000Y-83584115D01*
X148143525Y-83568876D01*
X148142135Y-83567671D01*
X148134452Y-83566000D01*
X146337115Y-83566000D01*
X146321876Y-83570475D01*
X146320671Y-83571865D01*
X146319000Y-83579548D01*
X146319000Y-84301884D01*
X145811000Y-84301884D01*
X145811000Y-83584115D01*
X145806525Y-83568876D01*
X145805135Y-83567671D01*
X145797452Y-83566000D01*
X144000116Y-83566000D01*
X143984877Y-83570475D01*
X143983672Y-83571865D01*
X143982001Y-83579548D01*
X143982001Y-83856669D01*
X143510500Y-83856669D01*
X143510500Y-83039885D01*
X143982000Y-83039885D01*
X143986475Y-83055124D01*
X143987865Y-83056329D01*
X143995548Y-83058000D01*
X145792885Y-83058000D01*
X145808124Y-83053525D01*
X145809329Y-83052135D01*
X145811000Y-83044452D01*
X145811000Y-82322116D01*
X145806525Y-82306877D01*
X145805135Y-82305672D01*
X145797452Y-82304001D01*
X144445331Y-82304001D01*
X144438510Y-82304371D01*
X144387648Y-82309895D01*
X144372396Y-82313521D01*
X144251946Y-82358676D01*
X144236351Y-82367214D01*
X144134276Y-82443715D01*
X144121715Y-82456276D01*
X144045214Y-82558351D01*
X144036676Y-82573946D01*
X143991522Y-82694394D01*
X143987895Y-82709649D01*
X143982369Y-82760514D01*
X143982000Y-82767328D01*
X143982000Y-83039885D01*
X143510500Y-83039885D01*
X143510500Y-81320134D01*
X143981500Y-81320134D01*
X143988255Y-81382316D01*
X144039385Y-81518705D01*
X144126739Y-81635261D01*
X144243295Y-81722615D01*
X144379684Y-81773745D01*
X144441866Y-81780500D01*
X146125406Y-81780500D01*
X146193527Y-81800502D01*
X146214501Y-81817405D01*
X146385854Y-81988758D01*
X146393398Y-81997048D01*
X146397511Y-82003529D01*
X146403288Y-82008954D01*
X146447178Y-82050169D01*
X146450020Y-82052924D01*
X146469742Y-82072646D01*
X146472866Y-82075069D01*
X146472870Y-82075073D01*
X146472935Y-82075123D01*
X146481947Y-82082820D01*
X146485489Y-82086146D01*
X146521457Y-82147354D01*
X146518624Y-82218294D01*
X146477888Y-82276441D01*
X146412182Y-82303334D01*
X146399241Y-82304000D01*
X146337115Y-82304000D01*
X146321876Y-82308475D01*
X146320671Y-82309865D01*
X146319000Y-82317548D01*
X146319000Y-83039885D01*
X146323475Y-83055124D01*
X146324865Y-83056329D01*
X146332548Y-83058000D01*
X148129884Y-83058000D01*
X148145123Y-83053525D01*
X148146328Y-83052135D01*
X148147999Y-83044452D01*
X148147999Y-82767331D01*
X148147629Y-82760510D01*
X148142105Y-82709648D01*
X148138479Y-82694396D01*
X148093324Y-82573946D01*
X148084786Y-82558351D01*
X148008285Y-82456276D01*
X147997115Y-82445106D01*
X147963089Y-82382794D01*
X147968154Y-82311979D01*
X148010701Y-82255143D01*
X148077221Y-82230332D01*
X148086210Y-82230011D01*
X149093076Y-82230011D01*
X149161197Y-82250013D01*
X149207690Y-82303669D01*
X149217794Y-82373943D01*
X149188300Y-82438523D01*
X149183520Y-82443657D01*
X149176739Y-82448739D01*
X149089385Y-82565295D01*
X149038255Y-82701684D01*
X149031500Y-82763866D01*
X149031500Y-83860134D01*
X149038255Y-83922316D01*
X149089385Y-84058705D01*
X149176739Y-84175261D01*
X149293295Y-84262615D01*
X149429684Y-84313745D01*
X149491866Y-84320500D01*
X152738134Y-84320500D01*
X152800316Y-84313745D01*
X152936705Y-84262615D01*
X153053261Y-84175261D01*
X153140615Y-84058705D01*
X153191745Y-83922316D01*
X153198500Y-83860134D01*
X153198500Y-83856669D01*
X156682001Y-83856669D01*
X156682371Y-83863490D01*
X156687895Y-83914352D01*
X156691521Y-83929604D01*
X156736676Y-84050054D01*
X156745214Y-84065649D01*
X156821715Y-84167724D01*
X156834276Y-84180285D01*
X156936351Y-84256786D01*
X156951946Y-84265324D01*
X157072394Y-84310478D01*
X157087649Y-84314105D01*
X157138514Y-84319631D01*
X157145328Y-84320000D01*
X158492885Y-84320000D01*
X158508124Y-84315525D01*
X158509329Y-84314135D01*
X158511000Y-84306452D01*
X158511000Y-84301884D01*
X159019000Y-84301884D01*
X159023475Y-84317123D01*
X159024865Y-84318328D01*
X159032548Y-84319999D01*
X160384669Y-84319999D01*
X160391490Y-84319629D01*
X160442352Y-84314105D01*
X160457604Y-84310479D01*
X160578054Y-84265324D01*
X160593649Y-84256786D01*
X160695724Y-84180285D01*
X160708285Y-84167724D01*
X160784786Y-84065649D01*
X160793324Y-84050054D01*
X160838478Y-83929606D01*
X160842105Y-83914351D01*
X160847631Y-83863486D01*
X160847813Y-83860134D01*
X161731500Y-83860134D01*
X161738255Y-83922316D01*
X161789385Y-84058705D01*
X161876739Y-84175261D01*
X161993295Y-84262615D01*
X162129684Y-84313745D01*
X162191866Y-84320500D01*
X165438134Y-84320500D01*
X165500316Y-84313745D01*
X165636705Y-84262615D01*
X165753261Y-84175261D01*
X165840615Y-84058705D01*
X165891745Y-83922316D01*
X165898500Y-83860134D01*
X165898500Y-82763866D01*
X165891745Y-82701684D01*
X165840615Y-82565295D01*
X165753261Y-82448739D01*
X165636705Y-82361385D01*
X165500316Y-82310255D01*
X165438134Y-82303500D01*
X162191866Y-82303500D01*
X162129684Y-82310255D01*
X161993295Y-82361385D01*
X161876739Y-82448739D01*
X161789385Y-82565295D01*
X161738255Y-82701684D01*
X161731500Y-82763866D01*
X161731500Y-83860134D01*
X160847813Y-83860134D01*
X160848000Y-83856672D01*
X160848000Y-83584115D01*
X160843525Y-83568876D01*
X160842135Y-83567671D01*
X160834452Y-83566000D01*
X159037115Y-83566000D01*
X159021876Y-83570475D01*
X159020671Y-83571865D01*
X159019000Y-83579548D01*
X159019000Y-84301884D01*
X158511000Y-84301884D01*
X158511000Y-83584115D01*
X158506525Y-83568876D01*
X158505135Y-83567671D01*
X158497452Y-83566000D01*
X156700116Y-83566000D01*
X156684877Y-83570475D01*
X156683672Y-83571865D01*
X156682001Y-83579548D01*
X156682001Y-83856669D01*
X153198500Y-83856669D01*
X153198500Y-83039885D01*
X156682000Y-83039885D01*
X156686475Y-83055124D01*
X156687865Y-83056329D01*
X156695548Y-83058000D01*
X158492885Y-83058000D01*
X158508124Y-83053525D01*
X158509329Y-83052135D01*
X158511000Y-83044452D01*
X158511000Y-83039885D01*
X159019000Y-83039885D01*
X159023475Y-83055124D01*
X159024865Y-83056329D01*
X159032548Y-83058000D01*
X160829884Y-83058000D01*
X160845123Y-83053525D01*
X160846328Y-83052135D01*
X160847999Y-83044452D01*
X160847999Y-82767331D01*
X160847629Y-82760510D01*
X160842105Y-82709648D01*
X160838479Y-82694396D01*
X160793324Y-82573946D01*
X160784786Y-82558351D01*
X160708285Y-82456276D01*
X160695724Y-82443715D01*
X160593649Y-82367214D01*
X160578054Y-82358676D01*
X160457606Y-82313522D01*
X160442351Y-82309895D01*
X160391486Y-82304369D01*
X160384672Y-82304000D01*
X159037115Y-82304000D01*
X159021876Y-82308475D01*
X159020671Y-82309865D01*
X159019000Y-82317548D01*
X159019000Y-83039885D01*
X158511000Y-83039885D01*
X158511000Y-82322116D01*
X158506525Y-82306877D01*
X158505135Y-82305672D01*
X158497452Y-82304001D01*
X157145331Y-82304001D01*
X157138510Y-82304371D01*
X157087648Y-82309895D01*
X157072396Y-82313521D01*
X156951946Y-82358676D01*
X156936351Y-82367214D01*
X156834276Y-82443715D01*
X156821715Y-82456276D01*
X156745214Y-82558351D01*
X156736676Y-82573946D01*
X156691522Y-82694394D01*
X156687895Y-82709649D01*
X156682369Y-82760514D01*
X156682000Y-82767328D01*
X156682000Y-83039885D01*
X153198500Y-83039885D01*
X153198500Y-82763866D01*
X153191745Y-82701684D01*
X153140615Y-82565295D01*
X153053261Y-82448739D01*
X153047424Y-82444364D01*
X153013803Y-82382794D01*
X153018868Y-82311979D01*
X153061415Y-82255143D01*
X153127935Y-82230332D01*
X153136924Y-82230011D01*
X154544722Y-82230011D01*
X154555905Y-82230538D01*
X154563398Y-82232213D01*
X154571324Y-82231964D01*
X154571325Y-82231964D01*
X154631475Y-82230073D01*
X154635434Y-82230011D01*
X154663345Y-82230011D01*
X154667280Y-82229514D01*
X154667345Y-82229506D01*
X154679182Y-82228573D01*
X154711440Y-82227559D01*
X154715459Y-82227433D01*
X154723378Y-82227184D01*
X154742832Y-82221532D01*
X154762189Y-82217524D01*
X154774419Y-82215979D01*
X154774420Y-82215979D01*
X154782286Y-82214985D01*
X154789657Y-82212066D01*
X154789659Y-82212066D01*
X154823392Y-82198710D01*
X154834634Y-82194861D01*
X154839320Y-82193500D01*
X154874463Y-82188500D01*
X155035487Y-82188500D01*
X155041939Y-82187128D01*
X155041944Y-82187128D01*
X155141143Y-82166042D01*
X155222288Y-82148794D01*
X155269817Y-82127633D01*
X155390722Y-82073803D01*
X155390724Y-82073802D01*
X155396752Y-82071118D01*
X155551253Y-81958866D01*
X155679040Y-81816944D01*
X155774527Y-81651556D01*
X155826187Y-81492564D01*
X155866261Y-81433958D01*
X155931657Y-81406321D01*
X155946020Y-81405500D01*
X156609618Y-81405500D01*
X156677739Y-81425502D01*
X156724232Y-81479158D01*
X156727599Y-81487269D01*
X156736231Y-81510293D01*
X156739385Y-81518705D01*
X156826739Y-81635261D01*
X156943295Y-81722615D01*
X157079684Y-81773745D01*
X157141866Y-81780500D01*
X160388134Y-81780500D01*
X160450316Y-81773745D01*
X160586705Y-81722615D01*
X160703261Y-81635261D01*
X160790615Y-81518705D01*
X160841745Y-81382316D01*
X160848500Y-81320134D01*
X160848500Y-80706989D01*
X160868502Y-80638868D01*
X160922158Y-80592375D01*
X160974500Y-80580989D01*
X161605500Y-80580989D01*
X161673621Y-80600991D01*
X161720114Y-80654647D01*
X161731500Y-80706989D01*
X161731500Y-81320134D01*
X161738255Y-81382316D01*
X161789385Y-81518705D01*
X161876739Y-81635261D01*
X161993295Y-81722615D01*
X162129684Y-81773745D01*
X162191866Y-81780500D01*
X165438134Y-81780500D01*
X165500316Y-81773745D01*
X165636705Y-81722615D01*
X165753261Y-81635261D01*
X165840615Y-81518705D01*
X165891745Y-81382316D01*
X165898500Y-81320134D01*
X165898500Y-80223866D01*
X165891745Y-80161684D01*
X165840615Y-80025295D01*
X165753261Y-79908739D01*
X165636705Y-79821385D01*
X165500316Y-79770255D01*
X165438134Y-79763500D01*
X163754595Y-79763500D01*
X163686474Y-79743498D01*
X163665500Y-79726595D01*
X163494141Y-79555236D01*
X163486601Y-79546950D01*
X163482489Y-79540471D01*
X163432837Y-79493845D01*
X163429996Y-79491091D01*
X163410259Y-79471354D01*
X163407062Y-79468874D01*
X163398041Y-79461170D01*
X163395039Y-79458351D01*
X163359073Y-79397139D01*
X163361910Y-79326199D01*
X163402650Y-79268054D01*
X163468358Y-79241166D01*
X163481291Y-79240500D01*
X165438134Y-79240500D01*
X165500316Y-79233745D01*
X165636705Y-79182615D01*
X165753261Y-79095261D01*
X165840615Y-78978705D01*
X165891745Y-78842316D01*
X165898500Y-78780134D01*
X165898500Y-77683866D01*
X165891745Y-77621684D01*
X165840615Y-77485295D01*
X165753261Y-77368739D01*
X165636705Y-77281385D01*
X165500316Y-77230255D01*
X165438134Y-77223500D01*
X163754595Y-77223500D01*
X163686474Y-77203498D01*
X163665500Y-77186595D01*
X163494141Y-77015236D01*
X163486601Y-77006950D01*
X163482489Y-77000471D01*
X163432837Y-76953845D01*
X163429996Y-76951091D01*
X163410259Y-76931354D01*
X163407062Y-76928874D01*
X163398041Y-76921170D01*
X163395039Y-76918351D01*
X163359073Y-76857139D01*
X163361910Y-76786199D01*
X163402650Y-76728054D01*
X163468358Y-76701166D01*
X163481291Y-76700500D01*
X165438134Y-76700500D01*
X165500316Y-76693745D01*
X165636705Y-76642615D01*
X165753261Y-76555261D01*
X165840615Y-76438705D01*
X165891745Y-76302316D01*
X165898500Y-76240134D01*
X165898500Y-75143866D01*
X165891745Y-75081684D01*
X165840615Y-74945295D01*
X165753261Y-74828739D01*
X165636705Y-74741385D01*
X165500316Y-74690255D01*
X165438134Y-74683500D01*
X163754595Y-74683500D01*
X163686474Y-74663498D01*
X163665500Y-74646595D01*
X163494141Y-74475236D01*
X163486601Y-74466950D01*
X163482489Y-74460471D01*
X163432837Y-74413845D01*
X163429996Y-74411091D01*
X163410259Y-74391354D01*
X163407062Y-74388874D01*
X163398041Y-74381170D01*
X163395039Y-74378351D01*
X163359073Y-74317139D01*
X163361910Y-74246199D01*
X163402650Y-74188054D01*
X163468358Y-74161166D01*
X163481291Y-74160500D01*
X165438134Y-74160500D01*
X165500316Y-74153745D01*
X165636705Y-74102615D01*
X165753261Y-74015261D01*
X165840615Y-73898705D01*
X165891745Y-73762316D01*
X165898500Y-73700134D01*
X165898500Y-72603866D01*
X165891745Y-72541684D01*
X165840615Y-72405295D01*
X165753261Y-72288739D01*
X165636705Y-72201385D01*
X165500316Y-72150255D01*
X165438134Y-72143500D01*
X163754595Y-72143500D01*
X163686474Y-72123498D01*
X163665500Y-72106595D01*
X163494141Y-71935236D01*
X163486601Y-71926950D01*
X163482489Y-71920471D01*
X163432837Y-71873845D01*
X163429996Y-71871091D01*
X163410259Y-71851354D01*
X163407062Y-71848874D01*
X163398041Y-71841170D01*
X163395039Y-71838351D01*
X163359073Y-71777139D01*
X163361910Y-71706199D01*
X163402650Y-71648054D01*
X163468358Y-71621166D01*
X163481291Y-71620500D01*
X165438134Y-71620500D01*
X165500316Y-71613745D01*
X165636705Y-71562615D01*
X165753261Y-71475261D01*
X165840615Y-71358705D01*
X165891745Y-71222316D01*
X165898500Y-71160134D01*
X165898500Y-70063866D01*
X165891745Y-70001684D01*
X165840615Y-69865295D01*
X165753261Y-69748739D01*
X165636705Y-69661385D01*
X165500316Y-69610255D01*
X165438134Y-69603500D01*
X163754595Y-69603500D01*
X163686474Y-69583498D01*
X163665500Y-69566595D01*
X163494141Y-69395236D01*
X163486601Y-69386950D01*
X163482489Y-69380471D01*
X163432837Y-69333845D01*
X163429996Y-69331091D01*
X163410259Y-69311354D01*
X163407062Y-69308874D01*
X163398041Y-69301170D01*
X163395039Y-69298351D01*
X163359073Y-69237139D01*
X163361910Y-69166199D01*
X163402650Y-69108054D01*
X163468358Y-69081166D01*
X163481291Y-69080500D01*
X165438134Y-69080500D01*
X165500316Y-69073745D01*
X165636705Y-69022615D01*
X165753261Y-68935261D01*
X165840615Y-68818705D01*
X165891745Y-68682316D01*
X165898500Y-68620134D01*
X165898500Y-67523866D01*
X165891745Y-67461684D01*
X165840615Y-67325295D01*
X165753261Y-67208739D01*
X165636705Y-67121385D01*
X165500316Y-67070255D01*
X165438134Y-67063500D01*
X163754595Y-67063500D01*
X163686474Y-67043498D01*
X163665500Y-67026595D01*
X163494141Y-66855236D01*
X163486601Y-66846950D01*
X163482489Y-66840471D01*
X163432837Y-66793845D01*
X163429996Y-66791091D01*
X163410259Y-66771354D01*
X163407062Y-66768874D01*
X163398041Y-66761170D01*
X163395039Y-66758351D01*
X163359073Y-66697139D01*
X163361910Y-66626199D01*
X163402650Y-66568054D01*
X163468358Y-66541166D01*
X163481291Y-66540500D01*
X165438134Y-66540500D01*
X165500316Y-66533745D01*
X165636705Y-66482615D01*
X165753261Y-66395261D01*
X165840615Y-66278705D01*
X165891745Y-66142316D01*
X165898500Y-66080134D01*
X165898500Y-64983866D01*
X165891745Y-64921684D01*
X165840615Y-64785295D01*
X165753261Y-64668739D01*
X165636705Y-64581385D01*
X165500316Y-64530255D01*
X165438134Y-64523500D01*
X163754595Y-64523500D01*
X163686474Y-64503498D01*
X163665500Y-64486595D01*
X163494141Y-64315236D01*
X163486601Y-64306950D01*
X163482489Y-64300471D01*
X163432837Y-64253845D01*
X163429996Y-64251091D01*
X163410259Y-64231354D01*
X163407062Y-64228874D01*
X163398041Y-64221170D01*
X163395039Y-64218351D01*
X163359073Y-64157139D01*
X163361910Y-64086199D01*
X163402650Y-64028054D01*
X163468358Y-64001166D01*
X163481291Y-64000500D01*
X165438134Y-64000500D01*
X165500316Y-63993745D01*
X165636705Y-63942615D01*
X165753261Y-63855261D01*
X165840615Y-63738705D01*
X165891745Y-63602316D01*
X165898500Y-63540134D01*
X165898500Y-62443866D01*
X165891745Y-62381684D01*
X165840615Y-62245295D01*
X165753261Y-62128739D01*
X165636705Y-62041385D01*
X165500316Y-61990255D01*
X165438134Y-61983500D01*
X163754595Y-61983500D01*
X163686474Y-61963498D01*
X163665500Y-61946595D01*
X163494141Y-61775236D01*
X163486601Y-61766950D01*
X163482489Y-61760471D01*
X163432837Y-61713845D01*
X163429996Y-61711091D01*
X163410259Y-61691354D01*
X163407062Y-61688875D01*
X163398035Y-61681164D01*
X163394501Y-61677845D01*
X163358539Y-61616631D01*
X163361381Y-61545691D01*
X163402124Y-61487549D01*
X163467834Y-61460665D01*
X163480759Y-61460000D01*
X163542885Y-61460000D01*
X163558124Y-61455525D01*
X163559329Y-61454135D01*
X163561000Y-61446452D01*
X163561000Y-61441884D01*
X164069000Y-61441884D01*
X164073475Y-61457123D01*
X164074865Y-61458328D01*
X164082548Y-61459999D01*
X165434669Y-61459999D01*
X165441490Y-61459629D01*
X165492352Y-61454105D01*
X165507604Y-61450479D01*
X165628054Y-61405324D01*
X165643649Y-61396786D01*
X165745724Y-61320285D01*
X165758285Y-61307724D01*
X165834786Y-61205649D01*
X165843324Y-61190054D01*
X165888478Y-61069606D01*
X165892105Y-61054351D01*
X165897631Y-61003486D01*
X165898000Y-60996672D01*
X165898000Y-60724115D01*
X165893525Y-60708876D01*
X165892135Y-60707671D01*
X165884452Y-60706000D01*
X164087115Y-60706000D01*
X164071876Y-60710475D01*
X164070671Y-60711865D01*
X164069000Y-60719548D01*
X164069000Y-61441884D01*
X163561000Y-61441884D01*
X163561000Y-60724115D01*
X163556525Y-60708876D01*
X163555135Y-60707671D01*
X163547452Y-60706000D01*
X161750116Y-60706000D01*
X161734877Y-60710475D01*
X161733672Y-60711865D01*
X161732001Y-60719548D01*
X161732001Y-60996669D01*
X161732371Y-61003490D01*
X161737895Y-61054352D01*
X161741521Y-61069604D01*
X161786676Y-61190054D01*
X161795214Y-61205649D01*
X161871715Y-61307724D01*
X161882885Y-61318894D01*
X161916911Y-61381206D01*
X161911846Y-61452021D01*
X161869299Y-61508857D01*
X161802779Y-61533668D01*
X161793790Y-61533989D01*
X160786924Y-61533989D01*
X160718803Y-61513987D01*
X160672310Y-61460331D01*
X160662206Y-61390057D01*
X160691700Y-61325477D01*
X160696480Y-61320343D01*
X160703261Y-61315261D01*
X160790615Y-61198705D01*
X160841745Y-61062316D01*
X160848500Y-61000134D01*
X160848500Y-60179885D01*
X161732000Y-60179885D01*
X161736475Y-60195124D01*
X161737865Y-60196329D01*
X161745548Y-60198000D01*
X163542885Y-60198000D01*
X163558124Y-60193525D01*
X163559329Y-60192135D01*
X163561000Y-60184452D01*
X163561000Y-60179885D01*
X164069000Y-60179885D01*
X164073475Y-60195124D01*
X164074865Y-60196329D01*
X164082548Y-60198000D01*
X165879884Y-60198000D01*
X165895123Y-60193525D01*
X165896328Y-60192135D01*
X165897999Y-60184452D01*
X165897999Y-59907331D01*
X165897629Y-59900510D01*
X165892105Y-59849648D01*
X165888479Y-59834396D01*
X165843324Y-59713946D01*
X165834786Y-59698351D01*
X165758285Y-59596276D01*
X165745724Y-59583715D01*
X165643649Y-59507214D01*
X165628054Y-59498676D01*
X165507606Y-59453522D01*
X165492351Y-59449895D01*
X165441486Y-59444369D01*
X165434672Y-59444000D01*
X164087115Y-59444000D01*
X164071876Y-59448475D01*
X164070671Y-59449865D01*
X164069000Y-59457548D01*
X164069000Y-60179885D01*
X163561000Y-60179885D01*
X163561000Y-59462116D01*
X163556525Y-59446877D01*
X163555135Y-59445672D01*
X163547452Y-59444001D01*
X162195331Y-59444001D01*
X162188510Y-59444371D01*
X162137648Y-59449895D01*
X162122396Y-59453521D01*
X162001946Y-59498676D01*
X161986351Y-59507214D01*
X161884276Y-59583715D01*
X161871715Y-59596276D01*
X161795214Y-59698351D01*
X161786676Y-59713946D01*
X161741522Y-59834394D01*
X161737895Y-59849649D01*
X161732369Y-59900514D01*
X161732000Y-59907328D01*
X161732000Y-60179885D01*
X160848500Y-60179885D01*
X160848500Y-59903866D01*
X160841745Y-59841684D01*
X160790615Y-59705295D01*
X160703261Y-59588739D01*
X160586705Y-59501385D01*
X160450316Y-59450255D01*
X160388134Y-59443500D01*
X157141866Y-59443500D01*
X157079684Y-59450255D01*
X156943295Y-59501385D01*
X156826739Y-59588739D01*
X156739385Y-59705295D01*
X156736233Y-59713703D01*
X156736231Y-59713707D01*
X156727599Y-59736731D01*
X156684957Y-59793495D01*
X156618395Y-59818194D01*
X156609618Y-59818500D01*
X155526763Y-59818500D01*
X155515579Y-59817973D01*
X155508091Y-59816299D01*
X155500168Y-59816548D01*
X155440033Y-59818438D01*
X155436075Y-59818500D01*
X155408144Y-59818500D01*
X155404229Y-59818995D01*
X155404225Y-59818995D01*
X155404167Y-59819003D01*
X155404138Y-59819006D01*
X155392296Y-59819939D01*
X155348110Y-59821327D01*
X155330744Y-59826372D01*
X155328658Y-59826978D01*
X155309306Y-59830986D01*
X155297068Y-59832532D01*
X155297066Y-59832533D01*
X155289203Y-59833526D01*
X155248086Y-59849806D01*
X155236885Y-59853641D01*
X155194406Y-59865982D01*
X155187587Y-59870015D01*
X155187582Y-59870017D01*
X155176971Y-59876293D01*
X155159221Y-59884990D01*
X155140383Y-59892448D01*
X155133967Y-59897109D01*
X155133966Y-59897110D01*
X155104625Y-59918428D01*
X155094701Y-59924947D01*
X155063460Y-59943422D01*
X155063455Y-59943426D01*
X155056637Y-59947458D01*
X155042313Y-59961782D01*
X155027281Y-59974621D01*
X155010893Y-59986528D01*
X155005842Y-59992634D01*
X154994936Y-60005817D01*
X154936102Y-60045554D01*
X154897852Y-60051500D01*
X154844513Y-60051500D01*
X154838061Y-60052872D01*
X154838056Y-60052872D01*
X154751112Y-60071353D01*
X154657712Y-60091206D01*
X154651682Y-60093891D01*
X154651681Y-60093891D01*
X154489278Y-60166197D01*
X154489276Y-60166198D01*
X154483248Y-60168882D01*
X154477907Y-60172762D01*
X154477906Y-60172763D01*
X154443171Y-60198000D01*
X154328747Y-60281134D01*
X154200960Y-60423056D01*
X154197659Y-60428774D01*
X154110342Y-60580011D01*
X154058960Y-60629004D01*
X154001223Y-60643011D01*
X148274500Y-60643011D01*
X148206379Y-60623009D01*
X148159886Y-60569353D01*
X148148500Y-60517011D01*
X148148500Y-60179885D01*
X149032000Y-60179885D01*
X149036475Y-60195124D01*
X149037865Y-60196329D01*
X149045548Y-60198000D01*
X150842885Y-60198000D01*
X150858124Y-60193525D01*
X150859329Y-60192135D01*
X150861000Y-60184452D01*
X150861000Y-60179885D01*
X151369000Y-60179885D01*
X151373475Y-60195124D01*
X151374865Y-60196329D01*
X151382548Y-60198000D01*
X153179884Y-60198000D01*
X153195123Y-60193525D01*
X153196328Y-60192135D01*
X153197999Y-60184452D01*
X153197999Y-59907331D01*
X153197629Y-59900510D01*
X153192105Y-59849648D01*
X153188479Y-59834396D01*
X153143324Y-59713946D01*
X153134786Y-59698351D01*
X153058285Y-59596276D01*
X153045724Y-59583715D01*
X152943649Y-59507214D01*
X152928054Y-59498676D01*
X152807606Y-59453522D01*
X152792351Y-59449895D01*
X152741486Y-59444369D01*
X152734672Y-59444000D01*
X151387115Y-59444000D01*
X151371876Y-59448475D01*
X151370671Y-59449865D01*
X151369000Y-59457548D01*
X151369000Y-60179885D01*
X150861000Y-60179885D01*
X150861000Y-59462116D01*
X150856525Y-59446877D01*
X150855135Y-59445672D01*
X150847452Y-59444001D01*
X149495331Y-59444001D01*
X149488510Y-59444371D01*
X149437648Y-59449895D01*
X149422396Y-59453521D01*
X149301946Y-59498676D01*
X149286351Y-59507214D01*
X149184276Y-59583715D01*
X149171715Y-59596276D01*
X149095214Y-59698351D01*
X149086676Y-59713946D01*
X149041522Y-59834394D01*
X149037895Y-59849649D01*
X149032369Y-59900514D01*
X149032000Y-59907328D01*
X149032000Y-60179885D01*
X148148500Y-60179885D01*
X148148500Y-59903866D01*
X148141745Y-59841684D01*
X148090615Y-59705295D01*
X148003261Y-59588739D01*
X147886705Y-59501385D01*
X147750316Y-59450255D01*
X147688134Y-59443500D01*
X144441866Y-59443500D01*
X144379684Y-59450255D01*
X144243295Y-59501385D01*
X144126739Y-59588739D01*
X144039385Y-59705295D01*
X143988255Y-59841684D01*
X143981500Y-59903866D01*
X143981500Y-61000134D01*
X143988255Y-61062316D01*
X144039385Y-61198705D01*
X144126739Y-61315261D01*
X144243295Y-61402615D01*
X144379684Y-61453745D01*
X144441866Y-61460500D01*
X146125406Y-61460500D01*
X146193527Y-61480502D01*
X146214501Y-61497405D01*
X146385854Y-61668758D01*
X146393398Y-61677048D01*
X146397511Y-61683529D01*
X146403288Y-61688954D01*
X146447178Y-61730169D01*
X146450020Y-61732924D01*
X146469742Y-61752646D01*
X146472866Y-61755069D01*
X146472870Y-61755073D01*
X146472935Y-61755123D01*
X146481958Y-61762830D01*
X146484962Y-61765651D01*
X146520927Y-61826864D01*
X146518088Y-61897804D01*
X146477347Y-61955947D01*
X146411639Y-61982835D01*
X146398708Y-61983500D01*
X144441866Y-61983500D01*
X144379684Y-61990255D01*
X144243295Y-62041385D01*
X144126739Y-62128739D01*
X144039385Y-62245295D01*
X143988255Y-62381684D01*
X143981500Y-62443866D01*
X143981500Y-63540134D01*
X143988255Y-63602316D01*
X144039385Y-63738705D01*
X144126739Y-63855261D01*
X144243295Y-63942615D01*
X144379684Y-63993745D01*
X144441866Y-64000500D01*
X146125406Y-64000500D01*
X146193527Y-64020502D01*
X146214501Y-64037405D01*
X146385854Y-64208758D01*
X146393398Y-64217048D01*
X146397511Y-64223529D01*
X146403288Y-64228954D01*
X146447178Y-64270169D01*
X146450020Y-64272924D01*
X146469742Y-64292646D01*
X146472866Y-64295069D01*
X146472870Y-64295073D01*
X146472935Y-64295123D01*
X146481958Y-64302830D01*
X146484962Y-64305651D01*
X146520927Y-64366864D01*
X146518088Y-64437804D01*
X146477347Y-64495947D01*
X146411639Y-64522835D01*
X146398708Y-64523500D01*
X144441866Y-64523500D01*
X144379684Y-64530255D01*
X144243295Y-64581385D01*
X144126739Y-64668739D01*
X144039385Y-64785295D01*
X143988255Y-64921684D01*
X143981500Y-64983866D01*
X143981500Y-66080134D01*
X143988255Y-66142316D01*
X144039385Y-66278705D01*
X144126739Y-66395261D01*
X144243295Y-66482615D01*
X144379684Y-66533745D01*
X144441866Y-66540500D01*
X146125406Y-66540500D01*
X146193527Y-66560502D01*
X146214501Y-66577405D01*
X146385854Y-66748758D01*
X146393398Y-66757048D01*
X146397511Y-66763529D01*
X146403288Y-66768954D01*
X146447178Y-66810169D01*
X146450020Y-66812924D01*
X146469742Y-66832646D01*
X146472866Y-66835069D01*
X146472870Y-66835073D01*
X146472935Y-66835123D01*
X146481958Y-66842830D01*
X146484962Y-66845651D01*
X146520927Y-66906864D01*
X146518088Y-66977804D01*
X146477347Y-67035947D01*
X146411639Y-67062835D01*
X146398708Y-67063500D01*
X144441866Y-67063500D01*
X144379684Y-67070255D01*
X144243295Y-67121385D01*
X144126739Y-67208739D01*
X144039385Y-67325295D01*
X143988255Y-67461684D01*
X143981500Y-67523866D01*
X143981500Y-68620134D01*
X143988255Y-68682316D01*
X144039385Y-68818705D01*
X144126739Y-68935261D01*
X144243295Y-69022615D01*
X144379684Y-69073745D01*
X144441866Y-69080500D01*
X146125406Y-69080500D01*
X146193527Y-69100502D01*
X146214501Y-69117405D01*
X146385854Y-69288758D01*
X146393398Y-69297048D01*
X146397511Y-69303529D01*
X146403288Y-69308954D01*
X146447178Y-69350169D01*
X146450020Y-69352924D01*
X146469742Y-69372646D01*
X146472866Y-69375069D01*
X146472870Y-69375073D01*
X146472935Y-69375123D01*
X146481958Y-69382830D01*
X146484962Y-69385651D01*
X146520927Y-69446864D01*
X146518088Y-69517804D01*
X146477347Y-69575947D01*
X146411639Y-69602835D01*
X146398708Y-69603500D01*
X144441866Y-69603500D01*
X144379684Y-69610255D01*
X144243295Y-69661385D01*
X144126739Y-69748739D01*
X144039385Y-69865295D01*
X143988255Y-70001684D01*
X143981500Y-70063866D01*
X143981500Y-71160134D01*
X143988255Y-71222316D01*
X144039385Y-71358705D01*
X144126739Y-71475261D01*
X144243295Y-71562615D01*
X144379684Y-71613745D01*
X144441866Y-71620500D01*
X146125406Y-71620500D01*
X146193527Y-71640502D01*
X146214501Y-71657405D01*
X146385854Y-71828758D01*
X146393398Y-71837048D01*
X146397511Y-71843529D01*
X146403288Y-71848954D01*
X146447178Y-71890169D01*
X146450020Y-71892924D01*
X146469742Y-71912646D01*
X146472866Y-71915069D01*
X146472870Y-71915073D01*
X146472935Y-71915123D01*
X146481958Y-71922830D01*
X146484962Y-71925651D01*
X146520927Y-71986864D01*
X146518088Y-72057804D01*
X146477347Y-72115947D01*
X146411639Y-72142835D01*
X146398708Y-72143500D01*
X144441866Y-72143500D01*
X144379684Y-72150255D01*
X144243295Y-72201385D01*
X144126739Y-72288739D01*
X144039385Y-72405295D01*
X143988255Y-72541684D01*
X143981500Y-72603866D01*
X143981500Y-73700134D01*
X143988255Y-73762316D01*
X144039385Y-73898705D01*
X144126739Y-74015261D01*
X144243295Y-74102615D01*
X144379684Y-74153745D01*
X144441866Y-74160500D01*
X146125406Y-74160500D01*
X146193527Y-74180502D01*
X146214501Y-74197405D01*
X146385854Y-74368758D01*
X146393398Y-74377048D01*
X146397511Y-74383529D01*
X146403288Y-74388954D01*
X146447178Y-74430169D01*
X146450020Y-74432924D01*
X146469742Y-74452646D01*
X146472866Y-74455069D01*
X146472870Y-74455073D01*
X146472935Y-74455123D01*
X146481958Y-74462830D01*
X146484962Y-74465651D01*
X146520927Y-74526864D01*
X146518088Y-74597804D01*
X146477347Y-74655947D01*
X146411639Y-74682835D01*
X146398708Y-74683500D01*
X144441866Y-74683500D01*
X144379684Y-74690255D01*
X144243295Y-74741385D01*
X144126739Y-74828739D01*
X144039385Y-74945295D01*
X143988255Y-75081684D01*
X143981500Y-75143866D01*
X143981500Y-76240134D01*
X143988255Y-76302316D01*
X144039385Y-76438705D01*
X144126739Y-76555261D01*
X144243295Y-76642615D01*
X144379684Y-76693745D01*
X144441866Y-76700500D01*
X146125406Y-76700500D01*
X146193527Y-76720502D01*
X146214501Y-76737405D01*
X146385854Y-76908758D01*
X146393398Y-76917048D01*
X146397511Y-76923529D01*
X146403288Y-76928954D01*
X146447178Y-76970169D01*
X146450020Y-76972924D01*
X146469742Y-76992646D01*
X146472866Y-76995069D01*
X146472870Y-76995073D01*
X146472935Y-76995123D01*
X146481958Y-77002830D01*
X146484962Y-77005651D01*
X146520927Y-77066864D01*
X146518088Y-77137804D01*
X146477347Y-77195947D01*
X146411639Y-77222835D01*
X146398708Y-77223500D01*
X144441866Y-77223500D01*
X144379684Y-77230255D01*
X144243295Y-77281385D01*
X144126739Y-77368739D01*
X144039385Y-77485295D01*
X143988255Y-77621684D01*
X143981500Y-77683866D01*
X143981500Y-78780134D01*
X143988255Y-78842316D01*
X144039385Y-78978705D01*
X144126739Y-79095261D01*
X144243295Y-79182615D01*
X144379684Y-79233745D01*
X144441866Y-79240500D01*
X146125406Y-79240500D01*
X146193527Y-79260502D01*
X146214501Y-79277405D01*
X146385854Y-79448758D01*
X146393398Y-79457048D01*
X146397511Y-79463529D01*
X146403288Y-79468954D01*
X146447178Y-79510169D01*
X146450020Y-79512924D01*
X146469742Y-79532646D01*
X146472866Y-79535069D01*
X146472870Y-79535073D01*
X146472935Y-79535123D01*
X146481958Y-79542830D01*
X146484962Y-79545651D01*
X146520927Y-79606864D01*
X146518088Y-79677804D01*
X146477347Y-79735947D01*
X146411639Y-79762835D01*
X146398708Y-79763500D01*
X144441866Y-79763500D01*
X144379684Y-79770255D01*
X144243295Y-79821385D01*
X144126739Y-79908739D01*
X144039385Y-80025295D01*
X143988255Y-80161684D01*
X143981500Y-80223866D01*
X143981500Y-81320134D01*
X143510500Y-81320134D01*
X143510500Y-59743250D01*
X143512246Y-59722345D01*
X143514770Y-59707344D01*
X143514770Y-59707341D01*
X143515576Y-59702552D01*
X143515729Y-59690000D01*
X143514788Y-59683429D01*
X143514123Y-59653218D01*
X143523916Y-59553789D01*
X143528733Y-59529568D01*
X143564866Y-59410454D01*
X143574315Y-59387645D01*
X143632987Y-59277876D01*
X143646705Y-59257345D01*
X143725671Y-59161124D01*
X143743124Y-59143671D01*
X143839345Y-59064705D01*
X143859876Y-59050987D01*
X143969645Y-58992315D01*
X143992454Y-58982866D01*
X144111568Y-58946733D01*
X144135789Y-58941916D01*
X144231809Y-58932459D01*
X144247868Y-58932909D01*
X144247877Y-58932200D01*
X144256853Y-58932310D01*
X144265724Y-58933691D01*
X144274626Y-58932527D01*
X144274628Y-58932527D01*
X144291059Y-58930378D01*
X144297286Y-58929564D01*
X144313621Y-58928500D01*
X165558633Y-58928500D01*
X165578018Y-58930000D01*
G37*
%TD.AperFunction*%
%TD*%
M02*
