%TF.GenerationSoftware,KiCad,Pcbnew,(6.0.4-0)*%
%TF.CreationDate,2022-11-11T17:00:16-07:00*%
%TF.ProjectId,ide_cable_select_switch,6964655f-6361-4626-9c65-5f73656c6563,rev?*%
%TF.SameCoordinates,Original*%
%TF.FileFunction,Legend,Top*%
%TF.FilePolarity,Positive*%
%FSLAX46Y46*%
G04 Gerber Fmt 4.6, Leading zero omitted, Abs format (unit mm)*
G04 Created by KiCad (PCBNEW (6.0.4-0)) date 2022-11-11 17:00:16*
%MOMM*%
%LPD*%
G01*
G04 APERTURE LIST*
%ADD10C,0.150000*%
%ADD11C,0.120000*%
%ADD12R,1.700000X1.700000*%
%ADD13O,1.700000X1.700000*%
%ADD14R,3.150000X1.000000*%
G04 APERTURE END LIST*
D10*
X144049714Y-60142380D02*
X143478285Y-60142380D01*
X143764000Y-60142380D02*
X143764000Y-59142380D01*
X143668761Y-59285238D01*
X143573523Y-59380476D01*
X143478285Y-59428095D01*
X155047142Y-109664571D02*
X155047142Y-110807428D01*
X155332857Y-110521714D02*
X155047142Y-110807428D01*
X154761428Y-110521714D01*
X143994523Y-111577380D02*
X143994523Y-110577380D01*
X144232619Y-110577380D01*
X144375476Y-110625000D01*
X144470714Y-110720238D01*
X144518333Y-110815476D01*
X144565952Y-111005952D01*
X144565952Y-111148809D01*
X144518333Y-111339285D01*
X144470714Y-111434523D01*
X144375476Y-111529761D01*
X144232619Y-111577380D01*
X143994523Y-111577380D01*
X145565952Y-111577380D02*
X145232619Y-111101190D01*
X144994523Y-111577380D02*
X144994523Y-110577380D01*
X145375476Y-110577380D01*
X145470714Y-110625000D01*
X145518333Y-110672619D01*
X145565952Y-110767857D01*
X145565952Y-110910714D01*
X145518333Y-111005952D01*
X145470714Y-111053571D01*
X145375476Y-111101190D01*
X144994523Y-111101190D01*
X145994523Y-111577380D02*
X145994523Y-110577380D01*
X146327857Y-110577380D02*
X146661190Y-111577380D01*
X146994523Y-110577380D01*
X147327857Y-111053571D02*
X147661190Y-111053571D01*
X147804047Y-111577380D02*
X147327857Y-111577380D01*
X147327857Y-110577380D01*
X147804047Y-110577380D01*
X148946904Y-111291666D02*
X149423095Y-111291666D01*
X148851666Y-111577380D02*
X149185000Y-110577380D01*
X149518333Y-111577380D01*
X159798095Y-111577380D02*
X159798095Y-110577380D01*
X160036190Y-110577380D01*
X160179047Y-110625000D01*
X160274285Y-110720238D01*
X160321904Y-110815476D01*
X160369523Y-111005952D01*
X160369523Y-111148809D01*
X160321904Y-111339285D01*
X160274285Y-111434523D01*
X160179047Y-111529761D01*
X160036190Y-111577380D01*
X159798095Y-111577380D01*
X161369523Y-111577380D02*
X161036190Y-111101190D01*
X160798095Y-111577380D02*
X160798095Y-110577380D01*
X161179047Y-110577380D01*
X161274285Y-110625000D01*
X161321904Y-110672619D01*
X161369523Y-110767857D01*
X161369523Y-110910714D01*
X161321904Y-111005952D01*
X161274285Y-111053571D01*
X161179047Y-111101190D01*
X160798095Y-111101190D01*
X161798095Y-111577380D02*
X161798095Y-110577380D01*
X162131428Y-110577380D02*
X162464761Y-111577380D01*
X162798095Y-110577380D01*
X163131428Y-111053571D02*
X163464761Y-111053571D01*
X163607619Y-111577380D02*
X163131428Y-111577380D01*
X163131428Y-110577380D01*
X163607619Y-110577380D01*
X165131428Y-111053571D02*
X165274285Y-111101190D01*
X165321904Y-111148809D01*
X165369523Y-111244047D01*
X165369523Y-111386904D01*
X165321904Y-111482142D01*
X165274285Y-111529761D01*
X165179047Y-111577380D01*
X164798095Y-111577380D01*
X164798095Y-110577380D01*
X165131428Y-110577380D01*
X165226666Y-110625000D01*
X165274285Y-110672619D01*
X165321904Y-110767857D01*
X165321904Y-110863095D01*
X165274285Y-110958333D01*
X165226666Y-111005952D01*
X165131428Y-111053571D01*
X164798095Y-111053571D01*
X154587380Y-108884404D02*
X153587380Y-108884404D01*
X154301666Y-108551071D01*
X153587380Y-108217738D01*
X154587380Y-108217738D01*
X154301666Y-107789166D02*
X154301666Y-107312976D01*
X154587380Y-107884404D02*
X153587380Y-107551071D01*
X154587380Y-107217738D01*
X154539761Y-106932023D02*
X154587380Y-106789166D01*
X154587380Y-106551071D01*
X154539761Y-106455833D01*
X154492142Y-106408214D01*
X154396904Y-106360595D01*
X154301666Y-106360595D01*
X154206428Y-106408214D01*
X154158809Y-106455833D01*
X154111190Y-106551071D01*
X154063571Y-106741547D01*
X154015952Y-106836785D01*
X153968333Y-106884404D01*
X153873095Y-106932023D01*
X153777857Y-106932023D01*
X153682619Y-106884404D01*
X153635000Y-106836785D01*
X153587380Y-106741547D01*
X153587380Y-106503452D01*
X153635000Y-106360595D01*
X153587380Y-106074880D02*
X153587380Y-105503452D01*
X154587380Y-105789166D02*
X153587380Y-105789166D01*
X154063571Y-105170119D02*
X154063571Y-104836785D01*
X154587380Y-104693928D02*
X154587380Y-105170119D01*
X153587380Y-105170119D01*
X153587380Y-104693928D01*
X154587380Y-103693928D02*
X154111190Y-104027261D01*
X154587380Y-104265357D02*
X153587380Y-104265357D01*
X153587380Y-103884404D01*
X153635000Y-103789166D01*
X153682619Y-103741547D01*
X153777857Y-103693928D01*
X153920714Y-103693928D01*
X154015952Y-103741547D01*
X154063571Y-103789166D01*
X154111190Y-103884404D01*
X154111190Y-104265357D01*
X154587380Y-102503452D02*
X153587380Y-102503452D01*
X153587380Y-102265357D01*
X153635000Y-102122500D01*
X153730238Y-102027261D01*
X153825476Y-101979642D01*
X154015952Y-101932023D01*
X154158809Y-101932023D01*
X154349285Y-101979642D01*
X154444523Y-102027261D01*
X154539761Y-102122500D01*
X154587380Y-102265357D01*
X154587380Y-102503452D01*
X154587380Y-100932023D02*
X154111190Y-101265357D01*
X154587380Y-101503452D02*
X153587380Y-101503452D01*
X153587380Y-101122500D01*
X153635000Y-101027261D01*
X153682619Y-100979642D01*
X153777857Y-100932023D01*
X153920714Y-100932023D01*
X154015952Y-100979642D01*
X154063571Y-101027261D01*
X154111190Y-101122500D01*
X154111190Y-101503452D01*
X154587380Y-100503452D02*
X153587380Y-100503452D01*
X153587380Y-100170119D02*
X154587380Y-99836785D01*
X153587380Y-99503452D01*
X154063571Y-99170119D02*
X154063571Y-98836785D01*
X154587380Y-98693928D02*
X154587380Y-99170119D01*
X153587380Y-99170119D01*
X153587380Y-98693928D01*
X156149761Y-108932023D02*
X156197380Y-108789166D01*
X156197380Y-108551071D01*
X156149761Y-108455833D01*
X156102142Y-108408214D01*
X156006904Y-108360595D01*
X155911666Y-108360595D01*
X155816428Y-108408214D01*
X155768809Y-108455833D01*
X155721190Y-108551071D01*
X155673571Y-108741547D01*
X155625952Y-108836785D01*
X155578333Y-108884404D01*
X155483095Y-108932023D01*
X155387857Y-108932023D01*
X155292619Y-108884404D01*
X155245000Y-108836785D01*
X155197380Y-108741547D01*
X155197380Y-108503452D01*
X155245000Y-108360595D01*
X155673571Y-107932023D02*
X155673571Y-107598690D01*
X156197380Y-107455833D02*
X156197380Y-107932023D01*
X155197380Y-107932023D01*
X155197380Y-107455833D01*
X156197380Y-106551071D02*
X156197380Y-107027261D01*
X155197380Y-107027261D01*
X155673571Y-106217738D02*
X155673571Y-105884404D01*
X156197380Y-105741547D02*
X156197380Y-106217738D01*
X155197380Y-106217738D01*
X155197380Y-105741547D01*
X156102142Y-104741547D02*
X156149761Y-104789166D01*
X156197380Y-104932023D01*
X156197380Y-105027261D01*
X156149761Y-105170119D01*
X156054523Y-105265357D01*
X155959285Y-105312976D01*
X155768809Y-105360595D01*
X155625952Y-105360595D01*
X155435476Y-105312976D01*
X155340238Y-105265357D01*
X155245000Y-105170119D01*
X155197380Y-105027261D01*
X155197380Y-104932023D01*
X155245000Y-104789166D01*
X155292619Y-104741547D01*
X155197380Y-104455833D02*
X155197380Y-103884404D01*
X156197380Y-104170119D02*
X155197380Y-104170119D01*
X156149761Y-102836785D02*
X156197380Y-102693928D01*
X156197380Y-102455833D01*
X156149761Y-102360595D01*
X156102142Y-102312976D01*
X156006904Y-102265357D01*
X155911666Y-102265357D01*
X155816428Y-102312976D01*
X155768809Y-102360595D01*
X155721190Y-102455833D01*
X155673571Y-102646309D01*
X155625952Y-102741547D01*
X155578333Y-102789166D01*
X155483095Y-102836785D01*
X155387857Y-102836785D01*
X155292619Y-102789166D01*
X155245000Y-102741547D01*
X155197380Y-102646309D01*
X155197380Y-102408214D01*
X155245000Y-102265357D01*
X155197380Y-101932023D02*
X156197380Y-101693928D01*
X155483095Y-101503452D01*
X156197380Y-101312976D01*
X155197380Y-101074880D01*
X156197380Y-100693928D02*
X155197380Y-100693928D01*
X155197380Y-100360595D02*
X155197380Y-99789166D01*
X156197380Y-100074880D02*
X155197380Y-100074880D01*
X156102142Y-98884404D02*
X156149761Y-98932023D01*
X156197380Y-99074880D01*
X156197380Y-99170119D01*
X156149761Y-99312976D01*
X156054523Y-99408214D01*
X155959285Y-99455833D01*
X155768809Y-99503452D01*
X155625952Y-99503452D01*
X155435476Y-99455833D01*
X155340238Y-99408214D01*
X155245000Y-99312976D01*
X155197380Y-99170119D01*
X155197380Y-99074880D01*
X155245000Y-98932023D01*
X155292619Y-98884404D01*
X156197380Y-98455833D02*
X155197380Y-98455833D01*
X155673571Y-98455833D02*
X155673571Y-97884404D01*
X156197380Y-97884404D02*
X155197380Y-97884404D01*
X156749714Y-60142380D02*
X156178285Y-60142380D01*
X156464000Y-60142380D02*
X156464000Y-59142380D01*
X156368761Y-59285238D01*
X156273523Y-59380476D01*
X156178285Y-59428095D01*
%TO.C,SW1*%
X147891666Y-114196761D02*
X148034523Y-114244380D01*
X148272619Y-114244380D01*
X148367857Y-114196761D01*
X148415476Y-114149142D01*
X148463095Y-114053904D01*
X148463095Y-113958666D01*
X148415476Y-113863428D01*
X148367857Y-113815809D01*
X148272619Y-113768190D01*
X148082142Y-113720571D01*
X147986904Y-113672952D01*
X147939285Y-113625333D01*
X147891666Y-113530095D01*
X147891666Y-113434857D01*
X147939285Y-113339619D01*
X147986904Y-113292000D01*
X148082142Y-113244380D01*
X148320238Y-113244380D01*
X148463095Y-113292000D01*
X148796428Y-113244380D02*
X149034523Y-114244380D01*
X149225000Y-113530095D01*
X149415476Y-114244380D01*
X149653571Y-113244380D01*
X150558333Y-114244380D02*
X149986904Y-114244380D01*
X150272619Y-114244380D02*
X150272619Y-113244380D01*
X150177380Y-113387238D01*
X150082142Y-113482476D01*
X149986904Y-113530095D01*
%TO.C,J2*%
X148106666Y-59777380D02*
X148106666Y-60491666D01*
X148059047Y-60634523D01*
X147963809Y-60729761D01*
X147820952Y-60777380D01*
X147725714Y-60777380D01*
X148535238Y-59872619D02*
X148582857Y-59825000D01*
X148678095Y-59777380D01*
X148916190Y-59777380D01*
X149011428Y-59825000D01*
X149059047Y-59872619D01*
X149106666Y-59967857D01*
X149106666Y-60063095D01*
X149059047Y-60205952D01*
X148487619Y-60777380D01*
X149106666Y-60777380D01*
%TO.C,J3*%
X160806666Y-59777380D02*
X160806666Y-60491666D01*
X160759047Y-60634523D01*
X160663809Y-60729761D01*
X160520952Y-60777380D01*
X160425714Y-60777380D01*
X161187619Y-59777380D02*
X161806666Y-59777380D01*
X161473333Y-60158333D01*
X161616190Y-60158333D01*
X161711428Y-60205952D01*
X161759047Y-60253571D01*
X161806666Y-60348809D01*
X161806666Y-60586904D01*
X161759047Y-60682142D01*
X161711428Y-60729761D01*
X161616190Y-60777380D01*
X161330476Y-60777380D01*
X161235238Y-60729761D01*
X161187619Y-60682142D01*
D11*
%TO.C,SW1*%
X153670000Y-113852000D02*
X158810000Y-113852000D01*
X153670000Y-113852000D02*
X153670000Y-111192000D01*
X158810000Y-113852000D02*
X158810000Y-111192000D01*
X153670000Y-111192000D02*
X158810000Y-111192000D01*
X151070000Y-113852000D02*
X151070000Y-112522000D01*
X152400000Y-113852000D02*
X151070000Y-113852000D01*
%TO.C,J2*%
X151190000Y-86612000D02*
X151190000Y-87632000D01*
X151190000Y-106932000D02*
X151190000Y-107952000D01*
X145990000Y-106932000D02*
X145990000Y-107952000D01*
X145990000Y-73912000D02*
X145990000Y-74932000D01*
X145990000Y-89152000D02*
X145990000Y-90172000D01*
X151190000Y-94232000D02*
X151190000Y-95252000D01*
X145990000Y-68832000D02*
X145990000Y-69852000D01*
X151190000Y-109472000D02*
X151190000Y-110042000D01*
X145990000Y-96772000D02*
X145990000Y-97792000D01*
X151190000Y-99312000D02*
X151190000Y-100332000D01*
X151190000Y-81532000D02*
X151190000Y-85092000D01*
X151190000Y-66292000D02*
X151190000Y-67312000D01*
X151190000Y-71372000D02*
X151190000Y-72392000D01*
X151190000Y-63752000D02*
X151190000Y-64772000D01*
X145990000Y-59122000D02*
X151190000Y-59122000D01*
X151190000Y-78992000D02*
X151190000Y-80012000D01*
X145990000Y-109472000D02*
X145990000Y-110042000D01*
X145990000Y-104392000D02*
X145990000Y-105412000D01*
X145990000Y-91692000D02*
X145990000Y-92712000D01*
X145990000Y-81532000D02*
X145990000Y-82552000D01*
X145990000Y-76452000D02*
X145990000Y-77472000D01*
X151190000Y-76452000D02*
X151190000Y-77472000D01*
X145990000Y-71372000D02*
X145990000Y-72392000D01*
X151190000Y-61212000D02*
X151190000Y-62232000D01*
X145990000Y-110042000D02*
X151190000Y-110042000D01*
X151190000Y-91692000D02*
X151190000Y-92712000D01*
X145990000Y-99312000D02*
X145990000Y-100332000D01*
X145990000Y-63752000D02*
X145990000Y-64772000D01*
X151190000Y-73912000D02*
X151190000Y-74932000D01*
X144018000Y-81788000D02*
X144018000Y-83058000D01*
X145990000Y-61212000D02*
X145990000Y-62232000D01*
X145990000Y-84072000D02*
X145990000Y-85092000D01*
X143510000Y-83058000D02*
X144018000Y-83058000D01*
X143510000Y-83058000D02*
X143510000Y-86106000D01*
X151190000Y-96772000D02*
X151190000Y-97792000D01*
X144550000Y-59692000D02*
X145990000Y-59692000D01*
X145990000Y-94232000D02*
X145990000Y-95252000D01*
X145990000Y-66292000D02*
X145990000Y-67312000D01*
X151190000Y-59122000D02*
X151190000Y-59692000D01*
X144018000Y-86106000D02*
X144018000Y-87376000D01*
X151190000Y-104392000D02*
X151190000Y-105412000D01*
X145990000Y-78992000D02*
X145990000Y-80012000D01*
X151190000Y-68832000D02*
X151190000Y-69852000D01*
X143510000Y-86106000D02*
X144018000Y-86106000D01*
X151190000Y-101852000D02*
X151190000Y-102872000D01*
X145990000Y-101852000D02*
X145990000Y-102872000D01*
X145990000Y-86612000D02*
X145990000Y-87632000D01*
X151190000Y-89152000D02*
X151190000Y-90172000D01*
X145990000Y-59122000D02*
X145990000Y-59692000D01*
%TO.C,J3*%
X158690000Y-61212000D02*
X158690000Y-62232000D01*
X158690000Y-63752000D02*
X158690000Y-64772000D01*
X163890000Y-94232000D02*
X163890000Y-95252000D01*
X158690000Y-109472000D02*
X158690000Y-110042000D01*
X163890000Y-61212000D02*
X163890000Y-62232000D01*
X163890000Y-66292000D02*
X163890000Y-67312000D01*
X158690000Y-89152000D02*
X158690000Y-90172000D01*
X163890000Y-68832000D02*
X163890000Y-69852000D01*
X156210000Y-83058000D02*
X156718000Y-83058000D01*
X158690000Y-66292000D02*
X158690000Y-67312000D01*
X158690000Y-101852000D02*
X158690000Y-102872000D01*
X163890000Y-99312000D02*
X163890000Y-100332000D01*
X158690000Y-68832000D02*
X158690000Y-69852000D01*
X158690000Y-91692000D02*
X158690000Y-92712000D01*
X163890000Y-71372000D02*
X163890000Y-72392000D01*
X163890000Y-109472000D02*
X163890000Y-110042000D01*
X158690000Y-96772000D02*
X158690000Y-97792000D01*
X158690000Y-110042000D02*
X163890000Y-110042000D01*
X158690000Y-106932000D02*
X158690000Y-107952000D01*
X158690000Y-59122000D02*
X158690000Y-59692000D01*
X158690000Y-76452000D02*
X158690000Y-77472000D01*
X163890000Y-76452000D02*
X163890000Y-77472000D01*
X163890000Y-91692000D02*
X163890000Y-92712000D01*
X158690000Y-73912000D02*
X158690000Y-74932000D01*
X163890000Y-89152000D02*
X163890000Y-90172000D01*
X163890000Y-104392000D02*
X163890000Y-105412000D01*
X158690000Y-84072000D02*
X158690000Y-85092000D01*
X157250000Y-59692000D02*
X158690000Y-59692000D01*
X163890000Y-86612000D02*
X163890000Y-87632000D01*
X163890000Y-81532000D02*
X163890000Y-85092000D01*
X163890000Y-59122000D02*
X163890000Y-59692000D01*
X158690000Y-71372000D02*
X158690000Y-72392000D01*
X163890000Y-101852000D02*
X163890000Y-102872000D01*
X158690000Y-59122000D02*
X163890000Y-59122000D01*
X163890000Y-106932000D02*
X163890000Y-107952000D01*
X158690000Y-94232000D02*
X158690000Y-95252000D01*
X156210000Y-83058000D02*
X156210000Y-86106000D01*
X158690000Y-104392000D02*
X158690000Y-105412000D01*
X156718000Y-81788000D02*
X156718000Y-83058000D01*
X158690000Y-81532000D02*
X158690000Y-82552000D01*
X156718000Y-86106000D02*
X156718000Y-87376000D01*
X158690000Y-99312000D02*
X158690000Y-100332000D01*
X163890000Y-96772000D02*
X163890000Y-97792000D01*
X163890000Y-63752000D02*
X163890000Y-64772000D01*
X163890000Y-73912000D02*
X163890000Y-74932000D01*
X163890000Y-78992000D02*
X163890000Y-80012000D01*
X158690000Y-78992000D02*
X158690000Y-80012000D01*
X156210000Y-86106000D02*
X156718000Y-86106000D01*
X158690000Y-86612000D02*
X158690000Y-87632000D01*
%TD*%
%LPC*%
D12*
%TO.C,SW1*%
X152400000Y-112522000D03*
D13*
X154940000Y-112522000D03*
X157480000Y-112522000D03*
%TD*%
D14*
%TO.C,J2*%
X146065000Y-60452000D03*
X151115000Y-60452000D03*
X146065000Y-62992000D03*
X151115000Y-62992000D03*
X146065000Y-65532000D03*
X151115000Y-65532000D03*
X146065000Y-68072000D03*
X151115000Y-68072000D03*
X146065000Y-70612000D03*
X151115000Y-70612000D03*
X146065000Y-73152000D03*
X151115000Y-73152000D03*
X146065000Y-75692000D03*
X151115000Y-75692000D03*
X146065000Y-78232000D03*
X151115000Y-78232000D03*
X146065000Y-80772000D03*
X151115000Y-80772000D03*
X146065000Y-83312000D03*
X146065000Y-85852000D03*
X151115000Y-85852000D03*
X146065000Y-88392000D03*
X151115000Y-88392000D03*
X146065000Y-90932000D03*
X151115000Y-90932000D03*
X146065000Y-93472000D03*
X151115000Y-93472000D03*
X146065000Y-96012000D03*
X151115000Y-96012000D03*
X146065000Y-98552000D03*
X151115000Y-98552000D03*
X146065000Y-101092000D03*
X151115000Y-101092000D03*
X146065000Y-103632000D03*
X151115000Y-103632000D03*
X146065000Y-106172000D03*
X151115000Y-106172000D03*
X146065000Y-108712000D03*
X151115000Y-108712000D03*
%TD*%
%TO.C,J3*%
X158765000Y-60452000D03*
X163815000Y-60452000D03*
X158765000Y-62992000D03*
X163815000Y-62992000D03*
X158765000Y-65532000D03*
X163815000Y-65532000D03*
X158765000Y-68072000D03*
X163815000Y-68072000D03*
X158765000Y-70612000D03*
X163815000Y-70612000D03*
X158765000Y-73152000D03*
X163815000Y-73152000D03*
X158765000Y-75692000D03*
X163815000Y-75692000D03*
X158765000Y-78232000D03*
X163815000Y-78232000D03*
X158765000Y-80772000D03*
X163815000Y-80772000D03*
X158765000Y-83312000D03*
X158765000Y-85852000D03*
X163815000Y-85852000D03*
X158765000Y-88392000D03*
X163815000Y-88392000D03*
X158765000Y-90932000D03*
X163815000Y-90932000D03*
X158765000Y-93472000D03*
X163815000Y-93472000D03*
X158765000Y-96012000D03*
X163815000Y-96012000D03*
X158765000Y-98552000D03*
X163815000Y-98552000D03*
X158765000Y-101092000D03*
X163815000Y-101092000D03*
X158765000Y-103632000D03*
X163815000Y-103632000D03*
X158765000Y-106172000D03*
X163815000Y-106172000D03*
X158765000Y-108712000D03*
X163815000Y-108712000D03*
%TD*%
M02*
