M48
; DRILL file {KiCad (5.1.8-0-10_14)} date Tuesday, June 08, 2021 at 04:32:39 PM
; FORMAT={-:-/ absolute / inch / decimal}
; #@! TF.CreationDate,2021-06-08T16:32:39-06:00
; #@! TF.GenerationSoftware,Kicad,Pcbnew,(5.1.8-0-10_14)
; #@! TF.FileFunction,Plated,1,2,PTH
FMAT,2
INCH
T1C0.0157
T2C0.0394
%
G90
G05
T1
X4.8795Y-3.74
X4.8897Y-4.2697
X4.91Y-3.64
X4.92Y-4.39
X4.95Y-3.47
X4.97Y-4.49
X4.99Y-3.4078
X5.0195Y-4.59
X5.03Y-3.33
X5.0595Y-4.69
X5.0795Y-3.23
X5.08Y-4.79
X5.1Y-3.14
X5.12Y-4.895
X5.15Y-3.02
X5.175Y-4.97
X5.24Y-5.035
X5.24Y-2.745
X5.2405Y-4.14
T2
X4.72Y-2.69
X4.72Y-2.79
X4.72Y-2.89
X4.72Y-2.99
X4.72Y-3.09
X4.72Y-3.19
X4.72Y-3.29
X4.72Y-3.39
X4.72Y-3.49
X4.72Y-3.59
X4.72Y-3.69
X4.72Y-3.79
X4.72Y-3.89
X4.72Y-3.99
X4.72Y-4.09
X4.72Y-4.19
X4.72Y-4.29
X4.72Y-4.39
X4.72Y-4.49
X4.72Y-4.59
X4.72Y-4.69
X4.72Y-4.79
X4.72Y-4.89
X4.72Y-4.99
X4.72Y-5.09
X4.82Y-2.69
X4.82Y-2.79
X4.82Y-2.89
X4.82Y-2.99
X4.82Y-3.09
X4.82Y-3.19
X4.82Y-3.29
X4.82Y-3.39
X4.82Y-3.49
X4.82Y-3.59
X4.82Y-3.69
X4.82Y-3.79
X4.82Y-3.89
X4.82Y-3.99
X4.82Y-4.09
X4.82Y-4.19
X4.82Y-4.29
X4.82Y-4.39
X4.82Y-4.49
X4.82Y-4.59
X4.82Y-4.69
X4.82Y-4.79
X4.82Y-4.89
X4.82Y-4.99
X4.82Y-5.09
T0
M30
