%TF.GenerationSoftware,KiCad,Pcbnew,(5.1.8-0-10_14)*%
%TF.CreationDate,2021-06-08T16:32:41-06:00*%
%TF.ProjectId,scsi-50-flipper,73637369-2d35-4302-9d66-6c6970706572,rev?*%
%TF.SameCoordinates,Original*%
%TF.FileFunction,Legend,Bot*%
%TF.FilePolarity,Positive*%
%FSLAX46Y46*%
G04 Gerber Fmt 4.6, Leading zero omitted, Abs format (unit mm)*
G04 Created by KiCad (PCBNEW (5.1.8-0-10_14)) date 2021-06-08 16:32:41*
%MOMM*%
%LPD*%
G01*
G04 APERTURE LIST*
%ADD10C,0.150000*%
%ADD11C,0.120000*%
G04 APERTURE END LIST*
D10*
X124176285Y-68163714D02*
X124712000Y-68163714D01*
X124819142Y-68128000D01*
X124890571Y-68056571D01*
X124926285Y-67949428D01*
X124926285Y-67878000D01*
X124926285Y-68878000D02*
X124926285Y-68520857D01*
X124176285Y-68520857D01*
X124854857Y-69556571D02*
X124890571Y-69520857D01*
X124926285Y-69413714D01*
X124926285Y-69342285D01*
X124890571Y-69235142D01*
X124819142Y-69163714D01*
X124747714Y-69128000D01*
X124604857Y-69092285D01*
X124497714Y-69092285D01*
X124354857Y-69128000D01*
X124283428Y-69163714D01*
X124212000Y-69235142D01*
X124176285Y-69342285D01*
X124176285Y-69413714D01*
X124212000Y-69520857D01*
X124247714Y-69556571D01*
X124176285Y-70092285D02*
X124712000Y-70092285D01*
X124819142Y-70056571D01*
X124890571Y-69985142D01*
X124926285Y-69878000D01*
X124926285Y-69806571D01*
X124926285Y-70806571D02*
X124926285Y-70449428D01*
X124176285Y-70449428D01*
X124854857Y-71485142D02*
X124890571Y-71449428D01*
X124926285Y-71342285D01*
X124926285Y-71270857D01*
X124890571Y-71163714D01*
X124819142Y-71092285D01*
X124747714Y-71056571D01*
X124604857Y-71020857D01*
X124497714Y-71020857D01*
X124354857Y-71056571D01*
X124283428Y-71092285D01*
X124212000Y-71163714D01*
X124176285Y-71270857D01*
X124176285Y-71342285D01*
X124212000Y-71449428D01*
X124247714Y-71485142D01*
X124176285Y-72020857D02*
X124712000Y-72020857D01*
X124819142Y-71985142D01*
X124890571Y-71913714D01*
X124926285Y-71806571D01*
X124926285Y-71735142D01*
X124926285Y-72735142D02*
X124926285Y-72378000D01*
X124176285Y-72378000D01*
X124854857Y-73413714D02*
X124890571Y-73378000D01*
X124926285Y-73270857D01*
X124926285Y-73199428D01*
X124890571Y-73092285D01*
X124819142Y-73020857D01*
X124747714Y-72985142D01*
X124604857Y-72949428D01*
X124497714Y-72949428D01*
X124354857Y-72985142D01*
X124283428Y-73020857D01*
X124212000Y-73092285D01*
X124176285Y-73199428D01*
X124176285Y-73270857D01*
X124212000Y-73378000D01*
X124247714Y-73413714D01*
X124176285Y-73949428D02*
X124712000Y-73949428D01*
X124819142Y-73913714D01*
X124890571Y-73842285D01*
X124926285Y-73735142D01*
X124926285Y-73663714D01*
X124926285Y-74663714D02*
X124926285Y-74306571D01*
X124176285Y-74306571D01*
X124854857Y-75342285D02*
X124890571Y-75306571D01*
X124926285Y-75199428D01*
X124926285Y-75128000D01*
X124890571Y-75020857D01*
X124819142Y-74949428D01*
X124747714Y-74913714D01*
X124604857Y-74878000D01*
X124497714Y-74878000D01*
X124354857Y-74913714D01*
X124283428Y-74949428D01*
X124212000Y-75020857D01*
X124176285Y-75128000D01*
X124176285Y-75199428D01*
X124212000Y-75306571D01*
X124247714Y-75342285D01*
X133294380Y-93996476D02*
X132294380Y-93996476D01*
X133294380Y-94472666D02*
X132294380Y-94472666D01*
X132294380Y-94710761D01*
X132342000Y-94853619D01*
X132437238Y-94948857D01*
X132532476Y-94996476D01*
X132722952Y-95044095D01*
X132865809Y-95044095D01*
X133056285Y-94996476D01*
X133151523Y-94948857D01*
X133246761Y-94853619D01*
X133294380Y-94710761D01*
X133294380Y-94472666D01*
X133199142Y-96044095D02*
X133246761Y-95996476D01*
X133294380Y-95853619D01*
X133294380Y-95758380D01*
X133246761Y-95615523D01*
X133151523Y-95520285D01*
X133056285Y-95472666D01*
X132865809Y-95425047D01*
X132722952Y-95425047D01*
X132532476Y-95472666D01*
X132437238Y-95520285D01*
X132342000Y-95615523D01*
X132294380Y-95758380D01*
X132294380Y-95853619D01*
X132342000Y-95996476D01*
X132389619Y-96044095D01*
X132913428Y-96472666D02*
X132913428Y-97234571D01*
X132294380Y-98186952D02*
X132294380Y-97710761D01*
X132770571Y-97663142D01*
X132722952Y-97710761D01*
X132675333Y-97806000D01*
X132675333Y-98044095D01*
X132722952Y-98139333D01*
X132770571Y-98186952D01*
X132865809Y-98234571D01*
X133103904Y-98234571D01*
X133199142Y-98186952D01*
X133246761Y-98139333D01*
X133294380Y-98044095D01*
X133294380Y-97806000D01*
X133246761Y-97710761D01*
X133199142Y-97663142D01*
X132294380Y-98853619D02*
X132294380Y-98948857D01*
X132342000Y-99044095D01*
X132389619Y-99091714D01*
X132484857Y-99139333D01*
X132675333Y-99186952D01*
X132913428Y-99186952D01*
X133103904Y-99139333D01*
X133199142Y-99091714D01*
X133246761Y-99044095D01*
X133294380Y-98948857D01*
X133294380Y-98853619D01*
X133246761Y-98758380D01*
X133199142Y-98710761D01*
X133103904Y-98663142D01*
X132913428Y-98615523D01*
X132675333Y-98615523D01*
X132484857Y-98663142D01*
X132389619Y-98710761D01*
X132342000Y-98758380D01*
X132294380Y-98853619D01*
X133294380Y-100377428D02*
X132294380Y-100377428D01*
X133008666Y-100710761D01*
X132294380Y-101044095D01*
X133294380Y-101044095D01*
X133008666Y-101472666D02*
X133008666Y-101948857D01*
X133294380Y-101377428D02*
X132294380Y-101710761D01*
X133294380Y-102044095D01*
X133294380Y-102853619D02*
X133294380Y-102377428D01*
X132294380Y-102377428D01*
X132770571Y-103186952D02*
X132770571Y-103520285D01*
X133294380Y-103663142D02*
X133294380Y-103186952D01*
X132294380Y-103186952D01*
X132294380Y-103663142D01*
X124515619Y-104496476D02*
X125515619Y-104496476D01*
X124515619Y-104020285D02*
X125515619Y-104020285D01*
X125515619Y-103782190D01*
X125468000Y-103639333D01*
X125372761Y-103544095D01*
X125277523Y-103496476D01*
X125087047Y-103448857D01*
X124944190Y-103448857D01*
X124753714Y-103496476D01*
X124658476Y-103544095D01*
X124563238Y-103639333D01*
X124515619Y-103782190D01*
X124515619Y-104020285D01*
X124610857Y-102448857D02*
X124563238Y-102496476D01*
X124515619Y-102639333D01*
X124515619Y-102734571D01*
X124563238Y-102877428D01*
X124658476Y-102972666D01*
X124753714Y-103020285D01*
X124944190Y-103067904D01*
X125087047Y-103067904D01*
X125277523Y-103020285D01*
X125372761Y-102972666D01*
X125468000Y-102877428D01*
X125515619Y-102734571D01*
X125515619Y-102639333D01*
X125468000Y-102496476D01*
X125420380Y-102448857D01*
X124896571Y-102020285D02*
X124896571Y-101258380D01*
X125515619Y-100306000D02*
X125515619Y-100782190D01*
X125039428Y-100829809D01*
X125087047Y-100782190D01*
X125134666Y-100686952D01*
X125134666Y-100448857D01*
X125087047Y-100353619D01*
X125039428Y-100306000D01*
X124944190Y-100258380D01*
X124706095Y-100258380D01*
X124610857Y-100306000D01*
X124563238Y-100353619D01*
X124515619Y-100448857D01*
X124515619Y-100686952D01*
X124563238Y-100782190D01*
X124610857Y-100829809D01*
X125515619Y-99639333D02*
X125515619Y-99544095D01*
X125468000Y-99448857D01*
X125420380Y-99401238D01*
X125325142Y-99353619D01*
X125134666Y-99306000D01*
X124896571Y-99306000D01*
X124706095Y-99353619D01*
X124610857Y-99401238D01*
X124563238Y-99448857D01*
X124515619Y-99544095D01*
X124515619Y-99639333D01*
X124563238Y-99734571D01*
X124610857Y-99782190D01*
X124706095Y-99829809D01*
X124896571Y-99877428D01*
X125134666Y-99877428D01*
X125325142Y-99829809D01*
X125420380Y-99782190D01*
X125468000Y-99734571D01*
X125515619Y-99639333D01*
X125039428Y-97782190D02*
X125039428Y-98115523D01*
X124515619Y-98115523D02*
X125515619Y-98115523D01*
X125515619Y-97639333D01*
X125039428Y-97258380D02*
X125039428Y-96925047D01*
X124515619Y-96782190D02*
X124515619Y-97258380D01*
X125515619Y-97258380D01*
X125515619Y-96782190D01*
X124515619Y-96353619D02*
X125515619Y-96353619D01*
X124801333Y-96020285D01*
X125515619Y-95686952D01*
X124515619Y-95686952D01*
X124801333Y-95258380D02*
X124801333Y-94782190D01*
X124515619Y-95353619D02*
X125515619Y-95020285D01*
X124515619Y-94686952D01*
X124515619Y-93877428D02*
X124515619Y-94353619D01*
X125515619Y-94353619D01*
X125039428Y-93544095D02*
X125039428Y-93210761D01*
X124515619Y-93067904D02*
X124515619Y-93544095D01*
X125515619Y-93544095D01*
X125515619Y-93067904D01*
D11*
%TO.C,J1*%
X122428000Y-130616000D02*
X123758000Y-130616000D01*
X123758000Y-130616000D02*
X123758000Y-129286000D01*
X121158000Y-130616000D02*
X121158000Y-128016000D01*
X121158000Y-128016000D02*
X123758000Y-128016000D01*
X123758000Y-128016000D02*
X123758000Y-66996000D01*
X118558000Y-66996000D02*
X123758000Y-66996000D01*
X118558000Y-130616000D02*
X118558000Y-66996000D01*
X118558000Y-130616000D02*
X121158000Y-130616000D01*
D10*
X125301333Y-128484380D02*
X125301333Y-129198666D01*
X125348952Y-129341523D01*
X125444190Y-129436761D01*
X125587047Y-129484380D01*
X125682285Y-129484380D01*
X124301333Y-129484380D02*
X124872761Y-129484380D01*
X124587047Y-129484380D02*
X124587047Y-128484380D01*
X124682285Y-128627238D01*
X124777523Y-128722476D01*
X124872761Y-128770095D01*
%TD*%
M02*
