%TF.GenerationSoftware,KiCad,Pcbnew,(5.1.8-0-10_14)*%
%TF.CreationDate,2021-06-08T16:32:41-06:00*%
%TF.ProjectId,scsi-50-flipper,73637369-2d35-4302-9d66-6c6970706572,rev?*%
%TF.SameCoordinates,Original*%
%TF.FileFunction,Copper,L1,Top*%
%TF.FilePolarity,Positive*%
%FSLAX46Y46*%
G04 Gerber Fmt 4.6, Leading zero omitted, Abs format (unit mm)*
G04 Created by KiCad (PCBNEW (5.1.8-0-10_14)) date 2021-06-08 16:32:41*
%MOMM*%
%LPD*%
G01*
G04 APERTURE LIST*
%TA.AperFunction,SMDPad,CuDef*%
%ADD10R,4.250000X1.524000*%
%TD*%
%TA.AperFunction,ComponentPad*%
%ADD11O,1.700000X1.700000*%
%TD*%
%TA.AperFunction,ComponentPad*%
%ADD12R,1.700000X1.700000*%
%TD*%
%TA.AperFunction,ViaPad*%
%ADD13C,0.800000*%
%TD*%
%TA.AperFunction,Conductor*%
%ADD14C,0.250000*%
%TD*%
%TA.AperFunction,Conductor*%
%ADD15C,0.254000*%
%TD*%
%TA.AperFunction,Conductor*%
%ADD16C,0.100000*%
%TD*%
G04 APERTURE END LIST*
D10*
%TO.P,J2,49*%
%TO.N,GND*%
X135890000Y-129286000D03*
%TO.P,J2,47*%
X135890000Y-126746000D03*
%TO.P,J2,45*%
X135890000Y-124206000D03*
%TO.P,J2,43*%
X135890000Y-121666000D03*
%TO.P,J2,41*%
X135890000Y-119126000D03*
%TO.P,J2,39*%
X135890000Y-116586000D03*
%TO.P,J2,37*%
X135890000Y-114046000D03*
%TO.P,J2,35*%
X135890000Y-111506000D03*
%TO.P,J2,33*%
X135890000Y-108966000D03*
%TO.P,J2,31*%
X135890000Y-106426000D03*
%TO.P,J2,29*%
X135890000Y-103886000D03*
%TO.P,J2,27*%
X135890000Y-101346000D03*
%TO.P,J2,25*%
X135890000Y-98806000D03*
%TO.P,J2,23*%
X135890000Y-96266000D03*
%TO.P,J2,21*%
X135890000Y-93726000D03*
%TO.P,J2,19*%
X135890000Y-91186000D03*
%TO.P,J2,17*%
X135890000Y-88646000D03*
%TO.P,J2,15*%
X135890000Y-86106000D03*
%TO.P,J2,13*%
X135890000Y-83566000D03*
%TO.P,J2,11*%
X135890000Y-81026000D03*
%TO.P,J2,9*%
X135890000Y-78486000D03*
%TO.P,J2,7*%
X135890000Y-75946000D03*
%TO.P,J2,5*%
X135890000Y-73406000D03*
%TO.P,J2,3*%
X135890000Y-70866000D03*
%TO.P,J2,1*%
X135890000Y-68326000D03*
%TD*%
D11*
%TO.P,J1,50*%
%TO.N,Net-(J1-Pad50)*%
X119888000Y-68326000D03*
%TO.P,J1,49*%
%TO.N,GND*%
X122428000Y-68326000D03*
%TO.P,J1,48*%
%TO.N,Net-(J1-Pad48)*%
X119888000Y-70866000D03*
%TO.P,J1,47*%
%TO.N,GND*%
X122428000Y-70866000D03*
%TO.P,J1,46*%
%TO.N,Net-(J1-Pad46)*%
X119888000Y-73406000D03*
%TO.P,J1,45*%
%TO.N,GND*%
X122428000Y-73406000D03*
%TO.P,J1,44*%
%TO.N,Net-(J1-Pad44)*%
X119888000Y-75946000D03*
%TO.P,J1,43*%
%TO.N,GND*%
X122428000Y-75946000D03*
%TO.P,J1,42*%
%TO.N,Net-(J1-Pad42)*%
X119888000Y-78486000D03*
%TO.P,J1,41*%
%TO.N,GND*%
X122428000Y-78486000D03*
%TO.P,J1,40*%
%TO.N,Net-(J1-Pad40)*%
X119888000Y-81026000D03*
%TO.P,J1,39*%
%TO.N,GND*%
X122428000Y-81026000D03*
%TO.P,J1,38*%
%TO.N,Net-(J1-Pad38)*%
X119888000Y-83566000D03*
%TO.P,J1,37*%
%TO.N,GND*%
X122428000Y-83566000D03*
%TO.P,J1,36*%
%TO.N,Net-(J1-Pad36)*%
X119888000Y-86106000D03*
%TO.P,J1,35*%
%TO.N,GND*%
X122428000Y-86106000D03*
%TO.P,J1,34*%
X119888000Y-88646000D03*
%TO.P,J1,33*%
X122428000Y-88646000D03*
%TO.P,J1,32*%
%TO.N,Net-(J1-Pad32)*%
X119888000Y-91186000D03*
%TO.P,J1,31*%
%TO.N,GND*%
X122428000Y-91186000D03*
%TO.P,J1,30*%
X119888000Y-93726000D03*
%TO.P,J1,29*%
X122428000Y-93726000D03*
%TO.P,J1,28*%
X119888000Y-96266000D03*
%TO.P,J1,27*%
X122428000Y-96266000D03*
%TO.P,J1,26*%
%TO.N,Net-(J1-Pad26)*%
X119888000Y-98806000D03*
%TO.P,J1,25*%
%TO.N,GND*%
X122428000Y-98806000D03*
%TO.P,J1,24*%
X119888000Y-101346000D03*
%TO.P,J1,23*%
X122428000Y-101346000D03*
%TO.P,J1,22*%
X119888000Y-103886000D03*
%TO.P,J1,21*%
X122428000Y-103886000D03*
%TO.P,J1,20*%
X119888000Y-106426000D03*
%TO.P,J1,19*%
X122428000Y-106426000D03*
%TO.P,J1,18*%
%TO.N,Net-(J1-Pad18)*%
X119888000Y-108966000D03*
%TO.P,J1,17*%
%TO.N,GND*%
X122428000Y-108966000D03*
%TO.P,J1,16*%
%TO.N,Net-(J1-Pad16)*%
X119888000Y-111506000D03*
%TO.P,J1,15*%
%TO.N,GND*%
X122428000Y-111506000D03*
%TO.P,J1,14*%
%TO.N,Net-(J1-Pad14)*%
X119888000Y-114046000D03*
%TO.P,J1,13*%
%TO.N,GND*%
X122428000Y-114046000D03*
%TO.P,J1,12*%
%TO.N,Net-(J1-Pad12)*%
X119888000Y-116586000D03*
%TO.P,J1,11*%
%TO.N,GND*%
X122428000Y-116586000D03*
%TO.P,J1,10*%
%TO.N,Net-(J1-Pad10)*%
X119888000Y-119126000D03*
%TO.P,J1,9*%
%TO.N,GND*%
X122428000Y-119126000D03*
%TO.P,J1,8*%
%TO.N,Net-(J1-Pad8)*%
X119888000Y-121666000D03*
%TO.P,J1,7*%
%TO.N,GND*%
X122428000Y-121666000D03*
%TO.P,J1,6*%
%TO.N,Net-(J1-Pad6)*%
X119888000Y-124206000D03*
%TO.P,J1,5*%
%TO.N,GND*%
X122428000Y-124206000D03*
%TO.P,J1,4*%
%TO.N,Net-(J1-Pad4)*%
X119888000Y-126746000D03*
%TO.P,J1,3*%
%TO.N,GND*%
X122428000Y-126746000D03*
%TO.P,J1,2*%
%TO.N,Net-(J1-Pad2)*%
X119888000Y-129286000D03*
D12*
%TO.P,J1,1*%
%TO.N,GND*%
X122428000Y-129286000D03*
%TD*%
D13*
%TO.N,Net-(J1-Pad50)*%
X133096000Y-127889000D03*
%TO.N,Net-(J1-Pad48)*%
X131445000Y-126238000D03*
%TO.N,Net-(J1-Pad46)*%
X130048000Y-124333000D03*
%TO.N,Net-(J1-Pad44)*%
X129032000Y-121666000D03*
%TO.N,Net-(J1-Pad42)*%
X128510990Y-119126000D03*
%TO.N,Net-(J1-Pad40)*%
X127494990Y-116586000D03*
%TO.N,Net-(J1-Pad38)*%
X126237996Y-114046000D03*
%TO.N,Net-(J1-Pad36)*%
X124967998Y-111506000D03*
%TO.N,Net-(J1-Pad32)*%
X124199495Y-108451495D03*
%TO.N,Net-(J1-Pad18)*%
X123938990Y-94996000D03*
%TO.N,Net-(J1-Pad16)*%
X124714000Y-92456000D03*
%TO.N,Net-(J1-Pad14)*%
X125730000Y-88138000D03*
%TO.N,Net-(J1-Pad12)*%
X126746000Y-86557124D03*
%TO.N,Net-(J1-Pad10)*%
X127762000Y-84582000D03*
%TO.N,Net-(J1-Pad8)*%
X129018990Y-82042000D03*
%TO.N,Net-(J1-Pad6)*%
X129540000Y-79756000D03*
%TO.N,Net-(J1-Pad4)*%
X130810000Y-76708000D03*
%TO.N,Net-(J1-Pad2)*%
X133096002Y-69723000D03*
X133109010Y-105156000D03*
%TD*%
D14*
%TO.N,Net-(J1-Pad50)*%
X133096000Y-127889000D02*
X133096000Y-127889000D01*
X132334000Y-75506588D02*
X132334000Y-127127000D01*
X119888000Y-68326000D02*
X121158000Y-69596000D01*
X121158000Y-69596000D02*
X126423412Y-69596000D01*
X132334000Y-127127000D02*
X133096000Y-127889000D01*
X126423412Y-69596000D02*
X132334000Y-75506588D01*
%TO.N,Net-(J1-Pad48)*%
X121113001Y-72091001D02*
X127463001Y-72091001D01*
X119888000Y-70866000D02*
X121113001Y-72091001D01*
X127463001Y-72091001D02*
X131826008Y-76454008D01*
X131826008Y-76454008D02*
X131826008Y-125856992D01*
X131826008Y-125856992D02*
X131445000Y-126238000D01*
%TO.N,Net-(J1-Pad46)*%
X130810000Y-123571000D02*
X130048000Y-124333000D01*
X125685001Y-74631001D02*
X130810000Y-79756000D01*
X119888000Y-73406000D02*
X121113001Y-74631001D01*
X130810000Y-79756000D02*
X130810000Y-123571000D01*
X121113001Y-74631001D02*
X125685001Y-74631001D01*
%TO.N,Net-(J1-Pad44)*%
X129431999Y-121266001D02*
X129032000Y-121666000D01*
X129794000Y-120904000D02*
X129431999Y-121266001D01*
X125476000Y-77216000D02*
X129794000Y-81534000D01*
X121158000Y-77216000D02*
X125476000Y-77216000D01*
X119888000Y-75946000D02*
X121158000Y-77216000D01*
X129794000Y-81534000D02*
X129794000Y-120904000D01*
%TO.N,Net-(J1-Pad42)*%
X121158000Y-79756000D02*
X124900081Y-79756000D01*
X128778000Y-118858990D02*
X128510990Y-119126000D01*
X128778000Y-83633919D02*
X128778000Y-118858990D01*
X124900081Y-79756000D02*
X128778000Y-83633919D01*
X119888000Y-78486000D02*
X121158000Y-79756000D01*
%TO.N,Net-(J1-Pad40)*%
X127762000Y-116318990D02*
X127494990Y-116586000D01*
X127762000Y-85852000D02*
X127762000Y-116318990D01*
X124206000Y-82296000D02*
X127762000Y-85852000D01*
X121158000Y-82296000D02*
X124206000Y-82296000D01*
X119888000Y-81026000D02*
X121158000Y-82296000D01*
%TO.N,Net-(J1-Pad38)*%
X126746000Y-113537996D02*
X126237996Y-114046000D01*
X126746000Y-88523004D02*
X126746000Y-113537996D01*
X123698000Y-84836000D02*
X126759002Y-87897002D01*
X126759002Y-87897002D02*
X126759002Y-88510002D01*
X126759002Y-88510002D02*
X126746000Y-88523004D01*
X121158000Y-84836000D02*
X123698000Y-84836000D01*
X119888000Y-83566000D02*
X121158000Y-84836000D01*
%TO.N,Net-(J1-Pad36)*%
X119888000Y-86106000D02*
X121158000Y-87376000D01*
X123698000Y-87376000D02*
X125730000Y-89408000D01*
X125730000Y-89408000D02*
X125730000Y-110743998D01*
X125730000Y-110743998D02*
X124967998Y-111506000D01*
X121158000Y-87376000D02*
X123698000Y-87376000D01*
%TO.N,Net-(J1-Pad32)*%
X124714000Y-93982002D02*
X124714000Y-107936990D01*
X121158000Y-92456000D02*
X123187998Y-92456000D01*
X119888000Y-91186000D02*
X121158000Y-92456000D01*
X123187998Y-92456000D02*
X124714000Y-93982002D01*
X124714000Y-107936990D02*
X124199495Y-108451495D01*
%TO.N,Net-(J1-Pad18)*%
X119888000Y-108966000D02*
X121158000Y-107696000D01*
X123938990Y-107455010D02*
X123938990Y-94996000D01*
X121158000Y-107696000D02*
X123698000Y-107696000D01*
X123698000Y-107696000D02*
X123938990Y-107455010D01*
%TO.N,Net-(J1-Pad16)*%
X119888000Y-111506000D02*
X121158000Y-110236000D01*
X121158000Y-110236000D02*
X123698000Y-110236000D01*
X125222000Y-108712000D02*
X125222000Y-92964000D01*
X123698000Y-110236000D02*
X125222000Y-108712000D01*
X125222000Y-92964000D02*
X124714000Y-92456000D01*
%TO.N,Net-(J1-Pad14)*%
X126238000Y-88646000D02*
X125730000Y-88138000D01*
X126238000Y-111760000D02*
X126238000Y-88646000D01*
X125222000Y-112776000D02*
X126238000Y-111760000D01*
X121158000Y-112776000D02*
X125222000Y-112776000D01*
X119888000Y-114046000D02*
X121158000Y-112776000D01*
%TO.N,Net-(J1-Pad12)*%
X127259013Y-87070137D02*
X126746000Y-86557124D01*
X127259013Y-114554000D02*
X127259013Y-87070137D01*
X127254000Y-114559013D02*
X127259013Y-114554000D01*
X127254000Y-113792000D02*
X127254000Y-114559013D01*
X126497013Y-115316000D02*
X127254000Y-114559013D01*
X121158000Y-115316000D02*
X126497013Y-115316000D01*
X119888000Y-116586000D02*
X121158000Y-115316000D01*
%TO.N,Net-(J1-Pad10)*%
X128270000Y-85090000D02*
X127762000Y-84582000D01*
X128270000Y-117602000D02*
X128270000Y-85090000D01*
X128016000Y-117856000D02*
X128270000Y-117602000D01*
X121158000Y-117856000D02*
X128016000Y-117856000D01*
X119888000Y-119126000D02*
X121158000Y-117856000D01*
%TO.N,Net-(J1-Pad8)*%
X129286000Y-82309010D02*
X129018990Y-82042000D01*
X128778000Y-120396000D02*
X129286000Y-119888000D01*
X119888000Y-121666000D02*
X121158000Y-120396000D01*
X121158000Y-120396000D02*
X128778000Y-120396000D01*
X129286000Y-119888000D02*
X129286000Y-82309010D01*
%TO.N,Net-(J1-Pad6)*%
X130302000Y-121666000D02*
X130302000Y-80518000D01*
X129032000Y-122936000D02*
X130302000Y-121666000D01*
X121158000Y-122936000D02*
X129032000Y-122936000D01*
X130302000Y-80518000D02*
X129540000Y-79756000D01*
X119888000Y-124206000D02*
X121158000Y-122936000D01*
%TO.N,Net-(J1-Pad4)*%
X131318000Y-124464002D02*
X131318000Y-77216000D01*
X130306002Y-125476000D02*
X131318000Y-124464002D01*
X131318000Y-77216000D02*
X130810000Y-76708000D01*
X121158000Y-125476000D02*
X130306002Y-125476000D01*
X119888000Y-126746000D02*
X121158000Y-125476000D01*
%TO.N,Net-(J1-Pad2)*%
X132969000Y-69850002D02*
X133096002Y-69723000D01*
X132969000Y-105015990D02*
X132969000Y-69850002D01*
X133109010Y-105156000D02*
X132969000Y-105015990D01*
%TO.N,GND*%
X135890000Y-68326000D02*
X134493000Y-68326000D01*
X122428000Y-81026000D02*
X122936000Y-81026000D01*
%TD*%
D15*
%TO.N,GND*%
X133130000Y-68040250D02*
X133288750Y-68199000D01*
X135763000Y-68199000D01*
X135763000Y-68179000D01*
X136017000Y-68179000D01*
X136017000Y-68199000D01*
X136037000Y-68199000D01*
X136037000Y-68453000D01*
X136017000Y-68453000D01*
X136017000Y-69564250D01*
X136048750Y-69596000D01*
X136017000Y-69627750D01*
X136017000Y-70739000D01*
X136037000Y-70739000D01*
X136037000Y-70993000D01*
X136017000Y-70993000D01*
X136017000Y-72104250D01*
X136048750Y-72136000D01*
X136017000Y-72167750D01*
X136017000Y-73279000D01*
X136037000Y-73279000D01*
X136037000Y-73533000D01*
X136017000Y-73533000D01*
X136017000Y-74644250D01*
X136048750Y-74676000D01*
X136017000Y-74707750D01*
X136017000Y-75819000D01*
X136037000Y-75819000D01*
X136037000Y-76073000D01*
X136017000Y-76073000D01*
X136017000Y-77184250D01*
X136048750Y-77216000D01*
X136017000Y-77247750D01*
X136017000Y-78359000D01*
X136037000Y-78359000D01*
X136037000Y-78613000D01*
X136017000Y-78613000D01*
X136017000Y-79724250D01*
X136048750Y-79756000D01*
X136017000Y-79787750D01*
X136017000Y-80899000D01*
X136037000Y-80899000D01*
X136037000Y-81153000D01*
X136017000Y-81153000D01*
X136017000Y-82264250D01*
X136048750Y-82296000D01*
X136017000Y-82327750D01*
X136017000Y-83439000D01*
X136037000Y-83439000D01*
X136037000Y-83693000D01*
X136017000Y-83693000D01*
X136017000Y-84804250D01*
X136048750Y-84836000D01*
X136017000Y-84867750D01*
X136017000Y-85979000D01*
X136037000Y-85979000D01*
X136037000Y-86233000D01*
X136017000Y-86233000D01*
X136017000Y-87344250D01*
X136048750Y-87376000D01*
X136017000Y-87407750D01*
X136017000Y-88519000D01*
X136037000Y-88519000D01*
X136037000Y-88773000D01*
X136017000Y-88773000D01*
X136017000Y-89884250D01*
X136048750Y-89916000D01*
X136017000Y-89947750D01*
X136017000Y-91059000D01*
X136037000Y-91059000D01*
X136037000Y-91313000D01*
X136017000Y-91313000D01*
X136017000Y-92424250D01*
X136048750Y-92456000D01*
X136017000Y-92487750D01*
X136017000Y-93599000D01*
X136037000Y-93599000D01*
X136037000Y-93853000D01*
X136017000Y-93853000D01*
X136017000Y-94964250D01*
X136048750Y-94996000D01*
X136017000Y-95027750D01*
X136017000Y-96139000D01*
X136037000Y-96139000D01*
X136037000Y-96393000D01*
X136017000Y-96393000D01*
X136017000Y-97504250D01*
X136048750Y-97536000D01*
X136017000Y-97567750D01*
X136017000Y-98679000D01*
X136037000Y-98679000D01*
X136037000Y-98933000D01*
X136017000Y-98933000D01*
X136017000Y-100044250D01*
X136048750Y-100076000D01*
X136017000Y-100107750D01*
X136017000Y-101219000D01*
X136037000Y-101219000D01*
X136037000Y-101473000D01*
X136017000Y-101473000D01*
X136017000Y-102584250D01*
X136048750Y-102616000D01*
X136017000Y-102647750D01*
X136017000Y-103759000D01*
X136037000Y-103759000D01*
X136037000Y-104013000D01*
X136017000Y-104013000D01*
X136017000Y-105124250D01*
X136048750Y-105156000D01*
X136017000Y-105187750D01*
X136017000Y-106299000D01*
X136037000Y-106299000D01*
X136037000Y-106553000D01*
X136017000Y-106553000D01*
X136017000Y-107664250D01*
X136048750Y-107696000D01*
X136017000Y-107727750D01*
X136017000Y-108839000D01*
X136037000Y-108839000D01*
X136037000Y-109093000D01*
X136017000Y-109093000D01*
X136017000Y-110204250D01*
X136048750Y-110236000D01*
X136017000Y-110267750D01*
X136017000Y-111379000D01*
X136037000Y-111379000D01*
X136037000Y-111633000D01*
X136017000Y-111633000D01*
X136017000Y-112744250D01*
X136048750Y-112776000D01*
X136017000Y-112807750D01*
X136017000Y-113919000D01*
X136037000Y-113919000D01*
X136037000Y-114173000D01*
X136017000Y-114173000D01*
X136017000Y-115284250D01*
X136048750Y-115316000D01*
X136017000Y-115347750D01*
X136017000Y-116459000D01*
X136037000Y-116459000D01*
X136037000Y-116713000D01*
X136017000Y-116713000D01*
X136017000Y-117824250D01*
X136048750Y-117856000D01*
X136017000Y-117887750D01*
X136017000Y-118999000D01*
X136037000Y-118999000D01*
X136037000Y-119253000D01*
X136017000Y-119253000D01*
X136017000Y-120364250D01*
X136048750Y-120396000D01*
X136017000Y-120427750D01*
X136017000Y-121539000D01*
X136037000Y-121539000D01*
X136037000Y-121793000D01*
X136017000Y-121793000D01*
X136017000Y-122904250D01*
X136048750Y-122936000D01*
X136017000Y-122967750D01*
X136017000Y-124079000D01*
X136037000Y-124079000D01*
X136037000Y-124333000D01*
X136017000Y-124333000D01*
X136017000Y-125444250D01*
X136048750Y-125476000D01*
X136017000Y-125507750D01*
X136017000Y-126619000D01*
X136037000Y-126619000D01*
X136037000Y-126873000D01*
X136017000Y-126873000D01*
X136017000Y-127984250D01*
X136048750Y-128016000D01*
X136017000Y-128047750D01*
X136017000Y-129159000D01*
X136037000Y-129159000D01*
X136037000Y-129413000D01*
X136017000Y-129413000D01*
X136017000Y-129433000D01*
X135763000Y-129433000D01*
X135763000Y-129413000D01*
X133288750Y-129413000D01*
X133130000Y-129571750D01*
X133127908Y-129896000D01*
X123914765Y-129896000D01*
X123913000Y-129571750D01*
X123754250Y-129413000D01*
X122555000Y-129413000D01*
X122555000Y-129433000D01*
X122301000Y-129433000D01*
X122301000Y-129413000D01*
X122281000Y-129413000D01*
X122281000Y-129159000D01*
X122301000Y-129159000D01*
X122301000Y-126873000D01*
X122555000Y-126873000D01*
X122555000Y-129159000D01*
X123754250Y-129159000D01*
X123913000Y-129000250D01*
X123916072Y-128436000D01*
X123903812Y-128311518D01*
X123867502Y-128191820D01*
X123808537Y-128081506D01*
X123729185Y-127984815D01*
X123632494Y-127905463D01*
X123522180Y-127846498D01*
X123441534Y-127822034D01*
X123525588Y-127746269D01*
X123699641Y-127512920D01*
X123824825Y-127250099D01*
X123869476Y-127102890D01*
X123748155Y-126873000D01*
X122555000Y-126873000D01*
X122301000Y-126873000D01*
X122281000Y-126873000D01*
X122281000Y-126619000D01*
X122301000Y-126619000D01*
X122301000Y-126599000D01*
X122555000Y-126599000D01*
X122555000Y-126619000D01*
X123748155Y-126619000D01*
X123869476Y-126389110D01*
X123824825Y-126241901D01*
X123822014Y-126236000D01*
X130268680Y-126236000D01*
X130306002Y-126239676D01*
X130343324Y-126236000D01*
X130343335Y-126236000D01*
X130410000Y-126229434D01*
X130410000Y-126339939D01*
X130449774Y-126539898D01*
X130527795Y-126728256D01*
X130641063Y-126897774D01*
X130785226Y-127041937D01*
X130954744Y-127155205D01*
X131143102Y-127233226D01*
X131343061Y-127273000D01*
X131546939Y-127273000D01*
X131583978Y-127265632D01*
X131584998Y-127275985D01*
X131628454Y-127419246D01*
X131699026Y-127551276D01*
X131765671Y-127632482D01*
X131794000Y-127667001D01*
X131822998Y-127690799D01*
X132061000Y-127928801D01*
X132061000Y-127990939D01*
X132100774Y-128190898D01*
X132178795Y-128379256D01*
X132292063Y-128548774D01*
X132436226Y-128692937D01*
X132605744Y-128806205D01*
X132794102Y-128884226D01*
X132994061Y-128924000D01*
X133129508Y-128924000D01*
X133130000Y-129000250D01*
X133288750Y-129159000D01*
X135763000Y-129159000D01*
X135763000Y-128047750D01*
X135731250Y-128016000D01*
X135763000Y-127984250D01*
X135763000Y-126873000D01*
X133293459Y-126873000D01*
X133197939Y-126854000D01*
X133135801Y-126854000D01*
X133094000Y-126812199D01*
X133094000Y-124968000D01*
X133126928Y-124968000D01*
X133139188Y-125092482D01*
X133175498Y-125212180D01*
X133234463Y-125322494D01*
X133313815Y-125419185D01*
X133383044Y-125476000D01*
X133313815Y-125532815D01*
X133234463Y-125629506D01*
X133175498Y-125739820D01*
X133139188Y-125859518D01*
X133126928Y-125984000D01*
X133130000Y-126460250D01*
X133288750Y-126619000D01*
X135763000Y-126619000D01*
X135763000Y-125507750D01*
X135731250Y-125476000D01*
X135763000Y-125444250D01*
X135763000Y-124333000D01*
X133288750Y-124333000D01*
X133130000Y-124491750D01*
X133126928Y-124968000D01*
X133094000Y-124968000D01*
X133094000Y-122428000D01*
X133126928Y-122428000D01*
X133139188Y-122552482D01*
X133175498Y-122672180D01*
X133234463Y-122782494D01*
X133313815Y-122879185D01*
X133383044Y-122936000D01*
X133313815Y-122992815D01*
X133234463Y-123089506D01*
X133175498Y-123199820D01*
X133139188Y-123319518D01*
X133126928Y-123444000D01*
X133130000Y-123920250D01*
X133288750Y-124079000D01*
X135763000Y-124079000D01*
X135763000Y-122967750D01*
X135731250Y-122936000D01*
X135763000Y-122904250D01*
X135763000Y-121793000D01*
X133288750Y-121793000D01*
X133130000Y-121951750D01*
X133126928Y-122428000D01*
X133094000Y-122428000D01*
X133094000Y-119888000D01*
X133126928Y-119888000D01*
X133139188Y-120012482D01*
X133175498Y-120132180D01*
X133234463Y-120242494D01*
X133313815Y-120339185D01*
X133383044Y-120396000D01*
X133313815Y-120452815D01*
X133234463Y-120549506D01*
X133175498Y-120659820D01*
X133139188Y-120779518D01*
X133126928Y-120904000D01*
X133130000Y-121380250D01*
X133288750Y-121539000D01*
X135763000Y-121539000D01*
X135763000Y-120427750D01*
X135731250Y-120396000D01*
X135763000Y-120364250D01*
X135763000Y-119253000D01*
X133288750Y-119253000D01*
X133130000Y-119411750D01*
X133126928Y-119888000D01*
X133094000Y-119888000D01*
X133094000Y-117348000D01*
X133126928Y-117348000D01*
X133139188Y-117472482D01*
X133175498Y-117592180D01*
X133234463Y-117702494D01*
X133313815Y-117799185D01*
X133383044Y-117856000D01*
X133313815Y-117912815D01*
X133234463Y-118009506D01*
X133175498Y-118119820D01*
X133139188Y-118239518D01*
X133126928Y-118364000D01*
X133130000Y-118840250D01*
X133288750Y-118999000D01*
X135763000Y-118999000D01*
X135763000Y-117887750D01*
X135731250Y-117856000D01*
X135763000Y-117824250D01*
X135763000Y-116713000D01*
X133288750Y-116713000D01*
X133130000Y-116871750D01*
X133126928Y-117348000D01*
X133094000Y-117348000D01*
X133094000Y-114808000D01*
X133126928Y-114808000D01*
X133139188Y-114932482D01*
X133175498Y-115052180D01*
X133234463Y-115162494D01*
X133313815Y-115259185D01*
X133383044Y-115316000D01*
X133313815Y-115372815D01*
X133234463Y-115469506D01*
X133175498Y-115579820D01*
X133139188Y-115699518D01*
X133126928Y-115824000D01*
X133130000Y-116300250D01*
X133288750Y-116459000D01*
X135763000Y-116459000D01*
X135763000Y-115347750D01*
X135731250Y-115316000D01*
X135763000Y-115284250D01*
X135763000Y-114173000D01*
X133288750Y-114173000D01*
X133130000Y-114331750D01*
X133126928Y-114808000D01*
X133094000Y-114808000D01*
X133094000Y-112268000D01*
X133126928Y-112268000D01*
X133139188Y-112392482D01*
X133175498Y-112512180D01*
X133234463Y-112622494D01*
X133313815Y-112719185D01*
X133383044Y-112776000D01*
X133313815Y-112832815D01*
X133234463Y-112929506D01*
X133175498Y-113039820D01*
X133139188Y-113159518D01*
X133126928Y-113284000D01*
X133130000Y-113760250D01*
X133288750Y-113919000D01*
X135763000Y-113919000D01*
X135763000Y-112807750D01*
X135731250Y-112776000D01*
X135763000Y-112744250D01*
X135763000Y-111633000D01*
X133288750Y-111633000D01*
X133130000Y-111791750D01*
X133126928Y-112268000D01*
X133094000Y-112268000D01*
X133094000Y-109728000D01*
X133126928Y-109728000D01*
X133139188Y-109852482D01*
X133175498Y-109972180D01*
X133234463Y-110082494D01*
X133313815Y-110179185D01*
X133383044Y-110236000D01*
X133313815Y-110292815D01*
X133234463Y-110389506D01*
X133175498Y-110499820D01*
X133139188Y-110619518D01*
X133126928Y-110744000D01*
X133130000Y-111220250D01*
X133288750Y-111379000D01*
X135763000Y-111379000D01*
X135763000Y-110267750D01*
X135731250Y-110236000D01*
X135763000Y-110204250D01*
X135763000Y-109093000D01*
X133288750Y-109093000D01*
X133130000Y-109251750D01*
X133126928Y-109728000D01*
X133094000Y-109728000D01*
X133094000Y-107188000D01*
X133126928Y-107188000D01*
X133139188Y-107312482D01*
X133175498Y-107432180D01*
X133234463Y-107542494D01*
X133313815Y-107639185D01*
X133383044Y-107696000D01*
X133313815Y-107752815D01*
X133234463Y-107849506D01*
X133175498Y-107959820D01*
X133139188Y-108079518D01*
X133126928Y-108204000D01*
X133130000Y-108680250D01*
X133288750Y-108839000D01*
X135763000Y-108839000D01*
X135763000Y-107727750D01*
X135731250Y-107696000D01*
X135763000Y-107664250D01*
X135763000Y-106553000D01*
X133288750Y-106553000D01*
X133130000Y-106711750D01*
X133126928Y-107188000D01*
X133094000Y-107188000D01*
X133094000Y-106191000D01*
X133180750Y-106191000D01*
X133288750Y-106299000D01*
X135763000Y-106299000D01*
X135763000Y-105187750D01*
X135731250Y-105156000D01*
X135763000Y-105124250D01*
X135763000Y-104013000D01*
X135743000Y-104013000D01*
X135743000Y-103759000D01*
X135763000Y-103759000D01*
X135763000Y-102647750D01*
X135731250Y-102616000D01*
X135763000Y-102584250D01*
X135763000Y-101473000D01*
X135743000Y-101473000D01*
X135743000Y-101219000D01*
X135763000Y-101219000D01*
X135763000Y-100107750D01*
X135731250Y-100076000D01*
X135763000Y-100044250D01*
X135763000Y-98933000D01*
X135743000Y-98933000D01*
X135743000Y-98679000D01*
X135763000Y-98679000D01*
X135763000Y-97567750D01*
X135731250Y-97536000D01*
X135763000Y-97504250D01*
X135763000Y-96393000D01*
X135743000Y-96393000D01*
X135743000Y-96139000D01*
X135763000Y-96139000D01*
X135763000Y-95027750D01*
X135731250Y-94996000D01*
X135763000Y-94964250D01*
X135763000Y-93853000D01*
X135743000Y-93853000D01*
X135743000Y-93599000D01*
X135763000Y-93599000D01*
X135763000Y-92487750D01*
X135731250Y-92456000D01*
X135763000Y-92424250D01*
X135763000Y-91313000D01*
X135743000Y-91313000D01*
X135743000Y-91059000D01*
X135763000Y-91059000D01*
X135763000Y-89947750D01*
X135731250Y-89916000D01*
X135763000Y-89884250D01*
X135763000Y-88773000D01*
X135743000Y-88773000D01*
X135743000Y-88519000D01*
X135763000Y-88519000D01*
X135763000Y-87407750D01*
X135731250Y-87376000D01*
X135763000Y-87344250D01*
X135763000Y-86233000D01*
X135743000Y-86233000D01*
X135743000Y-85979000D01*
X135763000Y-85979000D01*
X135763000Y-84867750D01*
X135731250Y-84836000D01*
X135763000Y-84804250D01*
X135763000Y-83693000D01*
X135743000Y-83693000D01*
X135743000Y-83439000D01*
X135763000Y-83439000D01*
X135763000Y-82327750D01*
X135731250Y-82296000D01*
X135763000Y-82264250D01*
X135763000Y-81153000D01*
X135743000Y-81153000D01*
X135743000Y-80899000D01*
X135763000Y-80899000D01*
X135763000Y-79787750D01*
X135731250Y-79756000D01*
X135763000Y-79724250D01*
X135763000Y-78613000D01*
X135743000Y-78613000D01*
X135743000Y-78359000D01*
X135763000Y-78359000D01*
X135763000Y-77247750D01*
X135731250Y-77216000D01*
X135763000Y-77184250D01*
X135763000Y-76073000D01*
X135743000Y-76073000D01*
X135743000Y-75819000D01*
X135763000Y-75819000D01*
X135763000Y-74707750D01*
X135731250Y-74676000D01*
X135763000Y-74644250D01*
X135763000Y-73533000D01*
X135743000Y-73533000D01*
X135743000Y-73279000D01*
X135763000Y-73279000D01*
X135763000Y-72167750D01*
X135731250Y-72136000D01*
X135763000Y-72104250D01*
X135763000Y-70993000D01*
X135743000Y-70993000D01*
X135743000Y-70739000D01*
X135763000Y-70739000D01*
X135763000Y-69627750D01*
X135731250Y-69596000D01*
X135763000Y-69564250D01*
X135763000Y-68453000D01*
X133288750Y-68453000D01*
X133130000Y-68611750D01*
X133129508Y-68688000D01*
X132994063Y-68688000D01*
X132794104Y-68727774D01*
X132605746Y-68805795D01*
X132436228Y-68919063D01*
X132292065Y-69063226D01*
X132178797Y-69232744D01*
X132100776Y-69421102D01*
X132061002Y-69621061D01*
X132061002Y-69824939D01*
X132100776Y-70024898D01*
X132178797Y-70213256D01*
X132209001Y-70258460D01*
X132209001Y-74306787D01*
X126987216Y-69085003D01*
X126963413Y-69055999D01*
X126847688Y-68961026D01*
X126715659Y-68890454D01*
X126572398Y-68846997D01*
X126460745Y-68836000D01*
X126460734Y-68836000D01*
X126423412Y-68832324D01*
X126386090Y-68836000D01*
X123822014Y-68836000D01*
X123824825Y-68830099D01*
X123869476Y-68682890D01*
X123748155Y-68453000D01*
X122555000Y-68453000D01*
X122555000Y-68473000D01*
X122301000Y-68473000D01*
X122301000Y-68453000D01*
X122281000Y-68453000D01*
X122281000Y-68199000D01*
X122301000Y-68199000D01*
X122301000Y-68179000D01*
X122555000Y-68179000D01*
X122555000Y-68199000D01*
X123748155Y-68199000D01*
X123869476Y-67969110D01*
X123824825Y-67821901D01*
X123774383Y-67716000D01*
X133127908Y-67716000D01*
X133130000Y-68040250D01*
%TA.AperFunction,Conductor*%
D16*
G36*
X133130000Y-68040250D02*
G01*
X133288750Y-68199000D01*
X135763000Y-68199000D01*
X135763000Y-68179000D01*
X136017000Y-68179000D01*
X136017000Y-68199000D01*
X136037000Y-68199000D01*
X136037000Y-68453000D01*
X136017000Y-68453000D01*
X136017000Y-69564250D01*
X136048750Y-69596000D01*
X136017000Y-69627750D01*
X136017000Y-70739000D01*
X136037000Y-70739000D01*
X136037000Y-70993000D01*
X136017000Y-70993000D01*
X136017000Y-72104250D01*
X136048750Y-72136000D01*
X136017000Y-72167750D01*
X136017000Y-73279000D01*
X136037000Y-73279000D01*
X136037000Y-73533000D01*
X136017000Y-73533000D01*
X136017000Y-74644250D01*
X136048750Y-74676000D01*
X136017000Y-74707750D01*
X136017000Y-75819000D01*
X136037000Y-75819000D01*
X136037000Y-76073000D01*
X136017000Y-76073000D01*
X136017000Y-77184250D01*
X136048750Y-77216000D01*
X136017000Y-77247750D01*
X136017000Y-78359000D01*
X136037000Y-78359000D01*
X136037000Y-78613000D01*
X136017000Y-78613000D01*
X136017000Y-79724250D01*
X136048750Y-79756000D01*
X136017000Y-79787750D01*
X136017000Y-80899000D01*
X136037000Y-80899000D01*
X136037000Y-81153000D01*
X136017000Y-81153000D01*
X136017000Y-82264250D01*
X136048750Y-82296000D01*
X136017000Y-82327750D01*
X136017000Y-83439000D01*
X136037000Y-83439000D01*
X136037000Y-83693000D01*
X136017000Y-83693000D01*
X136017000Y-84804250D01*
X136048750Y-84836000D01*
X136017000Y-84867750D01*
X136017000Y-85979000D01*
X136037000Y-85979000D01*
X136037000Y-86233000D01*
X136017000Y-86233000D01*
X136017000Y-87344250D01*
X136048750Y-87376000D01*
X136017000Y-87407750D01*
X136017000Y-88519000D01*
X136037000Y-88519000D01*
X136037000Y-88773000D01*
X136017000Y-88773000D01*
X136017000Y-89884250D01*
X136048750Y-89916000D01*
X136017000Y-89947750D01*
X136017000Y-91059000D01*
X136037000Y-91059000D01*
X136037000Y-91313000D01*
X136017000Y-91313000D01*
X136017000Y-92424250D01*
X136048750Y-92456000D01*
X136017000Y-92487750D01*
X136017000Y-93599000D01*
X136037000Y-93599000D01*
X136037000Y-93853000D01*
X136017000Y-93853000D01*
X136017000Y-94964250D01*
X136048750Y-94996000D01*
X136017000Y-95027750D01*
X136017000Y-96139000D01*
X136037000Y-96139000D01*
X136037000Y-96393000D01*
X136017000Y-96393000D01*
X136017000Y-97504250D01*
X136048750Y-97536000D01*
X136017000Y-97567750D01*
X136017000Y-98679000D01*
X136037000Y-98679000D01*
X136037000Y-98933000D01*
X136017000Y-98933000D01*
X136017000Y-100044250D01*
X136048750Y-100076000D01*
X136017000Y-100107750D01*
X136017000Y-101219000D01*
X136037000Y-101219000D01*
X136037000Y-101473000D01*
X136017000Y-101473000D01*
X136017000Y-102584250D01*
X136048750Y-102616000D01*
X136017000Y-102647750D01*
X136017000Y-103759000D01*
X136037000Y-103759000D01*
X136037000Y-104013000D01*
X136017000Y-104013000D01*
X136017000Y-105124250D01*
X136048750Y-105156000D01*
X136017000Y-105187750D01*
X136017000Y-106299000D01*
X136037000Y-106299000D01*
X136037000Y-106553000D01*
X136017000Y-106553000D01*
X136017000Y-107664250D01*
X136048750Y-107696000D01*
X136017000Y-107727750D01*
X136017000Y-108839000D01*
X136037000Y-108839000D01*
X136037000Y-109093000D01*
X136017000Y-109093000D01*
X136017000Y-110204250D01*
X136048750Y-110236000D01*
X136017000Y-110267750D01*
X136017000Y-111379000D01*
X136037000Y-111379000D01*
X136037000Y-111633000D01*
X136017000Y-111633000D01*
X136017000Y-112744250D01*
X136048750Y-112776000D01*
X136017000Y-112807750D01*
X136017000Y-113919000D01*
X136037000Y-113919000D01*
X136037000Y-114173000D01*
X136017000Y-114173000D01*
X136017000Y-115284250D01*
X136048750Y-115316000D01*
X136017000Y-115347750D01*
X136017000Y-116459000D01*
X136037000Y-116459000D01*
X136037000Y-116713000D01*
X136017000Y-116713000D01*
X136017000Y-117824250D01*
X136048750Y-117856000D01*
X136017000Y-117887750D01*
X136017000Y-118999000D01*
X136037000Y-118999000D01*
X136037000Y-119253000D01*
X136017000Y-119253000D01*
X136017000Y-120364250D01*
X136048750Y-120396000D01*
X136017000Y-120427750D01*
X136017000Y-121539000D01*
X136037000Y-121539000D01*
X136037000Y-121793000D01*
X136017000Y-121793000D01*
X136017000Y-122904250D01*
X136048750Y-122936000D01*
X136017000Y-122967750D01*
X136017000Y-124079000D01*
X136037000Y-124079000D01*
X136037000Y-124333000D01*
X136017000Y-124333000D01*
X136017000Y-125444250D01*
X136048750Y-125476000D01*
X136017000Y-125507750D01*
X136017000Y-126619000D01*
X136037000Y-126619000D01*
X136037000Y-126873000D01*
X136017000Y-126873000D01*
X136017000Y-127984250D01*
X136048750Y-128016000D01*
X136017000Y-128047750D01*
X136017000Y-129159000D01*
X136037000Y-129159000D01*
X136037000Y-129413000D01*
X136017000Y-129413000D01*
X136017000Y-129433000D01*
X135763000Y-129433000D01*
X135763000Y-129413000D01*
X133288750Y-129413000D01*
X133130000Y-129571750D01*
X133127908Y-129896000D01*
X123914765Y-129896000D01*
X123913000Y-129571750D01*
X123754250Y-129413000D01*
X122555000Y-129413000D01*
X122555000Y-129433000D01*
X122301000Y-129433000D01*
X122301000Y-129413000D01*
X122281000Y-129413000D01*
X122281000Y-129159000D01*
X122301000Y-129159000D01*
X122301000Y-126873000D01*
X122555000Y-126873000D01*
X122555000Y-129159000D01*
X123754250Y-129159000D01*
X123913000Y-129000250D01*
X123916072Y-128436000D01*
X123903812Y-128311518D01*
X123867502Y-128191820D01*
X123808537Y-128081506D01*
X123729185Y-127984815D01*
X123632494Y-127905463D01*
X123522180Y-127846498D01*
X123441534Y-127822034D01*
X123525588Y-127746269D01*
X123699641Y-127512920D01*
X123824825Y-127250099D01*
X123869476Y-127102890D01*
X123748155Y-126873000D01*
X122555000Y-126873000D01*
X122301000Y-126873000D01*
X122281000Y-126873000D01*
X122281000Y-126619000D01*
X122301000Y-126619000D01*
X122301000Y-126599000D01*
X122555000Y-126599000D01*
X122555000Y-126619000D01*
X123748155Y-126619000D01*
X123869476Y-126389110D01*
X123824825Y-126241901D01*
X123822014Y-126236000D01*
X130268680Y-126236000D01*
X130306002Y-126239676D01*
X130343324Y-126236000D01*
X130343335Y-126236000D01*
X130410000Y-126229434D01*
X130410000Y-126339939D01*
X130449774Y-126539898D01*
X130527795Y-126728256D01*
X130641063Y-126897774D01*
X130785226Y-127041937D01*
X130954744Y-127155205D01*
X131143102Y-127233226D01*
X131343061Y-127273000D01*
X131546939Y-127273000D01*
X131583978Y-127265632D01*
X131584998Y-127275985D01*
X131628454Y-127419246D01*
X131699026Y-127551276D01*
X131765671Y-127632482D01*
X131794000Y-127667001D01*
X131822998Y-127690799D01*
X132061000Y-127928801D01*
X132061000Y-127990939D01*
X132100774Y-128190898D01*
X132178795Y-128379256D01*
X132292063Y-128548774D01*
X132436226Y-128692937D01*
X132605744Y-128806205D01*
X132794102Y-128884226D01*
X132994061Y-128924000D01*
X133129508Y-128924000D01*
X133130000Y-129000250D01*
X133288750Y-129159000D01*
X135763000Y-129159000D01*
X135763000Y-128047750D01*
X135731250Y-128016000D01*
X135763000Y-127984250D01*
X135763000Y-126873000D01*
X133293459Y-126873000D01*
X133197939Y-126854000D01*
X133135801Y-126854000D01*
X133094000Y-126812199D01*
X133094000Y-124968000D01*
X133126928Y-124968000D01*
X133139188Y-125092482D01*
X133175498Y-125212180D01*
X133234463Y-125322494D01*
X133313815Y-125419185D01*
X133383044Y-125476000D01*
X133313815Y-125532815D01*
X133234463Y-125629506D01*
X133175498Y-125739820D01*
X133139188Y-125859518D01*
X133126928Y-125984000D01*
X133130000Y-126460250D01*
X133288750Y-126619000D01*
X135763000Y-126619000D01*
X135763000Y-125507750D01*
X135731250Y-125476000D01*
X135763000Y-125444250D01*
X135763000Y-124333000D01*
X133288750Y-124333000D01*
X133130000Y-124491750D01*
X133126928Y-124968000D01*
X133094000Y-124968000D01*
X133094000Y-122428000D01*
X133126928Y-122428000D01*
X133139188Y-122552482D01*
X133175498Y-122672180D01*
X133234463Y-122782494D01*
X133313815Y-122879185D01*
X133383044Y-122936000D01*
X133313815Y-122992815D01*
X133234463Y-123089506D01*
X133175498Y-123199820D01*
X133139188Y-123319518D01*
X133126928Y-123444000D01*
X133130000Y-123920250D01*
X133288750Y-124079000D01*
X135763000Y-124079000D01*
X135763000Y-122967750D01*
X135731250Y-122936000D01*
X135763000Y-122904250D01*
X135763000Y-121793000D01*
X133288750Y-121793000D01*
X133130000Y-121951750D01*
X133126928Y-122428000D01*
X133094000Y-122428000D01*
X133094000Y-119888000D01*
X133126928Y-119888000D01*
X133139188Y-120012482D01*
X133175498Y-120132180D01*
X133234463Y-120242494D01*
X133313815Y-120339185D01*
X133383044Y-120396000D01*
X133313815Y-120452815D01*
X133234463Y-120549506D01*
X133175498Y-120659820D01*
X133139188Y-120779518D01*
X133126928Y-120904000D01*
X133130000Y-121380250D01*
X133288750Y-121539000D01*
X135763000Y-121539000D01*
X135763000Y-120427750D01*
X135731250Y-120396000D01*
X135763000Y-120364250D01*
X135763000Y-119253000D01*
X133288750Y-119253000D01*
X133130000Y-119411750D01*
X133126928Y-119888000D01*
X133094000Y-119888000D01*
X133094000Y-117348000D01*
X133126928Y-117348000D01*
X133139188Y-117472482D01*
X133175498Y-117592180D01*
X133234463Y-117702494D01*
X133313815Y-117799185D01*
X133383044Y-117856000D01*
X133313815Y-117912815D01*
X133234463Y-118009506D01*
X133175498Y-118119820D01*
X133139188Y-118239518D01*
X133126928Y-118364000D01*
X133130000Y-118840250D01*
X133288750Y-118999000D01*
X135763000Y-118999000D01*
X135763000Y-117887750D01*
X135731250Y-117856000D01*
X135763000Y-117824250D01*
X135763000Y-116713000D01*
X133288750Y-116713000D01*
X133130000Y-116871750D01*
X133126928Y-117348000D01*
X133094000Y-117348000D01*
X133094000Y-114808000D01*
X133126928Y-114808000D01*
X133139188Y-114932482D01*
X133175498Y-115052180D01*
X133234463Y-115162494D01*
X133313815Y-115259185D01*
X133383044Y-115316000D01*
X133313815Y-115372815D01*
X133234463Y-115469506D01*
X133175498Y-115579820D01*
X133139188Y-115699518D01*
X133126928Y-115824000D01*
X133130000Y-116300250D01*
X133288750Y-116459000D01*
X135763000Y-116459000D01*
X135763000Y-115347750D01*
X135731250Y-115316000D01*
X135763000Y-115284250D01*
X135763000Y-114173000D01*
X133288750Y-114173000D01*
X133130000Y-114331750D01*
X133126928Y-114808000D01*
X133094000Y-114808000D01*
X133094000Y-112268000D01*
X133126928Y-112268000D01*
X133139188Y-112392482D01*
X133175498Y-112512180D01*
X133234463Y-112622494D01*
X133313815Y-112719185D01*
X133383044Y-112776000D01*
X133313815Y-112832815D01*
X133234463Y-112929506D01*
X133175498Y-113039820D01*
X133139188Y-113159518D01*
X133126928Y-113284000D01*
X133130000Y-113760250D01*
X133288750Y-113919000D01*
X135763000Y-113919000D01*
X135763000Y-112807750D01*
X135731250Y-112776000D01*
X135763000Y-112744250D01*
X135763000Y-111633000D01*
X133288750Y-111633000D01*
X133130000Y-111791750D01*
X133126928Y-112268000D01*
X133094000Y-112268000D01*
X133094000Y-109728000D01*
X133126928Y-109728000D01*
X133139188Y-109852482D01*
X133175498Y-109972180D01*
X133234463Y-110082494D01*
X133313815Y-110179185D01*
X133383044Y-110236000D01*
X133313815Y-110292815D01*
X133234463Y-110389506D01*
X133175498Y-110499820D01*
X133139188Y-110619518D01*
X133126928Y-110744000D01*
X133130000Y-111220250D01*
X133288750Y-111379000D01*
X135763000Y-111379000D01*
X135763000Y-110267750D01*
X135731250Y-110236000D01*
X135763000Y-110204250D01*
X135763000Y-109093000D01*
X133288750Y-109093000D01*
X133130000Y-109251750D01*
X133126928Y-109728000D01*
X133094000Y-109728000D01*
X133094000Y-107188000D01*
X133126928Y-107188000D01*
X133139188Y-107312482D01*
X133175498Y-107432180D01*
X133234463Y-107542494D01*
X133313815Y-107639185D01*
X133383044Y-107696000D01*
X133313815Y-107752815D01*
X133234463Y-107849506D01*
X133175498Y-107959820D01*
X133139188Y-108079518D01*
X133126928Y-108204000D01*
X133130000Y-108680250D01*
X133288750Y-108839000D01*
X135763000Y-108839000D01*
X135763000Y-107727750D01*
X135731250Y-107696000D01*
X135763000Y-107664250D01*
X135763000Y-106553000D01*
X133288750Y-106553000D01*
X133130000Y-106711750D01*
X133126928Y-107188000D01*
X133094000Y-107188000D01*
X133094000Y-106191000D01*
X133180750Y-106191000D01*
X133288750Y-106299000D01*
X135763000Y-106299000D01*
X135763000Y-105187750D01*
X135731250Y-105156000D01*
X135763000Y-105124250D01*
X135763000Y-104013000D01*
X135743000Y-104013000D01*
X135743000Y-103759000D01*
X135763000Y-103759000D01*
X135763000Y-102647750D01*
X135731250Y-102616000D01*
X135763000Y-102584250D01*
X135763000Y-101473000D01*
X135743000Y-101473000D01*
X135743000Y-101219000D01*
X135763000Y-101219000D01*
X135763000Y-100107750D01*
X135731250Y-100076000D01*
X135763000Y-100044250D01*
X135763000Y-98933000D01*
X135743000Y-98933000D01*
X135743000Y-98679000D01*
X135763000Y-98679000D01*
X135763000Y-97567750D01*
X135731250Y-97536000D01*
X135763000Y-97504250D01*
X135763000Y-96393000D01*
X135743000Y-96393000D01*
X135743000Y-96139000D01*
X135763000Y-96139000D01*
X135763000Y-95027750D01*
X135731250Y-94996000D01*
X135763000Y-94964250D01*
X135763000Y-93853000D01*
X135743000Y-93853000D01*
X135743000Y-93599000D01*
X135763000Y-93599000D01*
X135763000Y-92487750D01*
X135731250Y-92456000D01*
X135763000Y-92424250D01*
X135763000Y-91313000D01*
X135743000Y-91313000D01*
X135743000Y-91059000D01*
X135763000Y-91059000D01*
X135763000Y-89947750D01*
X135731250Y-89916000D01*
X135763000Y-89884250D01*
X135763000Y-88773000D01*
X135743000Y-88773000D01*
X135743000Y-88519000D01*
X135763000Y-88519000D01*
X135763000Y-87407750D01*
X135731250Y-87376000D01*
X135763000Y-87344250D01*
X135763000Y-86233000D01*
X135743000Y-86233000D01*
X135743000Y-85979000D01*
X135763000Y-85979000D01*
X135763000Y-84867750D01*
X135731250Y-84836000D01*
X135763000Y-84804250D01*
X135763000Y-83693000D01*
X135743000Y-83693000D01*
X135743000Y-83439000D01*
X135763000Y-83439000D01*
X135763000Y-82327750D01*
X135731250Y-82296000D01*
X135763000Y-82264250D01*
X135763000Y-81153000D01*
X135743000Y-81153000D01*
X135743000Y-80899000D01*
X135763000Y-80899000D01*
X135763000Y-79787750D01*
X135731250Y-79756000D01*
X135763000Y-79724250D01*
X135763000Y-78613000D01*
X135743000Y-78613000D01*
X135743000Y-78359000D01*
X135763000Y-78359000D01*
X135763000Y-77247750D01*
X135731250Y-77216000D01*
X135763000Y-77184250D01*
X135763000Y-76073000D01*
X135743000Y-76073000D01*
X135743000Y-75819000D01*
X135763000Y-75819000D01*
X135763000Y-74707750D01*
X135731250Y-74676000D01*
X135763000Y-74644250D01*
X135763000Y-73533000D01*
X135743000Y-73533000D01*
X135743000Y-73279000D01*
X135763000Y-73279000D01*
X135763000Y-72167750D01*
X135731250Y-72136000D01*
X135763000Y-72104250D01*
X135763000Y-70993000D01*
X135743000Y-70993000D01*
X135743000Y-70739000D01*
X135763000Y-70739000D01*
X135763000Y-69627750D01*
X135731250Y-69596000D01*
X135763000Y-69564250D01*
X135763000Y-68453000D01*
X133288750Y-68453000D01*
X133130000Y-68611750D01*
X133129508Y-68688000D01*
X132994063Y-68688000D01*
X132794104Y-68727774D01*
X132605746Y-68805795D01*
X132436228Y-68919063D01*
X132292065Y-69063226D01*
X132178797Y-69232744D01*
X132100776Y-69421102D01*
X132061002Y-69621061D01*
X132061002Y-69824939D01*
X132100776Y-70024898D01*
X132178797Y-70213256D01*
X132209001Y-70258460D01*
X132209001Y-74306787D01*
X126987216Y-69085003D01*
X126963413Y-69055999D01*
X126847688Y-68961026D01*
X126715659Y-68890454D01*
X126572398Y-68846997D01*
X126460745Y-68836000D01*
X126460734Y-68836000D01*
X126423412Y-68832324D01*
X126386090Y-68836000D01*
X123822014Y-68836000D01*
X123824825Y-68830099D01*
X123869476Y-68682890D01*
X123748155Y-68453000D01*
X122555000Y-68453000D01*
X122555000Y-68473000D01*
X122301000Y-68473000D01*
X122301000Y-68453000D01*
X122281000Y-68453000D01*
X122281000Y-68199000D01*
X122301000Y-68199000D01*
X122301000Y-68179000D01*
X122555000Y-68179000D01*
X122555000Y-68199000D01*
X123748155Y-68199000D01*
X123869476Y-67969110D01*
X123824825Y-67821901D01*
X123774383Y-67716000D01*
X133127908Y-67716000D01*
X133130000Y-68040250D01*
G37*
%TD.AperFunction*%
D15*
X129244063Y-123673226D02*
X129130795Y-123842744D01*
X129052774Y-124031102D01*
X129013000Y-124231061D01*
X129013000Y-124434939D01*
X129052774Y-124634898D01*
X129086368Y-124716000D01*
X123822014Y-124716000D01*
X123824825Y-124710099D01*
X123869476Y-124562890D01*
X123748155Y-124333000D01*
X122555000Y-124333000D01*
X122555000Y-124353000D01*
X122301000Y-124353000D01*
X122301000Y-124333000D01*
X122281000Y-124333000D01*
X122281000Y-124079000D01*
X122301000Y-124079000D01*
X122301000Y-124059000D01*
X122555000Y-124059000D01*
X122555000Y-124079000D01*
X123748155Y-124079000D01*
X123869476Y-123849110D01*
X123824825Y-123701901D01*
X123822014Y-123696000D01*
X128994678Y-123696000D01*
X129032000Y-123699676D01*
X129069322Y-123696000D01*
X129069333Y-123696000D01*
X129180986Y-123685003D01*
X129254623Y-123662666D01*
X129244063Y-123673226D01*
%TA.AperFunction,Conductor*%
D16*
G36*
X129244063Y-123673226D02*
G01*
X129130795Y-123842744D01*
X129052774Y-124031102D01*
X129013000Y-124231061D01*
X129013000Y-124434939D01*
X129052774Y-124634898D01*
X129086368Y-124716000D01*
X123822014Y-124716000D01*
X123824825Y-124710099D01*
X123869476Y-124562890D01*
X123748155Y-124333000D01*
X122555000Y-124333000D01*
X122555000Y-124353000D01*
X122301000Y-124353000D01*
X122301000Y-124333000D01*
X122281000Y-124333000D01*
X122281000Y-124079000D01*
X122301000Y-124079000D01*
X122301000Y-124059000D01*
X122555000Y-124059000D01*
X122555000Y-124079000D01*
X123748155Y-124079000D01*
X123869476Y-123849110D01*
X123824825Y-123701901D01*
X123822014Y-123696000D01*
X128994678Y-123696000D01*
X129032000Y-123699676D01*
X129069322Y-123696000D01*
X129069333Y-123696000D01*
X129180986Y-123685003D01*
X129254623Y-123662666D01*
X129244063Y-123673226D01*
G37*
%TD.AperFunction*%
D15*
X128114795Y-121175744D02*
X128036774Y-121364102D01*
X127997000Y-121564061D01*
X127997000Y-121767939D01*
X128036774Y-121967898D01*
X128114795Y-122156256D01*
X128127987Y-122176000D01*
X123822014Y-122176000D01*
X123824825Y-122170099D01*
X123869476Y-122022890D01*
X123748155Y-121793000D01*
X122555000Y-121793000D01*
X122555000Y-121813000D01*
X122301000Y-121813000D01*
X122301000Y-121793000D01*
X122281000Y-121793000D01*
X122281000Y-121539000D01*
X122301000Y-121539000D01*
X122301000Y-121519000D01*
X122555000Y-121519000D01*
X122555000Y-121539000D01*
X123748155Y-121539000D01*
X123869476Y-121309110D01*
X123824825Y-121161901D01*
X123822014Y-121156000D01*
X128127987Y-121156000D01*
X128114795Y-121175744D01*
%TA.AperFunction,Conductor*%
D16*
G36*
X128114795Y-121175744D02*
G01*
X128036774Y-121364102D01*
X127997000Y-121564061D01*
X127997000Y-121767939D01*
X128036774Y-121967898D01*
X128114795Y-122156256D01*
X128127987Y-122176000D01*
X123822014Y-122176000D01*
X123824825Y-122170099D01*
X123869476Y-122022890D01*
X123748155Y-121793000D01*
X122555000Y-121793000D01*
X122555000Y-121813000D01*
X122301000Y-121813000D01*
X122301000Y-121793000D01*
X122281000Y-121793000D01*
X122281000Y-121539000D01*
X122301000Y-121539000D01*
X122301000Y-121519000D01*
X122555000Y-121519000D01*
X122555000Y-121539000D01*
X123748155Y-121539000D01*
X123869476Y-121309110D01*
X123824825Y-121161901D01*
X123822014Y-121156000D01*
X128127987Y-121156000D01*
X128114795Y-121175744D01*
G37*
%TD.AperFunction*%
D15*
X127593785Y-118635744D02*
X127515764Y-118824102D01*
X127475990Y-119024061D01*
X127475990Y-119227939D01*
X127515764Y-119427898D01*
X127593785Y-119616256D01*
X127606977Y-119636000D01*
X123822014Y-119636000D01*
X123824825Y-119630099D01*
X123869476Y-119482890D01*
X123748155Y-119253000D01*
X122555000Y-119253000D01*
X122555000Y-119273000D01*
X122301000Y-119273000D01*
X122301000Y-119253000D01*
X122281000Y-119253000D01*
X122281000Y-118999000D01*
X122301000Y-118999000D01*
X122301000Y-118979000D01*
X122555000Y-118979000D01*
X122555000Y-118999000D01*
X123748155Y-118999000D01*
X123869476Y-118769110D01*
X123824825Y-118621901D01*
X123822014Y-118616000D01*
X127606977Y-118616000D01*
X127593785Y-118635744D01*
%TA.AperFunction,Conductor*%
D16*
G36*
X127593785Y-118635744D02*
G01*
X127515764Y-118824102D01*
X127475990Y-119024061D01*
X127475990Y-119227939D01*
X127515764Y-119427898D01*
X127593785Y-119616256D01*
X127606977Y-119636000D01*
X123822014Y-119636000D01*
X123824825Y-119630099D01*
X123869476Y-119482890D01*
X123748155Y-119253000D01*
X122555000Y-119253000D01*
X122555000Y-119273000D01*
X122301000Y-119273000D01*
X122301000Y-119253000D01*
X122281000Y-119253000D01*
X122281000Y-118999000D01*
X122301000Y-118999000D01*
X122301000Y-118979000D01*
X122555000Y-118979000D01*
X122555000Y-118999000D01*
X123748155Y-118999000D01*
X123869476Y-118769110D01*
X123824825Y-118621901D01*
X123822014Y-118616000D01*
X127606977Y-118616000D01*
X127593785Y-118635744D01*
G37*
%TD.AperFunction*%
D15*
X126577785Y-116095744D02*
X126499764Y-116284102D01*
X126459990Y-116484061D01*
X126459990Y-116687939D01*
X126499764Y-116887898D01*
X126577785Y-117076256D01*
X126590977Y-117096000D01*
X123822014Y-117096000D01*
X123824825Y-117090099D01*
X123869476Y-116942890D01*
X123748155Y-116713000D01*
X122555000Y-116713000D01*
X122555000Y-116733000D01*
X122301000Y-116733000D01*
X122301000Y-116713000D01*
X122281000Y-116713000D01*
X122281000Y-116459000D01*
X122301000Y-116459000D01*
X122301000Y-116439000D01*
X122555000Y-116439000D01*
X122555000Y-116459000D01*
X123748155Y-116459000D01*
X123869476Y-116229110D01*
X123824825Y-116081901D01*
X123822014Y-116076000D01*
X126459691Y-116076000D01*
X126497013Y-116079676D01*
X126534335Y-116076000D01*
X126534346Y-116076000D01*
X126594967Y-116070029D01*
X126577785Y-116095744D01*
%TA.AperFunction,Conductor*%
D16*
G36*
X126577785Y-116095744D02*
G01*
X126499764Y-116284102D01*
X126459990Y-116484061D01*
X126459990Y-116687939D01*
X126499764Y-116887898D01*
X126577785Y-117076256D01*
X126590977Y-117096000D01*
X123822014Y-117096000D01*
X123824825Y-117090099D01*
X123869476Y-116942890D01*
X123748155Y-116713000D01*
X122555000Y-116713000D01*
X122555000Y-116733000D01*
X122301000Y-116733000D01*
X122301000Y-116713000D01*
X122281000Y-116713000D01*
X122281000Y-116459000D01*
X122301000Y-116459000D01*
X122301000Y-116439000D01*
X122555000Y-116439000D01*
X122555000Y-116459000D01*
X123748155Y-116459000D01*
X123869476Y-116229110D01*
X123824825Y-116081901D01*
X123822014Y-116076000D01*
X126459691Y-116076000D01*
X126497013Y-116079676D01*
X126534335Y-116076000D01*
X126534346Y-116076000D01*
X126594967Y-116070029D01*
X126577785Y-116095744D01*
G37*
%TD.AperFunction*%
D15*
X125320791Y-113555744D02*
X125242770Y-113744102D01*
X125202996Y-113944061D01*
X125202996Y-114147939D01*
X125242770Y-114347898D01*
X125320791Y-114536256D01*
X125333983Y-114556000D01*
X123822014Y-114556000D01*
X123824825Y-114550099D01*
X123869476Y-114402890D01*
X123748155Y-114173000D01*
X122555000Y-114173000D01*
X122555000Y-114193000D01*
X122301000Y-114193000D01*
X122301000Y-114173000D01*
X122281000Y-114173000D01*
X122281000Y-113919000D01*
X122301000Y-113919000D01*
X122301000Y-113899000D01*
X122555000Y-113899000D01*
X122555000Y-113919000D01*
X123748155Y-113919000D01*
X123869476Y-113689110D01*
X123824825Y-113541901D01*
X123822014Y-113536000D01*
X125184678Y-113536000D01*
X125222000Y-113539676D01*
X125259322Y-113536000D01*
X125259333Y-113536000D01*
X125339242Y-113528130D01*
X125320791Y-113555744D01*
%TA.AperFunction,Conductor*%
D16*
G36*
X125320791Y-113555744D02*
G01*
X125242770Y-113744102D01*
X125202996Y-113944061D01*
X125202996Y-114147939D01*
X125242770Y-114347898D01*
X125320791Y-114536256D01*
X125333983Y-114556000D01*
X123822014Y-114556000D01*
X123824825Y-114550099D01*
X123869476Y-114402890D01*
X123748155Y-114173000D01*
X122555000Y-114173000D01*
X122555000Y-114193000D01*
X122301000Y-114193000D01*
X122301000Y-114173000D01*
X122281000Y-114173000D01*
X122281000Y-113919000D01*
X122301000Y-113919000D01*
X122301000Y-113899000D01*
X122555000Y-113899000D01*
X122555000Y-113919000D01*
X123748155Y-113919000D01*
X123869476Y-113689110D01*
X123824825Y-113541901D01*
X123822014Y-113536000D01*
X125184678Y-113536000D01*
X125222000Y-113539676D01*
X125259322Y-113536000D01*
X125259333Y-113536000D01*
X125339242Y-113528130D01*
X125320791Y-113555744D01*
G37*
%TD.AperFunction*%
D15*
X124164061Y-110846226D02*
X124050793Y-111015744D01*
X123972772Y-111204102D01*
X123932998Y-111404061D01*
X123932998Y-111607939D01*
X123972772Y-111807898D01*
X124050793Y-111996256D01*
X124063985Y-112016000D01*
X123822014Y-112016000D01*
X123824825Y-112010099D01*
X123869476Y-111862890D01*
X123748155Y-111633000D01*
X122555000Y-111633000D01*
X122555000Y-111653000D01*
X122301000Y-111653000D01*
X122301000Y-111633000D01*
X122281000Y-111633000D01*
X122281000Y-111379000D01*
X122301000Y-111379000D01*
X122301000Y-111359000D01*
X122555000Y-111359000D01*
X122555000Y-111379000D01*
X123748155Y-111379000D01*
X123869476Y-111149110D01*
X123824825Y-111001901D01*
X123818130Y-110987845D01*
X123846986Y-110985003D01*
X123990247Y-110941546D01*
X124122276Y-110870974D01*
X124217284Y-110793003D01*
X124164061Y-110846226D01*
%TA.AperFunction,Conductor*%
D16*
G36*
X124164061Y-110846226D02*
G01*
X124050793Y-111015744D01*
X123972772Y-111204102D01*
X123932998Y-111404061D01*
X123932998Y-111607939D01*
X123972772Y-111807898D01*
X124050793Y-111996256D01*
X124063985Y-112016000D01*
X123822014Y-112016000D01*
X123824825Y-112010099D01*
X123869476Y-111862890D01*
X123748155Y-111633000D01*
X122555000Y-111633000D01*
X122555000Y-111653000D01*
X122301000Y-111653000D01*
X122301000Y-111633000D01*
X122281000Y-111633000D01*
X122281000Y-111379000D01*
X122301000Y-111379000D01*
X122301000Y-111359000D01*
X122555000Y-111359000D01*
X122555000Y-111379000D01*
X123748155Y-111379000D01*
X123869476Y-111149110D01*
X123824825Y-111001901D01*
X123818130Y-110987845D01*
X123846986Y-110985003D01*
X123990247Y-110941546D01*
X124122276Y-110870974D01*
X124217284Y-110793003D01*
X124164061Y-110846226D01*
G37*
%TD.AperFunction*%
D15*
X122555000Y-108839000D02*
X122575000Y-108839000D01*
X122575000Y-109093000D01*
X122555000Y-109093000D01*
X122555000Y-109113000D01*
X122301000Y-109113000D01*
X122301000Y-109093000D01*
X122281000Y-109093000D01*
X122281000Y-108839000D01*
X122301000Y-108839000D01*
X122301000Y-108819000D01*
X122555000Y-108819000D01*
X122555000Y-108839000D01*
%TA.AperFunction,Conductor*%
D16*
G36*
X122555000Y-108839000D02*
G01*
X122575000Y-108839000D01*
X122575000Y-109093000D01*
X122555000Y-109093000D01*
X122555000Y-109113000D01*
X122301000Y-109113000D01*
X122301000Y-109093000D01*
X122281000Y-109093000D01*
X122281000Y-108839000D01*
X122301000Y-108839000D01*
X122301000Y-108819000D01*
X122555000Y-108819000D01*
X122555000Y-108839000D01*
G37*
%TD.AperFunction*%
D15*
X120015000Y-93599000D02*
X122301000Y-93599000D01*
X122301000Y-93579000D01*
X122555000Y-93579000D01*
X122555000Y-93599000D01*
X122575000Y-93599000D01*
X122575000Y-93853000D01*
X122555000Y-93853000D01*
X122555000Y-96139000D01*
X122575000Y-96139000D01*
X122575000Y-96393000D01*
X122555000Y-96393000D01*
X122555000Y-98679000D01*
X122575000Y-98679000D01*
X122575000Y-98933000D01*
X122555000Y-98933000D01*
X122555000Y-101219000D01*
X122575000Y-101219000D01*
X122575000Y-101473000D01*
X122555000Y-101473000D01*
X122555000Y-103759000D01*
X122575000Y-103759000D01*
X122575000Y-104013000D01*
X122555000Y-104013000D01*
X122555000Y-106299000D01*
X122575000Y-106299000D01*
X122575000Y-106553000D01*
X122555000Y-106553000D01*
X122555000Y-106573000D01*
X122301000Y-106573000D01*
X122301000Y-106553000D01*
X120015000Y-106553000D01*
X120015000Y-106573000D01*
X119761000Y-106573000D01*
X119761000Y-106553000D01*
X119741000Y-106553000D01*
X119741000Y-106299000D01*
X119761000Y-106299000D01*
X119761000Y-104013000D01*
X120015000Y-104013000D01*
X120015000Y-106299000D01*
X122301000Y-106299000D01*
X122301000Y-104013000D01*
X120015000Y-104013000D01*
X119761000Y-104013000D01*
X119741000Y-104013000D01*
X119741000Y-103759000D01*
X119761000Y-103759000D01*
X119761000Y-101473000D01*
X120015000Y-101473000D01*
X120015000Y-103759000D01*
X122301000Y-103759000D01*
X122301000Y-101473000D01*
X120015000Y-101473000D01*
X119761000Y-101473000D01*
X119741000Y-101473000D01*
X119741000Y-101219000D01*
X119761000Y-101219000D01*
X119761000Y-101199000D01*
X120015000Y-101199000D01*
X120015000Y-101219000D01*
X122301000Y-101219000D01*
X122301000Y-98933000D01*
X122281000Y-98933000D01*
X122281000Y-98679000D01*
X122301000Y-98679000D01*
X122301000Y-96393000D01*
X120015000Y-96393000D01*
X120015000Y-96413000D01*
X119761000Y-96413000D01*
X119761000Y-96393000D01*
X119741000Y-96393000D01*
X119741000Y-96139000D01*
X119761000Y-96139000D01*
X119761000Y-93853000D01*
X120015000Y-93853000D01*
X120015000Y-96139000D01*
X122301000Y-96139000D01*
X122301000Y-93853000D01*
X120015000Y-93853000D01*
X119761000Y-93853000D01*
X119741000Y-93853000D01*
X119741000Y-93599000D01*
X119761000Y-93599000D01*
X119761000Y-93579000D01*
X120015000Y-93579000D01*
X120015000Y-93599000D01*
%TA.AperFunction,Conductor*%
D16*
G36*
X120015000Y-93599000D02*
G01*
X122301000Y-93599000D01*
X122301000Y-93579000D01*
X122555000Y-93579000D01*
X122555000Y-93599000D01*
X122575000Y-93599000D01*
X122575000Y-93853000D01*
X122555000Y-93853000D01*
X122555000Y-96139000D01*
X122575000Y-96139000D01*
X122575000Y-96393000D01*
X122555000Y-96393000D01*
X122555000Y-98679000D01*
X122575000Y-98679000D01*
X122575000Y-98933000D01*
X122555000Y-98933000D01*
X122555000Y-101219000D01*
X122575000Y-101219000D01*
X122575000Y-101473000D01*
X122555000Y-101473000D01*
X122555000Y-103759000D01*
X122575000Y-103759000D01*
X122575000Y-104013000D01*
X122555000Y-104013000D01*
X122555000Y-106299000D01*
X122575000Y-106299000D01*
X122575000Y-106553000D01*
X122555000Y-106553000D01*
X122555000Y-106573000D01*
X122301000Y-106573000D01*
X122301000Y-106553000D01*
X120015000Y-106553000D01*
X120015000Y-106573000D01*
X119761000Y-106573000D01*
X119761000Y-106553000D01*
X119741000Y-106553000D01*
X119741000Y-106299000D01*
X119761000Y-106299000D01*
X119761000Y-104013000D01*
X120015000Y-104013000D01*
X120015000Y-106299000D01*
X122301000Y-106299000D01*
X122301000Y-104013000D01*
X120015000Y-104013000D01*
X119761000Y-104013000D01*
X119741000Y-104013000D01*
X119741000Y-103759000D01*
X119761000Y-103759000D01*
X119761000Y-101473000D01*
X120015000Y-101473000D01*
X120015000Y-103759000D01*
X122301000Y-103759000D01*
X122301000Y-101473000D01*
X120015000Y-101473000D01*
X119761000Y-101473000D01*
X119741000Y-101473000D01*
X119741000Y-101219000D01*
X119761000Y-101219000D01*
X119761000Y-101199000D01*
X120015000Y-101199000D01*
X120015000Y-101219000D01*
X122301000Y-101219000D01*
X122301000Y-98933000D01*
X122281000Y-98933000D01*
X122281000Y-98679000D01*
X122301000Y-98679000D01*
X122301000Y-96393000D01*
X120015000Y-96393000D01*
X120015000Y-96413000D01*
X119761000Y-96413000D01*
X119761000Y-96393000D01*
X119741000Y-96393000D01*
X119741000Y-96139000D01*
X119761000Y-96139000D01*
X119761000Y-93853000D01*
X120015000Y-93853000D01*
X120015000Y-96139000D01*
X122301000Y-96139000D01*
X122301000Y-93853000D01*
X120015000Y-93853000D01*
X119761000Y-93853000D01*
X119741000Y-93853000D01*
X119741000Y-93599000D01*
X119761000Y-93599000D01*
X119761000Y-93579000D01*
X120015000Y-93579000D01*
X120015000Y-93599000D01*
G37*
%TD.AperFunction*%
D15*
X120015000Y-88519000D02*
X122301000Y-88519000D01*
X122301000Y-88499000D01*
X122555000Y-88499000D01*
X122555000Y-88519000D01*
X122575000Y-88519000D01*
X122575000Y-88773000D01*
X122555000Y-88773000D01*
X122555000Y-91059000D01*
X123748155Y-91059000D01*
X123869476Y-90829110D01*
X123824825Y-90681901D01*
X123699641Y-90419080D01*
X123525588Y-90185731D01*
X123309355Y-89990822D01*
X123183745Y-89916000D01*
X123309355Y-89841178D01*
X123525588Y-89646269D01*
X123699641Y-89412920D01*
X123824825Y-89150099D01*
X123869476Y-89002890D01*
X123748156Y-88773002D01*
X123913000Y-88773002D01*
X123913000Y-88665801D01*
X124970000Y-89722802D01*
X124970000Y-91451644D01*
X124815939Y-91421000D01*
X124612061Y-91421000D01*
X124412102Y-91460774D01*
X124223744Y-91538795D01*
X124054226Y-91652063D01*
X123910063Y-91796226D01*
X123796795Y-91965744D01*
X123789692Y-91982893D01*
X123751802Y-91945003D01*
X123727999Y-91915999D01*
X123720254Y-91909643D01*
X123824825Y-91690099D01*
X123869476Y-91542890D01*
X123748155Y-91313000D01*
X122555000Y-91313000D01*
X122555000Y-91333000D01*
X122301000Y-91333000D01*
X122301000Y-91313000D01*
X122281000Y-91313000D01*
X122281000Y-91059000D01*
X122301000Y-91059000D01*
X122301000Y-88773000D01*
X120015000Y-88773000D01*
X120015000Y-88793000D01*
X119761000Y-88793000D01*
X119761000Y-88773000D01*
X119741000Y-88773000D01*
X119741000Y-88519000D01*
X119761000Y-88519000D01*
X119761000Y-88499000D01*
X120015000Y-88499000D01*
X120015000Y-88519000D01*
%TA.AperFunction,Conductor*%
D16*
G36*
X120015000Y-88519000D02*
G01*
X122301000Y-88519000D01*
X122301000Y-88499000D01*
X122555000Y-88499000D01*
X122555000Y-88519000D01*
X122575000Y-88519000D01*
X122575000Y-88773000D01*
X122555000Y-88773000D01*
X122555000Y-91059000D01*
X123748155Y-91059000D01*
X123869476Y-90829110D01*
X123824825Y-90681901D01*
X123699641Y-90419080D01*
X123525588Y-90185731D01*
X123309355Y-89990822D01*
X123183745Y-89916000D01*
X123309355Y-89841178D01*
X123525588Y-89646269D01*
X123699641Y-89412920D01*
X123824825Y-89150099D01*
X123869476Y-89002890D01*
X123748156Y-88773002D01*
X123913000Y-88773002D01*
X123913000Y-88665801D01*
X124970000Y-89722802D01*
X124970000Y-91451644D01*
X124815939Y-91421000D01*
X124612061Y-91421000D01*
X124412102Y-91460774D01*
X124223744Y-91538795D01*
X124054226Y-91652063D01*
X123910063Y-91796226D01*
X123796795Y-91965744D01*
X123789692Y-91982893D01*
X123751802Y-91945003D01*
X123727999Y-91915999D01*
X123720254Y-91909643D01*
X123824825Y-91690099D01*
X123869476Y-91542890D01*
X123748155Y-91313000D01*
X122555000Y-91313000D01*
X122555000Y-91333000D01*
X122301000Y-91333000D01*
X122301000Y-91313000D01*
X122281000Y-91313000D01*
X122281000Y-91059000D01*
X122301000Y-91059000D01*
X122301000Y-88773000D01*
X120015000Y-88773000D01*
X120015000Y-88793000D01*
X119761000Y-88793000D01*
X119761000Y-88773000D01*
X119741000Y-88773000D01*
X119741000Y-88519000D01*
X119761000Y-88519000D01*
X119761000Y-88499000D01*
X120015000Y-88499000D01*
X120015000Y-88519000D01*
G37*
%TD.AperFunction*%
D15*
X122555000Y-85979000D02*
X122575000Y-85979000D01*
X122575000Y-86233000D01*
X122555000Y-86233000D01*
X122555000Y-86253000D01*
X122301000Y-86253000D01*
X122301000Y-86233000D01*
X122281000Y-86233000D01*
X122281000Y-85979000D01*
X122301000Y-85979000D01*
X122301000Y-85959000D01*
X122555000Y-85959000D01*
X122555000Y-85979000D01*
%TA.AperFunction,Conductor*%
D16*
G36*
X122555000Y-85979000D02*
G01*
X122575000Y-85979000D01*
X122575000Y-86233000D01*
X122555000Y-86233000D01*
X122555000Y-86253000D01*
X122301000Y-86253000D01*
X122301000Y-86233000D01*
X122281000Y-86233000D01*
X122281000Y-85979000D01*
X122301000Y-85979000D01*
X122301000Y-85959000D01*
X122555000Y-85959000D01*
X122555000Y-85979000D01*
G37*
%TD.AperFunction*%
D15*
X126410863Y-85575666D02*
X126255744Y-85639919D01*
X126086226Y-85753187D01*
X125942063Y-85897350D01*
X125898840Y-85962038D01*
X124261804Y-84325003D01*
X124238001Y-84295999D01*
X124122276Y-84201026D01*
X123990247Y-84130454D01*
X123846986Y-84086997D01*
X123818130Y-84084155D01*
X123824825Y-84070099D01*
X123869476Y-83922890D01*
X123748155Y-83693000D01*
X122555000Y-83693000D01*
X122555000Y-83713000D01*
X122301000Y-83713000D01*
X122301000Y-83693000D01*
X122281000Y-83693000D01*
X122281000Y-83439000D01*
X122301000Y-83439000D01*
X122301000Y-83419000D01*
X122555000Y-83419000D01*
X122555000Y-83439000D01*
X123748155Y-83439000D01*
X123869476Y-83209110D01*
X123824825Y-83061901D01*
X123822014Y-83056000D01*
X123891199Y-83056000D01*
X126410863Y-85575666D01*
%TA.AperFunction,Conductor*%
D16*
G36*
X126410863Y-85575666D02*
G01*
X126255744Y-85639919D01*
X126086226Y-85753187D01*
X125942063Y-85897350D01*
X125898840Y-85962038D01*
X124261804Y-84325003D01*
X124238001Y-84295999D01*
X124122276Y-84201026D01*
X123990247Y-84130454D01*
X123846986Y-84086997D01*
X123818130Y-84084155D01*
X123824825Y-84070099D01*
X123869476Y-83922890D01*
X123748155Y-83693000D01*
X122555000Y-83693000D01*
X122555000Y-83713000D01*
X122301000Y-83713000D01*
X122301000Y-83693000D01*
X122281000Y-83693000D01*
X122281000Y-83439000D01*
X122301000Y-83439000D01*
X122301000Y-83419000D01*
X122555000Y-83419000D01*
X122555000Y-83439000D01*
X123748155Y-83439000D01*
X123869476Y-83209110D01*
X123824825Y-83061901D01*
X123822014Y-83056000D01*
X123891199Y-83056000D01*
X126410863Y-85575666D01*
G37*
%TD.AperFunction*%
D15*
X127623543Y-83554264D02*
X127460102Y-83586774D01*
X127271744Y-83664795D01*
X127102226Y-83778063D01*
X126958063Y-83922226D01*
X126937621Y-83952819D01*
X124769804Y-81785003D01*
X124746001Y-81755999D01*
X124630276Y-81661026D01*
X124498247Y-81590454D01*
X124354986Y-81546997D01*
X124243333Y-81536000D01*
X124243322Y-81536000D01*
X124206000Y-81532324D01*
X124168678Y-81536000D01*
X123822014Y-81536000D01*
X123824825Y-81530099D01*
X123869476Y-81382890D01*
X123748155Y-81153000D01*
X122555000Y-81153000D01*
X122555000Y-81173000D01*
X122301000Y-81173000D01*
X122301000Y-81153000D01*
X122281000Y-81153000D01*
X122281000Y-80899000D01*
X122301000Y-80899000D01*
X122301000Y-80879000D01*
X122555000Y-80879000D01*
X122555000Y-80899000D01*
X123748155Y-80899000D01*
X123869476Y-80669110D01*
X123824825Y-80521901D01*
X123822014Y-80516000D01*
X124585280Y-80516000D01*
X127623543Y-83554264D01*
%TA.AperFunction,Conductor*%
D16*
G36*
X127623543Y-83554264D02*
G01*
X127460102Y-83586774D01*
X127271744Y-83664795D01*
X127102226Y-83778063D01*
X126958063Y-83922226D01*
X126937621Y-83952819D01*
X124769804Y-81785003D01*
X124746001Y-81755999D01*
X124630276Y-81661026D01*
X124498247Y-81590454D01*
X124354986Y-81546997D01*
X124243333Y-81536000D01*
X124243322Y-81536000D01*
X124206000Y-81532324D01*
X124168678Y-81536000D01*
X123822014Y-81536000D01*
X123824825Y-81530099D01*
X123869476Y-81382890D01*
X123748155Y-81153000D01*
X122555000Y-81153000D01*
X122555000Y-81173000D01*
X122301000Y-81173000D01*
X122301000Y-81153000D01*
X122281000Y-81153000D01*
X122281000Y-80899000D01*
X122301000Y-80899000D01*
X122301000Y-80879000D01*
X122555000Y-80879000D01*
X122555000Y-80899000D01*
X123748155Y-80899000D01*
X123869476Y-80669110D01*
X123824825Y-80521901D01*
X123822014Y-80516000D01*
X124585280Y-80516000D01*
X127623543Y-83554264D01*
G37*
%TD.AperFunction*%
D15*
X128397608Y-81212410D02*
X128359216Y-81238063D01*
X128215053Y-81382226D01*
X128101785Y-81551744D01*
X128023764Y-81740102D01*
X128013016Y-81794134D01*
X125463885Y-79245003D01*
X125440082Y-79215999D01*
X125324357Y-79121026D01*
X125192328Y-79050454D01*
X125049067Y-79006997D01*
X124937414Y-78996000D01*
X124937403Y-78996000D01*
X124900081Y-78992324D01*
X124862759Y-78996000D01*
X123822014Y-78996000D01*
X123824825Y-78990099D01*
X123869476Y-78842890D01*
X123748155Y-78613000D01*
X122555000Y-78613000D01*
X122555000Y-78633000D01*
X122301000Y-78633000D01*
X122301000Y-78613000D01*
X122281000Y-78613000D01*
X122281000Y-78359000D01*
X122301000Y-78359000D01*
X122301000Y-78339000D01*
X122555000Y-78339000D01*
X122555000Y-78359000D01*
X123748155Y-78359000D01*
X123869476Y-78129110D01*
X123824825Y-77981901D01*
X123822014Y-77976000D01*
X125161199Y-77976000D01*
X128397608Y-81212410D01*
%TA.AperFunction,Conductor*%
D16*
G36*
X128397608Y-81212410D02*
G01*
X128359216Y-81238063D01*
X128215053Y-81382226D01*
X128101785Y-81551744D01*
X128023764Y-81740102D01*
X128013016Y-81794134D01*
X125463885Y-79245003D01*
X125440082Y-79215999D01*
X125324357Y-79121026D01*
X125192328Y-79050454D01*
X125049067Y-79006997D01*
X124937414Y-78996000D01*
X124937403Y-78996000D01*
X124900081Y-78992324D01*
X124862759Y-78996000D01*
X123822014Y-78996000D01*
X123824825Y-78990099D01*
X123869476Y-78842890D01*
X123748155Y-78613000D01*
X122555000Y-78613000D01*
X122555000Y-78633000D01*
X122301000Y-78633000D01*
X122301000Y-78613000D01*
X122281000Y-78613000D01*
X122281000Y-78359000D01*
X122301000Y-78359000D01*
X122301000Y-78339000D01*
X122555000Y-78339000D01*
X122555000Y-78359000D01*
X123748155Y-78359000D01*
X123869476Y-78129110D01*
X123824825Y-77981901D01*
X123822014Y-77976000D01*
X125161199Y-77976000D01*
X128397608Y-81212410D01*
G37*
%TD.AperFunction*%
D15*
X128910819Y-78931621D02*
X128880226Y-78952063D01*
X128736063Y-79096226D01*
X128622795Y-79265744D01*
X128616278Y-79281477D01*
X126039804Y-76705003D01*
X126016001Y-76675999D01*
X125900276Y-76581026D01*
X125768247Y-76510454D01*
X125624986Y-76466997D01*
X125513333Y-76456000D01*
X125513322Y-76456000D01*
X125476000Y-76452324D01*
X125438678Y-76456000D01*
X123822014Y-76456000D01*
X123824825Y-76450099D01*
X123869476Y-76302890D01*
X123748155Y-76073000D01*
X122555000Y-76073000D01*
X122555000Y-76093000D01*
X122301000Y-76093000D01*
X122301000Y-76073000D01*
X122281000Y-76073000D01*
X122281000Y-75819000D01*
X122301000Y-75819000D01*
X122301000Y-75799000D01*
X122555000Y-75799000D01*
X122555000Y-75819000D01*
X123748155Y-75819000D01*
X123869476Y-75589110D01*
X123824825Y-75441901D01*
X123800581Y-75391001D01*
X125370200Y-75391001D01*
X128910819Y-78931621D01*
%TA.AperFunction,Conductor*%
D16*
G36*
X128910819Y-78931621D02*
G01*
X128880226Y-78952063D01*
X128736063Y-79096226D01*
X128622795Y-79265744D01*
X128616278Y-79281477D01*
X126039804Y-76705003D01*
X126016001Y-76675999D01*
X125900276Y-76581026D01*
X125768247Y-76510454D01*
X125624986Y-76466997D01*
X125513333Y-76456000D01*
X125513322Y-76456000D01*
X125476000Y-76452324D01*
X125438678Y-76456000D01*
X123822014Y-76456000D01*
X123824825Y-76450099D01*
X123869476Y-76302890D01*
X123748155Y-76073000D01*
X122555000Y-76073000D01*
X122555000Y-76093000D01*
X122301000Y-76093000D01*
X122301000Y-76073000D01*
X122281000Y-76073000D01*
X122281000Y-75819000D01*
X122301000Y-75819000D01*
X122301000Y-75799000D01*
X122555000Y-75799000D01*
X122555000Y-75819000D01*
X123748155Y-75819000D01*
X123869476Y-75589110D01*
X123824825Y-75441901D01*
X123800581Y-75391001D01*
X125370200Y-75391001D01*
X128910819Y-78931621D01*
G37*
%TD.AperFunction*%
D15*
X130180819Y-75883621D02*
X130150226Y-75904063D01*
X130006063Y-76048226D01*
X129892795Y-76217744D01*
X129814774Y-76406102D01*
X129775000Y-76606061D01*
X129775000Y-76809939D01*
X129814774Y-77009898D01*
X129892795Y-77198256D01*
X130006063Y-77367774D01*
X130150226Y-77511937D01*
X130319744Y-77625205D01*
X130508102Y-77703226D01*
X130558001Y-77713151D01*
X130558001Y-78429199D01*
X126248805Y-74120004D01*
X126225002Y-74091000D01*
X126109277Y-73996027D01*
X125977248Y-73925455D01*
X125833987Y-73881998D01*
X125722334Y-73871001D01*
X125722323Y-73871001D01*
X125685001Y-73867325D01*
X125647679Y-73871001D01*
X123836684Y-73871001D01*
X123869476Y-73762890D01*
X123748155Y-73533000D01*
X122555000Y-73533000D01*
X122555000Y-73553000D01*
X122301000Y-73553000D01*
X122301000Y-73533000D01*
X122281000Y-73533000D01*
X122281000Y-73279000D01*
X122301000Y-73279000D01*
X122301000Y-73259000D01*
X122555000Y-73259000D01*
X122555000Y-73279000D01*
X123748155Y-73279000D01*
X123869476Y-73049110D01*
X123824825Y-72901901D01*
X123800581Y-72851001D01*
X127148200Y-72851001D01*
X130180819Y-75883621D01*
%TA.AperFunction,Conductor*%
D16*
G36*
X130180819Y-75883621D02*
G01*
X130150226Y-75904063D01*
X130006063Y-76048226D01*
X129892795Y-76217744D01*
X129814774Y-76406102D01*
X129775000Y-76606061D01*
X129775000Y-76809939D01*
X129814774Y-77009898D01*
X129892795Y-77198256D01*
X130006063Y-77367774D01*
X130150226Y-77511937D01*
X130319744Y-77625205D01*
X130508102Y-77703226D01*
X130558001Y-77713151D01*
X130558001Y-78429199D01*
X126248805Y-74120004D01*
X126225002Y-74091000D01*
X126109277Y-73996027D01*
X125977248Y-73925455D01*
X125833987Y-73881998D01*
X125722334Y-73871001D01*
X125722323Y-73871001D01*
X125685001Y-73867325D01*
X125647679Y-73871001D01*
X123836684Y-73871001D01*
X123869476Y-73762890D01*
X123748155Y-73533000D01*
X122555000Y-73533000D01*
X122555000Y-73553000D01*
X122301000Y-73553000D01*
X122301000Y-73533000D01*
X122281000Y-73533000D01*
X122281000Y-73279000D01*
X122301000Y-73279000D01*
X122301000Y-73259000D01*
X122555000Y-73259000D01*
X122555000Y-73279000D01*
X123748155Y-73279000D01*
X123869476Y-73049110D01*
X123824825Y-72901901D01*
X123800581Y-72851001D01*
X127148200Y-72851001D01*
X130180819Y-75883621D01*
G37*
%TD.AperFunction*%
D15*
X127083612Y-71331001D02*
X123836684Y-71331001D01*
X123869476Y-71222890D01*
X123748155Y-70993000D01*
X122555000Y-70993000D01*
X122555000Y-71013000D01*
X122301000Y-71013000D01*
X122301000Y-70993000D01*
X122281000Y-70993000D01*
X122281000Y-70739000D01*
X122301000Y-70739000D01*
X122301000Y-70719000D01*
X122555000Y-70719000D01*
X122555000Y-70739000D01*
X123748155Y-70739000D01*
X123869476Y-70509110D01*
X123824825Y-70361901D01*
X123822014Y-70356000D01*
X126108611Y-70356000D01*
X127083612Y-71331001D01*
%TA.AperFunction,Conductor*%
D16*
G36*
X127083612Y-71331001D02*
G01*
X123836684Y-71331001D01*
X123869476Y-71222890D01*
X123748155Y-70993000D01*
X122555000Y-70993000D01*
X122555000Y-71013000D01*
X122301000Y-71013000D01*
X122301000Y-70993000D01*
X122281000Y-70993000D01*
X122281000Y-70739000D01*
X122301000Y-70739000D01*
X122301000Y-70719000D01*
X122555000Y-70719000D01*
X122555000Y-70739000D01*
X123748155Y-70739000D01*
X123869476Y-70509110D01*
X123824825Y-70361901D01*
X123822014Y-70356000D01*
X126108611Y-70356000D01*
X127083612Y-71331001D01*
G37*
%TD.AperFunction*%
%TD*%
M02*
