%TF.GenerationSoftware,KiCad,Pcbnew,(5.1.8-0-10_14)*%
%TF.CreationDate,2021-06-08T16:32:41-06:00*%
%TF.ProjectId,scsi-50-flipper,73637369-2d35-4302-9d66-6c6970706572,rev?*%
%TF.SameCoordinates,Original*%
%TF.FileFunction,Soldermask,Bot*%
%TF.FilePolarity,Negative*%
%FSLAX46Y46*%
G04 Gerber Fmt 4.6, Leading zero omitted, Abs format (unit mm)*
G04 Created by KiCad (PCBNEW (5.1.8-0-10_14)) date 2021-06-08 16:32:41*
%MOMM*%
%LPD*%
G01*
G04 APERTURE LIST*
%ADD10R,4.250000X1.524000*%
%ADD11O,1.700000X1.700000*%
%ADD12R,1.700000X1.700000*%
G04 APERTURE END LIST*
D10*
%TO.C,J2*%
X135890000Y-129286000D03*
X135890000Y-126746000D03*
X135890000Y-124206000D03*
X135890000Y-121666000D03*
X135890000Y-119126000D03*
X135890000Y-116586000D03*
X135890000Y-114046000D03*
X135890000Y-111506000D03*
X135890000Y-108966000D03*
X135890000Y-106426000D03*
X135890000Y-103886000D03*
X135890000Y-101346000D03*
X135890000Y-98806000D03*
X135890000Y-96266000D03*
X135890000Y-93726000D03*
X135890000Y-91186000D03*
X135890000Y-88646000D03*
X135890000Y-86106000D03*
X135890000Y-83566000D03*
X135890000Y-81026000D03*
X135890000Y-78486000D03*
X135890000Y-75946000D03*
X135890000Y-73406000D03*
X135890000Y-70866000D03*
X135890000Y-68326000D03*
%TD*%
D11*
%TO.C,J1*%
X119888000Y-68326000D03*
X122428000Y-68326000D03*
X119888000Y-70866000D03*
X122428000Y-70866000D03*
X119888000Y-73406000D03*
X122428000Y-73406000D03*
X119888000Y-75946000D03*
X122428000Y-75946000D03*
X119888000Y-78486000D03*
X122428000Y-78486000D03*
X119888000Y-81026000D03*
X122428000Y-81026000D03*
X119888000Y-83566000D03*
X122428000Y-83566000D03*
X119888000Y-86106000D03*
X122428000Y-86106000D03*
X119888000Y-88646000D03*
X122428000Y-88646000D03*
X119888000Y-91186000D03*
X122428000Y-91186000D03*
X119888000Y-93726000D03*
X122428000Y-93726000D03*
X119888000Y-96266000D03*
X122428000Y-96266000D03*
X119888000Y-98806000D03*
X122428000Y-98806000D03*
X119888000Y-101346000D03*
X122428000Y-101346000D03*
X119888000Y-103886000D03*
X122428000Y-103886000D03*
X119888000Y-106426000D03*
X122428000Y-106426000D03*
X119888000Y-108966000D03*
X122428000Y-108966000D03*
X119888000Y-111506000D03*
X122428000Y-111506000D03*
X119888000Y-114046000D03*
X122428000Y-114046000D03*
X119888000Y-116586000D03*
X122428000Y-116586000D03*
X119888000Y-119126000D03*
X122428000Y-119126000D03*
X119888000Y-121666000D03*
X122428000Y-121666000D03*
X119888000Y-124206000D03*
X122428000Y-124206000D03*
X119888000Y-126746000D03*
X122428000Y-126746000D03*
X119888000Y-129286000D03*
D12*
X122428000Y-129286000D03*
%TD*%
M02*
